<?xml version="1.0" encoding="utf-8"?>
<!-- Generator: Adobe Illustrator 20.0.0, SVG Export Plug-In . SVG Version: 6.00 Build 0)  -->
<svg version="1.1" id="Layer_1" xmlns="http://www.w3.org/2000/svg" xmlns:xlink="http://www.w3.org/1999/xlink" x="0px" y="0px"
	 viewBox="0 0 194.9 310" style="enable-background:new 0 0 194.9 310;" xml:space="preserve">
<path d="M80.4,310c-5.5-2.4-11.5-2.4-17.2-3.9c-22-6-40.5-16.8-52.1-37.3c-6-10.5-8.6-21.9-8.8-34c-0.1-3.1,0.8-4,3.9-3.9
	c7.3,0.2,14.7,0.1,22,0c2.4,0,3.5,0.5,3.9,3.1c4.3,26.4,16.5,39.2,42.8,45.1c22.2,4.9,44,3.9,64.9-6.1c13.4-6.4,21.7-16.8,22.7-32.1
	c1.1-16.3-6.2-28.3-19.7-36.6c-10.7-6.6-22.6-9.5-35.1-10.3c-14.6-0.9-29.2-0.9-43.6-4.8c-37.9-10.5-61.6-40-63.8-79.4
	c-1.6-29.3,6.1-54.9,28.6-74.6c22.3-19.6,48.9-26.9,78.3-24.5c14.4,1.2,28.2,4.5,40.9,11.8c1.5,0.9,2.6,1.2,3.8-0.3
	C157.6,14.7,164.3,8,169.4,0c0.3,0,0.7,0,1,0c6.2,5,12.3,10.1,18.7,15c2.3,1.8,2.4,2.9,0.5,5c-5.5,6.3-10.7,12.8-16.2,19
	c-2.2,2.5-1.9,4,0.1,6.2c16.8,18.7,23.4,40.8,20.9,65.5c-2.6,25.7-13.9,46.2-36.4,59.9c-4.4,2.7-9.3,4.3-14.2,6.8
	c4.4,1.7,8.3,3.2,12.2,4.8c49.4,21.1,47.3,81.3,12.1,106.7c-12.5,9-26.3,14.7-41.2,18.2c-4.8,1.1-9.8,0.8-14.4,3
	C101.7,310,91.1,310,80.4,310z M97.5,166.3c5.2,0,10.3-0.2,15.4-1.3c24.8-5.4,42.4-19.7,49.1-44.4c6.9-25.4,2.4-49-18.6-66.7
	C125.4,38.6,103.7,35.3,81,40.2c-23.4,5.1-41,18-47.6,41.9c-6.9,24.5-3,47.4,15.5,66.1C62.1,161.6,79.1,166,97.5,166.3z"/>
</svg>
