<?xml version="1.0" encoding="utf-8"?>
<!-- Generator: Adobe Illustrator 20.0.0, SVG Export Plug-In . SVG Version: 6.00 Build 0)  -->
<svg version="1.1" id="Layer_1" xmlns="http://www.w3.org/2000/svg" xmlns:xlink="http://www.w3.org/1999/xlink" x="0px" y="0px"
	 viewBox="0 0 642.4 413.81" style="enable-background:new 0 0 642.4 413.81;" xml:space="preserve">
<g>
	<path d="M600.77,335.65c-0.8-0.46-2.27-0.57-4.64,1.51c-1.67,1.46-3.38,3.67-4.83,6.22c-1.45,2.55-2.48,5.15-2.89,7.33
		c-0.58,3.1,0.26,4.3,1.06,4.76c0.28,0.16,0.63,0.28,1.08,0.28c0.84,0,2.01-0.42,3.56-1.79c1.67-1.46,3.38-3.67,4.83-6.22
		C601.68,342.94,603.26,337.07,600.77,335.65z M597.72,347.04c-1.38,2.42-2.99,4.5-4.54,5.86c-0.96,0.85-1.72,1.25-2.26,1.38
		c-0.03-0.02-0.07-0.05-0.08-0.06c-0.9-0.69-0.46-4.61,2.28-9.42c0.53-0.93,1.97-3.03,3.56-4.69c1.62-1.69,3-2.49,3.87-2.28
		C600.81,339.47,600.05,342.94,597.72,347.04z"/>
	<path d="M511.27,303.38c3.73,5.54,11.36,9.83,20.39,11.47c2.53,0.46,5.03,0.68,7.43,0.68c9.12,0,16.87-3.16,20.13-8.28l0.03,0.01
		c0.13-0.22,0.25-0.45,0.36-0.68c0.48-0.88,0.84-1.81,1.04-2.79c0.61-2.94-0.1-6.04-2.08-8.96c-3.74-5.54-11.36-9.83-20.39-11.47
		c-14.18-2.57-27.19,2.39-29,11.06c-0.02,0.11-0.03,0.21-0.05,0.32c0,0,0,0,0,0l0,0C508.65,297.58,509.37,300.56,511.27,303.38z
		 M531.92,313.45c-8.54-1.55-16-5.71-19.47-10.86c-1.67-2.48-2.32-5.06-1.92-7.51l0,0v-0.03c0-0.02,0.01-0.05,0.01-0.07
		c0.44-2.08,1.62-3.96,3.5-5.57c3.75-3.23,9.86-5,16.6-5c2.34,0,4.76,0.21,7.18,0.65c8.51,1.55,15.95,5.71,19.42,10.86
		c1.75,2.6,2.39,5.33,1.86,7.88c-0.19,0.89-0.52,1.76-0.98,2.58c-0.03,0.05-0.06,0.1-0.09,0.14l-0.02,0v0.03
		C554.22,312.52,543.51,315.56,531.92,313.45z"/>
	<path d="M609.8,261.41l0.92,0.79c0,0,0,0,0,0l0.01,0.01c0.06,0.05,0.12,0.1,0.18,0.15c0.11,0.09,0.22,0.19,0.35,0.28l0.06,0.04
		c4.14,2.52,8.22,3.8,12.12,3.8h0h0c0.18,0,0.37,0,0.55-0.01c0.36-0.01,0.72-0.03,1.08-0.06c0.04,0,0.09-0.01,0.13-0.01
		c0.29-0.02,0.58-0.06,0.86-0.1c0.03,0,0.05-0.01,0.08-0.01c0.25-0.04,0.48-0.08,0.71-0.14c0.04-0.01,0.07-0.02,0.11-0.02
		c0.18-0.04,0.34-0.1,0.5-0.16c0.05-0.02,0.1-0.03,0.15-0.05l0.76-0.29l-0.04-0.07c0.33-0.23,0.6-0.51,0.78-0.87
		c0.54-1.09,0.13-2.55-1.3-4.59c-1.9-2.72-4.3-3.98-7.33-3.88c-3.37,0.12-6.17,0.45-8.32,1c-1.76,0.5-2.71,1.22-2.89,2.2
		c-0.12,0.62,0.1,1.27,0.65,1.95L609.8,261.41z M610.65,259.68c0.03-0.14,0.24-0.63,1.87-1.09c2.04-0.52,4.73-0.84,8-0.95
		c2.5-0.07,4.52,0.98,6.12,3.28c1.4,2,1.35,2.83,1.19,3.14c-0.05,0.1-0.13,0.18-0.23,0.26c-0.13-0.2-0.26-0.4-0.41-0.61
		c-1.9-2.72-4.33-3.99-7.33-3.88c-3.37,0.12-6.17,0.45-8.32,1c-0.06,0.02-0.11,0.04-0.17,0.05
		C610.65,260.18,610.63,259.8,610.65,259.68z"/>
	<path d="M392.93,216.86C392.93,216.86,392.93,216.86,392.93,216.86c-0.06,0.59-0.07,1.18-0.07,1.77c0,0.1,0,0.19,0,0.29
		c0.01,0.59,0.06,1.19,0.13,1.78c0.01,0.05,0.01,0.09,0.02,0.14c0.03,0.25,0.06,0.5,0.11,0.75c0,0,0,0,0,0.01
		c0.07,0.39,0.15,0.78,0.25,1.17c0,0,0,0,0,0c0.16,0.67,0.37,1.35,0.61,2.01c0.22,0.6,0.47,1.19,0.75,1.78
		c0.02,0.04,0.04,0.08,0.06,0.12c0.26,0.54,0.54,1.09,0.85,1.63c0.09,0.16,0.19,0.32,0.28,0.48c0.26,0.42,0.53,0.84,0.81,1.26
		c0.13,0.19,0.26,0.38,0.39,0.56c0.08,0.12,0.16,0.23,0.24,0.35c0.31,0.41,0.63,0.82,0.97,1.23c0.01,0.01,0.02,0.03,0.03,0.04
		c0,0,0,0.01,0.01,0.01c0.48,0.57,0.99,1.14,1.53,1.7c0.13,0.14,0.26,0.28,0.4,0.41c0.54,0.55,1.1,1.09,1.69,1.63
		c0.01,0.01,0.01,0.01,0.02,0.02c0.01,0.01,0.02,0.02,0.03,0.03c0.63,0.56,1.29,1.11,1.96,1.65c0.07,0.05,0.13,0.11,0.2,0.16
		c0.06,0.04,0.11,0.09,0.17,0.13c0.64,0.5,1.31,0.98,1.99,1.46c0.13,0.09,0.26,0.17,0.39,0.26c0.61,0.42,1.24,0.83,1.88,1.23
		c0.22,0.14,0.45,0.28,0.68,0.41c0.59,0.35,1.18,0.7,1.79,1.04c0.23,0.13,0.46,0.26,0.7,0.39c0.73,0.4,1.48,0.78,2.25,1.16
		c0.1,0.05,0.2,0.11,0.31,0.16c0.87,0.42,1.76,0.83,2.66,1.22c0.26,0.11,0.52,0.22,0.78,0.33c0.66,0.28,1.32,0.55,1.99,0.81
		c0.33,0.13,0.67,0.26,1.01,0.38c0.65,0.24,1.3,0.47,1.96,0.7c0.32,0.11,0.65,0.22,0.97,0.33c0.96,0.32,1.93,0.62,2.92,0.91
		c0.12,0.04,0.25,0.07,0.38,0.1c0.89,0.25,1.78,0.49,2.69,0.72c0.34,0.09,0.69,0.17,1.04,0.25c0.72,0.17,1.45,0.34,2.18,0.49
		c0.36,0.08,0.71,0.15,1.07,0.22c0.83,0.17,1.66,0.32,2.5,0.47c0.24,0.04,0.48,0.09,0.73,0.13c1.09,0.18,2.19,0.34,3.3,0.49
		c0.23,0.03,0.47,0.05,0.7,0.08c0.63,0.08,1.26,0.16,1.89,0.22c0.41,0.04,0.81,0.08,1.22,0.12c1.46,0.13,2.92,0.23,4.37,0.3
		c1.48,0.07,2.94,0.1,4.39,0.1c2.17,0,4.31-0.08,6.41-0.23c0.06,0,0.13-0.01,0.19-0.01c0.59-0.04,1.18-0.09,1.77-0.15
		c0.18-0.02,0.36-0.03,0.53-0.05c0.48-0.05,0.96-0.1,1.44-0.15c0.3-0.03,0.61-0.07,0.91-0.11c0.35-0.04,0.7-0.09,1.05-0.14
		c0.47-0.06,0.93-0.13,1.39-0.2c0.18-0.03,0.36-0.06,0.55-0.09c6.47-1.05,12.46-2.81,17.55-5.24c0.06-0.03,0.1-0.08,0.14-0.12
		c0.35-0.17,0.69-0.34,1.03-0.52c0.08-0.01,0.15-0.02,0.23-0.05c2.48-1.28,4.71-2.72,6.63-4.28c3.79-3.06,6.38-6.53,7.68-10.32
		c0.14-0.41,0.26-0.83,0.38-1.25c0.02-0.07,0.04-0.15,0.05-0.22c0.09-0.34,0.16-0.68,0.23-1.03c0.02-0.11,0.04-0.22,0.06-0.33
		c0.07-0.42,0.13-0.84,0.17-1.26c0.49-5.18-1.39-10.49-5.44-15.37c-8.66-10.43-26.27-18.01-45.97-19.79
		c-3.74-0.34-7.42-0.46-10.98-0.37C414.12,191.73,394.32,202.26,392.93,216.86z M394.84,220.21c0.06-0.21,0.13-0.42,0.2-0.64
		c0.07-0.22,0.13-0.44,0.21-0.66c0.08-0.22,0.18-0.44,0.27-0.66c0.08-0.21,0.16-0.41,0.25-0.62c0.1-0.23,0.23-0.45,0.34-0.68
		c0.1-0.19,0.18-0.38,0.29-0.57c0.13-0.24,0.28-0.48,0.43-0.72c0.1-0.17,0.2-0.34,0.31-0.51c0.17-0.26,0.36-0.52,0.54-0.77
		c0.1-0.14,0.2-0.29,0.3-0.43c0.22-0.29,0.46-0.58,0.7-0.86c0.09-0.1,0.17-0.21,0.26-0.31c0.34-0.39,0.69-0.77,1.06-1.15l0.76,10.33
		l-6.11-0.07c-0.03-0.16-0.06-0.33-0.09-0.49c0.03-0.17,0.07-0.34,0.11-0.5C394.73,220.68,394.78,220.44,394.84,220.21z
		 M407.05,236.9c0.32-0.18,0.66-0.36,0.99-0.53c0.19-0.1,0.38-0.2,0.57-0.29c0.37-0.19,0.76-0.37,1.14-0.55
		c0.17-0.08,0.33-0.16,0.5-0.23c0.56-0.25,1.12-0.5,1.7-0.74c9.67-3.96,21.95-5.5,34.55-4.34c0.94,0.09,1.87,0.19,2.8,0.3
		c0.22,0.03,0.43,0.06,0.65,0.09c0.71,0.09,1.41,0.19,2.11,0.3c0.28,0.04,0.55,0.1,0.82,0.14c0.64,0.11,1.27,0.21,1.9,0.33
		c0.3,0.06,0.6,0.12,0.91,0.18c0.59,0.12,1.19,0.23,1.77,0.36c0.33,0.07,0.65,0.16,0.98,0.23c0.55,0.13,1.1,0.25,1.64,0.39
		c0.34,0.09,0.67,0.18,1.01,0.28c0.52,0.14,1.04,0.28,1.55,0.43c0.35,0.1,0.68,0.21,1.03,0.32c0.49,0.15,0.99,0.3,1.48,0.46
		c0.35,0.12,0.7,0.24,1.05,0.36c0.46,0.16,0.93,0.32,1.39,0.48c0.36,0.13,0.71,0.27,1.07,0.41c0.43,0.17,0.87,0.33,1.3,0.51
		c0.36,0.15,0.71,0.3,1.07,0.46c0.41,0.18,0.82,0.35,1.22,0.53c0.36,0.16,0.7,0.33,1.06,0.5c0.38,0.18,0.77,0.36,1.15,0.55
		c0.35,0.18,0.69,0.36,1.04,0.55c0.36,0.19,0.72,0.38,1.08,0.57c0.35,0.19,0.68,0.39,1.02,0.59c0.34,0.2,0.67,0.39,1,0.59
		c0.34,0.21,0.66,0.42,0.99,0.63c0.31,0.2,0.63,0.4,0.94,0.61c0.32,0.22,0.63,0.45,0.95,0.67c0.29,0.21,0.59,0.42,0.88,0.63
		c0.31,0.23,0.6,0.47,0.9,0.71c0.23,0.18,0.47,0.37,0.7,0.55l-0.05,1.03c-10.54,4.91-24.88,6.97-39.43,5.66c0,0-0.01,0-0.01,0
		c-1.06-0.1-2.11-0.22-3.16-0.35c-0.18-0.02-0.36-0.04-0.55-0.06c-1.08-0.14-2.14-0.3-3.2-0.47c-0.28-0.05-0.56-0.1-0.84-0.15
		c-0.77-0.13-1.53-0.27-2.29-0.42c-0.37-0.07-0.74-0.15-1.12-0.23c-0.69-0.15-1.38-0.3-2.07-0.47c-0.35-0.08-0.7-0.16-1.04-0.25
		c-0.93-0.23-1.86-0.48-2.77-0.74c-0.4-0.11-0.8-0.24-1.2-0.36c-0.55-0.17-1.1-0.33-1.65-0.51c-0.46-0.15-0.91-0.3-1.35-0.45
		c-0.49-0.17-0.97-0.34-1.44-0.51c-0.44-0.16-0.89-0.32-1.32-0.49c-0.6-0.23-1.19-0.47-1.77-0.71c-0.61-0.25-1.21-0.51-1.8-0.78
		c-0.45-0.2-0.91-0.41-1.35-0.62c-0.42-0.2-0.83-0.4-1.24-0.6c-0.42-0.21-0.83-0.42-1.24-0.64c-0.39-0.2-0.78-0.41-1.16-0.62
		c-0.48-0.26-0.94-0.54-1.4-0.81c-0.46-0.27-0.91-0.55-1.35-0.83c-0.51-0.32-1.02-0.65-1.51-0.98c-0.31-0.21-0.6-0.42-0.9-0.63
		c-0.22-0.16-0.44-0.32-0.66-0.49c0.12-0.07,0.24-0.15,0.37-0.22C406.65,237.13,406.85,237.01,407.05,236.9z M489.15,212.6
		c0.62,0.48,1.22,0.97,1.79,1.47c0.11,0.09,0.21,0.19,0.32,0.29c0.45,0.4,0.9,0.81,1.32,1.22c0.18,0.17,0.34,0.35,0.51,0.53
		c0.33,0.34,0.66,0.67,0.97,1.02c0.18,0.2,0.35,0.41,0.53,0.62c0.27,0.32,0.55,0.64,0.8,0.96c0.17,0.22,0.34,0.44,0.5,0.67
		c0.23,0.31,0.46,0.62,0.67,0.94c0.16,0.23,0.31,0.47,0.46,0.71c0.19,0.31,0.38,0.61,0.56,0.92c0.14,0.24,0.27,0.49,0.4,0.74
		c0.08,0.16,0.15,0.31,0.23,0.47l-8.51-0.1l-2.34-11.73c0.45,0.32,0.88,0.64,1.31,0.96C488.83,212.36,489,212.48,489.15,212.6z
		 M498.36,232.44c-0.17,0.33-0.35,0.67-0.54,0.99c-0.12,0.2-0.24,0.4-0.37,0.59c-0.12,0.19-0.24,0.37-0.36,0.55
		c-0.15,0.22-0.3,0.44-0.46,0.66c-0.1,0.14-0.21,0.28-0.31,0.41c-0.96,1.24-2.08,2.43-3.39,3.57l-0.23-1.14l-1.36-6.84h7.41h0.15
		c-0.09,0.22-0.19,0.44-0.29,0.66C498.53,232.08,498.45,232.26,498.36,232.44z M490.84,228.68l-0.85-4.24l8.59,0.1l-0.47,5.29h-7.04
		L490.84,228.68z M488.43,223.86l1.03,5.17l0.56,2.82l1.68,8.4c-1.66,1.3-3.55,2.52-5.62,3.62c-0.22-0.2-0.44-0.39-0.67-0.58
		l1.44-27.31l1.08,5.42L488.43,223.86z M400.92,232.95c-0.47-0.49-0.93-0.99-1.35-1.5c-0.04-0.05-0.09-0.1-0.13-0.15
		c-0.01-0.02-0.02-0.03-0.04-0.05h2.05l0.18,2.41c-0.09-0.09-0.19-0.18-0.28-0.27C401.21,233.25,401.06,233.1,400.92,232.95z
		 M397.12,228.02c-0.08-0.13-0.15-0.26-0.23-0.39c-0.28-0.49-0.54-0.98-0.78-1.47c-0.03-0.05-0.05-0.11-0.08-0.16
		c-0.41-0.89-0.73-1.78-1-2.67l5.84,0.07l0.34,4.61l0.14,1.83h-3.03c-0.03-0.05-0.07-0.09-0.11-0.14c-0.09-0.13-0.17-0.26-0.26-0.38
		C397.66,228.88,397.38,228.45,397.12,228.02z M449.96,192.93c19.34,1.75,36.58,9.14,45.01,19.29c3.81,4.58,5.58,9.54,5.12,14.33
		c-0.05,0.48-0.11,0.96-0.2,1.43c-0.04,0.23-0.1,0.45-0.16,0.68c-0.05,0.22-0.1,0.44-0.15,0.65l0.48-5.39
		c0.01-0.11-0.01-0.22-0.05-0.32c0-0.01,0-0.02,0-0.03c-2.23-5.23-6.83-10.22-13.29-14.44c-0.24-0.15-0.55-0.15-0.78,0.01
		c-0.24,0.16-0.35,0.45-0.3,0.72l0.1,0.5l-1.68,31.82c-0.12-0.09-0.24-0.18-0.36-0.27c-0.27-0.21-0.55-0.41-0.82-0.62
		c-0.33-0.24-0.66-0.48-0.99-0.71c-0.29-0.2-0.58-0.4-0.88-0.6c-0.34-0.23-0.69-0.45-1.04-0.67c-0.31-0.19-0.62-0.39-0.93-0.58
		c-0.36-0.21-0.72-0.43-1.08-0.63c-0.33-0.19-0.65-0.37-0.98-0.55c-0.37-0.2-0.75-0.4-1.12-0.6c-0.34-0.18-0.68-0.35-1.03-0.52
		c-0.38-0.19-0.77-0.38-1.17-0.56c-0.35-0.17-0.71-0.33-1.07-0.49c-0.4-0.18-0.8-0.35-1.21-0.53c-0.37-0.16-0.73-0.31-1.11-0.46
		c-0.41-0.17-0.83-0.33-1.25-0.49c-0.38-0.14-0.75-0.29-1.13-0.43c-0.43-0.16-0.87-0.31-1.3-0.46c-0.39-0.13-0.77-0.27-1.16-0.39
		c-0.44-0.14-0.9-0.28-1.35-0.42c-0.39-0.12-0.78-0.24-1.18-0.36c-0.46-0.13-0.93-0.26-1.4-0.39c-0.39-0.11-0.78-0.22-1.18-0.32
		c-0.48-0.12-0.97-0.24-1.46-0.35c-0.39-0.09-0.78-0.19-1.18-0.28c-0.51-0.11-1.02-0.21-1.54-0.32c-0.38-0.08-0.76-0.16-1.15-0.23
		c-0.55-0.1-1.1-0.19-1.65-0.28c-0.36-0.06-0.72-0.13-1.09-0.18c-0.61-0.1-1.24-0.18-1.86-0.26c-0.31-0.04-0.61-0.09-0.92-0.13
		c-0.93-0.12-1.87-0.22-2.81-0.3c-1.28-0.12-2.55-0.2-3.82-0.26c-0.18-0.01-0.36-0.02-0.54-0.03c-1.22-0.05-2.42-0.08-3.63-0.08
		c-0.1,0-0.2-0.01-0.3-0.01c-0.12,0-0.23,0.01-0.35,0.01c-1.11,0-2.21,0.02-3.31,0.07c-0.02,0-0.04,0-0.07,0
		c-1.07,0.05-2.13,0.12-3.19,0.2c-0.22,0.02-0.44,0.03-0.65,0.05c-1.05,0.09-2.1,0.2-3.13,0.34c-0.14,0.02-0.29,0.04-0.43,0.06
		c-0.94,0.13-1.87,0.27-2.78,0.43c-0.18,0.03-0.37,0.06-0.55,0.09c-1,0.18-1.98,0.38-2.95,0.6c-0.19,0.04-0.37,0.09-0.56,0.13
		c-0.89,0.21-1.78,0.43-2.64,0.68c-0.11,0.03-0.22,0.06-0.33,0.09c-0.94,0.27-1.86,0.56-2.76,0.86c-0.19,0.06-0.38,0.13-0.57,0.2
		c-0.91,0.32-1.81,0.65-2.68,1v0c-0.62,0.25-1.22,0.51-1.81,0.79c-0.18,0.08-0.36,0.17-0.54,0.26c-0.4,0.19-0.81,0.38-1.2,0.58
		c-0.22,0.11-0.42,0.22-0.63,0.34c-0.34,0.18-0.69,0.36-1.02,0.55c-0.22,0.12-0.44,0.25-0.65,0.38c-0.23,0.14-0.47,0.27-0.69,0.41
		c-0.59-0.47-1.16-0.94-1.7-1.42l-0.34-4.62l-0.22-2.93l-1.29-17.51c-0.02-0.27-0.19-0.51-0.44-0.61c-0.25-0.1-0.54-0.05-0.74,0.13
		c-0.43,0.39-0.83,0.79-1.23,1.19c-0.11,0.11-0.21,0.22-0.31,0.33c-0.33,0.35-0.65,0.71-0.96,1.07c-0.05,0.06-0.1,0.12-0.15,0.17
		c-0.34,0.41-0.66,0.83-0.96,1.25c-0.08,0.11-0.16,0.22-0.23,0.33c-0.24,0.35-0.47,0.7-0.69,1.06c-0.06,0.09-0.12,0.18-0.17,0.28
		c-0.25,0.43-0.49,0.87-0.7,1.31c-0.05,0.11-0.1,0.21-0.15,0.32c-0.08,0.17-0.17,0.35-0.24,0.52c0.01-0.13,0-0.27,0.01-0.4
		C395.86,201.09,420.8,190.29,449.96,192.93z"/>
	<path d="M312.35,174.54c-0.06,0.43-0.1,0.87-0.12,1.31c-0.02,0.47-0.01,0.94,0.02,1.41c0,0.09,0.01,0.17,0.02,0.26
		c0.04,0.48,0.09,0.96,0.18,1.44c0,0.01,0,0.01,0,0.02c0.05,0.26,0.1,0.52,0.16,0.78l0,0l0.08,0.32c0,0,0,0,0,0
		c0.03,0.1,0.07,0.21,0.1,0.31c0.04,0.14,0.09,0.28,0.13,0.41c0.12,0.37,0.25,0.75,0.4,1.12c0.06,0.14,0.12,0.27,0.18,0.41
		c0.16,0.36,0.32,0.72,0.51,1.08c0.08,0.16,0.17,0.31,0.26,0.47c0.18,0.33,0.37,0.66,0.58,0.98c0.12,0.19,0.25,0.38,0.38,0.56
		c0.12,0.18,0.23,0.36,0.37,0.54c0,0,0,0,0,0c0.09,0.12,0.19,0.24,0.28,0.36c0.11,0.14,0.22,0.28,0.34,0.43
		c0.25,0.31,0.51,0.61,0.78,0.92c0.09,0.1,0.16,0.2,0.25,0.3c0.04,0.04,0.08,0.08,0.12,0.12c0.43,0.47,0.89,0.92,1.38,1.38
		c0.14,0.13,0.28,0.25,0.43,0.38c0.21,0.19,0.42,0.39,0.64,0.58c0.14,0.12,0.29,0.23,0.44,0.35c0.25,0.21,0.51,0.41,0.77,0.61
		c0.29,0.22,0.59,0.44,0.89,0.66c0.32,0.23,0.63,0.46,0.96,0.69c0.02,0.01,0.04,0.03,0.07,0.04c0.96,0.66,1.99,1.28,3.06,1.88
		c0.13,0.07,0.25,0.15,0.38,0.22c0.03,0.01,0.06,0.03,0.08,0.04c1.05,0.58,2.13,1.13,3.26,1.65c0.37,0.17,0.76,0.33,1.14,0.5
		c0.53,0.23,1.07,0.46,1.61,0.68c6.01,2.46,12.76,4.11,20.17,4.92c0.34,0.04,0.69,0.08,1.03,0.11c0.74,0.07,1.48,0.15,2.24,0.2
		c1.31,0.1,2.64,0.19,3.97,0.24c0,0,0.01,0,0.01,0c0.84,0.03,1.86,0.05,3.02,0.06c0.14,0,0.29,0.01,0.43,0.01
		c5.03,0,9.86-0.41,14.4-1.17c0.21-0.03,0.43-0.07,0.64-0.11c0.36-0.06,0.72-0.13,1.07-0.19c5.36-0.99,11.05-2.62,16.3-5.27
		c1.88-0.95,3.62-1.99,5.17-3.09c2.93-2.09,5.19-4.42,6.71-6.91c0.89-1.45,1.52-2.96,1.89-4.49c0.01-0.03,0.01-0.07,0.02-0.1
		c0.03-0.12,0.05-0.25,0.07-0.37c0.06-0.28,0.12-0.57,0.16-0.86c0.06-0.42,0.1-0.85,0.12-1.28c0.02-0.52,0.02-1.04-0.02-1.56
		c-0.25-3.64-1.95-7.26-4.99-10.56c-7.83-8.51-23.52-14.26-41.18-15.18c-0.48-0.03-0.96-0.06-1.45-0.08
		c-0.84-0.03-1.68-0.05-2.51-0.06C334.73,151.76,314.23,161.53,312.35,174.54z M359.75,153.43c0.81,0.01,1.62,0.03,2.44,0.06
		c17.88,0.66,33.84,6.33,41.63,14.81c0.4,0.43,0.77,0.87,1.11,1.3c0.11,0.14,0.21,0.29,0.32,0.43c0.22,0.29,0.44,0.59,0.64,0.88
		c0.12,0.18,0.22,0.36,0.33,0.54c0.16,0.26,0.33,0.53,0.47,0.79c0.11,0.19,0.19,0.39,0.29,0.58c0.13,0.26,0.26,0.51,0.37,0.77
		c0.09,0.2,0.16,0.4,0.23,0.6c0.1,0.25,0.19,0.51,0.27,0.76c0.06,0.2,0.11,0.41,0.17,0.62c0.07,0.25,0.13,0.5,0.18,0.76
		c0.04,0.21,0.07,0.42,0.1,0.63c0.04,0.25,0.07,0.5,0.09,0.76c0.02,0.21,0.03,0.43,0.03,0.64c0,0.13,0,0.27,0,0.4
		c-0.04-0.09-0.09-0.17-0.13-0.26c-0.1-0.21-0.21-0.41-0.32-0.62c-0.13-0.24-0.26-0.47-0.4-0.71c-0.12-0.2-0.24-0.4-0.37-0.6
		c-0.15-0.24-0.31-0.47-0.48-0.7c-0.14-0.19-0.27-0.39-0.42-0.58c-0.18-0.24-0.37-0.47-0.56-0.7c-0.15-0.19-0.3-0.37-0.46-0.55
		c-0.21-0.24-0.43-0.47-0.65-0.71c-0.16-0.17-0.32-0.35-0.5-0.52c-0.24-0.24-0.5-0.49-0.76-0.73c-0.17-0.16-0.33-0.32-0.51-0.48
		c-0.3-0.27-0.62-0.53-0.93-0.79c-0.15-0.13-0.3-0.26-0.46-0.38c-0.49-0.39-0.99-0.77-1.52-1.14c-0.22-0.16-0.51-0.18-0.75-0.05
		c-0.24,0.13-0.38,0.38-0.37,0.65l0.9,22.66c-1.32,0.92-2.77,1.79-4.34,2.59c-0.23-0.13-0.47-0.24-0.71-0.37
		c-0.28-0.14-0.55-0.29-0.83-0.43c-0.29-0.15-0.6-0.29-0.9-0.43c-0.29-0.14-0.58-0.28-0.87-0.41c-0.3-0.14-0.62-0.27-0.93-0.41
		c-0.3-0.13-0.6-0.26-0.9-0.39c-0.31-0.13-0.64-0.26-0.96-0.38c-0.31-0.12-0.62-0.25-0.94-0.37c-0.32-0.12-0.65-0.24-0.97-0.35
		c-0.33-0.12-0.65-0.24-0.98-0.35c-0.33-0.11-0.66-0.22-0.99-0.32c-0.34-0.11-0.67-0.22-1.01-0.33c-0.33-0.1-0.67-0.2-1.01-0.3
		c-0.35-0.1-0.69-0.21-1.04-0.3c-0.34-0.09-0.68-0.18-1.02-0.27c-0.36-0.09-0.71-0.19-1.08-0.28c-0.34-0.08-0.69-0.16-1.04-0.24
		c-0.37-0.09-0.73-0.17-1.1-0.26c-0.35-0.08-0.71-0.15-1.06-0.22c-0.37-0.08-0.74-0.16-1.12-0.23c-0.36-0.07-0.72-0.13-1.08-0.19
		c-0.38-0.07-0.76-0.14-1.14-0.2c-0.36-0.06-0.72-0.11-1.08-0.16c-0.39-0.06-0.78-0.12-1.17-0.18c-0.38-0.05-0.76-0.1-1.14-0.14
		c-0.38-0.05-0.76-0.1-1.14-0.14c-0.4-0.04-0.79-0.08-1.19-0.12c-0.37-0.04-0.74-0.08-1.12-0.11c-0.45-0.04-0.9-0.07-1.35-0.1
		c-0.33-0.02-0.66-0.05-0.99-0.07c-0.78-0.05-1.57-0.09-2.35-0.12c-1.03-0.04-2.06-0.05-3.09-0.06c-0.14,0-0.28-0.01-0.42-0.01
		c-0.22,0-0.43,0.01-0.65,0.01c-0.6,0-1.2,0.02-1.8,0.03c-0.46,0.01-0.91,0.02-1.37,0.04c-0.38,0.02-0.75,0.04-1.12,0.06
		c-1.28,0.07-2.54,0.16-3.79,0.28c-0.05,0.01-0.11,0.01-0.16,0.01c-0.78,0.08-1.55,0.17-2.32,0.26c-0.03,0-0.06,0.01-0.09,0.01
		c-3.08,0.39-6.07,0.95-8.93,1.66c-0.16,0.04-0.32,0.08-0.47,0.12c-0.63,0.16-1.25,0.32-1.86,0.5c-0.08,0.02-0.15,0.05-0.23,0.07
		c-0.71,0.21-1.42,0.41-2.11,0.64c-1.96,0.64-3.83,1.36-5.58,2.15c-0.16,0.07-0.32,0.15-0.48,0.23c-0.36,0.16-0.71,0.33-1.06,0.5
		c-1.44-0.81-2.77-1.67-4-2.57c-0.22-0.16-0.45-0.33-0.67-0.49c-0.27-0.21-0.54-0.42-0.79-0.63c-0.09-0.07-0.17-0.15-0.26-0.22
		l1.05-20.7c0.01-0.27-0.13-0.53-0.37-0.66c-0.24-0.13-0.53-0.11-0.76,0.05c-0.5,0.37-0.98,0.74-1.44,1.13
		c-0.14,0.11-0.27,0.23-0.4,0.35c-0.33,0.28-0.65,0.57-0.95,0.86c-0.13,0.12-0.26,0.25-0.39,0.37c-0.36,0.35-0.7,0.71-1.03,1.08
		c-0.04,0.05-0.09,0.1-0.13,0.14c-0.36,0.41-0.7,0.83-1.01,1.25c-0.09,0.12-0.18,0.25-0.27,0.37c-0.23,0.31-0.44,0.63-0.64,0.95
		c-0.09,0.14-0.17,0.27-0.25,0.41c-0.22,0.36-0.41,0.73-0.6,1.1c-0.04,0.08-0.08,0.15-0.12,0.23c0,0.01-0.01,0.02-0.01,0.03
		c0-0.19-0.01-0.39-0.01-0.58c0.04-0.83,0.16-1.65,0.36-2.46C316.91,161.78,336.34,153.18,359.75,153.43z M359.91,201.82
		c0,0-0.01,0-0.01,0c-1.28-0.05-2.53-0.13-3.78-0.22c-0.76-0.06-1.51-0.13-2.26-0.2c-0.32-0.03-0.64-0.07-0.95-0.1
		c-7.04-0.8-13.62-2.38-19.32-4.6c-0.48-0.19-0.97-0.38-1.45-0.58c-0.33-0.14-0.64-0.28-0.96-0.42c-1-0.45-1.98-0.91-2.93-1.4
		c0.07-0.03,0.14-0.07,0.21-0.1c0.31-0.14,0.63-0.28,0.95-0.42c0.26-0.11,0.51-0.22,0.77-0.33c0.39-0.16,0.79-0.32,1.19-0.47
		c0.19-0.07,0.37-0.15,0.56-0.22c0.51-0.19,1.03-0.37,1.55-0.55c0.08-0.03,0.16-0.06,0.25-0.09c0.4-0.14,0.82-0.26,1.23-0.39
		c0.49-0.15,0.99-0.3,1.49-0.45c0.83-0.24,1.67-0.46,2.53-0.67c0.27-0.07,0.53-0.13,0.8-0.2c0.64-0.15,1.28-0.29,1.93-0.42
		c0.06-0.01,0.12-0.02,0.18-0.04c1.32-0.27,2.66-0.5,4.03-0.7c0.09-0.01,0.18-0.03,0.27-0.04c2-0.29,4.04-0.51,6.12-0.66
		c0.44-0.03,0.88-0.06,1.33-0.08c0.5-0.03,1.01-0.06,1.51-0.08c0.94-0.04,1.88-0.06,2.83-0.07c0.33,0,0.66,0,0.99,0
		c1.07,0,2.14,0.01,3.21,0.05c0.76,0.03,1.53,0.07,2.28,0.11c0.23,0.01,0.46,0.03,0.69,0.05c0.52,0.04,1.05,0.07,1.57,0.12
		c0.28,0.02,0.55,0.05,0.83,0.08c0.47,0.04,0.94,0.09,1.41,0.14c0.3,0.03,0.59,0.07,0.88,0.11c0.44,0.05,0.89,0.11,1.33,0.17
		c0.3,0.04,0.6,0.09,0.91,0.13c0.43,0.06,0.85,0.12,1.27,0.19c0.31,0.05,0.61,0.1,0.91,0.16c0.41,0.07,0.83,0.14,1.23,0.22
		c0.31,0.06,0.61,0.12,0.91,0.18c0.4,0.08,0.8,0.16,1.2,0.25c0.3,0.07,0.6,0.13,0.9,0.2c0.39,0.09,0.78,0.18,1.17,0.27
		c0.3,0.07,0.59,0.15,0.89,0.22c0.38,0.1,0.76,0.2,1.14,0.3c0.29,0.08,0.58,0.16,0.88,0.25c0.37,0.11,0.74,0.22,1.11,0.33
		c0.29,0.09,0.58,0.18,0.86,0.27c0.36,0.12,0.72,0.23,1.08,0.35c0.28,0.1,0.56,0.19,0.84,0.29c0.35,0.12,0.7,0.25,1.04,0.38
		c0.28,0.1,0.55,0.21,0.83,0.31c0.34,0.13,0.68,0.27,1.01,0.4c0.27,0.11,0.54,0.22,0.8,0.33c0.33,0.14,0.66,0.28,0.98,0.43
		c0.26,0.12,0.52,0.23,0.77,0.35c0.32,0.15,0.63,0.3,0.95,0.45c0.25,0.12,0.5,0.24,0.75,0.37c0.08,0.04,0.15,0.08,0.23,0.12
		c-11.69,5.46-25.26,6.07-32.13,5.96C361.11,201.85,360.52,201.84,359.91,201.82z M401.52,172.28c0.13,0.11,0.24,0.22,0.37,0.33
		c0.25,0.22,0.5,0.44,0.73,0.67c0.14,0.13,0.27,0.27,0.41,0.4c0.21,0.21,0.41,0.41,0.61,0.62c0.14,0.14,0.27,0.29,0.4,0.44
		c0.18,0.2,0.36,0.41,0.53,0.61c0.13,0.15,0.25,0.3,0.37,0.45c0.16,0.2,0.31,0.41,0.46,0.61c0.11,0.15,0.22,0.31,0.33,0.46
		c0.14,0.21,0.28,0.41,0.41,0.62c0.1,0.15,0.2,0.31,0.29,0.46c0.13,0.22,0.24,0.43,0.36,0.65c0.08,0.15,0.16,0.29,0.23,0.44
		c0.01,0.03,0.03,0.06,0.04,0.09l-6.41,0l-0.31-7.85C400.75,171.63,401.14,171.95,401.52,172.28z M407.58,183.43
		c-0.06,0.15-0.12,0.3-0.18,0.45c-0.09,0.22-0.19,0.43-0.29,0.64c-0.04,0.08-0.08,0.16-0.12,0.23c-0.12,0.24-0.25,0.48-0.38,0.72
		l-5.7-0.04l-0.19-4.87l6.95,0c0.02,0.06,0.05,0.13,0.07,0.19c0.11,0.31,0.21,0.63,0.29,0.94c0.02,0.07,0.04,0.14,0.06,0.21
		c-0.08,0.33-0.18,0.66-0.29,0.98C407.71,183.07,407.65,183.25,407.58,183.43z M401.02,188.48l-0.06-1.63l4.73,0.03
		c-1.17,1.63-2.69,3.18-4.55,4.63L401.02,188.48z M318.04,186.74c-0.14-0.15-0.26-0.31-0.39-0.46l2.08,0.01l-0.02,0.35l-0.09,1.71
		c-0.42-0.4-0.84-0.81-1.22-1.22C318.28,187.01,318.16,186.87,318.04,186.74z M315.25,182.78c-0.08-0.15-0.15-0.31-0.22-0.46
		c-0.21-0.43-0.39-0.86-0.55-1.3c-0.05-0.14-0.1-0.27-0.15-0.41l1.43,0l4.25,0l-0.17,3.38l-0.04,0.88l-3.26-0.02
		c-0.06-0.08-0.12-0.17-0.18-0.25c-0.13-0.19-0.26-0.38-0.38-0.58c-0.13-0.2-0.24-0.4-0.36-0.6
		C315.49,183.21,315.36,182.99,315.25,182.78z M314.45,178.27c0.08-0.22,0.17-0.44,0.27-0.66c0.08-0.18,0.16-0.37,0.24-0.55
		c0.11-0.22,0.22-0.44,0.34-0.66c0.1-0.18,0.19-0.36,0.29-0.53c0.13-0.22,0.27-0.44,0.42-0.65c0.11-0.17,0.22-0.34,0.34-0.51
		c0.16-0.22,0.33-0.44,0.5-0.66c0.13-0.16,0.25-0.32,0.38-0.48c0.19-0.23,0.39-0.45,0.59-0.67c0.13-0.15,0.26-0.3,0.4-0.44
		c0.23-0.24,0.48-0.48,0.73-0.72c0.13-0.12,0.24-0.25,0.37-0.37c0.39-0.36,0.79-0.71,1.22-1.05l-0.45,8.88l-5.94,0
		c0.03-0.12,0.07-0.24,0.11-0.36C314.31,178.65,314.38,178.46,314.45,178.27z"/>
	<path d="M99.77,62.45c0.04,0.31,0.12,0.6,0.21,0.9c0.02,0.05,0.03,0.11,0.05,0.16c0.09,0.28,0.21,0.56,0.35,0.83
		c0.03,0.05,0.06,0.11,0.09,0.16c0.15,0.28,0.31,0.55,0.51,0.82c0.02,0.02,0.04,0.05,0.05,0.07c0.19,0.25,0.4,0.5,0.62,0.75
		c0.03,0.03,0.05,0.06,0.08,0.09c0.02,0.02,0.04,0.04,0.06,0.06c0.16,0.16,0.32,0.32,0.5,0.48c0.02,0.02,0.04,0.04,0.07,0.06
		c0.21,0.19,0.44,0.37,0.67,0.55c0.03,0.02,0.06,0.05,0.09,0.07c0.22,0.17,0.45,0.33,0.68,0.49c0.02,0.01,0.04,0.03,0.06,0.04
		c4.82,3.21,13.46,5.1,23.84,5.1c3.16,0,6.48-0.17,9.89-0.54c1.87-0.2,3.7-0.45,5.49-0.75c12.49-2.08,22.67-6.43,26.7-11.6
		c0.72-0.92,1.22-1.84,1.51-2.77c0.28-0.9,0.36-1.8,0.24-2.7c-0.39-2.77-2.74-5.12-6.51-6.9c-6.84-3.23-18.34-4.59-31.31-3.21
		c-14.95,1.6-27.58,6.44-32.18,12.35c-0.88,1.13-1.45,2.28-1.68,3.42c-0.09,0.46-0.14,0.91-0.12,1.37
		C99.72,61.99,99.74,62.22,99.77,62.45z M105.57,61.27c0.25-0.24,0.51-0.48,0.8-0.72c0.12-0.1,0.25-0.21,0.37-0.31
		c0.27-0.22,0.55-0.43,0.85-0.65c0.13-0.09,0.26-0.19,0.39-0.28c0.42-0.29,0.86-0.58,1.32-0.86c0.02-0.01,0.04-0.03,0.06-0.04
		c0.48-0.29,0.98-0.57,1.5-0.85c0.17-0.09,0.34-0.18,0.52-0.27c0.38-0.2,0.77-0.39,1.18-0.58c0.2-0.09,0.39-0.19,0.59-0.28
		c0.45-0.21,0.91-0.41,1.39-0.61c0.15-0.06,0.3-0.13,0.45-0.19c0.04-0.02,0.08-0.03,0.13-0.05l-5.27,5.88l-1.08,0.02l-3.48,0.08
		c0.02-0.02,0.04-0.04,0.06-0.06C105.42,61.42,105.5,61.34,105.57,61.27z M103.84,66.24c-0.01-0.01-0.03-0.02-0.04-0.03l1.82-0.04
		l-0.72,0.8c-0.05-0.03-0.1-0.06-0.15-0.09C104.43,66.67,104.12,66.46,103.84,66.24z M104.82,64.77l-0.29-1.78l5.05-0.11l1.26,6.63
		c-0.71-0.21-1.39-0.44-2.04-0.67l-0.1-0.42v0l-0.77-3.16c0-0.02-0.02-0.04-0.02-0.05c-0.01-0.02-0.01-0.05-0.02-0.07
		c-0.01-0.01-0.02-0.03-0.03-0.04c-0.02-0.03-0.04-0.06-0.06-0.09c-0.01-0.02-0.03-0.04-0.04-0.05c-0.01-0.01-0.02-0.02-0.03-0.03
		c-0.02-0.02-0.04-0.04-0.07-0.05c-0.05-0.04-0.11-0.07-0.17-0.09c0,0,0,0,0,0c-0.02-0.01-0.04-0.02-0.05-0.02c0,0-0.01,0-0.01-0.01
		c-0.01,0-0.02,0-0.03,0c-0.05-0.01-0.11-0.02-0.16-0.02L104.82,64.77z M106.87,66.9l0.31,1.28c-0.36-0.16-0.69-0.32-1.02-0.49
		L106.87,66.9z M110.93,62.37l0.95-1.06l5.27-5.88l3.05,15.83c-2.85-0.29-5.49-0.74-7.84-1.34L110.93,62.37z M118.8,48.99
		c2.27-0.68,4.68-1.27,7.21-1.77c2.52-0.5,5.15-0.9,7.84-1.19c0.72-0.08,1.43-0.14,2.14-0.2c0.22-0.02,0.43-0.03,0.64-0.05
		c0.53-0.04,1.07-0.08,1.6-0.11c0.19-0.01,0.39-0.02,0.58-0.03c0.69-0.04,1.37-0.06,2.04-0.08c0.16,0,0.33-0.01,0.49-0.01
		c0.53-0.01,1.06-0.02,1.59-0.02c0.29,0,0.57,0,0.86,0c0.16,0,0.31,0,0.47,0c0.39,0,0.77,0.01,1.15,0.02c0.12,0,0.24,0.01,0.36,0.01
		c1.01,0.03,2,0.08,2.97,0.15c0.11,0.01,0.22,0.02,0.33,0.02c0.37,0.03,0.74,0.06,1.1,0.09c0.14,0.01,0.28,0.03,0.43,0.04
		c0.33,0.03,0.67,0.07,0.99,0.1c0.14,0.02,0.28,0.03,0.42,0.05c0.36,0.04,0.71,0.09,1.06,0.13c0.1,0.01,0.19,0.02,0.29,0.04
		c0.45,0.06,0.9,0.13,1.34,0.2c0.01,0,0.02,0,0.04,0.01c0.42,0.07,0.82,0.14,1.23,0.21c0.12,0.02,0.23,0.04,0.35,0.07
		c0.3,0.06,0.59,0.12,0.89,0.18c0.13,0.03,0.26,0.06,0.39,0.08c0.28,0.06,0.55,0.12,0.82,0.19c0.12,0.03,0.25,0.06,0.37,0.09
		c0.3,0.07,0.59,0.15,0.87,0.23c0.08,0.02,0.17,0.04,0.25,0.07c0.37,0.1,0.73,0.21,1.08,0.32c0.06,0.02,0.12,0.04,0.18,0.06
		c0.29,0.09,0.57,0.19,0.85,0.28c0.11,0.04,0.21,0.08,0.32,0.11c0.22,0.08,0.44,0.16,0.66,0.25c0.11,0.04,0.22,0.09,0.33,0.13
		c0.21,0.08,0.41,0.17,0.61,0.26c0.1,0.04,0.2,0.09,0.3,0.13c0.23,0.11,0.46,0.22,0.68,0.33c0.05,0.03,0.11,0.05,0.16,0.08
		c0.27,0.14,0.54,0.28,0.79,0.43c0.06,0.04,0.12,0.07,0.18,0.11c0.19,0.11,0.37,0.22,0.55,0.34c0.08,0.05,0.16,0.1,0.23,0.16
		c0.15,0.1,0.3,0.21,0.44,0.31c0.08,0.06,0.15,0.11,0.22,0.17c0.14,0.11,0.27,0.22,0.4,0.33c0.06,0.05,0.12,0.1,0.18,0.16
		c0.16,0.15,0.32,0.3,0.47,0.45c0.02,0.02,0.03,0.03,0.05,0.05c0.16,0.17,0.31,0.35,0.45,0.52c0.04,0.05,0.07,0.09,0.1,0.14
		c0.1,0.13,0.19,0.26,0.27,0.4c0.04,0.06,0.07,0.12,0.11,0.19c0.07,0.12,0.14,0.25,0.2,0.38c0.03,0.06,0.06,0.13,0.09,0.19
		c0.06,0.14,0.11,0.27,0.15,0.41c0.02,0.05,0.04,0.11,0.05,0.16c0.05,0.19,0.1,0.39,0.13,0.59c0.2,1.42-0.29,2.9-1.46,4.4
		c-4.31,5.53-16.86,10.28-31.22,11.81c-1.29,0.14-2.58,0.24-3.86,0.33c-0.15,0.01-0.3,0.02-0.45,0.03c-1.1,0.07-2.19,0.11-3.27,0.13
		c-0.29,0.01-0.58,0.01-0.87,0.02c-0.87,0.01-1.72,0-2.57-0.01c-0.73-0.01-1.45-0.04-2.16-0.07c-0.24-0.01-0.48-0.03-0.72-0.04
		c-0.63-0.04-1.25-0.08-1.86-0.13l-3.4-17.64c0-0.01-0.01-0.01-0.01-0.02c-0.02-0.08-0.05-0.17-0.1-0.24c0,0-0.01-0.01-0.01-0.01
		c-0.01-0.01-0.02-0.02-0.04-0.04c0,0-0.01-0.01-0.01-0.01c-0.01-0.02-0.03-0.03-0.05-0.05c-0.03-0.03-0.07-0.06-0.11-0.09
		c-0.01-0.01-0.02-0.02-0.03-0.02c-0.02-0.01-0.03-0.01-0.05-0.02c-0.03-0.02-0.07-0.03-0.1-0.05c0,0-0.01-0.01-0.01-0.01
		c-0.01,0-0.02,0-0.03,0c-0.01,0-0.03,0-0.04-0.01c-0.03-0.01-0.05-0.01-0.08-0.01c-0.07,0-0.14,0-0.21,0.02
		c-0.01,0-0.02,0-0.04,0.01c-0.01,0-0.02,0-0.02,0c-6.74,2.34-11.77,5.4-14.19,8.62l0,0l0,0c-0.01,0.01-0.02,0.02-0.02,0.03
		c-0.04,0.05-0.05,0.11-0.08,0.16c-0.01,0.03-0.03,0.05-0.04,0.08c-0.01,0.03,0,0.05-0.01,0.08c0,0.03,0,0.06,0,0.1
		c0,0.04-0.01,0.08,0,0.11l0.38,2.39l-0.33,0.01l-0.69,0.02c-0.01-0.02-0.03-0.03-0.04-0.05c-0.12-0.15-0.23-0.3-0.33-0.46
		c-0.03-0.05-0.07-0.1-0.1-0.15c-0.1-0.16-0.19-0.32-0.27-0.49c-0.02-0.05-0.05-0.09-0.07-0.14c-0.08-0.17-0.14-0.34-0.2-0.52
		c-0.01-0.04-0.03-0.08-0.05-0.13c-0.06-0.22-0.11-0.43-0.14-0.65c-0.02-0.18-0.04-0.36-0.04-0.53c-0.01-0.28,0.02-0.56,0.07-0.84
		c0.04-0.26,0.1-0.53,0.19-0.79c0.01-0.02,0.02-0.04,0.03-0.07c0.25-0.71,0.65-1.44,1.22-2.16c2.43-3.11,7.46-5.97,13.95-8.16
		C117.3,49.45,118.04,49.22,118.8,48.99z"/>
	<path d="M247.5,141.28c0,0.47,0.04,0.93,0.1,1.4c0.02,0.11,0.04,0.23,0.06,0.34c0.06,0.36,0.13,0.71,0.23,1.07
		c0.01,0.05,0.02,0.11,0.04,0.16l0,0c0.04,0.12,0.07,0.25,0.11,0.37c0.01,0.03,0.02,0.06,0.04,0.09c0.07,0.22,0.16,0.43,0.24,0.65
		c0.06,0.14,0.11,0.28,0.17,0.42c0.1,0.22,0.2,0.44,0.32,0.66c0.07,0.14,0.14,0.27,0.22,0.4c0.12,0.21,0.24,0.43,0.37,0.64
		c0.1,0.16,0.21,0.32,0.32,0.47c0.12,0.18,0.24,0.37,0.38,0.55c0.01,0.02,0.02,0.03,0.04,0.05c0.22,0.3,0.46,0.59,0.71,0.88
		c0.08,0.09,0.16,0.18,0.24,0.27c0.23,0.25,0.46,0.5,0.71,0.75c0.05,0.05,0.1,0.11,0.15,0.16c0.03,0.03,0.07,0.06,0.1,0.09
		c0.33,0.32,0.67,0.64,1.04,0.96c0.04,0.04,0.1,0.07,0.14,0.11c0.25,0.21,0.52,0.42,0.79,0.63c0.21,0.16,0.41,0.33,0.63,0.48
		c0.37,0.28,0.77,0.54,1.17,0.81c0.08,0.05,0.14,0.1,0.22,0.15c0.05,0.03,0.11,0.07,0.16,0.1c7.92,5.09,20.26,8.11,33.91,8.11
		c0,0,0.01,0,0.01,0c0,0,0,0,0,0c0.37,0,0.74,0,1.11-0.01c1.07-0.01,2.12-0.05,3.17-0.1c0.29-0.01,0.57-0.03,0.85-0.04
		c0.93-0.05,1.84-0.12,2.75-0.2c0.47-0.04,0.94-0.09,1.41-0.14c0.42-0.04,0.84-0.09,1.25-0.14c6.27-0.74,12.14-2.13,17.31-4.14
		c0,0,0,0,0,0c3.66-1.42,6.82-3.11,9.4-5c1.16-0.85,2.21-1.75,3.11-2.68c1.95-2,3.26-4.13,3.88-6.33v0l0,0
		c0.04-0.13,0.05-0.25,0.08-0.38c0.07-0.29,0.14-0.58,0.19-0.88c0.02-0.15,0.05-0.29,0.07-0.44c0.06-0.45,0.09-0.9,0.09-1.35
		c-0.01-3.31-1.5-6.45-4.44-9.34c-7.37-7.26-22.41-11.65-39.29-11.43C267.01,119.76,247.46,129.54,247.5,141.28z M250.01,142.41
		c0.12-0.25,0.25-0.49,0.39-0.74c0.06-0.11,0.13-0.22,0.2-0.33c0.13-0.2,0.26-0.41,0.4-0.61c0.08-0.12,0.17-0.23,0.25-0.35
		c0.14-0.19,0.29-0.39,0.45-0.58c0.09-0.12,0.19-0.23,0.29-0.35c0.17-0.2,0.35-0.39,0.53-0.59c0.1-0.11,0.19-0.21,0.29-0.32
		c0.23-0.24,0.47-0.47,0.72-0.7c0.07-0.06,0.12-0.12,0.19-0.18c0.32-0.29,0.65-0.58,1-0.86c0.09-0.08,0.19-0.15,0.29-0.23
		c0.21-0.16,0.42-0.33,0.64-0.49l-1.23,6.54l-0.8,0l-3.73,0.02c0.01-0.01,0.01-0.03,0.02-0.04
		C249.94,142.54,249.98,142.47,250.01,142.41z M254.33,150.86c-0.01,0-0.01-0.01-0.02-0.01l0.62-3.28v0l0.75-3.99l0.02-0.11
		l0.14-0.76l-0.13,9.21c-0.45-0.32-0.89-0.65-1.31-0.99C254.39,150.9,254.36,150.88,254.33,150.86z M249.81,145.26
		c-0.07-0.16-0.14-0.33-0.21-0.49c-0.06-0.15-0.11-0.3-0.17-0.45c-0.03-0.08-0.05-0.17-0.07-0.25l2.64-0.02l2.15-0.01l-0.64,3.41
		l-2.45-0.03c-0.15-0.21-0.29-0.42-0.42-0.63c-0.12-0.19-0.23-0.37-0.33-0.56c-0.1-0.17-0.19-0.34-0.28-0.52
		C249.95,145.57,249.88,145.41,249.81,145.26z M252.23,148.86l1.02,0.01l-0.16,0.87c-0.03-0.03-0.06-0.05-0.09-0.08
		c-0.11-0.11-0.22-0.22-0.33-0.33C252.52,149.17,252.37,149.01,252.23,148.86z M293.81,153.98c0.36,0,0.72,0,1.09,0
		c0.81,0,1.62,0,2.42,0.02c0.44,0.01,0.87,0.04,1.31,0.06c0.72,0.03,1.43,0.06,2.14,0.11c0.46,0.03,0.92,0.07,1.38,0.11
		c0.67,0.06,1.34,0.12,1.99,0.19c0.47,0.05,0.94,0.11,1.41,0.17c0.63,0.08,1.26,0.17,1.88,0.26c0.47,0.07,0.93,0.15,1.39,0.23
		c0.6,0.11,1.2,0.22,1.79,0.34c0.45,0.09,0.91,0.19,1.35,0.29c0.58,0.13,1.15,0.27,1.71,0.42c0.43,0.11,0.86,0.22,1.29,0.34
		c0.17,0.05,0.34,0.1,0.51,0.15c-2.61,0.9-5.38,1.66-8.27,2.26c-0.18,0.04-0.37,0.07-0.55,0.11c-0.73,0.14-1.46,0.28-2.21,0.4
		c-0.21,0.04-0.42,0.07-0.63,0.11c-0.83,0.13-1.66,0.25-2.5,0.36c-0.31,0.04-0.63,0.08-0.94,0.11c-0.74,0.09-1.48,0.16-2.23,0.23
		c-0.18,0.02-0.36,0.04-0.55,0.05c-0.9,0.07-1.8,0.13-2.72,0.18c-0.26,0.01-0.52,0.03-0.78,0.04c-0.96,0.04-1.92,0.08-2.89,0.09
		c-1.06,0.01-2.11,0-3.16-0.02c-0.6-0.01-1.19-0.04-1.78-0.07c-0.41-0.02-0.82-0.03-1.22-0.05c-0.86-0.05-1.71-0.12-2.56-0.19
		c-0.11-0.01-0.22-0.02-0.33-0.03c-4.6-0.43-8.97-1.22-12.95-2.33c0.65-0.22,1.31-0.43,1.97-0.63c5.91-1.77,12.32-2.85,19.07-3.21
		C291.45,154.04,292.63,154,293.81,153.98z M328.82,137.02c0.1,0.09,0.19,0.18,0.28,0.27c0.18,0.17,0.35,0.33,0.51,0.5
		c0.1,0.11,0.2,0.21,0.3,0.32c0.14,0.15,0.28,0.31,0.42,0.46c0.1,0.11,0.19,0.23,0.29,0.34c0.12,0.15,0.24,0.3,0.36,0.46
		c0.09,0.12,0.18,0.23,0.26,0.35c0.11,0.16,0.22,0.31,0.32,0.47c0.07,0.11,0.15,0.23,0.22,0.34c0.1,0.17,0.2,0.34,0.29,0.51
		c0.06,0.1,0.12,0.21,0.17,0.31c0.13,0.26,0.25,0.52,0.36,0.79c0.01,0.01,0.01,0.03,0.02,0.04l-4.78,0.03l0.11-5.94
		C328.25,136.51,328.54,136.76,328.82,137.02z M329.68,148.4l-1.95-0.02l0.09-4.76l4.96-0.03c-0.01,0.02-0.02,0.04-0.02,0.06
		C332.15,145.28,331.12,146.87,329.68,148.4z M327.7,149.79l0.52,0.01c-0.17,0.15-0.35,0.3-0.52,0.44L327.7,149.79z M291.09,120.88
		c0.64-0.01,1.27,0,1.9,0.01c0.59,0.01,1.19,0.01,1.78,0.03c0.32,0.01,0.65,0.02,0.97,0.04c0.69,0.03,1.38,0.06,2.06,0.1
		c0.23,0.01,0.46,0.03,0.68,0.05c0.76,0.06,1.51,0.12,2.25,0.19c0.17,0.02,0.33,0.04,0.5,0.05c0.79,0.08,1.57,0.18,2.35,0.28
		c0.13,0.02,0.26,0.04,0.39,0.06c0.8,0.11,1.59,0.23,2.36,0.37c0.12,0.02,0.24,0.04,0.36,0.07c0.78,0.14,1.55,0.28,2.31,0.44
		c0.12,0.03,0.25,0.06,0.37,0.08c0.74,0.16,1.48,0.33,2.2,0.51c0.15,0.04,0.29,0.08,0.44,0.12c0.69,0.18,1.37,0.36,2.03,0.56
		c0.18,0.05,0.35,0.11,0.53,0.16c0.62,0.19,1.24,0.38,1.84,0.59c0.22,0.07,0.42,0.15,0.63,0.23c0.55,0.2,1.1,0.39,1.62,0.6
		c0.25,0.1,0.49,0.21,0.74,0.31c0.47,0.2,0.95,0.39,1.4,0.59c0.29,0.13,0.55,0.27,0.83,0.4c0.4,0.19,0.8,0.38,1.18,0.58
		c0.31,0.16,0.6,0.34,0.9,0.5c0.32,0.18,0.66,0.36,0.97,0.55c0.33,0.2,0.64,0.41,0.96,0.62c0.25,0.17,0.52,0.33,0.77,0.5
		c0.36,0.25,0.69,0.51,1.02,0.77c0.18,0.14,0.37,0.27,0.54,0.41c0.49,0.41,0.96,0.82,1.39,1.25c0.99,0.98,1.81,1.99,2.43,3.02
		c1.04,1.72,1.57,3.49,1.58,5.32v0c0,0.07-0.01,0.14-0.01,0.2c0,0,0,0,0,0c-0.01-0.03-0.03-0.05-0.05-0.08
		c-0.17-0.3-0.35-0.6-0.54-0.9c-0.06-0.1-0.13-0.19-0.19-0.29c-0.16-0.24-0.34-0.48-0.52-0.72c-0.07-0.09-0.14-0.18-0.21-0.27
		c-0.25-0.32-0.52-0.63-0.8-0.94c-0.01-0.01-0.03-0.03-0.04-0.04c-0.27-0.29-0.56-0.59-0.86-0.87c-0.1-0.09-0.19-0.18-0.29-0.27
		c-0.24-0.22-0.49-0.44-0.74-0.65c-0.1-0.09-0.21-0.18-0.32-0.27c-0.36-0.29-0.72-0.58-1.11-0.87c-0.21-0.16-0.5-0.18-0.73-0.06
		c-0.24,0.12-0.39,0.36-0.39,0.62l-0.16,8.44l-0.11,5.79l-0.04,2.28c-2.37,1.7-5.25,3.22-8.56,4.53c-0.48-0.16-0.99-0.29-1.48-0.44
		c-0.48-0.14-0.94-0.3-1.43-0.43c-0.56-0.15-1.15-0.28-1.73-0.42c-0.49-0.12-0.97-0.24-1.47-0.35c-0.61-0.13-1.25-0.24-1.88-0.36
		c-0.49-0.09-0.96-0.19-1.45-0.27c-0.68-0.11-1.37-0.2-2.06-0.29c-0.46-0.06-0.92-0.14-1.39-0.19c-0.76-0.09-1.53-0.15-2.3-0.22
		c-0.42-0.04-0.83-0.09-1.26-0.12c-0.85-0.06-1.72-0.1-2.59-0.13c-0.35-0.01-0.69-0.04-1.04-0.05c-1.02-0.03-2.06-0.03-3.09-0.03
		c-0.2,0-0.4-0.01-0.6-0.01c-1.24,0.01-2.49,0.05-3.74,0.12c-6.86,0.37-13.39,1.47-19.4,3.27c-0.69,0.21-1.38,0.43-2.05,0.65
		c-0.23,0.08-0.44,0.16-0.67,0.23c-0.39,0.13-0.78,0.27-1.16,0.41c-2.54-0.81-4.88-1.76-6.99-2.82c-0.12-0.06-0.26-0.12-0.38-0.19
		c-0.39-0.2-0.75-0.42-1.13-0.63c-0.33-0.19-0.66-0.37-0.97-0.56c-0.11-0.07-0.21-0.14-0.31-0.2l0.25-18.33v0v0c0,0,0,0,0,0
		c0-0.01-0.01-0.02-0.01-0.03c0-0.06-0.01-0.13-0.03-0.19c-0.01-0.02-0.01-0.03-0.01-0.05c-0.01-0.03-0.03-0.05-0.04-0.07
		c-0.01-0.02-0.02-0.03-0.03-0.05c-0.02-0.03-0.03-0.06-0.06-0.08c-0.01-0.01-0.03-0.02-0.04-0.04c-0.03-0.03-0.06-0.07-0.1-0.09
		c-0.01-0.01-0.03-0.01-0.04-0.02c-0.01,0-0.01-0.01-0.01-0.01c0,0,0,0-0.01,0c-0.02-0.01-0.03-0.01-0.05-0.02
		c-0.05-0.02-0.11-0.04-0.17-0.05c-0.02,0-0.03-0.01-0.04-0.01c-0.01,0-0.02,0-0.03,0c-0.02,0-0.04,0-0.06,0
		c-0.01,0-0.03,0-0.04,0.01c-0.04,0-0.08,0.01-0.12,0.02c-0.01,0-0.02,0-0.02,0c-0.07,0.02-0.13,0.05-0.19,0.09
		c-0.01,0.01-0.02,0.02-0.04,0.02l0,0c-0.46,0.3-0.91,0.62-1.34,0.93c-0.14,0.1-0.27,0.21-0.41,0.32c-0.29,0.23-0.58,0.45-0.86,0.68
		c-0.15,0.12-0.3,0.25-0.44,0.38c-0.25,0.22-0.5,0.44-0.74,0.67c-0.13,0.13-0.27,0.25-0.4,0.38c-0.25,0.25-0.49,0.5-0.72,0.75
		c-0.1,0.1-0.2,0.21-0.29,0.31c-0.31,0.36-0.61,0.72-0.88,1.08c-0.05,0.06-0.08,0.12-0.13,0.18c-0.22,0.31-0.43,0.62-0.63,0.93
		c-0.08,0.13-0.15,0.25-0.22,0.38c-0.09,0.16-0.19,0.31-0.27,0.47c0-0.04-0.01-0.08-0.01-0.13
		C248.88,130.31,267.8,121.16,291.09,120.88z"/>
	<path d="M225.08,91.61c-0.72,0.1-1.44,0.21-2.14,0.32c-0.49,0.08-0.98,0.17-1.46,0.26c-0.4,0.07-0.81,0.15-1.21,0.23
		c-5.29,1.04-10.26,2.53-14.62,4.44c-9.4,4.11-14.95,9.58-15.38,15.12c-0.02,0.21-0.04,0.42-0.04,0.64c0,0.01,0,0.03,0,0.04
		c0,0.29,0.01,0.58,0.04,0.87c0.11,1.12,0.43,2.19,0.95,3.22c0.09,0.17,0.18,0.35,0.28,0.52c0.08,0.14,0.17,0.27,0.25,0.41
		c0.09,0.14,0.18,0.27,0.27,0.41c0.09,0.13,0.18,0.26,0.28,0.39c0.14,0.18,0.28,0.36,0.43,0.53c0.1,0.11,0.19,0.22,0.29,0.33
		c0.19,0.21,0.39,0.42,0.61,0.63c0.09,0.08,0.18,0.17,0.26,0.25c0.2,0.18,0.4,0.36,0.61,0.54c0.06,0.05,0.1,0.09,0.16,0.14
		c0.03,0.02,0.06,0.04,0.09,0.07c0.29,0.24,0.59,0.47,0.91,0.7c0,0,0,0,0,0c0.03,0.02,0.06,0.04,0.09,0.06
		c0.08,0.05,0.15,0.1,0.23,0.16c0.31,0.21,0.62,0.42,0.95,0.62c0.09,0.05,0.18,0.11,0.27,0.16c2.03,1.22,4.45,2.27,7.24,3.14
		c2.54,0.79,5.35,1.41,8.33,1.85c1.66,0.24,3.4,0.43,5.17,0.56c0.38,0.03,0.76,0.04,1.14,0.06c0.09,0.01,0.17,0.01,0.26,0.01
		c0.7,0.04,1.4,0.07,2.1,0.09c0.01,0,0.01,0,0.02,0c0.73,0.02,1.46,0.04,2.2,0.04c2.81,0,5.68-0.14,8.57-0.43
		c1.47-0.14,2.92-0.33,4.35-0.54c0.22-0.03,0.44-0.07,0.65-0.1c1.18-0.18,2.33-0.39,3.47-0.61c0.39-0.08,0.78-0.16,1.17-0.24
		c0.94-0.2,1.87-0.42,2.78-0.65c0.7-0.17,1.38-0.36,2.07-0.55c0.55-0.16,1.1-0.32,1.63-0.48c0.45-0.14,0.92-0.26,1.36-0.4
		c7.97-2.61,14.29-6.31,17.8-10.42c1.22-1.43,2.1-2.91,2.61-4.39l0,0l0.08-0.24l0,0c0,0,0,0,0,0c0.29-0.9,0.44-1.81,0.45-2.71
		c0-0.02,0-0.05,0-0.07c0-0.26-0.01-0.52-0.03-0.77c0-0.06,0-0.12-0.01-0.17c-0.14-1.48-0.66-2.9-1.53-4.23
		c-0.72-1.11-1.66-2.16-2.87-3.15c-7.11-5.85-21.85-8.63-37.55-7.09c-0.02,0-0.05,0.01-0.07,0.01c-0.89,0.09-1.77,0.19-2.64,0.31
		C225.64,91.53,225.36,91.57,225.08,91.61z M216.83,94.62c0.9-0.22,1.82-0.43,2.75-0.62c0.11-0.02,0.23-0.05,0.34-0.07
		c0.83-0.17,1.68-0.33,2.53-0.48c0.1-0.02,0.2-0.04,0.29-0.05c0.88-0.15,1.76-0.28,2.65-0.4c0.22-0.03,0.43-0.06,0.65-0.09
		c0.88-0.11,1.77-0.22,2.66-0.31c0.02,0,0.05-0.01,0.07-0.01c1.28-0.13,2.54-0.21,3.8-0.28c0.3-0.02,0.6-0.03,0.91-0.04
		c1.21-0.05,2.42-0.09,3.61-0.09c0.04,0,0.08,0,0.12,0c0.14,0,0.28,0.01,0.42,0.01c0.7,0,1.4,0.02,2.09,0.04
		c0.3,0.01,0.59,0.02,0.88,0.04c0.54,0.02,1.07,0.05,1.6,0.08c0.31,0.02,0.62,0.04,0.93,0.07c0.52,0.04,1.04,0.09,1.55,0.14
		c0.29,0.03,0.58,0.05,0.86,0.09c0.62,0.07,1.22,0.15,1.83,0.23c0.16,0.02,0.33,0.04,0.49,0.06c0.74,0.11,1.47,0.23,2.19,0.36
		c0.24,0.04,0.48,0.09,0.72,0.14c0.49,0.1,0.97,0.19,1.44,0.3c0.27,0.06,0.54,0.12,0.8,0.19c0.44,0.11,0.87,0.21,1.29,0.33
		c0.26,0.07,0.51,0.14,0.76,0.21c0.46,0.13,0.9,0.27,1.35,0.41c0.19,0.06,0.39,0.12,0.58,0.19c0.61,0.21,1.21,0.43,1.79,0.65
		c0.15,0.06,0.28,0.12,0.43,0.18c0.43,0.18,0.86,0.36,1.27,0.55c0.2,0.09,0.39,0.19,0.58,0.28c0.34,0.17,0.68,0.34,1.01,0.52
		c0.19,0.1,0.38,0.21,0.56,0.31c0.33,0.19,0.64,0.39,0.95,0.59c0.15,0.1,0.31,0.19,0.45,0.3c0.43,0.3,0.84,0.6,1.23,0.91
		c0.01,0.01,0.02,0.01,0.03,0.02c1.18,0.97,2.09,1.99,2.74,3.06c0.65,1.07,1.03,2.2,1.14,3.36c0.03,0.34,0.04,0.68,0.02,1.02
		c0,0.02,0,0.04,0,0.06c-0.09-0.15-0.2-0.3-0.31-0.45c-0.06-0.09-0.11-0.18-0.18-0.26c-0.2-0.28-0.41-0.55-0.64-0.82
		c-0.18-0.21-0.46-0.29-0.73-0.22c-0.27,0.08-0.46,0.3-0.51,0.57l-0.59,3.68c-0.01,0.04-0.01,0.08-0.01,0.11l0.01,3.79
		c-3.35,3.81-9.31,7.26-16.84,9.75c-0.36-0.04-0.72-0.08-1.08-0.11c-0.37-0.04-0.74-0.08-1.12-0.12c-0.37-0.03-0.74-0.06-1.11-0.09
		c-0.4-0.03-0.8-0.07-1.2-0.09c-0.36-0.02-0.72-0.04-1.08-0.05c-0.42-0.02-0.83-0.05-1.26-0.06c-0.37-0.01-0.75-0.02-1.12-0.03
		c-0.42-0.01-0.83-0.02-1.25-0.03c-0.4,0-0.81,0-1.21,0.01c-0.4,0-0.79,0-1.19,0.01c-0.45,0.01-0.9,0.03-1.35,0.04
		c-0.36,0.01-0.71,0.02-1.08,0.03c-0.55,0.02-1.1,0.06-1.65,0.09c-0.27,0.02-0.53,0.03-0.8,0.05c-0.82,0.06-1.65,0.12-2.48,0.2
		c-5.23,0.49-10.29,1.38-15.04,2.64c-0.87,0.23-1.72,0.47-2.56,0.73c-0.73-0.11-1.44-0.22-2.14-0.35c-0.13-0.02-0.25-0.05-0.37-0.07
		c-0.58-0.11-1.15-0.23-1.71-0.36c-0.29-0.07-0.57-0.13-0.86-0.2c-0.38-0.09-0.76-0.19-1.13-0.29c-0.33-0.09-0.66-0.18-0.98-0.27
		c-0.1-0.03-0.21-0.06-0.31-0.09l-0.42-7.9l-0.71-13.38h0c-0.02-0.33-0.26-0.6-0.59-0.66c-0.33-0.05-0.65,0.12-0.77,0.43l-0.19,0.45
		c-0.29,0.15-0.56,0.31-0.84,0.46c-0.27,0.15-0.55,0.29-0.82,0.44c-0.32,0.18-0.61,0.37-0.92,0.55c-0.25,0.15-0.5,0.3-0.74,0.45
		c-0.3,0.19-0.59,0.39-0.87,0.59c-0.22,0.15-0.45,0.3-0.66,0.45c-0.29,0.21-0.56,0.42-0.83,0.63c-0.19,0.15-0.39,0.29-0.58,0.44
		c-0.28,0.22-0.53,0.45-0.79,0.68c-0.16,0.14-0.33,0.28-0.49,0.42c-0.26,0.24-0.5,0.49-0.74,0.73c-0.13,0.13-0.27,0.26-0.39,0.39
		c-0.25,0.27-0.48,0.54-0.71,0.82c-0.09,0.11-0.2,0.22-0.28,0.33c-0.31,0.38-0.59,0.77-0.84,1.16c-0.17,0.27-0.34,0.53-0.49,0.8
		c0-0.08-0.01-0.17-0.01-0.25c0.05-5.09,5.49-10.48,14.57-14.45c3.23-1.41,6.79-2.6,10.58-3.53
		C216.8,94.62,216.81,94.62,216.83,94.62z M242.4,124.95c-1.01,0.23-2.03,0.43-3.06,0.62c-0.17,0.03-0.33,0.06-0.5,0.09
		c-1.01,0.18-2.03,0.34-3.06,0.49c-0.14,0.02-0.28,0.04-0.42,0.06c-1.09,0.15-2.18,0.28-3.29,0.39c-1.08,0.11-2.16,0.19-3.23,0.25
		c-0.41,0.02-0.81,0.04-1.21,0.06c-0.66,0.03-1.31,0.06-1.96,0.07c-0.48,0.01-0.96,0.02-1.44,0.02c-0.58,0-1.16,0-1.73-0.01
		c-0.48-0.01-0.97-0.01-1.45-0.03c-0.78-0.03-1.55-0.07-2.31-0.11c-0.73-0.05-1.44-0.1-2.15-0.17c0.51-0.13,1.02-0.25,1.53-0.37
		c0.49-0.11,0.97-0.24,1.47-0.34c0.71-0.15,1.44-0.29,2.17-0.43c0.47-0.09,0.94-0.19,1.41-0.27c0.8-0.14,1.62-0.26,2.44-0.38
		c0.41-0.06,0.81-0.13,1.22-0.18c1.23-0.16,2.48-0.31,3.73-0.42c1.17-0.11,2.33-0.19,3.49-0.26c0.25-0.01,0.51-0.03,0.76-0.04
		c1.12-0.06,2.23-0.09,3.33-0.11c0.2,0,0.4,0,0.61,0c1-0.01,2,0,2.99,0.03c0.18,0,0.37,0.01,0.55,0.01
		c1.08,0.04,2.15,0.09,3.21,0.17c0.1,0.01,0.21,0.02,0.31,0.02c-1.04,0.28-2.09,0.54-3.16,0.79
		C242.56,124.91,242.48,124.93,242.4,124.95z M194.82,119.17c-0.15-0.14-0.29-0.29-0.43-0.43c-0.1-0.11-0.21-0.21-0.31-0.32
		c-0.15-0.16-0.28-0.33-0.42-0.49c-0.08-0.09-0.16-0.19-0.23-0.28c-0.14-0.18-0.26-0.36-0.38-0.54c-0.05-0.07-0.1-0.14-0.14-0.21
		l4.18-0.15l0.03,0l-0.24,0.58l-1.11,2.66c-0.04-0.03-0.08-0.06-0.12-0.09c-0.15-0.12-0.29-0.25-0.44-0.37
		C195.08,119.4,194.94,119.28,194.82,119.17z M195.14,110.59c0.22-0.23,0.46-0.47,0.7-0.7c0.11-0.1,0.22-0.21,0.34-0.31
		c0.23-0.21,0.47-0.42,0.72-0.63c0.11-0.1,0.23-0.19,0.34-0.29c0.36-0.29,0.73-0.58,1.12-0.86c0.03-0.02,0.06-0.04,0.09-0.06
		c0.38-0.27,0.77-0.54,1.18-0.81c0.14-0.09,0.28-0.18,0.42-0.27c0.31-0.2,0.62-0.39,0.95-0.58c0.16-0.09,0.31-0.19,0.47-0.28
		c0.09-0.05,0.2-0.11,0.29-0.16l-2.44,5.85l-0.26,0.01l-4.88,0.2c0.23-0.29,0.48-0.58,0.75-0.86
		C194.99,110.74,195.07,110.67,195.14,110.59z M192.39,114.54c0.12-0.28,0.26-0.57,0.42-0.85c0.1-0.18,0.22-0.37,0.33-0.55
		l5.23-0.21l0.35-0.01l-0.94,2.26l-0.05,0.13l-5.52,0.2c-0.03-0.08-0.06-0.15-0.09-0.22c0.05-0.16,0.11-0.31,0.18-0.47
		C192.32,114.72,192.35,114.63,192.39,114.54z M198.85,116.27L198.85,116.27l0.95-2.27l0.65-1.56l0,0l2.48-5.94l0.94,17.65
		c-2.72-0.92-5.05-2.03-6.94-3.3L198.85,116.27z M268.51,108.61c0.02,0.03,0.03,0.07,0.04,0.1l-0.47,0.02l-0.31,0.01l0.19-1.16
		C268.17,107.91,268.35,108.26,268.51,108.61z M267.65,110.16l0.7-0.03c-0.2,0.42-0.43,0.85-0.7,1.27L267.65,110.16z"/>
	<path d="M144.08,80.02c-1.55,1.99-2.2,4-1.93,5.98c0.02,0.15,0.05,0.3,0.08,0.45c0,0.02,0.01,0.03,0.01,0.05
		c0.03,0.12,0.05,0.23,0.09,0.34c0.04,0.17,0.09,0.33,0.15,0.49c0.06,0.18,0.13,0.35,0.21,0.52c0.05,0.11,0.11,0.23,0.17,0.34
		c0.07,0.14,0.14,0.27,0.22,0.4c0.1,0.17,0.2,0.33,0.32,0.49c0.13,0.19,0.27,0.37,0.41,0.55c0.01,0.02,0.02,0.03,0.04,0.04
		c0.04,0.05,0.08,0.11,0.13,0.16h0c0.01,0.01,0.03,0.03,0.04,0.04c0,0,0,0,0,0.01c0.01,0.01,0.02,0.02,0.03,0.03
		c0.22,0.25,0.46,0.49,0.72,0.73c0.1,0.09,0.21,0.19,0.31,0.28c0.17,0.14,0.34,0.29,0.52,0.43c0.15,0.12,0.3,0.24,0.47,0.36
		c0.1,0.07,0.21,0.14,0.31,0.21c5.07,3.5,14.21,5.56,25.21,5.56l2.69-0.05c2.55-0.07,5.16-0.25,7.78-0.53
		c0.82-0.09,1.63-0.19,2.44-0.3c0.15-0.02,0.3-0.04,0.45-0.06c0.43-0.06,0.86-0.12,1.28-0.19c1.29-0.2,2.57-0.42,3.83-0.67
		c0.17-0.03,0.34-0.06,0.51-0.1c1.23-0.24,2.44-0.51,3.61-0.81c8.15-1.99,14.93-4.97,19.14-8.46c0.01-0.01,0.03-0.02,0.04-0.03
		c0,0,0,0,0-0.01l0.06-0.05l0.1-0.08l0.03-0.02c0.01-0.01,0.01-0.01,0.02-0.02c0.26-0.22,0.51-0.44,0.75-0.67
		c0.14-0.12,0.27-0.25,0.4-0.39c0.06-0.06,0.13-0.12,0.19-0.19c0.04-0.04,0.09-0.09,0.13-0.14c0.12-0.13,0.24-0.25,0.35-0.38
		c0.14-0.15,0.27-0.31,0.39-0.47c0.06-0.06,0.1-0.12,0.15-0.18c0.04-0.04,0.07-0.09,0.1-0.14c0.12-0.15,0.23-0.3,0.33-0.45
		c0.02-0.03,0.04-0.05,0.05-0.08c0.1-0.13,0.19-0.27,0.26-0.41c0.18-0.28,0.33-0.56,0.47-0.84c0-0.01,0.01-0.01,0.01-0.02v-0.01
		c0.09-0.18,0.16-0.34,0.24-0.51c0.01-0.03,0.03-0.07,0.03-0.1c0.01-0.01,0.02-0.02,0.01-0.03c0.1-0.23,0.17-0.46,0.23-0.68
		c0.11-0.39,0.19-0.79,0.23-1.18c0.05-0.51,0.04-1.03-0.03-1.53c-1.16-8.43-18.69-13.21-39.91-10.89
		C162.31,68.51,149.01,73.7,144.08,80.02z M146.61,90.32c-0.14-0.11-0.28-0.22-0.42-0.33l0.73-0.04l0.79-0.04l-0.52,0.82
		c-0.12-0.08-0.25-0.17-0.36-0.25C146.75,90.42,146.68,90.37,146.61,90.32z M146.21,88.56l-0.54-1.93l-0.2-0.72l4.4-0.23l1.34-0.07
		l1.52,6.03l0.33,1.29l0.15,0.6c-0.89-0.29-1.72-0.6-2.51-0.93l-0.98-3.66c-0.02-0.06-0.04-0.11-0.07-0.16c0,0,0-0.01,0-0.01
		c0,0,0,0-0.01-0.01c-0.01-0.01-0.01-0.02-0.02-0.02c-0.01-0.02-0.03-0.04-0.04-0.05c-0.02-0.03-0.04-0.05-0.07-0.08
		c-0.01-0.01-0.03-0.02-0.04-0.03c-0.02-0.02-0.04-0.03-0.06-0.04c-0.02-0.01-0.04-0.03-0.07-0.04c-0.02-0.01-0.03-0.01-0.05-0.02
		c-0.01,0-0.01-0.01-0.02-0.01c-0.02-0.01-0.04-0.02-0.06-0.02c-0.02-0.01-0.04-0.01-0.06-0.01c-0.01,0-0.01,0-0.02,0
		c-0.02,0-0.04,0-0.06,0c-0.03,0-0.05-0.01-0.08-0.01L146.21,88.56z M156.01,79.51l1.23,6.7l1.6,8.7c-1.43-0.26-2.78-0.57-4.05-0.92
		l-0.17-0.67l-0.95-3.77l-1.15-4.57L156.01,79.51z M148.77,90.86l0.26,0.96c-0.22-0.11-0.44-0.23-0.65-0.35L148.77,90.86z
		 M151.35,84.18l-2.11,0.11l-3.06,0.16c0.15-0.15,0.3-0.3,0.46-0.45c0.16-0.15,0.33-0.3,0.5-0.46c0,0,0,0,0.01,0
		c0.17-0.16,0.35-0.31,0.54-0.46c0.37-0.3,0.77-0.6,1.19-0.9c0.41-0.3,0.85-0.59,1.31-0.88s0.95-0.58,1.45-0.86
		c0.25-0.14,0.51-0.28,0.78-0.42c0.72-0.39,1.49-0.77,2.3-1.14L151.35,84.18z M214.45,78.93c0.19,0.18,0.36,0.36,0.52,0.55
		c0.15,0.17,0.28,0.33,0.4,0.5c0.04,0.05,0.07,0.1,0.1,0.15c0.08,0.1,0.15,0.21,0.2,0.31c0.07,0.1,0.13,0.2,0.18,0.3l-1.98,0.11
		l-0.23,0.01L214.45,78.93z M213.62,84.13l-0.08-0.53l-0.17-1.3l1.88-0.1c-0.01,0.02-0.02,0.04-0.03,0.05
		C214.79,82.88,214.26,83.51,213.62,84.13z"/>
	<path d="M545.15,297.86c-0.77,0.11-1.53,0.22-2.31,0.32c0.1,0.18,0.18,0.36,0.25,0.54c0.48,1.29,0.16,2.62-1.1,3.69
		c-1.28,1.08-3.29,1.68-5.49,1.75c-1.11,0.03-2.26-0.06-3.38-0.29c-1.12-0.23-2.22-0.6-3.22-1.1c-0.99-0.5-1.8-1.08-2.39-1.71
		c-0.59-0.62-0.98-1.28-1.15-1.94c-0.34-1.31,0.14-2.61,1.52-3.6c1.35-0.98,3.31-1.48,5.39-1.51c0,0,0.01,0,0.01,0
		c0.3,0,0.6,0,0.9,0.02c-0.03-0.47-0.06-0.94-0.09-1.41c-0.42-0.02-0.85-0.03-1.26-0.03c0,0,0,0,0,0c0,0,0,0,0,0
		c-1.34,0.02-2.65,0.19-3.84,0.5c-1.19,0.32-2.28,0.79-3.16,1.42c-0.9,0.64-1.52,1.37-1.86,2.16c-0.35,0.8-0.41,1.65-0.19,2.51
		c0.21,0.87,0.71,1.74,1.47,2.55c0.77,0.82,1.82,1.59,3.12,2.25c1.31,0.66,2.75,1.15,4.23,1.45c1.48,0.31,2.99,0.43,4.45,0.38
		c0,0,0,0,0.01,0c1.45-0.05,2.83-0.27,4.05-0.67c1.22-0.39,2.28-0.94,3.11-1.65c0.81-0.7,1.32-1.5,1.53-2.32
		c0.21-0.82,0.15-1.67-0.18-2.5C545.44,298.4,545.31,298.13,545.15,297.86z"/>
	<path d="M540.7,295.84c0.9-0.71,1.8-1.42,2.68-2.12c-0.69-0.32-1.37-0.65-2.06-0.97c-0.89,0.69-1.79,1.39-2.7,2.09
		c-0.92,0.71-1.86,1.44-2.81,2.17c0.7,0.34,1.41,0.68,2.11,1.02C538.86,297.29,539.79,296.56,540.7,295.84z"/>
	<path d="M594.02,346.76c-0.29,0.26-0.58,0.52-0.87,0.79c0.08-0.45,0.22-0.93,0.42-1.41c0.41-0.98,1.03-1.94,1.76-2.63
		c0.45-0.43,0.88-0.69,1.26-0.8c0.38-0.11,0.7-0.07,0.94,0.12c0.14-0.32,0.29-0.64,0.44-0.96c-0.3-0.26-0.71-0.33-1.19-0.21
		c-0.47,0.12-1,0.44-1.55,0.95c-0.45,0.42-0.87,0.93-1.25,1.5c-0.38,0.57-0.7,1.18-0.96,1.8c-0.33,0.79-0.54,1.58-0.61,2.3
		c-0.14,0.13-0.28,0.25-0.42,0.38c-0.2,0.18-0.39,0.35-0.59,0.53c0.29,0.28,0.57,0.55,0.85,0.82c0.27,0.26,0.53,0.51,0.79,0.75
		c0.16-0.64,0.32-1.28,0.47-1.93C593.69,348.1,593.85,347.43,594.02,346.76z"/>
	<path d="M597.98,342.29c-0.13,0.65-0.26,1.28-0.38,1.91c-0.12,0.62-0.25,1.23-0.37,1.83c0.18-0.19,0.36-0.39,0.53-0.58
		c-0.11,0.38-0.26,0.77-0.45,1.15c-0.36,0.75-0.84,1.47-1.4,2.05c-0.37,0.38-0.73,0.66-1.06,0.83c-0.35,0.18-0.67,0.25-0.95,0.19
		c-0.13,0.32-0.25,0.64-0.38,0.96c0.35,0.05,0.75-0.04,1.19-0.27c0.41-0.22,0.84-0.55,1.28-1.01c0.33-0.35,0.65-0.74,0.93-1.16
		c0.28-0.42,0.54-0.86,0.75-1.32c0.34-0.7,0.59-1.43,0.73-2.12c0.14-0.16,0.29-0.31,0.43-0.47c0.15-0.17,0.31-0.34,0.46-0.5
		c-0.21-0.23-0.42-0.47-0.64-0.72C598.44,342.81,598.21,342.55,597.98,342.29z"/>
	<path d="M642.23,281.56c-0.14-0.24-0.31-0.45-0.55-0.63l0.1-0.3c0.15-0.46,0.3-0.91,0.45-1.37l0.06-0.28l-0.01,0
		c0.43-1.72,0.52-3.53,0.27-5.37c-1.74-12.71-18.99-28.4-43.95-39.96c-84.14-38.98-156.61-72.55-219.54-101.7L223.7,59.97
		C178.04,38.81,138.08,20.3,102.83,3.98c-9.7-4.49-27.31-5.62-40.1-2.58l-47.86,11.4C5.95,14.93,0.45,18.59-0.22,22.83
		c-0.15,0.94-0.05,1.89,0.29,2.81c0.78,2.3,1.6,4.62,2.51,7.1l-0.06,0.12L2.68,33C17.5,73.36,33.11,88.07,41.09,93.24l143.58,99.14
		c47.34,32.68,103.57,71.52,171.5,118.43l114.41,79.01c21.7,14.99,38.42,24.27,54.69,24.27l0.54,0
		c15.35-0.19,30.27-8.92,49.89-29.17c3.44-3.55,8.55-9.16,13.51-14.6l0.05-0.06c4.76-5.23,9.69-10.63,12.89-13.94l0.08-0.09
		c11.55-14.54,21.52-31.21,29.62-49.54c0.18,0.04,0.4,0.05,0.62,0.01c0.11-0.02,0.21-0.06,0.29-0.12c1.24-0.94,1.44-1.11,2.45-2.27
		c0.06-0.08,0.11-0.17,0.14-0.26c0-0.01,0.32-1.27,0.42-2.32c0.25,0.08,0.48,0.11,0.7,0.11c0,0,0,0,0.01,0
		c0.29,0,0.56-0.06,0.87-0.22l0.18-0.16c0.92-1.23,1.07-1.47,1.73-2.92l0.05-0.07l0-0.12c0.02-0.04,0.04-0.1,0.06-0.16
		c0.18-0.44,0.5-1.22,0.38-2.38c0.3-0.07,0.55-0.19,0.75-0.36l0.15-0.21l0.03-0.07c0.53-1.41,0.63-1.67,0.87-3.37
		c0-0.09,0.04-0.47,0.08-0.78l0.01-0.08c0.09-0.83,0.12-1.11,0.11-1.21c0.04-0.24,0.08-0.5,0.13-0.83c0.01-0.08,0.01-0.17-0.01-0.26
		c0-0.02-0.01-0.04-0.02-0.06c0.02-0.03,0.05-0.06,0.07-0.11l0.06-0.16c0.32-1.38,0.37-1.83,0.38-3.14l0-0.31
		c0.11-1.23,0.13-1.58-0.05-3.08C642.3,281.72,642.27,281.63,642.23,281.56z M165.86,173.69
		c100.91,69.1,205.27,140.54,306.36,206.08c24.92,16.16,41.24,23,56.32,23.6c14.53,0.58,28.25-5.05,42.67-17.72
		c-17.81,17.83-31.53,25.57-45.44,25.75c-0.25,0-0.5,0.01-0.75,0.01c-11.11,0-24.58-4.23-52.92-23.8l-89.63-61.9
		c-79.18-54.68-143.3-98.96-196.28-135.54L42.59,91c-2.81-1.82-5.68-4.27-8.55-7.28C78.31,113.75,122.79,144.2,165.86,173.69z
		 M577.69,376.7c-34.89,36.11-61.46,29.22-104.38,1.39c-101.05-65.5-205.35-136.92-306.23-205.98l-0.14-0.1
		c-45.19-30.94-91.92-62.94-137.83-94.04C21.04,67.65,13.24,53,6.53,35.56c43.09,26.19,94.66,57.53,157.36,95.62
		c29.94,18.19,63.11,38.35,100.1,60.82l14.06,8.54c58.27,35.41,125.71,76.4,204.44,124.22c22.15,13.45,48.32,21.48,70.03,21.48
		c12.57,0,22.47-2.77,28.62-8.02l53.67-45.77c-0.32,0.84-0.64,1.67-0.96,2.5c-1.42,1.85-3.08,3.53-4.94,4.98l-0.07,0.07l-0.01,0.03
		c-0.06,0.07-0.11,0.16-0.13,0.25c-0.01,0.05-0.01,0.1-0.01,0.12l-0.01,0.11l0.01,0.05c0.01,0.06,0.01,0.2,0,0.4l0,0.11
		c-0.01,1.69,0.05,3.4,0.86,4.11l0.04,0.03c-8.03,18.26-17.92,34.84-29.41,49.3c-1.83,1.89-4.3,4.54-7.99,8.57
		C586.56,368.21,580.45,373.84,577.69,376.7z M101.7,6.43c35.55,16.45,75.89,35.14,122.04,56.52l153.87,71.28
		c63,29.18,135.57,62.8,219.85,101.84c24.14,11.19,40.79,26.06,42.41,37.89c0.56,4.07-0.8,7.53-4.02,10.28l-56.15,47.89
		c-16.27,13.87-61.09,7.48-95.92-13.68c-81-49.2-150.05-91.17-209.46-127.27l-3.13-1.9c-39.37-23.92-74.47-45.26-106-64.41
		C101.58,86.22,49.42,54.52,5.95,28.1c-1.78-1.08-3.83-2.8-3.51-4.85c0.48-3.02,5.48-6.01,13.05-7.82l47.86-11.4
		C75.43,1.15,92.63,2.23,101.7,6.43z M637.75,296.38l-0.26,0.42c-0.06,0.08-0.12,0.17-0.19,0.26l-0.34,0.46
		c-0.39,0.09-0.94-0.21-1.54-0.52l-0.84-0.43l-0.57,0.71c-0.15,0.19-0.3,0.39-0.46,0.56l-0.33,0.37l0.5,0.76
		c0.1,0.15,0.2,0.3,0.3,0.43l0.03,0.06c0.29,0.46,0.42,0.79,0.41,1.07c-0.45,0.56-0.6,0.72-0.76,0.89l-1.2,0.99
		c-0.05-0.01-0.1-0.02-0.16-0.04l-0.09,0.27c0,0,0,0,0,0l0-0.31c-0.07-0.03-0.13-0.05-0.2-0.09c-0.03-0.01-0.05-0.03-0.14-0.08
		c-0.07-0.04-0.13-0.08-0.2-0.13c-0.03-0.02-0.07-0.05-0.15-0.11c-0.07-0.05-0.14-0.11-0.21-0.17l-0.16-0.14
		c-0.07-0.06-0.14-0.13-0.21-0.2l-0.16-0.16c-0.07-0.07-0.14-0.14-0.21-0.22l-0.16-0.18c-0.07-0.08-0.13-0.16-0.2-0.23l-0.07-0.08
		c2.57-2.09,4.74-4.6,6.44-7.4l0.3,0.31c0.13,0.13,0.26,0.25,0.43,0.41c0.13,0.12,0.26,0.25,0.39,0.37l0.1,0.12
		c0.08,0.08,0.15,0.16,0.21,0.24c0.01,0.02,0.03,0.04,0.04,0.06l0.06,0.09c0.04,0.06,0.09,0.13,0.13,0.25l0.02,0.08
		c0.01,0.04,0.02,0.08,0.03,0.11C638.09,295.73,637.93,296.07,637.75,296.38z M640.28,290.39c-0.04,0.14-0.08,0.27-0.14,0.42
		l-0.27,0.72c-0.32,0.15-0.88,0.02-1.43-0.1c-0.17-0.04-0.34-0.08-0.51-0.11l-0.27-0.05c0.58-1.14,1.09-2.32,1.52-3.54l0.06,0.03
		c0.15,0.08,0.31,0.17,0.49,0.28l0.06,0.04c0.1,0.06,0.2,0.13,0.29,0.2l0.11,0.09c0.07,0.06,0.13,0.12,0.19,0.19
		c0.02,0.03,0.04,0.05,0.08,0.1c0.05,0.07,0.09,0.13,0.12,0.2c-0.04,0.27-0.08,0.5-0.11,0.68
		C640.43,289.75,640.35,290.09,640.28,290.39z M163.78,127.16c31.53,19.15,66.63,40.49,106,64.41l1.12,0.68
		c59.87,36.38,129.56,78.74,211.47,128.5c22.18,13.47,48.43,21.52,70.21,21.52c12.67,0,22.65-2.8,28.85-8.09l55.36-47.22
		c-0.2,0.56-0.4,1.12-0.6,1.68c-0.03,0.02-0.05,0.05-0.08,0.08c-0.04,0.04-0.08,0.08-0.13,0.12h0l-56.15,47.89
		c-16.37,13.96-61.39,7.58-96.33-13.65c-81.9-49.75-151.59-92.11-211.46-128.49l-6.27-3.81c-37.29-22.66-70.71-42.97-100.87-61.29
		C101.31,90.85,49.15,59.15,5.69,32.73c-0.08-0.05-0.16-0.1-0.24-0.15l-0.07-0.05c-0.26-0.69-0.51-1.39-0.77-2.09
		C48.06,56.85,100.21,88.54,163.78,127.16z M630.22,302.47l0.05,0.05c0.15,0.14,0.31,0.27,0.51,0.43c0.39,0.3,0.76,0.51,1.11,0.62
		c0.03,0.01,0.06,0.02,0.12,0.03c0.15,0.04,0.3,0.07,0.44,0.08l0.11,0.01c0.08,0,0.16-0.01,0.24-0.02c0.11-0.02,0.21-0.06,0.29-0.12
		c0.44-0.33,0.75-0.57,1.06-0.83l0.17-0.15c-0.07,0.41-0.14,0.79-0.19,1.03c-0.84,0.97-1.03,1.12-2,1.85
		c-0.42-0.03-0.92-0.47-1.39-0.89c-0.13-0.12-0.27-0.24-0.4-0.35c-0.11-0.09-0.34-0.47-0.4-2
		C630.05,302.3,630.13,302.39,630.22,302.47z M634.82,298.32c0.03-0.04,0.07-0.09,0.1-0.13c0.8,0.42,1.77,0.89,2.71,0.45
		c0.09-0.04,0.17-0.11,0.23-0.19l0.08-0.11c-0.48,1.06-0.62,1.28-1.33,2.22c-0.21,0.05-0.48-0.01-0.88-0.19
		c-0.01-0.15-0.04-0.29-0.08-0.46c-0.05-0.17-0.12-0.34-0.21-0.53l-0.05-0.1c-0.08-0.16-0.17-0.32-0.28-0.49l-0.06-0.09
		C634.99,298.57,634.91,298.44,634.82,298.32z M639.51,294.59c-0.03-0.09-0.07-0.17-0.11-0.27l-0.03-0.06
		c-0.03-0.05-0.05-0.09-0.06-0.09l-0.24-0.76l-0.11,0.27c-0.09-0.11-0.19-0.22-0.29-0.32l-0.07-0.07c-0.12-0.12-0.24-0.24-0.36-0.35
		l-0.08-0.07c0.02-0.05,0.05-0.11,0.07-0.16c0.16,0.03,0.31,0.07,0.47,0.1l0.11,0.02c0.18,0.03,0.35,0.05,0.52,0.06l0.12,0.01
		c0.18,0.01,0.36-0.01,0.53-0.04l0.1-0.02c0.01,0,0.02-0.01,0.04-0.01c-0.11,0.57-0.24,0.92-0.56,1.77
		C639.52,294.58,639.52,294.58,639.51,294.59z M639.86,286.66l-0.02-0.01c0.01-0.06,0.02-0.13,0.02-0.19
		c0.36-0.02,0.78-0.04,1.17-0.14c-0.03,0.32-0.07,0.62-0.15,1c-0.06-0.05-0.12-0.09-0.19-0.14l-0.06-0.05
		c-0.04-0.03-0.08-0.06-0.12-0.08C640.3,286.91,640.09,286.78,639.86,286.66z M639.98,285.12c0.15-0.6,0.29-1.26,0.42-1.99
		c0.23-0.35,0.45-0.7,0.64-1.05c0,0,0,0.01,0.01,0.01c0.14,1.27,0.13,1.54,0.03,2.72C640.8,284.93,640.41,285.04,639.98,285.12z
		 M641.32,284.94l0.03,0L641.32,284.94L641.32,284.94z"/>
	<path d="M51.38,34.56c-0.06-0.03-0.13-0.07-0.18-0.1c-0.43,0.16-0.86,0.32-1.3,0.48c-0.44,0.16-0.88,0.33-1.33,0.5
		c0.06,0.03,0.12,0.07,0.19,0.1c0.45-0.17,0.89-0.33,1.33-0.5C50.52,34.88,50.95,34.72,51.38,34.56z"/>
	<path d="M51.73,35.09c0.1-0.04,0.1-0.1,0.03-0.13c-0.07-0.04-0.2-0.05-0.3-0.01c-0.09,0.04-0.1,0.1-0.03,0.13
		C51.5,35.11,51.64,35.12,51.73,35.09z"/>
	<path d="M49.28,34.29c-0.22-0.12-0.49-0.18-0.73-0.18c-0.02,0.04-0.04,0.07-0.05,0.11c0.2,0.01,0.41,0.05,0.56,0.13
		c0.22,0.12,0.19,0.23-0.09,0.34c-0.02,0.01-0.04,0.01-0.05,0.02c-0.46-0.25-0.93-0.47-1.44-0.28c-0.37,0.13-0.26,0.32-0.07,0.42
		c0.2,0.11,0.43,0.16,0.77,0.14c0,0,0,0,0.01,0c-0.09,0.03-0.18,0.07-0.25,0.11c0.06,0.03,0.11,0.06,0.17,0.09
		c0.08-0.04,0.22-0.1,0.35-0.15c0.24-0.09,0.48-0.18,0.72-0.27C49.58,34.62,49.55,34.43,49.28,34.29z M48.61,34.82
		c-0.29,0.11-0.69,0.12-0.95-0.02c-0.14-0.08-0.22-0.19,0.02-0.28c0.31-0.11,0.7,0.06,1,0.22c0.02,0.01,0.03,0.02,0.05,0.03
		C48.7,34.79,48.66,34.8,48.61,34.82z"/>
	<path d="M51.14,35.52c0.09,0.05,0.18,0.1,0.27,0.15c-0.34,0.13-0.68,0.26-1.02,0.39c-0.36,0.14-0.25,0.27-0.11,0.35
		c0.09,0.05,0.17,0.08,0.27,0.1c0.07-0.03,0.13-0.06,0.2-0.09c-0.08-0.02-0.16-0.04-0.22-0.07c-0.11-0.06-0.14-0.13,0.11-0.22
		c0.32-0.12,0.63-0.25,0.95-0.37c0.12,0.07,0.24,0.13,0.37,0.2c0.07-0.03,0.13-0.05,0.2-0.08c-0.12-0.07-0.25-0.13-0.37-0.2
		c0.15-0.06,0.3-0.12,0.45-0.17c-0.06-0.03-0.12-0.07-0.19-0.1c-0.15,0.06-0.3,0.12-0.45,0.17c-0.09-0.05-0.18-0.1-0.27-0.15
		C51.27,35.47,51.21,35.49,51.14,35.52z"/>
	<path d="M41.79,28.65c-0.11,0.23,0.03,0.47,0.41,0.68c0.22,0.12,0.51,0.22,0.84,0.29c0.31,0.06,0.66,0.1,1.01,0.1
		c0.05,0,0.1,0,0.15,0c0-0.02,0.01-0.04,0.01-0.06c0.01-0.05,0.01-0.1,0.02-0.15c0-0.02,0.01-0.04,0.01-0.06c-0.05,0-0.11,0-0.16,0
		c-0.22,0-0.45-0.02-0.67-0.07c-0.24-0.05-0.46-0.13-0.62-0.21c-0.24-0.13-0.34-0.28-0.29-0.43c0.04-0.12,0.18-0.24,0.43-0.35
		c0.69,0.37,1.39,0.73,2.1,1.11c0.03,0.01,0.05,0.03,0.08,0.04c0.04-0.01,0.08-0.02,0.12-0.03c0.1-0.03,0.2-0.05,0.28-0.08
		c0.55-0.17,0.84-0.37,0.91-0.57c0.07-0.2-0.06-0.39-0.32-0.56c-0.05-0.03-0.1-0.06-0.15-0.09c-0.37-0.19-0.9-0.3-1.47-0.33
		c-0.56-0.02-1.16,0.04-1.7,0.2C42.22,28.22,41.89,28.44,41.79,28.65z M44.47,28.13c0.37,0.02,0.7,0.1,0.94,0.22
		c0.27,0.14,0.39,0.29,0.35,0.44c-0.04,0.12-0.2,0.24-0.5,0.35c-0.6-0.31-1.19-0.62-1.78-0.93C43.82,28.14,44.16,28.11,44.47,28.13z
		"/>
	<path d="M44.09,30.19c-0.04,0.01-0.09,0.03-0.13,0.04c0.03,0.02,0.06,0.03,0.09,0.05c0.08,0.04,0.16,0.09,0.25,0.13
		c0.03,0.02,0.06,0.03,0.09,0.05c0.04-0.01,0.09-0.03,0.13-0.04c0.32-0.1,0.64-0.21,0.96-0.31c0.32-0.1,0.63-0.2,0.95-0.3
		c0.32-0.1,0.67-0.15,1.01-0.14c0.33,0.01,0.64,0.07,0.87,0.19c0,0,0.01,0,0.01,0.01c0.24,0.13,0.36,0.26,0.32,0.39
		c-0.03,0.13-0.21,0.25-0.54,0.36c-0.01,0-0.01,0-0.02,0.01c-0.32,0.11-0.65,0.21-0.97,0.32c-0.33,0.11-0.66,0.22-0.99,0.33
		c-0.04,0.01-0.09,0.03-0.13,0.04c0.03,0.02,0.06,0.03,0.09,0.05c0.09,0.04,0.17,0.09,0.26,0.14c0.03,0.02,0.06,0.03,0.09,0.05
		c0.04-0.01,0.09-0.03,0.13-0.04c0.33-0.11,0.67-0.22,0.99-0.33c0.33-0.11,0.65-0.22,0.98-0.33c0.49-0.16,0.76-0.36,0.82-0.56
		c0.05-0.21-0.11-0.42-0.47-0.61c0,0,0,0,0,0c-0.2-0.1-0.46-0.19-0.77-0.24c-0.14-0.02-0.29-0.04-0.44-0.05
		c0.07-0.02,0.15-0.05,0.23-0.07c0.04-0.01,0.08-0.03,0.12-0.04c-0.03-0.02-0.06-0.03-0.09-0.05c-0.08-0.04-0.16-0.08-0.24-0.12
		c-0.03-0.02-0.06-0.03-0.09-0.05c-0.04,0.01-0.08,0.03-0.12,0.04c-0.55,0.17-1.11,0.35-1.67,0.53
		C45.24,29.83,44.67,30.01,44.09,30.19z"/>
	<path d="M46.67,33.06c0.05,0.03,0.09,0.06,0.11,0.08c0.08-0.02,0.16-0.04,0.25-0.06c-0.03-0.03-0.06-0.05-0.1-0.07
		c-0.17-0.09-0.45-0.13-0.71-0.1c0,0,0,0,0,0c0.07-0.02,0.19-0.07,0.27-0.1c-0.06-0.03-0.11-0.06-0.17-0.09
		c-0.1,0.04-0.26,0.1-0.35,0.13c-0.43,0.15-0.86,0.3-1.29,0.44c0.06,0.03,0.11,0.06,0.18,0.1c0.28-0.1,0.57-0.2,0.85-0.29
		C46.14,32.93,46.49,32.96,46.67,33.06z"/>
	<path d="M47.85,32.26c-0.02,0.01-0.03,0.02-0.05,0.03c0.16,0.09,0.33,0.18,0.49,0.26c0.49-0.09,0.99-0.17,1.48-0.26
		c0.49-0.09,0.98-0.17,1.46-0.25c0.14-0.03,0.26-0.04,0.35-0.06c0,0,0.01,0,0.01,0c-0.04,0.03-0.1,0.07-0.17,0.12
		c-0.3,0.19-0.59,0.38-0.89,0.58c-0.3,0.19-0.6,0.39-0.91,0.59c0.16,0.08,0.32,0.17,0.48,0.26c0.76-0.15,1.51-0.29,2.25-0.44
		c0.74-0.14,1.48-0.29,2.2-0.42c-0.18-0.09-0.35-0.18-0.53-0.27c-0.54,0.11-1.1,0.22-1.65,0.34c-0.55,0.11-1.11,0.23-1.67,0.35
		c0.3-0.2,0.56-0.36,0.8-0.51c0.42-0.27,0.79-0.5,1.21-0.81c0.01-0.01,0.02-0.02,0.03-0.03c-0.12-0.06-0.24-0.12-0.36-0.18
		c-0.5,0.08-1,0.16-1.51,0.24c-0.51,0.08-1.01,0.16-1.52,0.24c-0.05,0.01-0.18,0.03-0.4,0.08c0.38-0.2,0.75-0.4,1.11-0.61
		c0.36-0.2,0.72-0.4,1.07-0.59c-0.17-0.09-0.35-0.18-0.52-0.27c-0.46,0.26-0.91,0.53-1.37,0.8C48.8,31.7,48.32,31.98,47.85,32.26z"
		/>
	<path d="M52.21,33.57c-0.28-0.07-0.56-0.13-0.84-0.2c-0.08,0.06-0.16,0.12-0.23,0.19c0.15,0.03,0.29,0.07,0.44,0.1
		c-0.26,0.04-0.52,0.07-0.77,0.11c-0.09,0.01-0.17,0.02-0.26,0.04c0.22,0.12,0.45,0.24,0.67,0.36c0.48-0.08,0.97-0.16,1.45-0.24
		c0.48,0.13,0.93,0.26,1.36,0.39c-0.33,0.27-0.65,0.55-0.98,0.82c0.24,0.13,0.48,0.26,0.72,0.39c0.35-0.32,0.7-0.64,1.05-0.95
		c0.28,0.1,0.55,0.2,0.81,0.3c-0.36,0.32-0.72,0.64-1.09,0.97c-0.01,0.01-0.02,0.02-0.03,0.03c0.17,0.09,0.35,0.19,0.52,0.28
		c0.84-0.13,1.68-0.26,2.51-0.39c0.26,0.15,0.51,0.3,0.75,0.45c-0.56,0.23-1.12,0.47-1.69,0.7c-0.05,0.02-0.09,0.04-0.14,0.06
		c0.77,0.41,1.55,0.83,2.34,1.25c0.23-0.1,0.45-0.2,0.68-0.3c-0.56-0.3-1.12-0.59-1.66-0.88c0.35-0.15,0.69-0.29,1.03-0.43
		c0.37,0.29,0.7,0.59,0.98,0.9c0.15-0.03,0.3-0.06,0.45-0.09c-0.3-0.34-0.65-0.66-1.06-0.97c0.3-0.13,0.61-0.26,0.91-0.38
		c0.53,0.27,1.06,0.55,1.6,0.83c0.21-0.09,0.43-0.19,0.64-0.28c-0.76-0.39-1.51-0.78-2.26-1.16c-0.48,0.2-0.97,0.4-1.46,0.6
		c-0.2-0.13-0.4-0.25-0.62-0.38c0.62-0.1,1.23-0.2,1.85-0.29c-0.19-0.1-0.38-0.2-0.57-0.3c-0.6,0.1-1.21,0.2-1.82,0.3
		c-0.16-0.08-0.34-0.17-0.51-0.25c-0.17-0.08-0.34-0.15-0.52-0.23c0.32-0.27,0.63-0.54,0.95-0.8c-0.2-0.1-0.39-0.2-0.59-0.3
		c-0.32,0.28-0.64,0.57-0.96,0.86c-0.26-0.1-0.53-0.2-0.82-0.3c0.36-0.33,0.72-0.66,1.07-0.98c-0.2-0.1-0.39-0.2-0.59-0.3
		c-0.55,0.08-1.09,0.16-1.64,0.24C53.32,33.41,52.76,33.49,52.21,33.57z M56.21,35.12c0.14,0.06,0.28,0.12,0.41,0.18
		c0.12,0.06,0.24,0.11,0.36,0.17c-0.35,0.06-0.7,0.11-1.05,0.17c-0.13,0.02-0.26,0.04-0.38,0.07c-0.03,0-0.05,0.01-0.07,0.01
		c0.08-0.06,0.15-0.13,0.23-0.19C55.88,35.4,56.05,35.26,56.21,35.12z M54.25,34.13c-0.32-0.1-0.66-0.2-1.01-0.29
		c0.57-0.09,1.13-0.18,1.7-0.28C54.71,33.75,54.48,33.94,54.25,34.13z"/>
	<path d="M51.54,36.84C51.54,36.84,51.53,36.83,51.54,36.84c0.3-0.27,0.61-0.53,0.92-0.79c-0.07-0.04-0.14-0.08-0.21-0.11
		c-0.35,0.31-0.71,0.63-1.07,0.94c-0.15,0.03-0.3,0.05-0.45,0.08c-0.24,0.04-0.42,0.05-0.55-0.03c-0.04-0.02-0.08-0.06-0.11-0.09
		c-0.08,0.02-0.16,0.05-0.24,0.08c0.04,0.04,0.09,0.07,0.15,0.1c0.23,0.13,0.5,0.12,0.84,0.06c0.46-0.08,0.91-0.15,1.37-0.23
		c0.45-0.08,0.9-0.15,1.35-0.23c-0.07-0.04-0.14-0.08-0.21-0.11C52.73,36.62,52.14,36.73,51.54,36.84z"/>
	<path d="M46.47,33.59c0.34,0.19,0.68,0.37,1.02,0.56c0.04-0.01,0.08-0.03,0.11-0.04c0.45-0.16,0.61-0.4,0.22-0.61
		c-0.35-0.19-0.98-0.21-1.48-0.03c-0.5,0.17-0.6,0.45-0.24,0.66c0.2,0.11,0.49,0.18,0.89,0.17c0-0.04,0-0.08,0.01-0.12
		c-0.23,0.01-0.5-0.01-0.69-0.12C46.06,33.91,46.15,33.71,46.47,33.59z M47.63,33.57c0.26,0.14,0.17,0.3-0.12,0.41
		c-0.28-0.16-0.56-0.31-0.84-0.46C46.96,33.43,47.39,33.44,47.63,33.57z"/>
	<path d="M50.89,35.2c-0.54,0.21-1.09,0.41-1.64,0.62c0.06,0.03,0.12,0.07,0.19,0.1c0.55-0.21,1.09-0.42,1.64-0.62
		C51.02,35.26,50.95,35.23,50.89,35.2z"/>
	<path d="M32.3,25.84c0.33,0.18,0.76,0.3,1.26,0.34c0.46,0.04,0.96,0,1.46-0.13c0.33-0.09,0.56-0.2,0.68-0.32
		c0.09-0.09,0.12-0.19,0.09-0.29c0.26,0.03,0.55,0.04,0.83,0.03c0.4-0.01,0.8-0.07,1.12-0.15c0.29-0.08,0.5-0.16,0.65-0.24
		c0.12-0.07,0.2-0.13,0.25-0.2c0.16,0,0.31,0.01,0.47,0.01c0.05,0,0.1,0,0.15,0c0-0.02,0.01-0.04,0.02-0.05
		c0.01-0.04,0.03-0.08,0.04-0.12c0-0.02,0.01-0.04,0.02-0.05c-0.05,0-0.1,0-0.15,0c-0.15,0-0.31-0.01-0.46-0.01
		c-0.01-0.06-0.03-0.12-0.08-0.18c-0.06-0.07-0.15-0.14-0.27-0.2c-0.31-0.16-0.77-0.27-1.3-0.29c-0.49-0.02-1.03,0.03-1.58,0.16
		c-0.51,0.13-0.86,0.3-0.98,0.49c-0.13,0.18-0.05,0.38,0.28,0.55c0.21,0.11,0.34,0.24,0.3,0.37c-0.03,0.1-0.17,0.2-0.47,0.28
		c-0.31,0.08-0.61,0.1-0.88,0.07c-0.32-0.03-0.61-0.12-0.83-0.24c-0.22-0.12-0.33-0.25-0.28-0.37c0.04-0.1,0.19-0.2,0.49-0.27
		c0.04-0.01,0.09-0.02,0.13-0.03c-0.03-0.02-0.06-0.03-0.08-0.04c-0.07-0.04-0.14-0.08-0.22-0.12c-0.03-0.02-0.05-0.03-0.08-0.04
		c-0.04,0.01-0.09,0.02-0.13,0.03c-0.48,0.12-0.75,0.28-0.83,0.45C31.85,25.47,31.99,25.67,32.3,25.84z M35.23,24.68
		c0.08-0.13,0.32-0.25,0.66-0.33c0.39-0.1,0.75-0.13,1.07-0.12c0.34,0.01,0.64,0.09,0.85,0.2c0.22,0.11,0.3,0.24,0.22,0.37
		c-0.07,0.12-0.29,0.23-0.66,0.33c-0.32,0.08-0.71,0.12-1.07,0.1c-0.35-0.01-0.68-0.08-0.88-0.19C35.2,24.93,35.15,24.8,35.23,24.68
		z"/>
	<path d="M36.36,26.06c-0.04,0.01-0.09,0.02-0.13,0.03c0.03,0.01,0.06,0.03,0.09,0.05c0.07,0.04,0.15,0.08,0.23,0.12
		c0.03,0.01,0.05,0.03,0.08,0.04c0.05-0.01,0.09-0.02,0.13-0.04c0.34-0.09,0.68-0.18,1.02-0.27c0.34-0.09,0.67-0.18,1-0.27
		c0.28-0.07,0.6-0.1,0.9-0.09c0.3,0.01,0.57,0.07,0.76,0.16h0c0.07,0.03,0.11,0.07,0.15,0.1c0.03,0.03,0.05,0.07,0.06,0.11
		c0,0.02,0.01,0.04,0.01,0.06c0.05,0,0.1-0.01,0.16-0.01c0.12-0.01,0.25-0.01,0.37-0.02c0.05,0,0.09-0.01,0.14-0.01
		c-0.01-0.02-0.01-0.04-0.01-0.05c-0.01-0.06-0.04-0.12-0.1-0.18c-0.05-0.06-0.13-0.11-0.23-0.15c0,0,0,0,0,0
		c-0.17-0.09-0.4-0.16-0.69-0.21c-0.11-0.02-0.23-0.03-0.36-0.04c0.07-0.02,0.14-0.04,0.21-0.06c0.04-0.01,0.08-0.02,0.12-0.03
		c-0.03-0.01-0.06-0.03-0.08-0.04c-0.07-0.04-0.14-0.07-0.21-0.11c-0.03-0.02-0.06-0.03-0.09-0.04c-0.04,0.01-0.08,0.02-0.12,0.03
		c-0.56,0.15-1.12,0.3-1.69,0.45C37.52,25.75,36.94,25.9,36.36,26.06z"/>
	<path d="M38.93,27.13c-0.12,0.22,0.01,0.45,0.37,0.65c0.21,0.11,0.49,0.21,0.82,0.28c0.3,0.06,0.65,0.1,1,0.1c0.05,0,0.1,0,0.15,0
		c0-0.02,0.01-0.04,0.01-0.06c0.01-0.05,0.02-0.1,0.03-0.15c0-0.02,0.01-0.04,0.01-0.06c-0.06,0-0.11,0-0.16,0
		c-0.22,0-0.45-0.03-0.65-0.07c-0.24-0.05-0.45-0.13-0.6-0.21c-0.23-0.12-0.33-0.27-0.27-0.41c0.04-0.12,0.19-0.23,0.44-0.33
		c0.67,0.35,1.34,0.71,2.02,1.06c0.03,0.01,0.05,0.03,0.08,0.04c0.04-0.01,0.08-0.02,0.12-0.03c0.11-0.03,0.2-0.05,0.28-0.08
		c0.56-0.16,0.85-0.35,0.93-0.54c0.08-0.19-0.03-0.37-0.29-0.54c-0.04-0.03-0.09-0.06-0.15-0.09c-0.36-0.18-0.88-0.29-1.44-0.32
		c-0.55-0.02-1.15,0.03-1.69,0.18C39.37,26.72,39.04,26.92,38.93,27.13z M41.6,26.64c0.37,0.02,0.69,0.1,0.92,0.22
		c0.27,0.14,0.38,0.28,0.33,0.42c-0.04,0.12-0.21,0.23-0.51,0.33c-0.57-0.3-1.15-0.6-1.71-0.9C40.97,26.64,41.3,26.62,41.6,26.64z"
		/>
</g>
</svg>
