<?xml version="1.0" encoding="utf-8"?>
<!-- Generator: Adobe Illustrator 20.0.0, SVG Export Plug-In . SVG Version: 6.00 Build 0)  -->
<svg version="1.1" id="Layer_1" xmlns="http://www.w3.org/2000/svg" xmlns:xlink="http://www.w3.org/1999/xlink" x="0px" y="0px"
	 viewBox="0 0 642.96 414.39" style="enable-background:new 0 0 642.96 414.39;" xml:space="preserve">
<g>
	<path d="M601.06,335.95c-0.8-0.46-2.27-0.57-4.64,1.51c-1.67,1.46-3.38,3.67-4.83,6.22c-1.45,2.55-2.48,5.15-2.89,7.33
		c-0.58,3.1,0.26,4.3,1.06,4.76c0.28,0.16,0.63,0.28,1.08,0.28c0.84,0,2.01-0.42,3.56-1.79c1.67-1.46,3.38-3.67,4.83-6.22
		C601.97,343.24,603.54,337.37,601.06,335.95z M598,347.34c-1.38,2.42-2.99,4.5-4.54,5.86c-0.96,0.85-1.72,1.25-2.26,1.38
		c-0.03-0.02-0.07-0.05-0.08-0.06c-0.9-0.69-0.46-4.61,2.28-9.42c0.53-0.93,1.97-3.03,3.56-4.69c1.62-1.69,3-2.49,3.87-2.28
		C601.1,339.77,600.34,343.24,598,347.34z"/>
	<path d="M511.56,303.68c3.73,5.54,11.36,9.83,20.39,11.47c2.53,0.46,5.03,0.68,7.43,0.68c9.12,0,16.87-3.16,20.13-8.28l0.03,0.01
		c0.13-0.22,0.25-0.45,0.36-0.68c0.48-0.88,0.84-1.81,1.04-2.79c0.61-2.94-0.1-6.04-2.08-8.96c-3.74-5.54-11.36-9.83-20.39-11.47
		c-14.18-2.57-27.19,2.39-29,11.06c-0.02,0.11-0.03,0.21-0.05,0.32c0,0,0,0,0,0l0,0C508.93,297.88,509.66,300.86,511.56,303.68z
		 M532.2,313.75c-8.54-1.55-16-5.71-19.47-10.86c-1.67-2.48-2.32-5.06-1.92-7.51l0,0v-0.03c0-0.02,0.01-0.05,0.01-0.07
		c0.44-2.08,1.62-3.96,3.5-5.57c3.75-3.23,9.86-5,16.6-5c2.34,0,4.76,0.21,7.18,0.65c8.51,1.55,15.95,5.71,19.42,10.86
		c1.75,2.6,2.39,5.33,1.86,7.88c-0.19,0.89-0.52,1.76-0.98,2.58c-0.03,0.05-0.06,0.1-0.09,0.14l-0.02,0v0.03
		C554.5,312.82,543.79,315.86,532.2,313.75z"/>
	<path d="M610.09,261.71l0.92,0.79c0,0,0,0,0,0l0.01,0.01c0.06,0.05,0.12,0.1,0.18,0.15c0.11,0.09,0.22,0.19,0.35,0.28l0.06,0.04
		c4.14,2.52,8.22,3.8,12.12,3.8h0h0c0.18,0,0.37,0,0.55-0.01c0.36-0.01,0.72-0.03,1.08-0.06c0.04,0,0.09-0.01,0.13-0.01
		c0.29-0.02,0.58-0.06,0.86-0.1c0.03,0,0.05-0.01,0.08-0.01c0.25-0.04,0.48-0.08,0.71-0.14c0.04-0.01,0.07-0.02,0.11-0.02
		c0.18-0.04,0.34-0.1,0.5-0.16c0.05-0.02,0.1-0.03,0.15-0.05l0.76-0.29l-0.04-0.07c0.33-0.23,0.6-0.51,0.78-0.87
		c0.54-1.09,0.13-2.55-1.3-4.59c-1.9-2.72-4.3-3.98-7.33-3.88c-3.37,0.12-6.17,0.45-8.32,1c-1.76,0.5-2.71,1.22-2.89,2.2
		c-0.12,0.62,0.1,1.27,0.65,1.95L610.09,261.71z M610.93,259.98c0.03-0.14,0.24-0.63,1.87-1.09c2.04-0.52,4.73-0.84,8-0.95
		c2.5-0.07,4.52,0.98,6.12,3.28c1.4,2,1.35,2.83,1.19,3.14c-0.05,0.1-0.13,0.18-0.23,0.26c-0.13-0.2-0.26-0.4-0.41-0.61
		c-1.9-2.72-4.33-3.99-7.33-3.88c-3.37,0.12-6.17,0.45-8.32,1c-0.06,0.02-0.11,0.04-0.17,0.05
		C610.93,260.48,610.91,260.1,610.93,259.98z"/>
	<path d="M393.22,217.16C393.22,217.16,393.22,217.16,393.22,217.16c-0.06,0.59-0.07,1.18-0.07,1.77c0,0.1,0,0.19,0,0.29
		c0.01,0.59,0.06,1.19,0.13,1.78c0.01,0.05,0.01,0.09,0.02,0.14c0.03,0.25,0.06,0.5,0.11,0.75c0,0,0,0,0,0.01
		c0.07,0.39,0.15,0.78,0.25,1.17c0,0,0,0,0,0c0.16,0.67,0.37,1.35,0.61,2.01c0.22,0.6,0.47,1.19,0.75,1.78
		c0.02,0.04,0.04,0.08,0.06,0.12c0.26,0.54,0.54,1.09,0.85,1.63c0.09,0.16,0.19,0.32,0.28,0.48c0.26,0.42,0.53,0.84,0.81,1.26
		c0.13,0.19,0.26,0.38,0.39,0.56c0.08,0.12,0.16,0.23,0.24,0.35c0.31,0.41,0.63,0.82,0.97,1.23c0.01,0.01,0.02,0.03,0.03,0.04
		c0,0,0,0.01,0.01,0.01c0.48,0.57,0.99,1.14,1.53,1.7c0.13,0.14,0.26,0.28,0.4,0.41c0.54,0.55,1.1,1.09,1.69,1.63
		c0.01,0.01,0.01,0.01,0.02,0.02c0.01,0.01,0.02,0.02,0.03,0.03c0.63,0.56,1.29,1.11,1.96,1.65c0.07,0.05,0.13,0.11,0.2,0.16
		c0.06,0.04,0.11,0.09,0.17,0.13c0.64,0.5,1.31,0.98,1.99,1.46c0.13,0.09,0.26,0.17,0.39,0.26c0.61,0.42,1.24,0.83,1.88,1.23
		c0.22,0.14,0.45,0.28,0.68,0.41c0.59,0.35,1.18,0.7,1.79,1.04c0.23,0.13,0.46,0.26,0.7,0.39c0.73,0.4,1.48,0.78,2.25,1.16
		c0.1,0.05,0.2,0.11,0.31,0.16c0.87,0.42,1.76,0.83,2.66,1.22c0.26,0.11,0.52,0.22,0.78,0.33c0.66,0.28,1.32,0.55,1.99,0.81
		c0.33,0.13,0.67,0.26,1.01,0.38c0.65,0.24,1.3,0.47,1.96,0.7c0.32,0.11,0.65,0.22,0.97,0.33c0.96,0.32,1.93,0.62,2.92,0.91
		c0.12,0.04,0.25,0.07,0.38,0.1c0.89,0.25,1.78,0.49,2.69,0.72c0.34,0.09,0.69,0.17,1.04,0.25c0.72,0.17,1.45,0.34,2.18,0.49
		c0.36,0.08,0.71,0.15,1.07,0.22c0.83,0.17,1.66,0.32,2.5,0.47c0.24,0.04,0.48,0.09,0.73,0.13c1.09,0.18,2.19,0.34,3.3,0.49
		c0.23,0.03,0.47,0.05,0.7,0.08c0.63,0.08,1.26,0.16,1.89,0.22c0.41,0.04,0.81,0.08,1.22,0.12c1.46,0.13,2.92,0.23,4.37,0.3
		c1.48,0.07,2.94,0.1,4.39,0.1c2.17,0,4.31-0.08,6.41-0.23c0.06,0,0.13-0.01,0.19-0.01c0.59-0.04,1.18-0.09,1.77-0.15
		c0.18-0.02,0.36-0.03,0.53-0.05c0.48-0.05,0.96-0.1,1.44-0.15c0.3-0.03,0.61-0.07,0.91-0.11c0.35-0.04,0.7-0.09,1.05-0.14
		c0.47-0.06,0.93-0.13,1.39-0.2c0.18-0.03,0.36-0.06,0.55-0.09c6.47-1.05,12.46-2.81,17.55-5.24c0.06-0.03,0.1-0.08,0.14-0.12
		c0.35-0.17,0.69-0.34,1.03-0.52c0.08-0.01,0.15-0.02,0.23-0.05c2.48-1.28,4.71-2.72,6.63-4.28c3.79-3.06,6.38-6.53,7.68-10.32
		c0.14-0.41,0.26-0.83,0.38-1.25c0.02-0.07,0.04-0.15,0.05-0.22c0.09-0.34,0.16-0.68,0.23-1.03c0.02-0.11,0.04-0.22,0.06-0.33
		c0.07-0.42,0.13-0.84,0.17-1.26c0.49-5.18-1.39-10.49-5.44-15.37c-8.66-10.43-26.27-18.01-45.97-19.79
		c-3.74-0.34-7.42-0.46-10.98-0.37C414.41,192.03,394.6,202.56,393.22,217.16z M395.12,220.51c0.06-0.21,0.13-0.42,0.2-0.64
		c0.07-0.22,0.13-0.44,0.21-0.66c0.08-0.22,0.18-0.44,0.27-0.66c0.08-0.21,0.16-0.41,0.25-0.62c0.1-0.23,0.23-0.45,0.34-0.68
		c0.1-0.19,0.18-0.38,0.29-0.57c0.13-0.24,0.28-0.48,0.43-0.72c0.1-0.17,0.2-0.34,0.31-0.51c0.17-0.26,0.36-0.52,0.54-0.77
		c0.1-0.14,0.2-0.29,0.3-0.43c0.22-0.29,0.46-0.58,0.7-0.86c0.09-0.1,0.17-0.21,0.26-0.31c0.34-0.39,0.69-0.77,1.06-1.15l0.76,10.33
		l-6.11-0.07c-0.03-0.16-0.06-0.33-0.09-0.49c0.03-0.17,0.07-0.34,0.11-0.5C395.02,220.97,395.06,220.74,395.12,220.51z
		 M407.33,237.2c0.32-0.18,0.66-0.36,0.99-0.53c0.19-0.1,0.38-0.2,0.57-0.29c0.37-0.19,0.76-0.37,1.14-0.55
		c0.17-0.08,0.33-0.16,0.5-0.23c0.56-0.25,1.12-0.5,1.7-0.74c9.67-3.96,21.95-5.5,34.55-4.34c0.94,0.09,1.87,0.19,2.8,0.3
		c0.22,0.03,0.43,0.06,0.65,0.09c0.71,0.09,1.41,0.19,2.11,0.3c0.28,0.04,0.55,0.1,0.82,0.14c0.64,0.11,1.27,0.21,1.9,0.33
		c0.3,0.06,0.6,0.12,0.91,0.18c0.59,0.12,1.19,0.23,1.77,0.36c0.33,0.07,0.65,0.16,0.98,0.23c0.55,0.13,1.1,0.25,1.64,0.39
		c0.34,0.09,0.67,0.18,1.01,0.28c0.52,0.14,1.04,0.28,1.55,0.43c0.35,0.1,0.68,0.21,1.03,0.32c0.49,0.15,0.99,0.3,1.48,0.46
		c0.35,0.12,0.7,0.24,1.05,0.36c0.46,0.16,0.93,0.32,1.39,0.48c0.36,0.13,0.71,0.27,1.07,0.41c0.43,0.17,0.87,0.33,1.3,0.51
		c0.36,0.15,0.71,0.3,1.07,0.46c0.41,0.18,0.82,0.35,1.22,0.53c0.36,0.16,0.7,0.33,1.06,0.5c0.38,0.18,0.77,0.36,1.15,0.55
		c0.35,0.18,0.69,0.36,1.04,0.55c0.36,0.19,0.72,0.38,1.08,0.57c0.35,0.19,0.68,0.39,1.02,0.59c0.34,0.2,0.67,0.39,1,0.59
		c0.34,0.21,0.66,0.42,0.99,0.63c0.31,0.2,0.63,0.4,0.94,0.61c0.32,0.22,0.63,0.45,0.95,0.67c0.29,0.21,0.59,0.42,0.88,0.63
		c0.31,0.23,0.6,0.47,0.9,0.71c0.23,0.18,0.47,0.37,0.7,0.55l-0.05,1.03c-10.54,4.91-24.88,6.97-39.43,5.66c0,0-0.01,0-0.01,0
		c-1.06-0.1-2.11-0.22-3.16-0.35c-0.18-0.02-0.36-0.04-0.55-0.06c-1.08-0.14-2.14-0.3-3.2-0.47c-0.28-0.05-0.56-0.1-0.84-0.15
		c-0.77-0.13-1.53-0.27-2.29-0.42c-0.37-0.07-0.74-0.15-1.12-0.23c-0.69-0.15-1.38-0.3-2.07-0.47c-0.35-0.08-0.7-0.16-1.04-0.25
		c-0.93-0.23-1.86-0.48-2.77-0.74c-0.4-0.11-0.8-0.24-1.2-0.36c-0.55-0.17-1.1-0.33-1.65-0.51c-0.46-0.15-0.91-0.3-1.35-0.45
		c-0.49-0.17-0.97-0.34-1.44-0.51c-0.44-0.16-0.89-0.32-1.32-0.49c-0.6-0.23-1.19-0.47-1.77-0.71c-0.61-0.25-1.21-0.51-1.8-0.78
		c-0.45-0.2-0.91-0.41-1.35-0.62c-0.42-0.2-0.83-0.4-1.24-0.6c-0.42-0.21-0.83-0.42-1.24-0.64c-0.39-0.2-0.78-0.41-1.16-0.62
		c-0.48-0.26-0.94-0.54-1.4-0.81c-0.46-0.27-0.91-0.55-1.35-0.83c-0.51-0.32-1.02-0.65-1.51-0.98c-0.31-0.21-0.6-0.42-0.9-0.63
		c-0.22-0.16-0.44-0.32-0.66-0.49c0.12-0.07,0.24-0.15,0.37-0.22C406.94,237.43,407.13,237.31,407.33,237.2z M489.44,212.9
		c0.62,0.48,1.22,0.97,1.79,1.47c0.11,0.09,0.21,0.19,0.32,0.29c0.45,0.4,0.9,0.81,1.32,1.22c0.18,0.17,0.34,0.35,0.51,0.53
		c0.33,0.34,0.66,0.67,0.97,1.02c0.18,0.2,0.35,0.41,0.53,0.62c0.27,0.32,0.55,0.64,0.8,0.96c0.17,0.22,0.34,0.44,0.5,0.67
		c0.23,0.31,0.46,0.62,0.67,0.94c0.16,0.23,0.31,0.47,0.46,0.71c0.19,0.31,0.38,0.61,0.56,0.92c0.14,0.24,0.27,0.49,0.4,0.74
		c0.08,0.16,0.15,0.31,0.23,0.47l-8.51-0.1l-2.34-11.73c0.45,0.32,0.88,0.64,1.31,0.96C489.11,212.66,489.28,212.78,489.44,212.9z
		 M498.65,232.74c-0.17,0.33-0.35,0.67-0.54,0.99c-0.12,0.2-0.24,0.4-0.37,0.59c-0.12,0.19-0.24,0.37-0.36,0.55
		c-0.15,0.22-0.3,0.44-0.46,0.66c-0.1,0.14-0.21,0.28-0.31,0.41c-0.96,1.24-2.08,2.43-3.39,3.57l-0.23-1.14l-1.36-6.84h7.41h0.15
		c-0.09,0.22-0.19,0.44-0.29,0.66C498.82,232.38,498.74,232.56,498.65,232.74z M491.12,228.98l-0.85-4.24l8.59,0.1l-0.47,5.29h-7.04
		L491.12,228.98z M488.71,224.16l1.03,5.17l0.56,2.82l1.68,8.4c-1.66,1.3-3.55,2.52-5.62,3.62c-0.22-0.2-0.44-0.39-0.67-0.58
		l1.44-27.31l1.08,5.42L488.71,224.16z M401.21,233.25c-0.47-0.49-0.93-0.99-1.35-1.5c-0.04-0.05-0.09-0.1-0.13-0.15
		c-0.01-0.02-0.02-0.03-0.04-0.05h2.05l0.18,2.41c-0.09-0.09-0.19-0.18-0.28-0.27C401.49,233.54,401.35,233.4,401.21,233.25z
		 M397.4,228.32c-0.08-0.13-0.15-0.26-0.23-0.39c-0.28-0.49-0.54-0.98-0.78-1.47c-0.03-0.05-0.05-0.11-0.08-0.16
		c-0.41-0.89-0.73-1.78-1-2.67l5.84,0.07l0.34,4.61l0.14,1.83h-3.03c-0.03-0.05-0.07-0.09-0.11-0.14c-0.09-0.13-0.17-0.26-0.26-0.38
		C397.94,229.18,397.66,228.75,397.4,228.32z M450.24,193.23c19.34,1.75,36.58,9.14,45.01,19.29c3.81,4.58,5.58,9.54,5.12,14.33
		c-0.05,0.48-0.11,0.96-0.2,1.43c-0.04,0.23-0.1,0.45-0.16,0.68c-0.05,0.22-0.1,0.44-0.15,0.65l0.48-5.39
		c0.01-0.11-0.01-0.22-0.05-0.32c0-0.01,0-0.02,0-0.03c-2.23-5.23-6.83-10.22-13.29-14.44c-0.24-0.15-0.55-0.15-0.78,0.01
		c-0.24,0.16-0.35,0.45-0.3,0.72l0.1,0.5l-1.68,31.82c-0.12-0.09-0.24-0.18-0.36-0.27c-0.27-0.21-0.55-0.41-0.82-0.62
		c-0.33-0.24-0.66-0.48-0.99-0.71c-0.29-0.2-0.58-0.4-0.88-0.6c-0.34-0.23-0.69-0.45-1.04-0.67c-0.31-0.19-0.62-0.39-0.93-0.58
		c-0.36-0.21-0.72-0.43-1.08-0.63c-0.33-0.19-0.65-0.37-0.98-0.55c-0.37-0.2-0.75-0.4-1.12-0.6c-0.34-0.18-0.68-0.35-1.03-0.52
		c-0.38-0.19-0.77-0.38-1.17-0.56c-0.35-0.17-0.71-0.33-1.07-0.49c-0.4-0.18-0.8-0.35-1.21-0.53c-0.37-0.16-0.73-0.31-1.11-0.46
		c-0.41-0.17-0.83-0.33-1.25-0.49c-0.38-0.14-0.75-0.29-1.13-0.43c-0.43-0.16-0.87-0.31-1.3-0.46c-0.39-0.13-0.77-0.27-1.16-0.39
		c-0.44-0.14-0.9-0.28-1.35-0.42c-0.39-0.12-0.78-0.24-1.18-0.36c-0.46-0.13-0.93-0.26-1.4-0.39c-0.39-0.11-0.78-0.22-1.18-0.32
		c-0.48-0.12-0.97-0.24-1.46-0.35c-0.39-0.09-0.78-0.19-1.18-0.28c-0.51-0.11-1.02-0.21-1.54-0.32c-0.38-0.08-0.76-0.16-1.15-0.23
		c-0.55-0.1-1.1-0.19-1.65-0.28c-0.36-0.06-0.72-0.13-1.09-0.18c-0.61-0.1-1.24-0.18-1.86-0.26c-0.31-0.04-0.61-0.09-0.92-0.13
		c-0.93-0.12-1.87-0.22-2.81-0.3c-1.28-0.12-2.55-0.2-3.82-0.26c-0.18-0.01-0.36-0.02-0.54-0.03c-1.22-0.05-2.42-0.08-3.63-0.08
		c-0.1,0-0.2-0.01-0.3-0.01c-0.12,0-0.23,0.01-0.35,0.01c-1.11,0-2.21,0.02-3.31,0.07c-0.02,0-0.04,0-0.07,0
		c-1.07,0.05-2.13,0.12-3.19,0.2c-0.22,0.02-0.44,0.03-0.65,0.05c-1.05,0.09-2.1,0.2-3.13,0.34c-0.14,0.02-0.29,0.04-0.43,0.06
		c-0.94,0.13-1.87,0.27-2.78,0.43c-0.18,0.03-0.37,0.06-0.55,0.09c-1,0.18-1.98,0.38-2.95,0.6c-0.19,0.04-0.37,0.09-0.56,0.13
		c-0.89,0.21-1.78,0.43-2.64,0.68c-0.11,0.03-0.22,0.06-0.33,0.09c-0.94,0.27-1.86,0.56-2.76,0.86c-0.19,0.06-0.38,0.13-0.57,0.2
		c-0.91,0.32-1.81,0.65-2.68,1v0c-0.62,0.25-1.22,0.51-1.81,0.79c-0.18,0.08-0.36,0.17-0.54,0.26c-0.4,0.19-0.81,0.38-1.2,0.58
		c-0.22,0.11-0.42,0.22-0.63,0.34c-0.34,0.18-0.69,0.36-1.02,0.55c-0.22,0.12-0.44,0.25-0.65,0.38c-0.23,0.14-0.47,0.27-0.69,0.41
		c-0.59-0.47-1.16-0.94-1.7-1.42l-0.34-4.62l-0.22-2.93l-1.29-17.51c-0.02-0.27-0.19-0.51-0.44-0.61c-0.25-0.1-0.54-0.05-0.74,0.13
		c-0.43,0.39-0.83,0.79-1.23,1.19c-0.11,0.11-0.21,0.22-0.31,0.33c-0.33,0.35-0.65,0.71-0.96,1.07c-0.05,0.06-0.1,0.12-0.15,0.17
		c-0.34,0.41-0.66,0.83-0.96,1.25c-0.08,0.11-0.16,0.22-0.23,0.33c-0.24,0.35-0.47,0.7-0.69,1.06c-0.06,0.09-0.12,0.18-0.17,0.28
		c-0.25,0.43-0.49,0.87-0.7,1.31c-0.05,0.11-0.1,0.21-0.15,0.32c-0.08,0.17-0.17,0.35-0.24,0.52c0.01-0.13,0-0.27,0.01-0.4
		C396.14,201.39,421.09,190.59,450.24,193.23z"/>
	<path d="M312.64,174.84c-0.06,0.43-0.1,0.87-0.12,1.31c-0.02,0.47-0.01,0.94,0.02,1.41c0,0.09,0.01,0.17,0.02,0.26
		c0.04,0.48,0.09,0.96,0.18,1.44c0,0.01,0,0.01,0,0.02c0.05,0.26,0.1,0.52,0.16,0.78l0,0l0.08,0.32c0,0,0,0,0,0
		c0.03,0.1,0.07,0.21,0.1,0.31c0.04,0.14,0.09,0.28,0.13,0.41c0.12,0.37,0.25,0.75,0.4,1.12c0.06,0.14,0.12,0.27,0.18,0.41
		c0.16,0.36,0.32,0.72,0.51,1.08c0.08,0.16,0.17,0.31,0.26,0.47c0.18,0.33,0.37,0.66,0.58,0.98c0.12,0.19,0.25,0.38,0.38,0.56
		c0.12,0.18,0.23,0.36,0.37,0.54c0,0,0,0,0,0c0.09,0.12,0.19,0.24,0.28,0.36c0.11,0.14,0.22,0.28,0.34,0.43
		c0.25,0.31,0.51,0.61,0.78,0.92c0.09,0.1,0.16,0.2,0.25,0.3c0.04,0.04,0.08,0.08,0.12,0.12c0.43,0.47,0.89,0.92,1.38,1.38
		c0.14,0.13,0.28,0.25,0.43,0.38c0.21,0.19,0.42,0.39,0.64,0.58c0.14,0.12,0.29,0.23,0.44,0.35c0.25,0.21,0.51,0.41,0.77,0.61
		c0.29,0.22,0.59,0.44,0.89,0.66c0.32,0.23,0.63,0.46,0.96,0.69c0.02,0.01,0.04,0.03,0.07,0.04c0.96,0.66,1.99,1.28,3.06,1.88
		c0.13,0.07,0.25,0.15,0.38,0.22c0.03,0.01,0.06,0.03,0.08,0.04c1.05,0.58,2.13,1.13,3.26,1.65c0.37,0.17,0.76,0.33,1.14,0.5
		c0.53,0.23,1.07,0.46,1.61,0.68c6.01,2.46,12.76,4.11,20.17,4.92c0.34,0.04,0.69,0.08,1.03,0.11c0.74,0.07,1.48,0.15,2.24,0.2
		c1.31,0.1,2.64,0.19,3.97,0.24c0,0,0.01,0,0.01,0c0.84,0.03,1.86,0.05,3.02,0.06c0.14,0,0.29,0.01,0.43,0.01
		c5.03,0,9.86-0.41,14.4-1.17c0.21-0.03,0.43-0.07,0.64-0.11c0.36-0.06,0.72-0.13,1.07-0.19c5.36-0.99,11.05-2.62,16.3-5.27
		c1.88-0.95,3.62-1.99,5.17-3.09c2.93-2.09,5.19-4.42,6.71-6.91c0.89-1.45,1.52-2.96,1.89-4.49c0.01-0.03,0.01-0.07,0.02-0.1
		c0.03-0.12,0.05-0.25,0.07-0.37c0.06-0.28,0.12-0.57,0.16-0.86c0.06-0.42,0.1-0.85,0.12-1.28c0.02-0.52,0.02-1.04-0.02-1.56
		c-0.25-3.64-1.95-7.26-4.99-10.56c-7.83-8.51-23.52-14.26-41.18-15.18c-0.48-0.03-0.96-0.06-1.45-0.08
		c-0.84-0.03-1.68-0.05-2.51-0.06C335.02,152.06,314.51,161.83,312.64,174.84z M360.03,153.73c0.81,0.01,1.62,0.03,2.44,0.06
		c17.88,0.66,33.84,6.33,41.63,14.81c0.4,0.43,0.77,0.87,1.11,1.3c0.11,0.14,0.21,0.29,0.32,0.43c0.22,0.29,0.44,0.59,0.64,0.88
		c0.12,0.18,0.22,0.36,0.33,0.54c0.16,0.26,0.33,0.53,0.47,0.79c0.11,0.19,0.19,0.39,0.29,0.58c0.13,0.26,0.26,0.51,0.37,0.77
		c0.09,0.2,0.16,0.4,0.23,0.6c0.1,0.25,0.19,0.51,0.27,0.76c0.06,0.2,0.11,0.41,0.17,0.62c0.07,0.25,0.13,0.5,0.18,0.76
		c0.04,0.21,0.07,0.42,0.1,0.63c0.04,0.25,0.07,0.5,0.09,0.76c0.02,0.21,0.03,0.43,0.03,0.64c0,0.13,0,0.27,0,0.4
		c-0.04-0.09-0.09-0.17-0.13-0.26c-0.1-0.21-0.21-0.41-0.32-0.62c-0.13-0.24-0.26-0.47-0.4-0.71c-0.12-0.2-0.24-0.4-0.37-0.6
		c-0.15-0.24-0.31-0.47-0.48-0.7c-0.14-0.19-0.27-0.39-0.42-0.58c-0.18-0.24-0.37-0.47-0.56-0.7c-0.15-0.19-0.3-0.37-0.46-0.55
		c-0.21-0.24-0.43-0.47-0.65-0.71c-0.16-0.17-0.32-0.35-0.5-0.52c-0.24-0.24-0.5-0.49-0.76-0.73c-0.17-0.16-0.33-0.32-0.51-0.48
		c-0.3-0.27-0.62-0.53-0.93-0.79c-0.15-0.13-0.3-0.26-0.46-0.38c-0.49-0.39-0.99-0.77-1.52-1.14c-0.22-0.16-0.51-0.18-0.75-0.05
		c-0.24,0.13-0.38,0.38-0.37,0.65l0.9,22.66c-1.32,0.92-2.77,1.79-4.34,2.59c-0.23-0.13-0.47-0.24-0.71-0.37
		c-0.28-0.14-0.55-0.29-0.83-0.43c-0.29-0.15-0.6-0.29-0.9-0.43c-0.29-0.14-0.58-0.28-0.87-0.41c-0.3-0.14-0.62-0.27-0.93-0.41
		c-0.3-0.13-0.6-0.26-0.9-0.39c-0.31-0.13-0.64-0.26-0.96-0.38c-0.31-0.12-0.62-0.25-0.94-0.37c-0.32-0.12-0.65-0.24-0.97-0.35
		c-0.33-0.12-0.65-0.24-0.98-0.35c-0.33-0.11-0.66-0.22-0.99-0.32c-0.34-0.11-0.67-0.22-1.01-0.33c-0.33-0.1-0.67-0.2-1.01-0.3
		c-0.35-0.1-0.69-0.21-1.04-0.3c-0.34-0.09-0.68-0.18-1.02-0.27c-0.36-0.09-0.71-0.19-1.08-0.28c-0.34-0.08-0.69-0.16-1.04-0.24
		c-0.37-0.09-0.73-0.17-1.1-0.26c-0.35-0.08-0.71-0.15-1.06-0.22c-0.37-0.08-0.74-0.16-1.12-0.23c-0.36-0.07-0.72-0.13-1.08-0.19
		c-0.38-0.07-0.76-0.14-1.14-0.2c-0.36-0.06-0.72-0.11-1.08-0.16c-0.39-0.06-0.78-0.12-1.17-0.18c-0.38-0.05-0.76-0.1-1.14-0.14
		c-0.38-0.05-0.76-0.1-1.14-0.14c-0.4-0.04-0.79-0.08-1.19-0.12c-0.37-0.04-0.74-0.08-1.12-0.11c-0.45-0.04-0.9-0.07-1.35-0.1
		c-0.33-0.02-0.66-0.05-0.99-0.07c-0.78-0.05-1.57-0.09-2.35-0.12c-1.03-0.04-2.06-0.05-3.09-0.06c-0.14,0-0.28-0.01-0.42-0.01
		c-0.22,0-0.43,0.01-0.65,0.01c-0.6,0-1.2,0.02-1.8,0.03c-0.46,0.01-0.91,0.02-1.37,0.04c-0.38,0.02-0.75,0.04-1.12,0.06
		c-1.28,0.07-2.54,0.16-3.79,0.28c-0.05,0.01-0.11,0.01-0.16,0.01c-0.78,0.08-1.55,0.17-2.32,0.26c-0.03,0-0.06,0.01-0.09,0.01
		c-3.08,0.39-6.07,0.95-8.93,1.66c-0.16,0.04-0.32,0.08-0.47,0.12c-0.63,0.16-1.25,0.32-1.86,0.5c-0.08,0.02-0.15,0.05-0.23,0.07
		c-0.71,0.21-1.42,0.41-2.11,0.64c-1.96,0.64-3.83,1.36-5.58,2.15c-0.16,0.07-0.32,0.15-0.48,0.23c-0.36,0.16-0.71,0.33-1.06,0.5
		c-1.44-0.81-2.77-1.67-4-2.57c-0.22-0.16-0.45-0.33-0.67-0.49c-0.27-0.21-0.54-0.42-0.79-0.63c-0.09-0.07-0.17-0.15-0.26-0.22
		l1.05-20.7c0.01-0.27-0.13-0.53-0.37-0.66c-0.24-0.13-0.53-0.11-0.76,0.05c-0.5,0.37-0.98,0.74-1.44,1.13
		c-0.14,0.11-0.27,0.23-0.4,0.35c-0.33,0.28-0.65,0.57-0.95,0.86c-0.13,0.12-0.26,0.25-0.39,0.37c-0.36,0.35-0.7,0.71-1.03,1.08
		c-0.04,0.05-0.09,0.1-0.13,0.14c-0.36,0.41-0.7,0.83-1.01,1.25c-0.09,0.12-0.18,0.25-0.27,0.37c-0.23,0.31-0.44,0.63-0.64,0.95
		c-0.09,0.14-0.17,0.27-0.25,0.41c-0.22,0.36-0.41,0.73-0.6,1.1c-0.04,0.08-0.08,0.15-0.12,0.23c0,0.01-0.01,0.02-0.01,0.03
		c0-0.19-0.01-0.39-0.01-0.58c0.04-0.83,0.16-1.65,0.36-2.46C317.19,162.08,336.62,153.48,360.03,153.73z M360.19,202.12
		c0,0-0.01,0-0.01,0c-1.28-0.05-2.53-0.13-3.78-0.22c-0.76-0.06-1.51-0.13-2.26-0.2c-0.32-0.03-0.64-0.07-0.95-0.1
		c-7.04-0.8-13.62-2.38-19.32-4.6c-0.48-0.19-0.97-0.38-1.45-0.58c-0.33-0.14-0.64-0.28-0.96-0.42c-1-0.45-1.98-0.91-2.93-1.4
		c0.07-0.03,0.14-0.07,0.21-0.1c0.31-0.14,0.63-0.28,0.95-0.42c0.26-0.11,0.51-0.22,0.77-0.33c0.39-0.16,0.79-0.32,1.19-0.47
		c0.19-0.07,0.37-0.15,0.56-0.22c0.51-0.19,1.03-0.37,1.55-0.55c0.08-0.03,0.16-0.06,0.25-0.09c0.4-0.14,0.82-0.26,1.23-0.39
		c0.49-0.15,0.99-0.3,1.49-0.45c0.83-0.24,1.67-0.46,2.53-0.67c0.27-0.07,0.53-0.13,0.8-0.2c0.64-0.15,1.28-0.29,1.93-0.42
		c0.06-0.01,0.12-0.02,0.18-0.04c1.32-0.27,2.66-0.5,4.03-0.7c0.09-0.01,0.18-0.03,0.27-0.04c2-0.29,4.04-0.51,6.12-0.66
		c0.44-0.03,0.88-0.06,1.33-0.08c0.5-0.03,1.01-0.06,1.51-0.08c0.94-0.04,1.88-0.06,2.83-0.07c0.33,0,0.66,0,0.99,0
		c1.07,0,2.14,0.01,3.21,0.05c0.76,0.03,1.53,0.07,2.28,0.11c0.23,0.01,0.46,0.03,0.69,0.05c0.52,0.04,1.05,0.07,1.57,0.12
		c0.28,0.02,0.55,0.05,0.83,0.08c0.47,0.04,0.94,0.09,1.41,0.14c0.3,0.03,0.59,0.07,0.88,0.11c0.44,0.05,0.89,0.11,1.33,0.17
		c0.3,0.04,0.6,0.09,0.91,0.13c0.43,0.06,0.85,0.12,1.27,0.19c0.31,0.05,0.61,0.1,0.91,0.16c0.41,0.07,0.83,0.14,1.23,0.22
		c0.31,0.06,0.61,0.12,0.91,0.18c0.4,0.08,0.8,0.16,1.2,0.25c0.3,0.07,0.6,0.13,0.9,0.2c0.39,0.09,0.78,0.18,1.17,0.27
		c0.3,0.07,0.59,0.15,0.89,0.22c0.38,0.1,0.76,0.2,1.14,0.3c0.29,0.08,0.58,0.16,0.88,0.25c0.37,0.11,0.74,0.22,1.11,0.33
		c0.29,0.09,0.58,0.18,0.86,0.27c0.36,0.12,0.72,0.23,1.08,0.35c0.28,0.1,0.56,0.19,0.84,0.29c0.35,0.12,0.7,0.25,1.04,0.38
		c0.28,0.1,0.55,0.21,0.83,0.31c0.34,0.13,0.68,0.27,1.01,0.4c0.27,0.11,0.54,0.22,0.8,0.33c0.33,0.14,0.66,0.28,0.98,0.43
		c0.26,0.12,0.52,0.23,0.77,0.35c0.32,0.15,0.63,0.3,0.95,0.45c0.25,0.12,0.5,0.24,0.75,0.37c0.08,0.04,0.15,0.08,0.23,0.12
		c-11.69,5.46-25.26,6.07-32.13,5.96C361.4,202.15,360.8,202.14,360.19,202.12z M401.81,172.58c0.13,0.11,0.24,0.22,0.37,0.33
		c0.25,0.22,0.5,0.44,0.73,0.67c0.14,0.13,0.27,0.27,0.41,0.4c0.21,0.21,0.41,0.41,0.61,0.62c0.14,0.14,0.27,0.29,0.4,0.44
		c0.18,0.2,0.36,0.41,0.53,0.61c0.13,0.15,0.25,0.3,0.37,0.45c0.16,0.2,0.31,0.41,0.46,0.61c0.11,0.15,0.22,0.31,0.33,0.46
		c0.14,0.21,0.28,0.41,0.41,0.62c0.1,0.15,0.2,0.31,0.29,0.46c0.13,0.22,0.24,0.43,0.36,0.65c0.08,0.15,0.16,0.29,0.23,0.44
		c0.01,0.03,0.03,0.06,0.04,0.09l-6.41,0l-0.31-7.85C401.03,171.93,401.42,172.25,401.81,172.58z M407.86,183.72
		c-0.06,0.15-0.12,0.3-0.18,0.45c-0.09,0.22-0.19,0.43-0.29,0.64c-0.04,0.08-0.08,0.16-0.12,0.23c-0.12,0.24-0.25,0.48-0.38,0.72
		l-5.7-0.04l-0.19-4.87l6.95,0c0.02,0.06,0.05,0.13,0.07,0.19c0.11,0.31,0.21,0.63,0.29,0.94c0.02,0.07,0.04,0.14,0.06,0.21
		c-0.08,0.33-0.18,0.66-0.29,0.98C408,183.37,407.93,183.55,407.86,183.72z M401.3,188.78l-0.06-1.63l4.73,0.03
		c-1.17,1.63-2.69,3.18-4.55,4.63L401.3,188.78z M318.33,187.04c-0.14-0.15-0.26-0.31-0.39-0.46l2.08,0.01l-0.02,0.35l-0.09,1.71
		c-0.42-0.4-0.84-0.81-1.22-1.22C318.56,187.3,318.44,187.17,318.33,187.04z M315.53,183.07c-0.08-0.15-0.15-0.31-0.22-0.46
		c-0.21-0.43-0.39-0.86-0.55-1.3c-0.05-0.14-0.1-0.27-0.15-0.41l1.43,0l4.25,0l-0.17,3.38l-0.04,0.88l-3.26-0.02
		c-0.06-0.08-0.12-0.17-0.18-0.25c-0.13-0.19-0.26-0.38-0.38-0.58c-0.13-0.2-0.24-0.4-0.36-0.6
		C315.77,183.51,315.64,183.29,315.53,183.07z M314.73,178.57c0.08-0.22,0.17-0.44,0.27-0.66c0.08-0.18,0.16-0.37,0.24-0.55
		c0.11-0.22,0.22-0.44,0.34-0.66c0.1-0.18,0.19-0.36,0.29-0.53c0.13-0.22,0.27-0.44,0.42-0.65c0.11-0.17,0.22-0.34,0.34-0.51
		c0.16-0.22,0.33-0.44,0.5-0.66c0.13-0.16,0.25-0.32,0.38-0.48c0.19-0.23,0.39-0.45,0.59-0.67c0.13-0.15,0.26-0.3,0.4-0.44
		c0.23-0.24,0.48-0.48,0.73-0.72c0.13-0.12,0.24-0.25,0.37-0.37c0.39-0.36,0.79-0.71,1.22-1.05l-0.45,8.88l-5.94,0
		c0.03-0.12,0.07-0.24,0.11-0.36C314.6,178.94,314.66,178.76,314.73,178.57z"/>
	<path d="M144.36,80.32c-0.19,0.25-0.37,0.5-0.54,0.75c-1.01,1.52-1.49,3.06-1.44,4.57c0.01,0.22,0.02,0.44,0.05,0.66
		c0,0.01,0,0.01,0,0.02c0.02,0.14,0.04,0.29,0.07,0.43c0.01,0.03,0.02,0.05,0.02,0.08c0.06,0.27,0.13,0.53,0.23,0.79
		c0.01,0.02,0.02,0.04,0.03,0.06c0.09,0.25,0.2,0.49,0.32,0.73c0.03,0.06,0.06,0.11,0.09,0.17c0.13,0.25,0.28,0.5,0.44,0.74
		c0,0.01,0.01,0.01,0.01,0.02c0.18,0.26,0.38,0.52,0.6,0.77c0.01,0.01,0.01,0.02,0.02,0.03c0.02,0.02,0.04,0.04,0.05,0.05
		c0.17,0.2,0.36,0.39,0.56,0.58c0.01,0.01,0.02,0.02,0.04,0.04c4.49,4.35,14.55,6.97,26.97,6.97c2.53,0,5.15-0.11,7.85-0.33
		c0.87-0.07,1.74-0.16,2.62-0.25c0.86-0.09,1.71-0.2,2.56-0.32c0.28-0.04,0.56-0.08,0.84-0.12c0.57-0.08,1.14-0.17,1.71-0.26
		c0.31-0.05,0.62-0.1,0.93-0.15c0.73-0.13,1.46-0.26,2.18-0.41c0.43-0.09,0.86-0.18,1.29-0.27c0.32-0.07,0.64-0.14,0.96-0.21
		c0.49-0.11,0.98-0.23,1.46-0.34c0.19-0.05,0.37-0.09,0.55-0.14c1.78-0.45,3.49-0.94,5.12-1.47c0.01,0,0.01,0,0.02-0.01
		c4.86-1.59,9.02-3.55,12.13-5.75c0.05-0.04,0.11-0.07,0.16-0.11c0.39-0.28,0.75-0.56,1.1-0.84c0.09-0.07,0.19-0.14,0.28-0.21
		c0,0,0,0,0,0l0.19-0.16c0,0,0,0,0,0c0.01-0.01,0.01-0.01,0.02-0.02c0.25-0.21,0.48-0.43,0.71-0.65c0.18-0.16,0.36-0.33,0.52-0.49
		c0.16-0.17,0.31-0.34,0.46-0.51c0.19-0.21,0.39-0.43,0.56-0.64c0.04-0.04,0.08-0.09,0.11-0.13c0.21-0.27,0.4-0.53,0.57-0.8
		c0.03-0.04,0.05-0.08,0.07-0.12c0.19-0.3,0.36-0.6,0.51-0.9c0.02-0.04,0.05-0.08,0.07-0.12c0,0,0,0,0,0l0,0c0,0,0,0,0,0l0,0
		c0.03-0.06,0.05-0.11,0.07-0.17c0.04-0.08,0.08-0.17,0.11-0.25c0.01-0.03,0.03-0.07,0.05-0.1c0,0,0,0,0,0
		c0.02-0.05,0.03-0.1,0.05-0.16c0.08-0.2,0.15-0.41,0.2-0.61c0.02-0.08,0.04-0.16,0.06-0.24c0.05-0.2,0.09-0.4,0.12-0.61
		c0.01-0.08,0.03-0.16,0.04-0.24c0.02-0.21,0.04-0.42,0.04-0.62c0-0.07,0.01-0.14,0.01-0.21c0-0.27-0.02-0.55-0.06-0.82
		c-1.11-8.07-17.23-12.79-37.23-11.14c-0.89,0.07-1.78,0.15-2.68,0.25C162.59,68.81,149.29,74,144.36,80.32z M145.48,81.19
		c0.84-1.08,1.98-2.13,3.35-3.14c0.04-0.03,0.08-0.06,0.12-0.09c1.33-0.96,2.89-1.88,4.62-2.75c0.13-0.07,0.26-0.14,0.39-0.2
		c0.98-0.48,2.03-0.93,3.12-1.38c5.94-2.41,13.36-4.25,21.31-5.12c0.04,0,0.08-0.01,0.12-0.01c0.72-0.08,1.44-0.14,2.15-0.21
		c0.21-0.02,0.43-0.03,0.64-0.05c0.6-0.05,1.2-0.09,1.8-0.12c0.16-0.01,0.33-0.02,0.49-0.03c0.76-0.04,1.51-0.07,2.26-0.09
		c0.08,0,0.16,0,0.24,0c0.67-0.02,1.34-0.03,2-0.03c0.21,0,0.41,0,0.62,0c0.28,0,0.55,0,0.83,0.01c0.25,0,0.49,0.01,0.74,0.01
		c0.28,0.01,0.56,0.01,0.83,0.02c0.23,0.01,0.46,0.02,0.68,0.03c0.54,0.02,1.07,0.05,1.59,0.08c0.21,0.01,0.41,0.02,0.62,0.04
		c0.29,0.02,0.57,0.04,0.86,0.07c0.2,0.02,0.41,0.03,0.61,0.05c0.28,0.03,0.57,0.05,0.85,0.08c0.2,0.02,0.39,0.04,0.59,0.06
		c0.28,0.03,0.55,0.06,0.83,0.09c0.19,0.02,0.38,0.05,0.57,0.07c0.28,0.04,0.55,0.07,0.82,0.11c0.13,0.02,0.25,0.04,0.38,0.06
		c0.55,0.08,1.09,0.17,1.63,0.27c0.17,0.03,0.35,0.06,0.52,0.09c0.25,0.05,0.49,0.1,0.73,0.15c0.18,0.04,0.37,0.07,0.55,0.11
		c0.23,0.05,0.46,0.1,0.69,0.15c0.18,0.04,0.36,0.09,0.55,0.13c0.22,0.05,0.44,0.11,0.66,0.16c0.18,0.05,0.37,0.1,0.55,0.15
		c0.21,0.06,0.41,0.11,0.62,0.17c0.35,0.1,0.69,0.2,1.03,0.31c0.18,0.06,0.35,0.12,0.52,0.17c0.19,0.06,0.37,0.12,0.55,0.19
		c0.17,0.06,0.34,0.13,0.51,0.19c0.18,0.07,0.35,0.13,0.52,0.2c0.16,0.06,0.32,0.13,0.48,0.19c0.17,0.07,0.34,0.15,0.51,0.22
		c0.14,0.06,0.29,0.13,0.43,0.19c0.19,0.09,0.37,0.18,0.55,0.27c0.11,0.06,0.23,0.11,0.33,0.17c0.27,0.14,0.54,0.29,0.79,0.44
		c0.1,0.06,0.19,0.12,0.28,0.17c0.17,0.1,0.33,0.2,0.49,0.31c0.1,0.07,0.2,0.13,0.29,0.2c0.14,0.1,0.28,0.2,0.42,0.3
		c0.09,0.07,0.18,0.14,0.27,0.21c0.14,0.11,0.27,0.22,0.39,0.33c0.07,0.07,0.15,0.13,0.22,0.2c0.16,0.15,0.3,0.29,0.44,0.44
		c0.03,0.03,0.07,0.07,0.1,0.1c0.17,0.18,0.32,0.37,0.46,0.56c0.04,0.06,0.08,0.12,0.12,0.18c0.1,0.13,0.19,0.27,0.27,0.41
		c0.04,0.07,0.08,0.15,0.12,0.22c0.07,0.13,0.14,0.26,0.2,0.39c0.03,0.07,0.07,0.15,0.1,0.22c0.06,0.14,0.11,0.28,0.15,0.42
		c0.02,0.07,0.05,0.13,0.06,0.2c0.06,0.21,0.1,0.42,0.13,0.63c0.03,0.2,0.04,0.4,0.05,0.6c0,0.04-0.01,0.09-0.01,0.13
		c0,0.16-0.01,0.32-0.02,0.48c0,0,0,0,0,0.01c-0.03-0.04-0.06-0.07-0.09-0.11c-0.16-0.21-0.34-0.41-0.53-0.62
		c-0.09-0.1-0.17-0.2-0.27-0.3c-0.29-0.3-0.61-0.59-0.96-0.88c-0.17-0.14-0.4-0.19-0.62-0.14c-0.22,0.05-0.4,0.21-0.48,0.41
		l-1.63,3.89c-0.01,0.01,0,0.03-0.01,0.04c-0.03,0.08-0.04,0.17-0.04,0.26c0,0.02-0.01,0.04,0,0.06c0,0,0,0.01,0,0.01l0.46,3.32
		l-1.55,0.08c-0.27,0.01-0.51,0.18-0.62,0.43l-0.73,1.74c-5.31,3.23-13.13,5.89-21.94,7.4c-0.02,0-0.04,0.01-0.06,0.01
		c-0.79,0.13-1.59,0.26-2.39,0.37c-0.18,0.03-0.36,0.05-0.55,0.08c-0.85,0.12-1.7,0.22-2.56,0.32c-0.8,0.09-1.6,0.16-2.4,0.23
		c-0.29,0.02-0.57,0.05-0.85,0.07c-0.49,0.04-0.97,0.07-1.46,0.1c-0.85,0.05-1.71,0.09-2.55,0.12c-0.01,0-0.02,0-0.04,0
		c-5.05,0.15-9.8-0.13-14.02-0.78l-0.29-0.16l-3.18-17.29l0.03-0.05c0.08-0.13,0.12-0.28,0.11-0.43c-0.01-0.15-0.06-0.29-0.16-0.41
		c-0.2-0.24-0.53-0.32-0.81-0.2c-5.77,2.34-10.03,5.16-12.31,8.16c0,0,0,0.01-0.01,0.01c0,0,0,0-0.01,0.01
		c-0.01,0.01-0.01,0.02-0.01,0.02c-0.05,0.07-0.08,0.15-0.1,0.23c0,0.01-0.01,0.02-0.01,0.04c0,0.01,0,0.02,0,0.03
		c-0.01,0.09-0.01,0.18,0.01,0.27c0,0.01,0,0.01,0,0.02l0.84,3.03c-0.01-0.01-0.02-0.02-0.03-0.03c-0.01-0.01-0.01-0.02-0.02-0.03
		c-0.14-0.18-0.26-0.37-0.37-0.56c-0.04-0.07-0.07-0.14-0.11-0.2c-0.07-0.13-0.14-0.27-0.21-0.41c-0.04-0.08-0.07-0.16-0.1-0.25
		c-0.05-0.13-0.1-0.26-0.14-0.39c-0.03-0.08-0.05-0.17-0.07-0.26c-0.05-0.18-0.09-0.36-0.11-0.54
		C143.62,84.52,144.17,82.86,145.48,81.19z M214.97,83.26c-0.18,0.22-0.37,0.43-0.57,0.65c-0.12,0.13-0.24,0.27-0.38,0.4
		c-0.04,0.04-0.08,0.07-0.12,0.11l-0.25-1.83l1.02-0.05l0.88-0.05c-0.01,0.02-0.03,0.03-0.04,0.05
		C215.34,82.78,215.16,83.02,214.97,83.26z M215.45,80.02c0.05,0.06,0.09,0.11,0.13,0.17c0.2,0.27,0.38,0.53,0.53,0.81
		c0.01,0.01,0.01,0.03,0.02,0.04l-0.83,0.04l-1.38,0.07l0.81-1.93C215,79.49,215.23,79.76,215.45,80.02z M146.68,90.45
		c-0.07-0.06-0.13-0.11-0.2-0.17l0.73-0.04l0.79-0.04l-0.53,0.83c-0.2-0.13-0.38-0.27-0.56-0.41
		C146.83,90.56,146.75,90.51,146.68,90.45z M147.65,83.66c0.23-0.2,0.47-0.4,0.73-0.59c0.12-0.09,0.25-0.19,0.37-0.28
		c0.26-0.19,0.53-0.38,0.81-0.57c0.12-0.08,0.24-0.17,0.37-0.25c0.81-0.54,1.7-1.06,2.65-1.57c0.14-0.08,0.3-0.15,0.44-0.23
		c0.35-0.18,0.7-0.36,1.06-0.53c0.17-0.08,0.35-0.17,0.53-0.25c0.13-0.06,0.27-0.12,0.4-0.18l-3.37,5.28l-5.17,0.28
		c0.28-0.28,0.57-0.56,0.89-0.84C147.45,83.83,147.55,83.75,147.65,83.66z M156.29,79.81l1.52,8.24l1.32,7.16
		c-1.43-0.26-2.79-0.57-4.06-0.92l-1.38-5.45l-0.89-3.54l2.23-3.5L156.29,79.81z M146.49,88.86l-0.59-2.12l-0.15-0.53l5.74-0.31
		l1.52,6.03l0.18,0.7v0l0.3,1.18c-0.89-0.29-1.72-0.6-2.51-0.92l-0.98-3.65c-0.02-0.06-0.04-0.11-0.07-0.16c0,0,0-0.01,0-0.01
		c0,0,0,0-0.01-0.01c-0.01-0.01-0.01-0.02-0.02-0.02c-0.01-0.02-0.03-0.04-0.04-0.05c-0.02-0.03-0.04-0.05-0.07-0.08
		c-0.01-0.01-0.03-0.02-0.04-0.03c-0.02-0.02-0.04-0.03-0.06-0.04c-0.02-0.01-0.04-0.03-0.07-0.04c-0.02-0.01-0.03-0.01-0.05-0.02
		c-0.01,0-0.01-0.01-0.02-0.01c-0.02-0.01-0.04-0.02-0.06-0.02c-0.02-0.01-0.04-0.01-0.06-0.01c-0.01,0-0.01,0-0.02,0
		c-0.02,0-0.04,0-0.06,0c-0.03,0-0.05-0.01-0.08-0.01L146.49,88.86z M149.06,91.16l0.26,0.96c-0.22-0.11-0.43-0.23-0.64-0.35
		L149.06,91.16z"/>
	<path d="M247.79,141.57c0,0.47,0.04,0.93,0.1,1.4c0.02,0.11,0.04,0.23,0.06,0.34c0.06,0.36,0.13,0.71,0.23,1.07
		c0.01,0.05,0.02,0.11,0.04,0.16l0,0c0.04,0.12,0.07,0.25,0.11,0.37c0.01,0.03,0.02,0.06,0.04,0.09c0.07,0.22,0.16,0.43,0.24,0.65
		c0.06,0.14,0.11,0.28,0.17,0.42c0.1,0.22,0.2,0.44,0.32,0.66c0.07,0.14,0.14,0.27,0.22,0.4c0.12,0.21,0.24,0.43,0.37,0.64
		c0.1,0.16,0.21,0.32,0.32,0.47c0.12,0.18,0.24,0.37,0.38,0.55c0.01,0.02,0.02,0.03,0.04,0.05c0.22,0.3,0.46,0.59,0.71,0.88
		c0.08,0.09,0.16,0.18,0.24,0.27c0.23,0.25,0.46,0.5,0.71,0.75c0.05,0.05,0.1,0.11,0.15,0.16c0.03,0.03,0.07,0.06,0.1,0.09
		c0.33,0.32,0.67,0.64,1.04,0.96c0.04,0.04,0.1,0.07,0.14,0.11c0.25,0.21,0.52,0.42,0.79,0.63c0.21,0.16,0.41,0.33,0.63,0.48
		c0.37,0.28,0.77,0.54,1.17,0.81c0.08,0.05,0.14,0.1,0.22,0.15c0.05,0.03,0.11,0.07,0.16,0.1c7.92,5.09,20.26,8.11,33.91,8.11
		c0,0,0.01,0,0.01,0c0,0,0,0,0,0c0.37,0,0.74,0,1.11-0.01c1.07-0.01,2.12-0.05,3.17-0.1c0.29-0.01,0.57-0.03,0.85-0.04
		c0.93-0.05,1.84-0.12,2.75-0.2c0.47-0.04,0.94-0.09,1.41-0.14c0.42-0.04,0.84-0.09,1.25-0.14c6.27-0.74,12.14-2.13,17.31-4.14
		c0,0,0,0,0,0c3.66-1.42,6.82-3.11,9.4-5c1.16-0.85,2.21-1.75,3.11-2.68c1.95-2,3.26-4.13,3.88-6.33v0l0,0
		c0.04-0.13,0.05-0.25,0.08-0.38c0.07-0.29,0.14-0.58,0.19-0.88c0.02-0.15,0.05-0.29,0.07-0.44c0.06-0.45,0.09-0.9,0.09-1.35
		c-0.01-3.31-1.5-6.45-4.44-9.34c-7.37-7.26-22.41-11.65-39.29-11.43C267.29,120.05,247.75,129.84,247.79,141.57z M250.29,142.71
		c0.12-0.25,0.25-0.49,0.39-0.74c0.06-0.11,0.13-0.22,0.2-0.33c0.13-0.2,0.26-0.41,0.4-0.61c0.08-0.12,0.17-0.23,0.25-0.35
		c0.14-0.19,0.29-0.39,0.45-0.58c0.09-0.12,0.19-0.23,0.29-0.35c0.17-0.2,0.35-0.39,0.53-0.59c0.1-0.11,0.19-0.21,0.29-0.32
		c0.23-0.24,0.47-0.47,0.72-0.7c0.07-0.06,0.12-0.12,0.19-0.18c0.32-0.29,0.65-0.58,1-0.86c0.09-0.08,0.19-0.15,0.29-0.23
		c0.21-0.16,0.42-0.33,0.64-0.49l-1.23,6.54l-0.8,0l-3.73,0.02c0.01-0.01,0.01-0.03,0.02-0.04
		C250.22,142.84,250.26,142.77,250.29,142.71z M254.62,151.16c-0.01,0-0.01-0.01-0.02-0.01l0.62-3.28v0l0.75-3.99l0.02-0.11
		l0.14-0.76l-0.13,9.21c-0.45-0.32-0.89-0.65-1.31-0.99C254.67,151.2,254.64,151.18,254.62,151.16z M250.1,145.56
		c-0.07-0.16-0.14-0.33-0.21-0.49c-0.06-0.15-0.11-0.3-0.17-0.45c-0.03-0.08-0.05-0.17-0.07-0.25l2.64-0.02l2.15-0.01l-0.64,3.41
		l-2.45-0.03c-0.15-0.21-0.29-0.42-0.42-0.63c-0.12-0.19-0.23-0.37-0.33-0.56c-0.1-0.17-0.19-0.34-0.28-0.52
		C250.23,145.87,250.17,145.71,250.1,145.56z M252.51,149.16l1.02,0.01l-0.16,0.87c-0.03-0.03-0.06-0.05-0.09-0.08
		c-0.11-0.11-0.22-0.22-0.33-0.33C252.8,149.47,252.65,149.31,252.51,149.16z M294.09,154.28c0.36,0,0.72,0,1.09,0
		c0.81,0,1.62,0,2.42,0.02c0.44,0.01,0.87,0.04,1.31,0.06c0.72,0.03,1.43,0.06,2.14,0.11c0.46,0.03,0.92,0.07,1.38,0.11
		c0.67,0.06,1.34,0.12,1.99,0.19c0.47,0.05,0.94,0.11,1.41,0.17c0.63,0.08,1.26,0.17,1.88,0.26c0.47,0.07,0.93,0.15,1.39,0.23
		c0.6,0.11,1.2,0.22,1.79,0.34c0.45,0.09,0.91,0.19,1.35,0.29c0.58,0.13,1.15,0.27,1.71,0.42c0.43,0.11,0.86,0.22,1.29,0.34
		c0.17,0.05,0.34,0.1,0.51,0.15c-2.61,0.9-5.38,1.66-8.27,2.26c-0.18,0.04-0.37,0.07-0.55,0.11c-0.73,0.14-1.46,0.28-2.21,0.4
		c-0.21,0.04-0.42,0.07-0.63,0.11c-0.83,0.13-1.66,0.25-2.5,0.36c-0.31,0.04-0.63,0.08-0.94,0.11c-0.74,0.09-1.48,0.16-2.23,0.23
		c-0.18,0.02-0.36,0.04-0.55,0.05c-0.9,0.07-1.8,0.13-2.72,0.18c-0.26,0.01-0.52,0.03-0.78,0.04c-0.96,0.04-1.92,0.08-2.89,0.09
		c-1.06,0.01-2.11,0-3.16-0.02c-0.6-0.01-1.19-0.04-1.78-0.07c-0.41-0.02-0.82-0.03-1.22-0.05c-0.86-0.05-1.71-0.12-2.56-0.19
		c-0.11-0.01-0.22-0.02-0.33-0.03c-4.6-0.43-8.97-1.22-12.95-2.33c0.65-0.22,1.31-0.43,1.97-0.63c5.91-1.77,12.32-2.85,19.07-3.21
		C291.73,154.33,292.91,154.3,294.09,154.28z M329.1,137.31c0.1,0.09,0.19,0.18,0.28,0.27c0.18,0.17,0.35,0.33,0.51,0.5
		c0.1,0.11,0.2,0.21,0.3,0.32c0.14,0.15,0.28,0.31,0.42,0.46c0.1,0.11,0.19,0.23,0.29,0.34c0.12,0.15,0.24,0.3,0.36,0.46
		c0.09,0.12,0.18,0.23,0.26,0.35c0.11,0.16,0.22,0.31,0.32,0.47c0.07,0.11,0.15,0.23,0.22,0.34c0.1,0.17,0.2,0.34,0.29,0.51
		c0.06,0.1,0.12,0.21,0.17,0.31c0.13,0.26,0.25,0.52,0.36,0.79c0.01,0.01,0.01,0.03,0.02,0.04l-4.78,0.03l0.11-5.94
		C328.54,136.81,328.82,137.06,329.1,137.31z M329.96,148.7l-1.95-0.02l0.09-4.76l4.96-0.03c-0.01,0.02-0.02,0.04-0.02,0.06
		C332.44,145.58,331.41,147.17,329.96,148.7z M327.98,150.09l0.52,0.01c-0.17,0.15-0.35,0.3-0.52,0.44L327.98,150.09z
		 M291.37,121.18c0.64-0.01,1.27,0,1.9,0.01c0.59,0.01,1.19,0.01,1.78,0.03c0.32,0.01,0.65,0.02,0.97,0.04
		c0.69,0.03,1.38,0.06,2.06,0.1c0.23,0.01,0.46,0.03,0.68,0.05c0.76,0.06,1.51,0.12,2.25,0.19c0.17,0.02,0.33,0.04,0.5,0.05
		c0.79,0.08,1.57,0.18,2.35,0.28c0.13,0.02,0.26,0.04,0.39,0.06c0.8,0.11,1.59,0.23,2.36,0.37c0.12,0.02,0.24,0.04,0.36,0.07
		c0.78,0.14,1.55,0.28,2.31,0.44c0.12,0.03,0.25,0.06,0.37,0.08c0.74,0.16,1.48,0.33,2.2,0.51c0.15,0.04,0.29,0.08,0.44,0.12
		c0.69,0.18,1.37,0.36,2.03,0.56c0.18,0.05,0.35,0.11,0.53,0.16c0.62,0.19,1.24,0.38,1.84,0.59c0.22,0.07,0.42,0.15,0.63,0.23
		c0.55,0.2,1.1,0.39,1.62,0.6c0.25,0.1,0.49,0.21,0.74,0.31c0.47,0.2,0.95,0.39,1.4,0.59c0.29,0.13,0.55,0.27,0.83,0.4
		c0.4,0.19,0.8,0.38,1.18,0.58c0.31,0.16,0.6,0.34,0.9,0.5c0.32,0.18,0.66,0.36,0.97,0.55c0.33,0.2,0.64,0.41,0.96,0.62
		c0.25,0.17,0.52,0.33,0.77,0.5c0.36,0.25,0.69,0.51,1.02,0.77c0.18,0.14,0.37,0.27,0.54,0.41c0.49,0.41,0.96,0.82,1.39,1.25
		c0.99,0.98,1.81,1.99,2.43,3.02c1.04,1.72,1.57,3.49,1.58,5.32v0c0,0.07-0.01,0.14-0.01,0.2c0,0,0,0,0,0
		c-0.01-0.03-0.03-0.05-0.05-0.08c-0.17-0.3-0.35-0.6-0.54-0.9c-0.06-0.1-0.13-0.19-0.19-0.29c-0.16-0.24-0.34-0.48-0.52-0.72
		c-0.07-0.09-0.14-0.18-0.21-0.27c-0.25-0.32-0.52-0.63-0.8-0.94c-0.01-0.01-0.03-0.03-0.04-0.04c-0.27-0.29-0.56-0.59-0.86-0.87
		c-0.1-0.09-0.19-0.18-0.29-0.27c-0.24-0.22-0.49-0.44-0.74-0.65c-0.1-0.09-0.21-0.18-0.32-0.27c-0.36-0.29-0.72-0.58-1.11-0.87
		c-0.21-0.16-0.5-0.18-0.73-0.06c-0.24,0.12-0.39,0.36-0.39,0.62l-0.16,8.44l-0.11,5.79l-0.04,2.28c-2.37,1.7-5.25,3.22-8.56,4.53
		c-0.48-0.16-0.99-0.29-1.48-0.44c-0.48-0.14-0.94-0.3-1.43-0.43c-0.56-0.15-1.15-0.28-1.73-0.42c-0.49-0.12-0.97-0.24-1.47-0.35
		c-0.61-0.13-1.25-0.24-1.88-0.36c-0.49-0.09-0.96-0.19-1.45-0.27c-0.68-0.11-1.37-0.2-2.06-0.29c-0.46-0.06-0.92-0.14-1.39-0.19
		c-0.76-0.09-1.53-0.15-2.3-0.22c-0.42-0.04-0.83-0.09-1.26-0.12c-0.85-0.06-1.72-0.1-2.59-0.13c-0.35-0.01-0.69-0.04-1.04-0.05
		c-1.02-0.03-2.06-0.03-3.09-0.03c-0.2,0-0.4-0.01-0.6-0.01c-1.24,0.01-2.49,0.05-3.74,0.12c-6.86,0.37-13.39,1.47-19.4,3.27
		c-0.69,0.21-1.38,0.43-2.05,0.65c-0.23,0.08-0.44,0.16-0.67,0.23c-0.39,0.13-0.78,0.27-1.16,0.41c-2.54-0.81-4.88-1.76-6.99-2.82
		c-0.12-0.06-0.26-0.12-0.38-0.19c-0.39-0.2-0.75-0.42-1.13-0.63c-0.33-0.19-0.66-0.37-0.97-0.56c-0.11-0.07-0.21-0.14-0.31-0.2
		l0.25-18.33v0v0c0,0,0,0,0,0c0-0.01-0.01-0.02-0.01-0.03c0-0.06-0.01-0.13-0.03-0.19c-0.01-0.02-0.01-0.03-0.01-0.05
		c-0.01-0.03-0.03-0.05-0.04-0.07c-0.01-0.02-0.02-0.03-0.03-0.05c-0.02-0.03-0.03-0.06-0.06-0.08c-0.01-0.01-0.03-0.02-0.04-0.04
		c-0.03-0.03-0.06-0.07-0.1-0.09c-0.01-0.01-0.03-0.01-0.04-0.02c-0.01,0-0.01-0.01-0.01-0.01c0,0,0,0-0.01,0
		c-0.02-0.01-0.03-0.01-0.05-0.02c-0.05-0.02-0.11-0.04-0.17-0.05c-0.02,0-0.03-0.01-0.04-0.01c-0.01,0-0.02,0-0.03,0
		c-0.02,0-0.04,0-0.06,0c-0.01,0-0.03,0-0.04,0.01c-0.04,0-0.08,0.01-0.12,0.02c-0.01,0-0.02,0-0.02,0
		c-0.07,0.02-0.13,0.05-0.19,0.09c-0.01,0.01-0.02,0.02-0.04,0.02l0,0c-0.46,0.3-0.91,0.62-1.34,0.93c-0.14,0.1-0.27,0.21-0.41,0.32
		c-0.29,0.23-0.58,0.45-0.86,0.68c-0.15,0.12-0.3,0.25-0.44,0.38c-0.25,0.22-0.5,0.44-0.74,0.67c-0.13,0.13-0.27,0.25-0.4,0.38
		c-0.25,0.25-0.49,0.5-0.72,0.75c-0.1,0.1-0.2,0.21-0.29,0.31c-0.31,0.36-0.61,0.72-0.88,1.08c-0.05,0.06-0.08,0.12-0.13,0.18
		c-0.22,0.31-0.43,0.62-0.63,0.93c-0.08,0.13-0.15,0.25-0.22,0.38c-0.09,0.16-0.19,0.31-0.27,0.47c0-0.04-0.01-0.08-0.01-0.13
		C249.17,130.61,268.08,121.46,291.37,121.18z"/>
	<path d="M225.36,91.91c-0.72,0.1-1.44,0.21-2.14,0.32c-0.49,0.08-0.98,0.17-1.46,0.26c-0.4,0.07-0.81,0.15-1.21,0.23
		c-5.29,1.04-10.26,2.53-14.62,4.44c-9.4,4.11-14.95,9.58-15.38,15.12c-0.02,0.21-0.04,0.42-0.04,0.64c0,0.01,0,0.03,0,0.04
		c0,0.29,0.01,0.58,0.04,0.87c0.11,1.12,0.43,2.19,0.95,3.22c0.09,0.17,0.18,0.35,0.28,0.52c0.08,0.14,0.17,0.27,0.25,0.41
		c0.09,0.14,0.18,0.27,0.27,0.41c0.09,0.13,0.18,0.26,0.28,0.39c0.14,0.18,0.28,0.36,0.43,0.53c0.1,0.11,0.19,0.22,0.29,0.33
		c0.19,0.21,0.39,0.42,0.61,0.63c0.09,0.08,0.18,0.17,0.26,0.25c0.2,0.18,0.4,0.36,0.61,0.54c0.06,0.05,0.1,0.09,0.16,0.14
		c0.03,0.02,0.06,0.04,0.09,0.07c0.29,0.24,0.59,0.47,0.91,0.7c0,0,0,0,0,0c0.03,0.02,0.06,0.04,0.09,0.06
		c0.08,0.05,0.15,0.1,0.23,0.16c0.31,0.21,0.62,0.42,0.95,0.62c0.09,0.05,0.18,0.11,0.27,0.16c2.03,1.22,4.45,2.27,7.24,3.14
		c2.54,0.79,5.35,1.41,8.33,1.85c1.66,0.24,3.4,0.43,5.17,0.56c0.38,0.03,0.76,0.04,1.14,0.06c0.09,0.01,0.17,0.01,0.26,0.01
		c0.7,0.04,1.4,0.07,2.1,0.09c0.01,0,0.01,0,0.02,0c0.73,0.02,1.46,0.04,2.2,0.04c2.81,0,5.68-0.14,8.57-0.43
		c1.47-0.14,2.92-0.33,4.35-0.54c0.22-0.03,0.44-0.07,0.65-0.1c1.18-0.18,2.33-0.39,3.47-0.61c0.39-0.08,0.78-0.16,1.17-0.24
		c0.94-0.2,1.87-0.42,2.78-0.65c0.7-0.17,1.38-0.36,2.07-0.55c0.55-0.16,1.1-0.32,1.63-0.48c0.45-0.14,0.92-0.26,1.36-0.4
		c7.97-2.61,14.29-6.31,17.8-10.42c1.22-1.43,2.1-2.91,2.61-4.39l0,0l0.08-0.24l0,0c0,0,0,0,0,0c0.29-0.9,0.44-1.81,0.45-2.71
		c0-0.02,0-0.05,0-0.07c0-0.26-0.01-0.52-0.03-0.77c0-0.06,0-0.12-0.01-0.17c-0.14-1.48-0.66-2.9-1.53-4.23
		c-0.72-1.11-1.66-2.16-2.87-3.15c-7.11-5.85-21.85-8.63-37.55-7.09c-0.02,0-0.05,0.01-0.07,0.01c-0.89,0.09-1.77,0.19-2.64,0.31
		C225.92,91.83,225.64,91.87,225.36,91.91z M217.11,94.92c0.9-0.22,1.82-0.43,2.75-0.62c0.11-0.02,0.23-0.05,0.34-0.07
		c0.83-0.17,1.68-0.33,2.53-0.48c0.1-0.02,0.2-0.04,0.29-0.05c0.88-0.15,1.76-0.28,2.65-0.4c0.22-0.03,0.43-0.06,0.65-0.09
		c0.88-0.11,1.77-0.22,2.66-0.31c0.02,0,0.05-0.01,0.07-0.01c1.28-0.13,2.54-0.21,3.8-0.28c0.3-0.02,0.6-0.03,0.91-0.04
		c1.21-0.05,2.42-0.09,3.61-0.09c0.04,0,0.08,0,0.12,0c0.14,0,0.28,0.01,0.42,0.01c0.7,0,1.4,0.02,2.09,0.04
		c0.3,0.01,0.59,0.02,0.88,0.04c0.54,0.02,1.07,0.05,1.6,0.08c0.31,0.02,0.62,0.04,0.93,0.07c0.52,0.04,1.04,0.09,1.55,0.14
		c0.29,0.03,0.58,0.05,0.86,0.09c0.62,0.07,1.22,0.15,1.83,0.23c0.16,0.02,0.33,0.04,0.49,0.06c0.74,0.11,1.47,0.23,2.19,0.36
		c0.24,0.04,0.48,0.09,0.72,0.14c0.49,0.1,0.97,0.19,1.44,0.3c0.27,0.06,0.54,0.12,0.8,0.19c0.44,0.11,0.87,0.21,1.29,0.33
		c0.26,0.07,0.51,0.14,0.76,0.21c0.46,0.13,0.9,0.27,1.35,0.41c0.19,0.06,0.39,0.12,0.58,0.19c0.61,0.21,1.21,0.43,1.79,0.65
		c0.15,0.06,0.28,0.12,0.43,0.18c0.43,0.18,0.86,0.36,1.27,0.55c0.2,0.09,0.39,0.19,0.58,0.28c0.34,0.17,0.68,0.34,1.01,0.52
		c0.19,0.1,0.38,0.21,0.56,0.31c0.33,0.19,0.64,0.39,0.95,0.59c0.15,0.1,0.31,0.19,0.45,0.3c0.43,0.3,0.84,0.6,1.23,0.91
		c0.01,0.01,0.02,0.01,0.03,0.02c1.18,0.97,2.09,1.99,2.74,3.06c0.65,1.07,1.03,2.2,1.14,3.36c0.03,0.34,0.04,0.68,0.02,1.02
		c0,0.02,0,0.04,0,0.06c-0.09-0.15-0.2-0.3-0.31-0.45c-0.06-0.09-0.11-0.18-0.18-0.26c-0.2-0.28-0.41-0.55-0.64-0.82
		c-0.18-0.21-0.46-0.29-0.73-0.22c-0.27,0.08-0.46,0.3-0.51,0.57l-0.59,3.68c-0.01,0.04-0.01,0.08-0.01,0.11l0.01,3.79
		c-3.35,3.81-9.31,7.26-16.84,9.75c-0.36-0.04-0.72-0.08-1.08-0.11c-0.37-0.04-0.74-0.08-1.12-0.12c-0.37-0.03-0.74-0.06-1.11-0.09
		c-0.4-0.03-0.8-0.07-1.2-0.09c-0.36-0.02-0.72-0.04-1.08-0.05c-0.42-0.02-0.83-0.05-1.26-0.06c-0.37-0.01-0.75-0.02-1.12-0.03
		c-0.42-0.01-0.83-0.02-1.25-0.03c-0.4,0-0.81,0-1.21,0.01c-0.4,0-0.79,0-1.19,0.01c-0.45,0.01-0.9,0.03-1.35,0.04
		c-0.36,0.01-0.71,0.02-1.08,0.03c-0.55,0.02-1.1,0.06-1.65,0.09c-0.27,0.02-0.53,0.03-0.8,0.05c-0.82,0.06-1.65,0.12-2.48,0.2
		c-5.23,0.49-10.29,1.38-15.04,2.64c-0.87,0.23-1.72,0.47-2.56,0.73c-0.73-0.11-1.44-0.22-2.14-0.35c-0.13-0.02-0.25-0.05-0.37-0.07
		c-0.58-0.11-1.15-0.23-1.71-0.36c-0.29-0.07-0.57-0.13-0.86-0.2c-0.38-0.09-0.76-0.19-1.13-0.29c-0.33-0.09-0.66-0.18-0.98-0.27
		c-0.1-0.03-0.21-0.06-0.31-0.09l-0.42-7.9l-0.71-13.38h0c-0.02-0.33-0.26-0.6-0.59-0.66c-0.33-0.05-0.65,0.12-0.77,0.43l-0.19,0.45
		c-0.29,0.15-0.56,0.31-0.84,0.46c-0.27,0.15-0.55,0.29-0.82,0.44c-0.32,0.18-0.61,0.37-0.92,0.55c-0.25,0.15-0.5,0.3-0.74,0.45
		c-0.3,0.19-0.59,0.39-0.87,0.59c-0.22,0.15-0.45,0.3-0.66,0.45c-0.29,0.21-0.56,0.42-0.83,0.63c-0.19,0.15-0.39,0.29-0.58,0.44
		c-0.28,0.22-0.53,0.45-0.79,0.68c-0.16,0.14-0.33,0.28-0.49,0.42c-0.26,0.24-0.5,0.49-0.74,0.73c-0.13,0.13-0.27,0.26-0.39,0.39
		c-0.25,0.27-0.48,0.54-0.71,0.82c-0.09,0.11-0.2,0.22-0.28,0.33c-0.31,0.38-0.59,0.77-0.84,1.16c-0.17,0.27-0.34,0.53-0.49,0.8
		c0-0.08-0.01-0.17-0.01-0.25c0.05-5.09,5.49-10.48,14.57-14.45c3.23-1.41,6.79-2.6,10.58-3.53
		C217.08,94.92,217.09,94.92,217.11,94.92z M242.68,125.25c-1.01,0.23-2.03,0.43-3.06,0.62c-0.17,0.03-0.33,0.06-0.5,0.09
		c-1.01,0.18-2.03,0.34-3.06,0.49c-0.14,0.02-0.28,0.04-0.42,0.06c-1.09,0.15-2.18,0.28-3.29,0.39c-1.08,0.11-2.16,0.19-3.23,0.25
		c-0.41,0.02-0.81,0.04-1.21,0.06c-0.66,0.03-1.31,0.06-1.96,0.07c-0.48,0.01-0.96,0.02-1.44,0.02c-0.58,0-1.16,0-1.73-0.01
		c-0.48-0.01-0.97-0.01-1.45-0.03c-0.78-0.03-1.55-0.07-2.31-0.11c-0.73-0.05-1.44-0.1-2.15-0.17c0.51-0.13,1.02-0.25,1.53-0.37
		c0.49-0.11,0.97-0.24,1.47-0.34c0.71-0.15,1.44-0.29,2.17-0.43c0.47-0.09,0.94-0.19,1.41-0.27c0.8-0.14,1.62-0.26,2.44-0.38
		c0.41-0.06,0.81-0.13,1.22-0.18c1.23-0.16,2.48-0.31,3.73-0.42c1.17-0.11,2.33-0.19,3.49-0.26c0.25-0.01,0.51-0.03,0.76-0.04
		c1.12-0.06,2.23-0.09,3.33-0.11c0.2,0,0.4,0,0.61,0c1-0.01,2,0,2.99,0.03c0.18,0,0.37,0.01,0.55,0.01
		c1.08,0.04,2.15,0.09,3.21,0.17c0.1,0.01,0.21,0.02,0.31,0.02c-1.04,0.28-2.09,0.54-3.16,0.79
		C242.84,125.21,242.76,125.23,242.68,125.25z M195.1,119.47c-0.15-0.14-0.29-0.29-0.43-0.43c-0.1-0.11-0.21-0.21-0.31-0.32
		c-0.15-0.16-0.28-0.33-0.42-0.49c-0.08-0.09-0.16-0.19-0.23-0.28c-0.14-0.18-0.26-0.36-0.38-0.54c-0.05-0.07-0.1-0.14-0.14-0.21
		l4.18-0.15l0.03,0l-0.24,0.58l-1.11,2.66c-0.04-0.03-0.08-0.06-0.12-0.09c-0.15-0.12-0.29-0.25-0.44-0.37
		C195.36,119.7,195.22,119.58,195.1,119.47z M195.42,110.89c0.22-0.23,0.46-0.47,0.7-0.7c0.11-0.1,0.22-0.21,0.34-0.31
		c0.23-0.21,0.47-0.42,0.72-0.63c0.11-0.1,0.23-0.19,0.34-0.29c0.36-0.29,0.73-0.58,1.12-0.86c0.03-0.02,0.06-0.04,0.09-0.06
		c0.38-0.27,0.77-0.54,1.18-0.81c0.14-0.09,0.28-0.18,0.42-0.27c0.31-0.2,0.62-0.39,0.95-0.58c0.16-0.09,0.31-0.19,0.47-0.28
		c0.09-0.05,0.2-0.11,0.29-0.16l-2.44,5.85l-0.26,0.01l-4.88,0.2c0.23-0.29,0.48-0.58,0.75-0.86
		C195.27,111.04,195.35,110.97,195.42,110.89z M192.67,114.84c0.12-0.28,0.26-0.57,0.42-0.85c0.1-0.18,0.22-0.37,0.33-0.55
		l5.23-0.21l0.35-0.01l-0.94,2.26L198,115.6l-5.52,0.2c-0.03-0.08-0.06-0.15-0.09-0.22c0.05-0.16,0.11-0.31,0.18-0.47
		C192.6,115.02,192.63,114.93,192.67,114.84z M199.13,116.57L199.13,116.57l0.95-2.27l0.65-1.56l0,0l2.48-5.94l0.94,17.65
		c-2.72-0.92-5.05-2.03-6.94-3.3L199.13,116.57z M268.79,108.91c0.02,0.03,0.03,0.07,0.04,0.1l-0.47,0.02l-0.31,0.01l0.19-1.16
		C268.46,108.21,268.63,108.56,268.79,108.91z M267.93,110.46l0.7-0.03c-0.2,0.42-0.43,0.85-0.7,1.27L267.93,110.46z"/>
	<path d="M100.17,63.35c0.03,0.16,0.08,0.31,0.13,0.46c0.04,0.12,0.09,0.25,0.14,0.37c0.01,0.04,0.03,0.08,0.05,0.11
		c0.04,0.11,0.09,0.22,0.15,0.33c0.07,0.15,0.15,0.3,0.24,0.45c0.02,0.03,0.03,0.06,0.06,0.09c0.28,0.48,0.64,0.94,1.06,1.38
		c0,0,0,0,0.01,0.01c0.25,0.26,0.53,0.52,0.83,0.77c0.03,0.03,0.06,0.05,0.09,0.08c0.25,0.21,0.51,0.41,0.79,0.6
		c0.06,0.05,0.13,0.09,0.19,0.14c0.27,0.18,0.55,0.36,0.84,0.54c0.07,0.04,0.13,0.08,0.2,0.12c0,0,0,0,0,0l0,0
		c0,0,0.09,0.05,0.09,0.05c0.05,0.03,0.11,0.05,0.16,0.08c0.41,0.23,0.84,0.45,1.29,0.67c0.05,0.03,0.11,0.05,0.16,0.08
		c5.03,2.36,12.56,3.71,21.32,3.71l2.54-0.04c2.43-0.07,4.89-0.23,7.36-0.5c14.94-1.59,27.58-6.44,32.18-12.34
		c1.41-1.82,2-3.66,1.75-5.47c-0.03-0.2-0.07-0.4-0.12-0.6c-0.09-0.4-0.23-0.79-0.41-1.16c-0.09-0.19-0.19-0.38-0.3-0.56
		c-0.22-0.37-0.47-0.73-0.77-1.07c-0.15-0.18-0.3-0.35-0.47-0.52c-5.19-5.3-19.3-7.95-35.75-6.2c-14.95,1.6-27.58,6.45-32.18,12.35
		c-1.42,1.82-2.01,3.66-1.75,5.47C100.08,62.95,100.12,63.15,100.17,63.35z M104.21,66.6c-0.04-0.03-0.09-0.06-0.12-0.09l1.82-0.04
		l-0.72,0.8c-0.07-0.04-0.14-0.09-0.21-0.13C104.71,66.96,104.45,66.78,104.21,66.6z M108.98,68.72L108.98,68.72l-0.77-3.16
		c0-0.02-0.02-0.04-0.02-0.05c-0.01-0.02-0.01-0.05-0.02-0.07c-0.01-0.01-0.02-0.03-0.03-0.04c-0.02-0.03-0.04-0.06-0.06-0.09
		c-0.01-0.02-0.03-0.04-0.04-0.05c-0.01-0.01-0.02-0.02-0.03-0.03c-0.02-0.02-0.04-0.04-0.07-0.05c-0.05-0.04-0.11-0.07-0.17-0.09
		c0,0,0,0,0,0c-0.02-0.01-0.04-0.02-0.05-0.02c0,0-0.01,0-0.01-0.01c-0.01,0-0.02,0-0.03,0c-0.05-0.01-0.11-0.02-0.16-0.02
		l-2.4,0.05l-0.01-0.04l-0.28-1.74l4.21-0.09l0.84-0.02l1.26,6.63c-0.71-0.21-1.39-0.43-2.04-0.67L108.98,68.72z M107.16,67.2
		l0.31,1.28c-0.35-0.16-0.69-0.32-1.02-0.49L107.16,67.2z M111.22,62.66l6.22-6.93l3.05,15.83c-2.85-0.29-5.49-0.74-7.83-1.34
		L111.22,62.66z M106.48,60.99c0.13-0.11,0.26-0.22,0.39-0.33c1.44-1.19,3.28-2.34,5.45-3.41c0.58-0.29,1.19-0.57,1.82-0.85
		c0.34-0.14,0.68-0.29,1.02-0.43c0.08-0.03,0.16-0.06,0.23-0.09l-5.26,5.88l-4.57,0.1c0.13-0.13,0.26-0.27,0.39-0.4
		C106.13,61.3,106.3,61.14,106.48,60.99z"/>
	<path d="M545.44,298.16c-0.77,0.11-1.53,0.22-2.31,0.32c0.1,0.18,0.18,0.36,0.25,0.54c0.48,1.29,0.16,2.62-1.1,3.69
		c-1.28,1.08-3.29,1.68-5.49,1.75c-1.11,0.03-2.26-0.06-3.38-0.29c-1.12-0.23-2.22-0.6-3.22-1.1c-0.99-0.5-1.8-1.08-2.39-1.71
		c-0.59-0.62-0.98-1.28-1.15-1.94c-0.34-1.31,0.14-2.61,1.52-3.6c1.35-0.98,3.31-1.48,5.39-1.51c0,0,0.01,0,0.01,0
		c0.3,0,0.6,0,0.9,0.02c-0.03-0.47-0.06-0.94-0.09-1.41c-0.42-0.02-0.85-0.03-1.26-0.03c0,0,0,0,0,0c0,0,0,0,0,0
		c-1.34,0.02-2.65,0.19-3.84,0.5c-1.19,0.32-2.28,0.79-3.16,1.42c-0.9,0.64-1.52,1.37-1.86,2.16c-0.35,0.8-0.41,1.65-0.19,2.51
		c0.21,0.87,0.71,1.74,1.47,2.55c0.77,0.82,1.82,1.59,3.12,2.25c1.31,0.66,2.75,1.15,4.23,1.45c1.48,0.31,2.99,0.43,4.45,0.38
		c0,0,0,0,0.01,0c1.45-0.05,2.83-0.27,4.05-0.67c1.22-0.39,2.28-0.94,3.11-1.65c0.81-0.7,1.32-1.5,1.53-2.32
		c0.21-0.82,0.15-1.67-0.18-2.5C545.73,298.7,545.59,298.43,545.44,298.16z"/>
	<path d="M540.98,296.14c0.9-0.71,1.8-1.42,2.68-2.12c-0.69-0.32-1.37-0.65-2.06-0.97c-0.89,0.69-1.79,1.39-2.7,2.09
		c-0.92,0.71-1.86,1.44-2.81,2.17c0.7,0.34,1.41,0.68,2.11,1.02C539.14,297.59,540.07,296.86,540.98,296.14z"/>
	<path d="M594.3,347.06c-0.29,0.26-0.58,0.52-0.87,0.79c0.08-0.45,0.22-0.93,0.42-1.41c0.41-0.98,1.03-1.94,1.76-2.63
		c0.45-0.43,0.88-0.69,1.26-0.8c0.38-0.11,0.7-0.07,0.94,0.12c0.14-0.32,0.29-0.64,0.44-0.96c-0.3-0.26-0.71-0.33-1.19-0.21
		c-0.47,0.12-1,0.44-1.55,0.95c-0.45,0.42-0.87,0.93-1.25,1.5c-0.38,0.57-0.7,1.18-0.96,1.8c-0.33,0.79-0.54,1.58-0.61,2.3
		c-0.14,0.13-0.28,0.25-0.42,0.38c-0.2,0.18-0.39,0.35-0.59,0.53c0.29,0.28,0.57,0.55,0.85,0.82c0.27,0.26,0.53,0.51,0.79,0.75
		c0.16-0.64,0.32-1.28,0.47-1.93C593.97,348.4,594.13,347.73,594.3,347.06z"/>
	<path d="M598.26,342.58c-0.13,0.65-0.26,1.28-0.38,1.91c-0.12,0.62-0.25,1.23-0.37,1.83c0.18-0.19,0.36-0.39,0.53-0.58
		c-0.11,0.38-0.26,0.77-0.45,1.15c-0.36,0.75-0.84,1.47-1.4,2.05c-0.37,0.38-0.73,0.66-1.06,0.83c-0.35,0.18-0.67,0.25-0.95,0.19
		c-0.13,0.32-0.25,0.64-0.38,0.96c0.35,0.05,0.75-0.04,1.19-0.27c0.41-0.22,0.84-0.55,1.28-1.01c0.33-0.35,0.65-0.74,0.93-1.16
		c0.28-0.42,0.54-0.86,0.75-1.32c0.34-0.7,0.59-1.43,0.73-2.12c0.14-0.16,0.29-0.31,0.43-0.47c0.15-0.17,0.31-0.34,0.46-0.5
		c-0.21-0.23-0.42-0.47-0.64-0.72C598.72,343.11,598.49,342.85,598.26,342.58z"/>
	<path d="M642.51,281.86c-0.14-0.24-0.31-0.45-0.55-0.63l0.1-0.3c0.15-0.46,0.3-0.91,0.45-1.37l0.06-0.28l-0.01,0
		c0.43-1.72,0.52-3.53,0.27-5.37c-1.74-12.71-18.99-28.4-43.95-39.96c-84.14-38.98-156.61-72.55-219.54-101.7L223.98,60.27
		C178.32,39.11,138.36,20.6,103.11,4.28c-9.7-4.49-27.31-5.62-40.1-2.58l-47.86,11.4C6.23,15.23,0.74,18.89,0.07,23.13
		c-0.15,0.94-0.05,1.89,0.29,2.81c0.78,2.3,1.6,4.62,2.51,7.1L2.8,33.16l0.16,0.14c14.82,40.36,30.44,55.07,38.42,60.25
		l143.58,99.14c47.34,32.68,103.57,71.52,171.5,118.43l114.41,79.01c21.7,14.99,38.42,24.27,54.69,24.27l0.54,0
		c15.35-0.19,30.27-8.92,49.89-29.17c3.44-3.55,8.55-9.16,13.51-14.6l0.05-0.06c4.76-5.23,9.69-10.63,12.89-13.94l0.08-0.09
		c11.55-14.54,21.52-31.21,29.62-49.54c0.18,0.04,0.4,0.05,0.62,0.01c0.11-0.02,0.21-0.06,0.29-0.12c1.24-0.94,1.44-1.11,2.45-2.27
		c0.06-0.08,0.11-0.17,0.14-0.26c0-0.01,0.32-1.27,0.42-2.32c0.25,0.08,0.48,0.11,0.7,0.11c0,0,0,0,0.01,0
		c0.29,0,0.56-0.06,0.87-0.22l0.18-0.16c0.92-1.23,1.07-1.47,1.73-2.92l0.05-0.07l0-0.12c0.02-0.04,0.04-0.1,0.06-0.16
		c0.18-0.44,0.5-1.22,0.38-2.38c0.3-0.07,0.55-0.19,0.75-0.36l0.15-0.21l0.03-0.07c0.53-1.41,0.63-1.67,0.87-3.37
		c0-0.09,0.04-0.47,0.08-0.78l0.01-0.08c0.09-0.83,0.12-1.11,0.11-1.21c0.04-0.24,0.08-0.5,0.13-0.83c0.01-0.08,0.01-0.17-0.01-0.26
		c0-0.02-0.01-0.04-0.02-0.06c0.02-0.03,0.05-0.06,0.07-0.11l0.06-0.16c0.32-1.38,0.37-1.83,0.38-3.14l0-0.31
		c0.11-1.23,0.13-1.58-0.05-3.08C642.58,282.01,642.55,281.93,642.51,281.86z M166.14,173.98
		c100.91,69.1,205.27,140.54,306.36,206.08c24.92,16.16,41.24,23,56.32,23.6c14.53,0.58,28.25-5.05,42.67-17.72
		c-17.81,17.83-31.53,25.57-45.44,25.75c-0.25,0-0.5,0.01-0.75,0.01c-11.11,0-24.58-4.23-52.92-23.8L382.76,326
		c-79.18-54.68-143.3-98.96-196.28-135.54L42.87,91.3c-2.81-1.82-5.68-4.27-8.55-7.28C78.6,114.05,123.07,144.49,166.14,173.98z
		 M577.97,377c-34.89,36.11-61.46,29.22-104.38,1.39c-101.05-65.5-205.35-136.92-306.23-205.98l-0.14-0.1
		c-45.19-30.94-91.92-62.94-137.83-94.04C21.32,67.95,13.52,53.3,6.81,35.86c43.09,26.19,94.66,57.53,157.36,95.62
		c29.94,18.19,63.11,38.35,100.1,60.82l14.06,8.54c58.27,35.41,125.71,76.4,204.44,124.22c22.15,13.45,48.32,21.48,70.03,21.48
		c12.57,0,22.47-2.77,28.62-8.02l53.67-45.77c-0.32,0.84-0.64,1.67-0.96,2.5c-1.42,1.85-3.08,3.53-4.94,4.98l-0.07,0.07l-0.01,0.03
		c-0.06,0.07-0.11,0.16-0.13,0.25c-0.01,0.05-0.01,0.1-0.01,0.12l-0.01,0.11l0.01,0.05c0.01,0.06,0.01,0.2,0,0.4l0,0.11
		c-0.01,1.69,0.05,3.4,0.86,4.11l0.04,0.03c-8.03,18.26-17.92,34.84-29.41,49.3c-1.83,1.89-4.3,4.54-7.99,8.57
		C586.84,368.51,580.73,374.14,577.97,377z M101.98,6.73c35.55,16.45,75.89,35.14,122.04,56.52l153.87,71.28
		c63,29.18,135.57,62.8,219.85,101.84c24.14,11.19,40.79,26.06,42.41,37.89c0.56,4.07-0.8,7.53-4.02,10.28l-56.15,47.89
		c-16.27,13.87-61.09,7.48-95.92-13.68c-81-49.2-150.05-91.17-209.46-127.27l-3.13-1.9c-39.37-23.92-74.47-45.26-106-64.41
		C101.86,86.52,49.7,54.82,6.24,28.4c-1.78-1.08-3.83-2.8-3.51-4.85c0.48-3.02,5.48-6.01,13.05-7.82l47.86-11.4
		C75.71,1.45,92.91,2.53,101.98,6.73z M638.03,296.68l-0.26,0.42c-0.06,0.08-0.12,0.17-0.19,0.26l-0.34,0.46
		c-0.39,0.09-0.94-0.21-1.54-0.52l-0.84-0.43l-0.57,0.71c-0.15,0.19-0.3,0.39-0.46,0.56l-0.33,0.37l0.5,0.76
		c0.1,0.15,0.2,0.3,0.3,0.43l0.03,0.06c0.29,0.46,0.42,0.79,0.41,1.07c-0.45,0.56-0.6,0.72-0.76,0.89l-1.2,0.99
		c-0.05-0.01-0.1-0.02-0.16-0.04l-0.09,0.27c0,0,0,0,0,0l0-0.31c-0.07-0.03-0.13-0.05-0.2-0.09c-0.03-0.01-0.05-0.03-0.14-0.08
		c-0.07-0.04-0.13-0.08-0.2-0.13c-0.03-0.02-0.07-0.05-0.15-0.11c-0.07-0.05-0.14-0.11-0.21-0.17l-0.16-0.14
		c-0.07-0.06-0.14-0.13-0.21-0.2l-0.16-0.16c-0.07-0.07-0.14-0.14-0.21-0.22l-0.16-0.18c-0.07-0.08-0.13-0.16-0.2-0.23l-0.07-0.08
		c2.57-2.09,4.74-4.6,6.44-7.4l0.3,0.31c0.13,0.13,0.26,0.25,0.43,0.41c0.13,0.12,0.26,0.25,0.39,0.37l0.1,0.12
		c0.08,0.08,0.15,0.16,0.21,0.24c0.01,0.02,0.03,0.04,0.04,0.06l0.06,0.09c0.04,0.06,0.09,0.13,0.13,0.25l0.02,0.08
		c0.01,0.04,0.02,0.08,0.03,0.11C638.38,296.03,638.21,296.37,638.03,296.68z M640.56,290.69c-0.04,0.14-0.08,0.27-0.14,0.42
		l-0.27,0.72c-0.32,0.15-0.88,0.02-1.43-0.1c-0.17-0.04-0.34-0.08-0.51-0.11l-0.27-0.05c0.58-1.14,1.09-2.32,1.52-3.54l0.06,0.03
		c0.15,0.08,0.31,0.17,0.49,0.28l0.06,0.04c0.1,0.06,0.2,0.13,0.29,0.2l0.11,0.09c0.07,0.06,0.13,0.12,0.19,0.19
		c0.02,0.03,0.04,0.05,0.08,0.1c0.05,0.07,0.09,0.13,0.12,0.2c-0.04,0.27-0.08,0.5-0.11,0.68
		C640.71,290.05,640.63,290.39,640.56,290.69z M164.06,127.46c31.53,19.15,66.63,40.49,106,64.41l1.12,0.68
		c59.87,36.38,129.56,78.74,211.47,128.5c22.18,13.47,48.43,21.52,70.21,21.52c12.67,0,22.65-2.8,28.85-8.09l55.36-47.22
		c-0.2,0.56-0.4,1.12-0.6,1.68c-0.03,0.02-0.05,0.05-0.08,0.08c-0.04,0.04-0.08,0.08-0.13,0.12h0l-56.15,47.89
		c-16.37,13.96-61.39,7.58-96.33-13.65c-81.9-49.75-151.59-92.11-211.46-128.49l-6.27-3.81c-37.29-22.66-70.71-42.97-100.87-61.29
		C101.59,91.15,49.43,59.45,5.97,33.03c-0.08-0.05-0.16-0.1-0.24-0.15l-0.07-0.05c-0.26-0.69-0.51-1.39-0.77-2.09
		C48.35,57.15,100.49,88.84,164.06,127.46z M630.51,302.77l0.05,0.05c0.15,0.14,0.31,0.27,0.51,0.43c0.39,0.3,0.76,0.51,1.11,0.62
		c0.03,0.01,0.06,0.02,0.12,0.03c0.15,0.04,0.3,0.07,0.44,0.08l0.11,0.01c0.08,0,0.16-0.01,0.24-0.02c0.11-0.02,0.21-0.06,0.29-0.12
		c0.44-0.33,0.75-0.57,1.06-0.83l0.17-0.15c-0.07,0.41-0.14,0.79-0.19,1.03c-0.84,0.97-1.03,1.12-2,1.85
		c-0.42-0.03-0.92-0.47-1.39-0.89c-0.13-0.12-0.27-0.24-0.4-0.35c-0.11-0.09-0.34-0.47-0.4-2
		C630.33,302.6,630.42,302.69,630.51,302.77z M635.11,298.61c0.03-0.04,0.07-0.09,0.1-0.13c0.8,0.42,1.77,0.89,2.71,0.45
		c0.09-0.04,0.17-0.11,0.23-0.19l0.08-0.11c-0.48,1.06-0.62,1.28-1.33,2.22c-0.21,0.05-0.48-0.01-0.88-0.19
		c-0.01-0.15-0.04-0.29-0.08-0.46c-0.05-0.17-0.12-0.34-0.21-0.53l-0.05-0.1c-0.08-0.16-0.17-0.32-0.28-0.49l-0.06-0.09
		C635.28,298.87,635.19,298.74,635.11,298.61z M639.79,294.88c-0.03-0.09-0.07-0.17-0.11-0.27l-0.03-0.06
		c-0.03-0.05-0.05-0.09-0.06-0.09l-0.24-0.76l-0.11,0.27c-0.09-0.11-0.19-0.22-0.29-0.32l-0.07-0.07c-0.12-0.12-0.24-0.24-0.36-0.35
		l-0.08-0.07c0.02-0.05,0.05-0.11,0.07-0.16c0.16,0.03,0.31,0.07,0.47,0.1l0.11,0.02c0.18,0.03,0.35,0.05,0.52,0.06l0.12,0.01
		c0.18,0.01,0.36-0.01,0.53-0.04l0.1-0.02c0.01,0,0.02-0.01,0.04-0.01c-0.11,0.57-0.24,0.92-0.56,1.77
		C639.81,294.88,639.8,294.88,639.79,294.88z M640.15,286.96l-0.02-0.01c0.01-0.06,0.02-0.13,0.02-0.19
		c0.36-0.02,0.78-0.04,1.17-0.14c-0.03,0.32-0.07,0.62-0.15,1c-0.06-0.05-0.12-0.09-0.19-0.14l-0.06-0.05
		c-0.04-0.03-0.08-0.06-0.12-0.08C640.59,287.21,640.37,287.08,640.15,286.96z M640.27,285.41c0.15-0.6,0.29-1.26,0.42-1.99
		c0.23-0.35,0.45-0.7,0.64-1.05c0,0,0,0.01,0.01,0.01c0.14,1.27,0.13,1.54,0.03,2.72C641.09,285.23,640.69,285.34,640.27,285.41z
		 M641.6,285.24l0.03,0L641.6,285.24L641.6,285.24z"/>
	<path d="M51.43,35.82c0.09,0.05,0.18,0.1,0.27,0.15c-0.34,0.13-0.68,0.26-1.02,0.39c-0.36,0.14-0.25,0.27-0.11,0.35
		c0.09,0.05,0.17,0.08,0.27,0.1c0.07-0.03,0.13-0.06,0.2-0.09c-0.08-0.02-0.16-0.04-0.22-0.07c-0.11-0.06-0.14-0.13,0.11-0.22
		c0.32-0.12,0.63-0.25,0.95-0.37c0.12,0.07,0.24,0.13,0.37,0.2c0.07-0.03,0.13-0.05,0.2-0.08c-0.12-0.07-0.25-0.13-0.37-0.2
		c0.15-0.06,0.3-0.12,0.45-0.17c-0.06-0.03-0.12-0.07-0.19-0.1c-0.15,0.06-0.3,0.12-0.45,0.17c-0.09-0.05-0.18-0.1-0.27-0.15
		C51.56,35.76,51.49,35.79,51.43,35.82z"/>
	<path d="M44.38,30.49c-0.04,0.01-0.09,0.03-0.13,0.04c0.03,0.02,0.06,0.03,0.09,0.05c0.08,0.04,0.16,0.09,0.25,0.13
		c0.03,0.02,0.06,0.03,0.09,0.05c0.04-0.01,0.09-0.03,0.13-0.04c0.32-0.1,0.64-0.21,0.96-0.31c0.32-0.1,0.63-0.2,0.95-0.3
		c0.32-0.1,0.67-0.15,1.01-0.14c0.33,0.01,0.64,0.07,0.87,0.19c0,0,0.01,0,0.01,0.01c0.24,0.13,0.36,0.26,0.32,0.39
		c-0.03,0.13-0.21,0.25-0.54,0.36c-0.01,0-0.01,0-0.02,0.01c-0.32,0.11-0.65,0.21-0.97,0.32c-0.33,0.11-0.66,0.22-0.99,0.33
		c-0.04,0.01-0.09,0.03-0.13,0.04c0.03,0.02,0.06,0.03,0.09,0.05c0.09,0.04,0.17,0.09,0.26,0.14c0.03,0.02,0.06,0.03,0.09,0.05
		c0.04-0.01,0.09-0.03,0.13-0.04c0.33-0.11,0.67-0.22,0.99-0.33c0.33-0.11,0.65-0.22,0.98-0.33c0.49-0.16,0.76-0.36,0.82-0.56
		c0.05-0.21-0.11-0.42-0.47-0.61c0,0,0,0,0,0c-0.2-0.1-0.46-0.19-0.77-0.24c-0.14-0.02-0.29-0.04-0.44-0.05
		c0.07-0.02,0.15-0.05,0.23-0.07c0.04-0.01,0.08-0.03,0.12-0.04c-0.03-0.02-0.06-0.03-0.09-0.05c-0.08-0.04-0.16-0.08-0.24-0.12
		c-0.03-0.02-0.06-0.03-0.09-0.05c-0.04,0.01-0.08,0.03-0.12,0.04c-0.55,0.17-1.11,0.35-1.67,0.53
		C45.53,30.13,44.96,30.31,44.38,30.49z"/>
	<path d="M36.64,26.36c-0.04,0.01-0.09,0.02-0.13,0.03c0.03,0.01,0.06,0.03,0.09,0.05c0.07,0.04,0.15,0.08,0.23,0.12
		c0.03,0.01,0.05,0.03,0.08,0.04c0.05-0.01,0.09-0.02,0.13-0.04c0.34-0.09,0.68-0.18,1.02-0.27c0.34-0.09,0.67-0.18,1-0.27
		c0.28-0.07,0.6-0.1,0.9-0.09c0.3,0.01,0.57,0.07,0.76,0.16h0c0.07,0.03,0.11,0.07,0.15,0.1c0.03,0.03,0.05,0.07,0.06,0.11
		c0,0.02,0.01,0.04,0.01,0.06c0.05,0,0.1-0.01,0.16-0.01c0.12-0.01,0.25-0.01,0.37-0.02c0.05,0,0.09-0.01,0.14-0.01
		c-0.01-0.02-0.01-0.04-0.01-0.05c-0.01-0.06-0.04-0.12-0.1-0.18c-0.05-0.06-0.13-0.11-0.23-0.15c0,0,0,0,0,0
		c-0.17-0.09-0.4-0.16-0.69-0.21c-0.11-0.02-0.23-0.03-0.36-0.04c0.07-0.02,0.14-0.04,0.21-0.06c0.04-0.01,0.08-0.02,0.12-0.03
		c-0.03-0.01-0.06-0.03-0.08-0.04c-0.07-0.04-0.14-0.07-0.21-0.11c-0.03-0.02-0.06-0.03-0.09-0.04c-0.04,0.01-0.08,0.02-0.12,0.03
		c-0.56,0.15-1.12,0.3-1.69,0.45C37.81,26.05,37.23,26.2,36.64,26.36z"/>
	<path d="M32.59,26.14c0.33,0.18,0.76,0.3,1.26,0.34c0.46,0.04,0.96,0,1.46-0.13c0.33-0.09,0.56-0.2,0.68-0.32
		c0.09-0.09,0.12-0.19,0.09-0.29c0.26,0.03,0.55,0.04,0.83,0.03c0.4-0.01,0.8-0.07,1.12-0.15c0.29-0.08,0.5-0.16,0.65-0.24
		c0.12-0.07,0.2-0.13,0.25-0.2c0.16,0,0.31,0.01,0.47,0.01c0.05,0,0.1,0,0.15,0c0-0.02,0.01-0.04,0.02-0.05
		c0.01-0.04,0.03-0.08,0.04-0.12c0-0.02,0.01-0.04,0.02-0.05c-0.05,0-0.1,0-0.15,0c-0.15,0-0.31-0.01-0.46-0.01
		c-0.01-0.06-0.03-0.12-0.08-0.18c-0.06-0.07-0.15-0.14-0.27-0.2c-0.31-0.16-0.77-0.27-1.3-0.29c-0.49-0.02-1.03,0.03-1.58,0.16
		c-0.51,0.13-0.86,0.3-0.98,0.49c-0.13,0.18-0.05,0.38,0.28,0.55c0.21,0.11,0.34,0.24,0.3,0.37c-0.03,0.1-0.17,0.2-0.47,0.28
		c-0.31,0.08-0.61,0.1-0.88,0.07c-0.32-0.03-0.61-0.12-0.83-0.24c-0.22-0.12-0.33-0.25-0.28-0.37c0.04-0.1,0.19-0.2,0.49-0.27
		c0.04-0.01,0.09-0.02,0.13-0.03c-0.03-0.02-0.06-0.03-0.08-0.04c-0.07-0.04-0.14-0.08-0.22-0.12c-0.03-0.02-0.05-0.03-0.08-0.04
		c-0.04,0.01-0.09,0.02-0.13,0.03c-0.48,0.12-0.75,0.28-0.83,0.45C32.13,25.77,32.27,25.97,32.59,26.14z M35.51,24.98
		c0.08-0.13,0.32-0.25,0.66-0.33c0.39-0.1,0.75-0.13,1.07-0.12c0.34,0.01,0.64,0.09,0.85,0.2c0.22,0.11,0.3,0.24,0.22,0.37
		c-0.07,0.12-0.29,0.23-0.66,0.33c-0.32,0.08-0.71,0.12-1.07,0.1c-0.35-0.01-0.68-0.08-0.88-0.19
		C35.48,25.23,35.43,25.1,35.51,24.98z"/>
	<path d="M51.66,34.86c-0.06-0.03-0.13-0.07-0.18-0.1c-0.43,0.16-0.86,0.32-1.3,0.48c-0.44,0.16-0.88,0.33-1.33,0.5
		c0.06,0.03,0.12,0.07,0.19,0.1c0.45-0.17,0.89-0.33,1.33-0.5C50.8,35.18,51.23,35.02,51.66,34.86z"/>
	<path d="M49.57,34.58c-0.22-0.12-0.49-0.18-0.73-0.18c-0.02,0.04-0.04,0.07-0.05,0.11c0.2,0.01,0.41,0.05,0.56,0.13
		c0.22,0.12,0.19,0.23-0.09,0.34C49.24,34.99,49.22,35,49.21,35c-0.46-0.25-0.93-0.47-1.44-0.28c-0.37,0.13-0.26,0.32-0.07,0.42
		c0.2,0.11,0.43,0.16,0.77,0.14c0,0,0,0,0.01,0c-0.09,0.03-0.18,0.07-0.25,0.11c0.06,0.03,0.11,0.06,0.17,0.09
		c0.08-0.04,0.22-0.1,0.35-0.15c0.24-0.09,0.48-0.18,0.72-0.27C49.86,34.92,49.84,34.73,49.57,34.58z M48.9,35.12
		c-0.29,0.11-0.69,0.12-0.95-0.02c-0.14-0.08-0.22-0.19,0.02-0.28c0.31-0.11,0.7,0.06,1,0.22c0.02,0.01,0.03,0.02,0.05,0.03
		C48.98,35.09,48.94,35.1,48.9,35.12z"/>
	<path d="M48.13,32.56c-0.02,0.01-0.03,0.02-0.05,0.03c0.16,0.09,0.33,0.18,0.49,0.26c0.49-0.09,0.99-0.17,1.48-0.26
		c0.49-0.09,0.98-0.17,1.46-0.25c0.14-0.03,0.26-0.04,0.35-0.06c0,0,0.01,0,0.01,0c-0.04,0.03-0.1,0.07-0.17,0.12
		c-0.3,0.19-0.59,0.38-0.89,0.58c-0.3,0.19-0.6,0.39-0.91,0.59c0.16,0.08,0.32,0.17,0.48,0.26c0.76-0.15,1.51-0.29,2.25-0.44
		c0.74-0.14,1.48-0.29,2.2-0.42c-0.18-0.09-0.35-0.18-0.53-0.27c-0.54,0.11-1.1,0.22-1.65,0.34c-0.55,0.11-1.11,0.23-1.67,0.35
		c0.3-0.2,0.56-0.36,0.8-0.51c0.42-0.27,0.79-0.5,1.21-0.81c0.01-0.01,0.02-0.02,0.03-0.03c-0.12-0.06-0.24-0.12-0.36-0.18
		c-0.5,0.08-1,0.16-1.51,0.24c-0.51,0.08-1.01,0.16-1.52,0.24c-0.05,0.01-0.18,0.03-0.4,0.08c0.38-0.2,0.75-0.4,1.11-0.61
		c0.36-0.2,0.72-0.4,1.07-0.59c-0.17-0.09-0.35-0.18-0.52-0.27c-0.46,0.26-0.91,0.53-1.37,0.8C49.08,32,48.61,32.28,48.13,32.56z"/>
	<path d="M51.17,35.5c-0.54,0.21-1.09,0.41-1.64,0.62c0.06,0.03,0.12,0.07,0.19,0.1c0.55-0.21,1.09-0.42,1.64-0.62
		C51.3,35.56,51.24,35.53,51.17,35.5z"/>
	<path d="M51.82,37.14C51.82,37.13,51.82,37.13,51.82,37.14c0.3-0.27,0.61-0.53,0.92-0.79c-0.07-0.04-0.14-0.08-0.21-0.11
		c-0.35,0.31-0.71,0.63-1.07,0.94c-0.15,0.03-0.3,0.05-0.45,0.08c-0.24,0.04-0.42,0.05-0.55-0.03c-0.04-0.02-0.08-0.06-0.11-0.09
		c-0.08,0.02-0.16,0.05-0.24,0.08c0.04,0.04,0.09,0.07,0.15,0.1c0.23,0.13,0.5,0.12,0.84,0.06c0.46-0.08,0.91-0.15,1.37-0.23
		c0.45-0.08,0.9-0.15,1.35-0.23c-0.07-0.04-0.14-0.08-0.21-0.11C53.02,36.92,52.42,37.03,51.82,37.14z"/>
	<path d="M46.95,33.36c0.05,0.03,0.09,0.06,0.11,0.08c0.08-0.02,0.16-0.04,0.25-0.06c-0.03-0.03-0.06-0.05-0.1-0.07
		c-0.17-0.09-0.45-0.13-0.71-0.1c0,0,0,0,0,0c0.07-0.02,0.19-0.07,0.27-0.1c-0.06-0.03-0.11-0.06-0.17-0.09
		c-0.1,0.04-0.26,0.1-0.35,0.13c-0.43,0.15-0.86,0.3-1.29,0.44c0.06,0.03,0.11,0.06,0.18,0.1c0.28-0.1,0.57-0.2,0.85-0.29
		C46.42,33.23,46.77,33.26,46.95,33.36z"/>
	<path d="M39.21,27.43c-0.12,0.22,0.01,0.45,0.37,0.65c0.21,0.11,0.49,0.21,0.82,0.28c0.3,0.06,0.65,0.1,1,0.1c0.05,0,0.1,0,0.15,0
		c0-0.02,0.01-0.04,0.01-0.06c0.01-0.05,0.02-0.1,0.03-0.15c0-0.02,0.01-0.04,0.01-0.06c-0.06,0-0.11,0-0.16,0
		c-0.22,0-0.45-0.03-0.65-0.07c-0.24-0.05-0.45-0.13-0.6-0.21c-0.23-0.12-0.33-0.27-0.27-0.41c0.04-0.12,0.19-0.23,0.44-0.33
		c0.67,0.35,1.34,0.71,2.02,1.06c0.03,0.01,0.05,0.03,0.08,0.04c0.04-0.01,0.08-0.02,0.12-0.03c0.11-0.03,0.2-0.05,0.28-0.08
		c0.56-0.16,0.85-0.35,0.93-0.54c0.08-0.19-0.03-0.37-0.29-0.54c-0.04-0.03-0.09-0.06-0.15-0.09c-0.36-0.18-0.88-0.29-1.44-0.32
		c-0.55-0.02-1.15,0.03-1.69,0.18C39.66,27.02,39.33,27.22,39.21,27.43z M41.88,26.94c0.37,0.02,0.69,0.1,0.92,0.22
		c0.27,0.14,0.38,0.28,0.33,0.42c-0.04,0.12-0.21,0.23-0.51,0.33c-0.57-0.3-1.15-0.6-1.71-0.9C41.25,26.94,41.59,26.92,41.88,26.94z
		"/>
	<path d="M52.49,33.87c-0.28-0.07-0.56-0.13-0.84-0.2c-0.08,0.06-0.16,0.12-0.23,0.19c0.15,0.03,0.29,0.07,0.44,0.1
		c-0.26,0.04-0.52,0.07-0.77,0.11c-0.09,0.01-0.17,0.02-0.26,0.04c0.22,0.12,0.45,0.24,0.67,0.36c0.48-0.08,0.97-0.16,1.45-0.24
		c0.48,0.13,0.93,0.26,1.36,0.39c-0.33,0.27-0.65,0.55-0.98,0.82c0.24,0.13,0.48,0.26,0.72,0.39c0.35-0.32,0.7-0.64,1.05-0.95
		c0.28,0.1,0.55,0.2,0.81,0.3c-0.36,0.32-0.72,0.64-1.09,0.97c-0.01,0.01-0.02,0.02-0.03,0.03c0.17,0.09,0.35,0.19,0.52,0.28
		c0.84-0.13,1.68-0.26,2.51-0.39c0.26,0.15,0.51,0.3,0.75,0.45c-0.56,0.23-1.12,0.47-1.69,0.7c-0.05,0.02-0.09,0.04-0.14,0.06
		c0.77,0.41,1.55,0.83,2.34,1.25c0.23-0.1,0.45-0.2,0.68-0.3c-0.56-0.3-1.12-0.59-1.66-0.88c0.35-0.15,0.69-0.29,1.03-0.43
		c0.37,0.29,0.7,0.59,0.98,0.9c0.15-0.03,0.3-0.06,0.45-0.09c-0.3-0.34-0.65-0.66-1.06-0.97c0.3-0.13,0.61-0.26,0.91-0.38
		c0.53,0.27,1.06,0.55,1.6,0.83c0.21-0.09,0.43-0.19,0.64-0.28c-0.76-0.39-1.51-0.78-2.26-1.16c-0.48,0.2-0.97,0.4-1.46,0.6
		c-0.2-0.13-0.4-0.25-0.62-0.38c0.62-0.1,1.23-0.2,1.85-0.29c-0.19-0.1-0.38-0.2-0.57-0.3c-0.6,0.1-1.21,0.2-1.82,0.3
		c-0.16-0.08-0.34-0.17-0.51-0.25c-0.17-0.08-0.34-0.15-0.52-0.23c0.32-0.27,0.63-0.54,0.95-0.8c-0.2-0.1-0.39-0.2-0.59-0.3
		c-0.32,0.28-0.64,0.57-0.96,0.86c-0.26-0.1-0.53-0.2-0.82-0.3c0.36-0.33,0.72-0.66,1.07-0.98c-0.2-0.1-0.39-0.2-0.59-0.3
		c-0.55,0.08-1.09,0.16-1.64,0.24C53.6,33.71,53.05,33.79,52.49,33.87z M56.49,35.42c0.14,0.06,0.28,0.12,0.41,0.18
		c0.12,0.06,0.24,0.11,0.36,0.17c-0.35,0.06-0.7,0.11-1.05,0.17c-0.13,0.02-0.26,0.04-0.38,0.07c-0.03,0-0.05,0.01-0.07,0.01
		c0.08-0.06,0.15-0.13,0.23-0.19C56.17,35.7,56.33,35.56,56.49,35.42z M54.53,34.43c-0.32-0.1-0.66-0.2-1.01-0.29
		c0.57-0.09,1.13-0.18,1.7-0.28C55,34.05,54.76,34.24,54.53,34.43z"/>
	<path d="M46.76,33.89c0.34,0.19,0.68,0.37,1.02,0.56c0.04-0.01,0.08-0.03,0.11-0.04c0.45-0.16,0.61-0.4,0.22-0.61
		c-0.35-0.19-0.98-0.21-1.48-0.03c-0.5,0.17-0.6,0.45-0.24,0.66c0.2,0.11,0.49,0.18,0.89,0.17c0-0.04,0-0.08,0.01-0.12
		c-0.23,0.01-0.5-0.01-0.69-0.12C46.35,34.2,46.43,34.01,46.76,33.89z M47.91,33.86c0.26,0.14,0.17,0.3-0.12,0.41
		c-0.28-0.16-0.56-0.31-0.84-0.46C47.24,33.73,47.67,33.74,47.91,33.86z"/>
	<path d="M52.02,35.38c0.1-0.04,0.1-0.1,0.03-0.13c-0.07-0.04-0.2-0.05-0.3-0.01c-0.09,0.04-0.1,0.1-0.03,0.13
		C51.79,35.41,51.92,35.42,52.02,35.38z"/>
	<path d="M42.07,28.95c-0.11,0.23,0.03,0.47,0.41,0.68c0.22,0.12,0.51,0.22,0.84,0.29c0.31,0.06,0.66,0.1,1.01,0.1
		c0.05,0,0.1,0,0.15,0c0-0.02,0.01-0.04,0.01-0.06c0.01-0.05,0.01-0.1,0.02-0.15c0-0.02,0.01-0.04,0.01-0.06c-0.05,0-0.11,0-0.16,0
		c-0.22,0-0.45-0.02-0.67-0.07c-0.24-0.05-0.46-0.13-0.62-0.21c-0.24-0.13-0.34-0.28-0.29-0.43c0.04-0.12,0.18-0.24,0.43-0.35
		c0.69,0.37,1.39,0.73,2.1,1.11c0.03,0.01,0.05,0.03,0.08,0.04c0.04-0.01,0.08-0.02,0.12-0.03c0.1-0.03,0.2-0.05,0.28-0.08
		c0.55-0.17,0.84-0.37,0.91-0.57c0.07-0.2-0.06-0.39-0.32-0.56c-0.05-0.03-0.1-0.06-0.15-0.09c-0.37-0.19-0.9-0.3-1.47-0.33
		c-0.56-0.02-1.16,0.04-1.7,0.2C42.5,28.52,42.18,28.73,42.07,28.95z M44.75,28.43c0.37,0.02,0.7,0.1,0.94,0.22
		c0.27,0.14,0.39,0.29,0.35,0.44c-0.04,0.12-0.2,0.24-0.5,0.35c-0.6-0.31-1.19-0.62-1.78-0.93C44.11,28.43,44.44,28.41,44.75,28.43z
		"/>
</g>
</svg>
