<?xml version="1.0" encoding="utf-8"?>
<!-- Generator: Adobe Illustrator 20.0.0, SVG Export Plug-In . SVG Version: 6.00 Build 0)  -->
<svg version="1.1" id="Layer_1" xmlns="http://www.w3.org/2000/svg" xmlns:xlink="http://www.w3.org/1999/xlink" x="0px" y="0px"
	 viewBox="0 0 2959.16 1907.19" style="enable-background:new 0 0 2959.16 1907.19;" xml:space="preserve">
<g id="XMLID_2_">
	<path d="M2766.29,1546.16c11.41,6.54,4.19,33.55-8.42,55.69c-6.67,11.74-14.59,21.91-22.23,28.63c-7.18,6.26-12.52,8.24-16.38,8.24
		c-2.07,0-3.68-0.55-4.97-1.29c-3.73-2.12-7.59-7.64-4.88-21.91c1.89-10.03,6.58-22,13.3-33.74c6.67-11.74,14.59-21.91,22.23-28.63
		C2755.84,1543.54,2762.6,1544.05,2766.29,1546.16z M2752.2,1598.63c10.77-18.92,14.27-34.89,13.07-42.43
		c-4-0.97-10.4,2.72-17.81,10.49c-7.36,7.64-13.95,17.26-16.38,21.59c-12.66,22.14-14.64,40.18-10.54,43.35
		c0.05,0.05,0.23,0.18,0.37,0.28c2.49-0.6,5.98-2.44,10.4-6.35C2738.44,1619.29,2745.9,1609.72,2752.2,1598.63z"/>
</g>
<path d="M2572.16,1358.29c-17.21-25.54-52.28-45.24-93.89-52.79c-65.22-11.83-125.14,11-133.47,50.9c-0.09,0.51-0.18,0.97-0.28,1.47
	c-2.3,13.07,1.1,26.83,9.85,39.76c17.21,25.54,52.28,45.24,93.84,52.79c11.69,2.12,23.15,3.13,34.24,3.13
	c42.02,0,77.73-14.54,92.69-38.11l0.09,0.05c0.28-0.46,0.51-0.92,0.74-1.38c0,0,0.05-0.05,0.05-0.09c2.67-4.56,4.6-9.39,5.66-14.5
	C2584.54,1386,2581.23,1371.73,2572.16,1358.29z M2449.41,1444.04c-39.3-7.13-73.64-26.28-89.61-50.03
	c-7.69-11.37-10.72-23.24-8.93-34.52h0.09v-0.28c2.02-9.66,7.46-18.36,16.15-25.82c17.26-14.87,45.38-23.01,76.4-23.01
	c10.77,0,21.91,0.97,33.04,2.99c39.17,7.13,73.41,26.28,89.33,50.03c8.05,11.97,11,24.48,8.56,36.27
	c-0.83,4.14-2.39,8.19-4.56,12.01c-0.09,0.18-0.18,0.37-0.32,0.51h-0.09v0.14C2552,1439.71,2502.76,1453.66,2449.41,1444.04z"/>
<path d="M2890.71,1198.46c-8.75-12.5-19.79-18.31-33.74-17.87c-15.52,0.54-28.38,2.09-38.31,4.61c-8.12,2.32-12.48,5.64-13.32,10.14
	c-0.54,2.88,0.44,5.85,2.99,8.99l-0.47,0.16l4.23,3.65c0,0,0.01,0.01,0.01,0.01l0.03,0.03c0.25,0.22,0.56,0.45,0.83,0.67
	c0.52,0.43,1.02,0.85,1.59,1.29l0.27,0.19c19.07,11.61,37.81,17.49,55.77,17.49c0,0,0,0,0,0c0,0,0,0,0,0c0.85,0,1.7-0.01,2.55-0.04
	c1.68-0.05,3.33-0.15,4.97-0.27c0.2-0.02,0.4-0.03,0.6-0.05c1.35-0.11,2.66-0.26,3.95-0.44c0.12-0.02,0.24-0.03,0.36-0.05
	c1.13-0.17,2.22-0.39,3.27-0.64c0.16-0.04,0.34-0.07,0.5-0.11c0.81-0.21,1.57-0.46,2.31-0.72c0.21-0.08,0.47-0.13,0.68-0.21
	l3.49-1.36l-0.19-0.34c1.53-1.05,2.77-2.36,3.59-4C2899.19,1214.58,2897.29,1207.87,2890.71,1198.46z M2811.74,1196.54
	c0.12-0.64,1.1-2.89,8.61-5.04c9.39-2.38,21.78-3.86,36.84-4.39c11.51-0.34,20.79,4.53,28.18,15.09c6.46,9.22,6.21,13.02,5.49,14.46
	c-0.22,0.44-0.6,0.83-1.06,1.21c-0.58-0.91-1.21-1.85-1.89-2.82c-8.76-12.51-19.91-18.38-33.74-17.87
	c-15.53,0.54-28.39,2.09-38.3,4.61c-0.27,0.08-0.51,0.16-0.78,0.24C2811.74,1198.82,2811.64,1197.08,2811.74,1196.54z
	 M2882.9,1220.38c-0.02,0-0.05,0.01-0.08,0.01c-0.83,0.14-1.73,0.27-2.68,0.38c-0.1,0.01-0.21,0.02-0.31,0.04
	c-0.88,0.1-1.83,0.18-2.82,0.25c-0.17,0.01-0.33,0.03-0.5,0.04c-1.13,0.07-2.31,0.13-3.57,0.17c-2.15,0.06-4.33,0.02-6.51-0.1
	c-0.08,0-0.16-0.02-0.24-0.02c-2.09-0.13-4.19-0.33-6.31-0.62c-0.24-0.03-0.48-0.09-0.72-0.12c-1.94-0.29-3.89-0.63-5.85-1.06
	c-0.41-0.09-0.82-0.2-1.23-0.3c-1.78-0.41-3.57-0.87-5.37-1.4c-0.56-0.17-1.13-0.36-1.7-0.54c-1.63-0.51-3.27-1.06-4.92-1.66
	c-0.71-0.26-1.42-0.55-2.14-0.83c-1.5-0.59-3-1.21-4.51-1.88c-0.83-0.37-1.67-0.76-2.5-1.15c-1.39-0.65-2.78-1.34-4.17-2.06
	c-0.93-0.48-1.87-0.98-2.8-1.49c-0.59-0.32-1.17-0.67-1.76-1c8.69-1.77,19.48-2.89,32.17-3.34c11.66-0.35,20.79,4.53,28.18,15.09
	c0.34,0.49,0.67,0.97,0.99,1.45C2883.32,1220.28,2883.13,1220.34,2882.9,1220.38z"/>
<g>
	<path d="M2086.68,1163.13c-13.19,0-26.65-0.6-40.31-1.83c-90.66-8.2-171.73-43.1-211.58-91.09
		c-18.65-22.45-27.31-46.92-25.04-70.76c7.29-76.77,125.28-129.12,263.04-116.64c90.66,8.2,171.73,43.1,211.58,91.09
		c18.64,22.45,27.3,46.92,25.04,70.75C2302.84,1113.81,2206.43,1163.13,2086.68,1163.13z M2046.95,1154.8
		c134.2,12.18,249.01-37.56,255.97-110.77c2.09-22.06-6.05-44.88-23.57-65.97c-38.78-46.7-118.15-80.71-207.15-88.76
		c-134.18-12.11-249.01,37.56-255.97,110.77c-2.09,22.06,6.05,44.88,23.57,65.97C1878.58,1112.74,1957.96,1146.75,2046.95,1154.8z"
		/>
</g>
<g>
	<path d="M1673.41,937.05c-5.25,0-10.55-0.1-15.89-0.29c-83.99-3.09-159.16-30-196.18-70.24c-15.96-17.35-23.92-36.64-23.03-55.79
		c3.03-64.9,106.07-114.02,230.14-109.44c83.99,3.09,159.16,30,196.18,70.24c15.96,17.35,23.92,36.64,23.03,55.79
		C1884.76,889.42,1790.1,937.05,1673.41,937.05z M1657.76,930.24c120.29,4.43,220.52-41.89,223.38-103.23
		c0.82-17.62-6.35-34.8-21.32-51.07c-35.88-39-109.3-65.11-191.61-68.14c-120.21-4.43-220.51,41.88-223.38,103.23
		c-0.82,17.61,6.35,34.8,21.32,51.06C1502.02,901.11,1575.44,927.22,1657.76,930.24z"/>
</g>
<g>
	<path d="M1336.46,747.2c-75.51,0-142.47-20-175.62-52.64c-13.5-13.29-20.37-27.75-20.42-42.97
		c-0.18-54.01,89.77-99.04,200.52-100.38c77.67-1.01,146.9,19.22,180.81,52.61c13.5,13.29,20.37,27.75,20.42,42.97
		c0.18,54.01-89.77,99.04-200.52,100.38l-0.04-3.26l0.04,3.26C1339.91,747.19,1338.18,747.2,1336.46,747.2z M1345.89,557.7
		c-1.63,0-3.25,0.01-4.89,0.03c-107.18,1.3-194.24,43.39-194.07,93.84c0.05,13.42,6.26,26.32,18.48,38.34
		c32.22,31.72,101.28,51.6,176.15,50.74c107.18-1.3,194.24-43.39,194.07-93.84c-0.05-13.42-6.26-26.32-18.47-38.34
		C1485.65,577.44,1418.79,557.7,1345.89,557.7z"/>
</g>
<g>
	<path d="M1030.97,592.43c-56.88,0-107.05-12.57-133.79-34.56c-12.21-10.04-19.02-21.47-20.23-33.97
		c-4.53-46.72,74.71-92.86,176.63-102.86c72.28-7.1,140.11,5.71,172.84,32.63c12.21,10.04,19.02,21.47,20.23,33.97
		c4.53,46.72-74.71,92.86-176.63,102.86l0,0C1056.8,591.8,1043.71,592.43,1030.97,592.43z M1092.91,425.62
		c-12.61,0-25.56,0.63-38.68,1.91c-98.35,9.65-174.96,52.6-170.78,95.74c1.04,10.71,7.05,20.66,17.88,29.56
		c31.46,25.86,97.43,38.09,168.06,31.17l0,0c98.35-9.65,174.96-52.6,170.78-95.74c-1.04-10.71-7.05-20.66-17.88-29.56
		C1196.67,437.65,1148.17,425.62,1092.91,425.62z"/>
</g>
<g>
	<path d="M791.06,449.98c-74.81,0-131.08-20.62-135.51-52.78c-1.25-9.12,1.73-18.38,8.86-27.52c22.69-29.09,83.9-52.97,155.94-60.85
		c97.66-10.67,178.34,11.33,183.68,50.09c1.26,9.12-1.73,18.38-8.86,27.52c-22.69,29.09-83.9,52.97-155.94,60.84l0,0
		C822.59,449.1,806.43,449.98,791.06,449.98z M866.81,312.78c-14.73,0-30.08,0.81-45.74,2.53c-69.29,7.58-130.18,31.03-151.51,58.37
		c-6.01,7.7-8.55,15.32-7.54,22.62c4.69,34.07,85.51,54.44,176.51,44.5l0,0c69.29-7.57,130.18-31.03,151.51-58.37
		c6.01-7.7,8.55-15.32,7.54-22.62C993.69,331.61,937.61,312.78,866.81,312.78z"/>
</g>
<g>
	<path d="M589.01,337.78c-70.94,0-124.31-19.15-128.52-48.99c-1.18-8.34,1.53-16.81,8.04-25.16
		c21.19-27.18,79.33-49.48,148.12-56.82c92.53-9.87,168.98,10.55,174.05,46.51c1.18,8.35-1.53,16.81-8.04,25.17
		c-21.19,27.18-79.33,49.48-148.12,56.82l0,0C618.81,336.98,603.54,337.78,589.01,337.78z M660.72,210.95
		c-13.96,0-28.52,0.75-43.38,2.34c-66.09,7.06-123.82,28.9-143.66,54.35c-5.38,6.91-7.65,13.71-6.73,20.24
		c4.42,31.38,80.85,50.13,166.9,40.94l0,0c66.08-7.05,123.82-28.9,143.67-54.35c5.38-6.91,7.65-13.72,6.73-20.24
		C780.59,228.26,727.63,210.95,660.72,210.95z"/>
</g>
<g>
	
		<rect x="2154.94" y="1046.84" transform="matrix(0.0523 -0.9986 0.9986 0.0523 1070.1505 3227.9102)" width="161.8" height="6.53"/>
</g>
<g>
	<rect x="2282.68" y="1043.75" transform="matrix(0.0895 -0.996 0.996 0.0895 1049.5637 3242.1714)" width="30.94" height="6.53"/>
</g>
<g>
	<path d="M1849.31,1029.56c-0.01,0-0.03,0-0.04,0l-34.36-0.41c-1.48-0.02-2.77-1.04-3.13-2.49c-0.44-1.78-0.82-3.59-1.14-5.39
		c-0.06-0.38-0.06-0.76,0-1.14c3.56-19.8,14.39-38.05,32.19-54.24c0.93-0.84,2.25-1.08,3.4-0.62c1.16,0.46,1.95,1.55,2.05,2.79
		l4.28,57.99c0.07,0.91-0.25,1.81-0.88,2.47C1851.07,1029.18,1850.21,1029.56,1849.31,1029.56z M1817.56,1022.65l28.24,0.34
		l-3.51-47.54c-13.62,13.81-22.06,29-25.11,45.26C1817.29,1021.36,1817.42,1022,1817.56,1022.65z"/>
</g>
<g>
	<path d="M1853.65,1088.29c-0.79,0-1.57-0.29-2.18-0.84c-8.22-7.38-15.38-15.15-21.29-23.09c-0.74-0.99-0.85-2.31-0.3-3.41
		c0.55-1.1,1.68-1.8,2.91-1.8h19.18c1.71,0,3.13,1.32,3.25,3.02l1.67,22.61c0.1,1.33-0.62,2.58-1.82,3.17
		C1854.63,1088.18,1854.14,1088.29,1853.65,1088.29z M1839.5,1065.68c3.14,3.8,6.57,7.55,10.28,11.22l-0.83-11.22H1839.5z"/>
</g>
<g>
	<path d="M2267.89,1111.68c-0.37,0-0.75-0.07-1.11-0.2c-1.07-0.39-1.87-1.31-2.09-2.43l-9.18-46.01c-0.19-0.96,0.06-1.95,0.68-2.71
		c0.62-0.76,1.55-1.2,2.52-1.2h43.52c1.06,0,2.04,0.51,2.66,1.37s0.77,1.96,0.43,2.96c-6.03,17.41-17.92,33.39-35.37,47.48
		C2269.35,1111.43,2268.62,1111.68,2267.89,1111.68z M2262.68,1065.68l7.33,36.7c12.82-11.2,22.04-23.52,27.49-36.7H2262.68z"/>
</g>
<g>
	<path d="M2299.53,1034.86c-0.01,0-0.03,0-0.04,0l-47.09-0.56c-1.54-0.02-2.86-1.11-3.16-2.62l-12.86-64.44
		c-0.26-1.29,0.29-2.6,1.38-3.33c1.08-0.74,2.51-0.74,3.6-0.03c29.74,19.39,50.89,42.37,61.17,66.44c0.44,1.02,0.33,2.18-0.29,3.09
		C2301.63,1034.32,2300.62,1034.86,2299.53,1034.86z M2255.12,1027.81l39.3,0.47c-9.56-19.45-26.71-38.12-50.09-54.52
		L2255.12,1027.81z"/>
</g>
<g>
	<path d="M2296.76,1065.68h-38.06c-1.55,0-2.89-1.1-3.2-2.62l-6.27-31.37c-0.19-0.97,0.06-1.96,0.69-2.72
		c0.63-0.76,1.66-1.06,2.55-1.18l47.09,0.56c0.91,0.01,1.77,0.4,2.38,1.08c0.61,0.67,0.91,1.57,0.83,2.48l-2.77,30.81
		C2299.86,1064.39,2298.45,1065.68,2296.76,1065.68z M2261.38,1059.15h32.41l2.18-24.33l-39.54-0.47L2261.38,1059.15z"/>
</g>
<g>
	<path d="M1851.98,1065.68h-19.18c-1.03,0-2-0.49-2.62-1.32c-6.87-9.24-12.12-18.8-15.6-28.44c-1.11-3.06-2.05-6.18-2.8-9.27
		c-0.24-0.98-0.01-2.01,0.62-2.8c0.63-0.79,1.67-1.23,2.59-1.24l34.36,0.41c1.69,0.02,3.09,1.33,3.21,3.02l2.67,36.12
		c0.07,0.91-0.25,1.8-0.86,2.46C1853.75,1065.3,1852.89,1065.68,1851.98,1065.68z M1834.46,1059.15h14.01l-2.19-29.63l-27.05-0.32
		c0.45,1.51,0.95,3.02,1.49,4.51c0,0,0,0,0,0C1823.82,1042.29,1828.44,1050.84,1834.46,1059.15z"/>
</g>
<g>
	<path d="M2237.91,1131c-0.8,0-1.59-0.3-2.21-0.86c-1.87-1.72-3.8-3.42-5.8-5.1c-0.78-0.66-1.21-1.65-1.16-2.67l8.11-153.24
		c0.09-1.65,1.38-2.96,3.02-3.08c1.52-0.11,3.11,1,3.43,2.62l27.77,139.11c0.23,1.19-0.21,2.41-1.15,3.17
		c-8.86,7.16-19.13,13.78-30.53,19.68C2238.94,1130.88,2238.42,1131,2237.91,1131z M2235.35,1121.1c1.04,0.89,2.06,1.78,3.07,2.68
		c9.56-5.07,18.25-10.67,25.88-16.68l-22.3-111.7L2235.35,1121.1z"/>
</g>
<g>
	<path d="M2232.01,1125.81c-0.76,0-1.5-0.27-2.1-0.77c-40.85-34.35-104.14-57.73-173.62-64.14c-58.02-5.37-114.51,1.74-159.03,19.97
		c-11.34,4.65-21.81,9.99-31.1,15.88c-1.16,0.73-2.65,0.67-3.74-0.18c-3.8-2.94-7.47-6.01-10.94-9.12
		c-0.62-0.56-1.01-1.35-1.07-2.18l-8.11-109.82c-13.78,13.97-22.26,29.36-25.22,45.83c-0.28,1.56-1.63,2.69-3.21,2.69h0
		c-1.58,0-2.93-1.14-3.2-2.69c-1.29-7.25-1.6-14.58-0.91-21.82c7.29-76.77,125.28-129.12,263.04-116.65
		c90.66,8.2,171.73,43.1,211.58,91.09c18.64,22.45,27.3,46.92,25.04,70.75c-0.6,6.37-1.99,12.71-4.1,18.83
		c-0.45,1.32-1.69,2.2-3.08,2.2h-5.46c-0.92,0-1.79-0.39-2.41-1.06c-0.62-0.68-0.92-1.58-0.84-2.49l2.7-29.99
		c-9.25-21.15-27.51-41.5-53.02-59.17l-7.92,149.75c-0.07,1.24-0.83,2.33-1.96,2.82
		C2232.89,1125.72,2232.45,1125.81,2232.01,1125.81z M2018.77,1052.64c12.56,0,25.3,0.58,38.11,1.76
		c68.01,6.27,130.3,28.61,172.2,61.57l7.75-146.43l-0.46-2.3c-0.26-1.29,0.29-2.6,1.38-3.33c1.08-0.74,2.51-0.74,3.6-0.03
		c29.74,19.39,50.89,42.37,61.17,66.44c0.21,0.49,0.3,1.03,0.25,1.57l-2.24,24.96c1.17-4.21,1.96-8.51,2.38-12.82
		c2.09-22.06-6.05-44.88-23.57-65.97c-38.78-46.7-118.15-80.71-207.15-88.76c-134.18-12.11-249.01,37.56-255.97,110.77
		c-0.06,0.68-0.12,1.37-0.16,2.05c5.55-12.94,14.5-25.07,26.76-36.23c0.93-0.84,2.25-1.08,3.4-0.62c1.16,0.46,1.95,1.55,2.05,2.79
		l8.53,115.41c2.5,2.22,5.12,4.41,7.81,6.55c9.12-5.61,19.25-10.71,30.16-15.18C1930.4,1060.25,1973.42,1052.64,2018.77,1052.64z"/>
</g>
<g>
	<path d="M2086.42,1163.11c-13.23,0-26.63-0.6-40.06-1.81c-1.88-0.18-3.76-0.35-5.63-0.54c-70.07-7.2-135.07-30.6-178.32-64.18
		c-0.84-0.65-1.31-1.67-1.26-2.73c0.05-1.06,0.62-2.03,1.51-2.6c9.61-6.09,20.42-11.61,32.12-16.41v0
		c45.48-18.62,103.06-25.87,162.1-20.43c70.77,6.53,135.37,30.45,177.22,65.65c0.78,0.66,1.21,1.65,1.16,2.67l-0.44,8.34
		c-0.06,1.2-0.78,2.26-1.86,2.77C2192.98,1152.9,2141.1,1163.11,2086.42,1163.11z M1870.18,1094.28
		c42.28,31.32,104.34,53.11,171.21,59.98c1.85,0.19,3.7,0.37,5.56,0.53c66.95,6.06,132.97-3.43,181.46-26.03l0.25-4.76
		c-40.89-33.79-103.59-56.76-172.38-63.1c-58.02-5.37-114.51,1.74-159.03,19.97C1887.52,1084.86,1878.43,1089.36,1870.18,1094.28z"
		/>
</g>
<g>
	<path d="M1443.55,832.63c-1.48,0-2.78-1-3.16-2.43l-0.37-1.49c-0.12-0.5-0.12-1.02,0-1.52c4.49-18.7,17.7-36.51,38.2-51.49
		c1.02-0.74,2.36-0.84,3.48-0.24c1.11,0.6,1.77,1.78,1.71,3.03l-2.58,51.01c-0.09,1.73-1.52,3.1-3.25,3.1L1443.55,832.63
		C1443.55,832.63,1443.55,832.63,1443.55,832.63z M1476.53,785.25c-15.16,12.34-25.26,26.33-29.47,40.86l27.4-0.01L1476.53,785.25z"
		/>
</g>
<g>
	<path d="M1842.11,832.43c-1.75,0-3.19-1.38-3.26-3.13l-1.83-46.08c-0.05-1.24,0.61-2.41,1.71-3c1.09-0.6,2.43-0.51,3.45,0.22
		c20.06,14.33,33.73,30.31,40.62,47.5c0.4,1,0.28,2.14-0.33,3.04s-1.62,1.43-2.7,1.43L1842.11,832.43L1842.11,832.43z
		 M1843.81,789.8l1.43,36.11l29.51-0.01C1868.61,813.23,1858.05,800.91,1843.81,789.8z"/>
</g>
<g>
	<path d="M1874.48,861.56c-0.01,0-0.01,0-0.02,0l-31.22-0.22c-1.74-0.01-3.17-1.39-3.24-3.13l-1.15-28.91
		c-0.04-0.89,0.29-1.75,0.91-2.39c0.61-0.64,1.46-1,2.35-1l37.65-0.02l0,0c1.33,0,2.53,0.81,3.02,2.05
		c1.31,3.26,2.37,6.58,3.16,9.88c0.12,0.5,0.12,1.02,0,1.52c-1.69,7.03-4.61,13.98-8.69,20.66
		C1876.67,860.96,1875.61,861.56,1874.48,861.56z M1846.4,854.84l26.23,0.18c3.09-5.36,5.37-10.89,6.79-16.46
		c-0.52-2.05-1.15-4.11-1.89-6.15l-32.02,0.02L1846.4,854.84z"/>
</g>
<g>
	<path d="M1844.49,892.41c-0.49,0-0.98-0.11-1.43-0.33c-1.08-0.53-1.78-1.6-1.82-2.8l-1.23-31.07c-0.04-0.89,0.3-1.76,0.92-2.4
		c0.62-0.64,1.47-1,2.36-0.99l31.22,0.22c1.18,0.01,2.26,0.65,2.83,1.67s0.55,2.28-0.07,3.29c-7,11.47-17.39,22.18-30.87,31.81
		C1845.82,892.2,1845.16,892.41,1844.49,892.41z M1846.65,861.36l0.85,21.46c8.54-6.68,15.55-13.81,20.93-21.31L1846.65,861.36z"/>
</g>
<g>
	<path d="M1475.24,878.57c-0.76,0-1.51-0.27-2.11-0.78c-7.65-6.5-14.17-13.38-19.37-20.46c-0.73-0.99-0.84-2.31-0.28-3.41
		c0.56-1.09,1.68-1.78,2.91-1.78c0.01,0,0.02,0,0.02,0l19.86,0.14c0.89,0,1.74,0.38,2.35,1.02c0.61,0.65,0.93,1.51,0.89,2.4
		l-1,19.77c-0.06,1.24-0.82,2.34-1.96,2.83C1476.12,878.48,1475.68,878.57,1475.24,878.57z M1463.15,858.7
		c2.76,3.27,5.83,6.49,9.18,9.63l0.49-9.56L1463.15,858.7z"/>
</g>
<g>
	<path d="M1476.24,858.79c-0.01,0-0.02,0-0.02,0l-19.86-0.14c-1.03-0.01-2-0.5-2.6-1.33c-6.44-8.75-10.93-17.88-13.36-27.13
		c-0.26-0.98-0.04-2.02,0.57-2.82c0.62-0.8,1.57-1.27,2.58-1.27l34.01-0.02h0c0.89,0,1.75,0.37,2.36,1.01s0.94,1.52,0.89,2.41
		l-1.33,26.18C1479.41,857.43,1477.97,858.79,1476.24,858.79z M1458.06,852.15l15.08,0.1l0.99-19.63l-26.2,0.01
		C1450.16,839.24,1453.55,845.78,1458.06,852.15z"/>
</g>
<g>
	<path d="M1821.15,906.38c-0.54,0-1.09-0.13-1.58-0.41c-40.14-22.17-93.89-35.54-151.36-37.66c-46.07-1.69-90.53,3.98-128.51,16.41
		c-12,3.93-23.25,8.51-33.41,13.63c-0.95,0.49-2.1,0.47-3.04-0.06c-11.37-6.28-21.5-13.18-30.13-20.5c-0.77-0.66-1.2-1.64-1.14-2.65
		l4.55-89.89c-16.07,13.08-26.45,28.01-30.16,43.47c-0.35,1.47-1.66,2.5-3.17,2.5h0c-1.51,0-2.82-1.04-3.17-2.5
		c-1.42-5.94-1.99-11.99-1.71-17.98c3.03-64.9,106.13-114.02,230.15-109.44c83.99,3.09,159.15,30,196.17,70.24
		c15.96,17.35,23.92,36.64,23.03,55.79c-0.19,4.02-0.76,8.06-1.71,12.01c-0.36,1.47-1.67,2.5-3.17,2.5h0
		c-1.51,0-2.82-1.04-3.17-2.51c-0.71-2.98-1.67-6-2.86-8.96c-5.7-14.22-17.03-28.14-32.93-40.57l3.94,99.22
		c0.04,1.1-0.47,2.14-1.36,2.78c-7.12,5.08-15.11,9.87-23.78,14.23C1822.15,906.26,1821.65,906.38,1821.15,906.38z M1652.31,861.5
		c5.36,0,10.74,0.1,16.14,0.3c57.75,2.12,111.9,15.48,152.75,37.63c7.2-3.7,13.9-7.71,19.96-11.92l-4.13-104.28
		c-0.05-1.24,0.61-2.41,1.71-3c1.09-0.6,2.43-0.51,3.45,0.22c18.62,13.3,31.73,28.03,39.03,43.82c-0.01-16.65-7.2-32.89-21.38-48.31
		c-35.88-39-109.3-65.11-191.61-68.14c-120.2-4.43-220.52,41.88-223.39,103.23c-0.04,0.94-0.07,1.89-0.06,2.84
		c6.54-13.79,17.9-26.79,33.46-38.17c1.02-0.74,2.36-0.84,3.48-0.24c1.11,0.6,1.77,1.78,1.71,3.03l-4.83,95.35
		c7.64,6.35,16.49,12.36,26.34,17.9c10.04-4.95,21.05-9.4,32.76-13.23C1571.9,867.32,1611.25,861.5,1652.31,861.5z"/>
</g>
<g>
	<path d="M1672.06,937.02c-5.61,0-10.51-0.11-14.55-0.26c-60.15-2.21-112.05-15.15-154.26-38.47c-1.06-0.58-1.71-1.71-1.69-2.92
		c0.03-1.21,0.71-2.31,1.8-2.85c43.28-21.8,103.37-33.03,165.09-30.73c58.46,2.15,113.25,15.81,154.27,38.47
		c1.06,0.58,1.71,1.71,1.69,2.92c-0.03,1.21-0.71,2.31-1.8,2.85C1769.65,932.7,1707.03,937.02,1672.06,937.02z M1512.01,895.59
		c40.28,20.93,89.27,32.58,145.75,34.66c27.73,1.02,97.23,0.28,156.21-27.27c-39.48-20.38-90.92-32.65-145.75-34.66
		C1610.31,866.2,1553.85,876.09,1512.01,895.59z"/>
</g>
<g>
	<path d="M1506.09,702.88c-0.51,0-1.03-0.12-1.5-0.36c-1.1-0.57-1.78-1.72-1.76-2.96l0.22-12.13c0.04-1.79,1.51-3.2,3.3-3.2
		l13.68,0.17c1.3,0.02,2.48,0.81,2.98,2.01c0.5,1.21,0.23,2.59-0.68,3.53c-4.14,4.24-8.96,8.38-14.31,12.31
		C1507.45,702.66,1506.77,702.88,1506.09,702.88z M1509.51,690.78l-0.04,2.07c0.82-0.68,1.63-1.36,2.41-2.04L1509.51,690.78z"/>
</g>
<g>
	<path d="M1506.84,662.39c-0.87,0-1.71-0.35-2.32-0.97c-0.62-0.62-0.96-1.47-0.94-2.35l0.69-37.17c0.02-1.22,0.72-2.32,1.82-2.86
		c1.09-0.55,2.39-0.43,3.38,0.29c15.88,11.64,26.12,24.64,30.44,38.66c0.31,0.98,0.13,2.06-0.49,2.89
		c-0.61,0.83-1.58,1.33-2.61,1.33l-29.94,0.18C1506.85,662.39,1506.84,662.39,1506.84,662.39z M1510.67,628.52l-0.51,27.33l22-0.13
		C1528.22,646.13,1521.01,637.02,1510.67,628.52z"/>
</g>
<g>
	<path d="M1520,690.92c-0.01,0-0.03,0-0.04,0l-13.68-0.17c-0.87-0.01-1.7-0.37-2.3-0.99c-0.61-0.62-0.93-1.46-0.92-2.33l0.53-28.35
		c0.04-1.77,1.47-3.19,3.24-3.2l29.94-0.18c0,0,0.01,0,0.02,0c1.43,0,2.7,0.93,3.12,2.31l0.3,1.01c0.17,0.59,0.17,1.21,0,1.8
		c-2.88,10.12-8.89,19.92-17.88,29.12C1521.71,690.56,1520.87,690.92,1520,690.92z M1509.64,684.26l8.99,0.11
		c6.74-7.11,11.53-14.54,14.27-22.14l-22.86,0.13L1509.64,684.26z"/>
</g>
<g>
	<path d="M1168.22,700.17c-0.77,0-1.52-0.27-2.12-0.78c-5.32-4.56-9.9-9.37-13.6-14.3c-0.75-0.99-0.86-2.33-0.3-3.43
		c0.56-1.11,1.71-1.75,2.95-1.78l15.67,0.19c0.96,0.01,1.87,0.45,2.48,1.19c0.61,0.75,0.86,1.72,0.68,2.67l-2.56,13.58
		c-0.21,1.14-1.02,2.09-2.12,2.47C1168.95,700.11,1168.58,700.17,1168.22,700.17z M1162.11,686.48c1.25,1.38,2.58,2.75,3.98,4.1
		l0.76-4.04L1162.11,686.48z"/>
</g>
<g>
	<path d="M1146.51,664.46c-1.06,0-2.05-0.51-2.66-1.37c-0.62-0.87-0.77-1.98-0.42-2.98c5.43-15.27,18.36-29.95,37.38-42.43
		c1.1-0.72,2.51-0.71,3.6,0.01c1.09,0.73,1.64,2.03,1.4,3.32l-7.64,40.63c-0.29,1.53-1.62,2.65-3.19,2.66l-28.46,0.16
		C1146.52,664.46,1146.52,664.46,1146.51,664.46z M1177.93,627.65c-12.56,9.33-21.61,19.64-26.55,30.27l20.88-0.12L1177.93,627.65z"
		/>
</g>
<g>
	<path d="M1170.77,686.59c-0.01,0-0.03,0-0.04,0l-15.66-0.19c-1.01-0.01-1.96-0.49-2.57-1.3c-4.38-5.83-7.61-11.93-9.61-18.12
		c-0.18-0.57-0.36-1.14-0.52-1.71c-0.17-0.58-0.17-1.2,0-1.79c0.32-1.12,0.68-2.24,1.07-3.35c0.46-1.29,1.68-2.16,3.05-2.17
		l28.46-0.16c0,0,0.01,0,0.02,0c0.97,0,1.89,0.43,2.5,1.17c0.62,0.75,0.88,1.73,0.7,2.69l-4.19,22.29
		C1173.69,685.47,1172.34,686.59,1170.77,686.59z M1156.78,679.89l11.3,0.14l2.95-15.71l-22.09,0.13c0.05,0.17,0.11,0.34,0.16,0.51
		C1150.73,670.02,1153.31,675.04,1156.78,679.89z"/>
</g>
<g>
	<rect x="1138.87" y="660.29" transform="matrix(0.0138 -0.9999 0.9999 0.0138 502.2343 1836.3079)" width="86.3" height="6.52"/>
</g>
<g>
	<path d="M1181.42,709.96c-0.62,0-1.23-0.18-1.77-0.52c-4.93-3.2-9.49-6.58-13.55-10.04c-0.89-0.76-1.3-1.93-1.08-3.08l14.39-76.5
		c0.31-1.66,1.83-2.81,3.53-2.64c1.68,0.17,2.96,1.6,2.93,3.29l-1.19,86.29c-0.02,1.19-0.68,2.27-1.72,2.83
		C1182.48,709.83,1181.95,709.96,1181.42,709.96z M1171.78,695.64c2.03,1.68,4.2,3.33,6.47,4.95l0.58-42.43l-4.2,22.36v0
		L1171.78,695.64z"/>
</g>
<g>
	<path d="M1229.59,731.87c-0.33,0-0.67-0.05-0.99-0.15c-18.93-6.01-35.4-13.51-48.96-22.28c-0.94-0.61-1.5-1.66-1.49-2.78l1.1-79.98
		c-15.01,10.85-25.22,23.08-29.67,35.62c-0.35,0.98-0.66,1.96-0.94,2.95c-0.4,1.4-1.68,2.37-3.13,2.37h0
		c-1.46,0-2.74-0.96-3.14-2.36c-1.28-4.49-1.94-9.09-1.95-13.66c-0.18-54.01,89.77-99.04,200.52-100.38
		c77.67-1.01,146.9,19.22,180.81,52.61c13.5,13.29,20.37,27.75,20.42,42.97c0.01,4.68-0.64,9.4-1.96,14.02
		c-0.4,1.4-1.67,2.36-3.11,2.37c-0.01,0-0.02,0-0.02,0c-1.45,0-2.72-0.95-3.13-2.33l-0.29-0.97c-3.42-11.1-11.14-21.64-22.98-31.36
		l-1.32,71.15c-0.02,1.02-0.51,1.97-1.33,2.57c-11.88,8.72-26.44,16.47-43.29,23.03c-0.71,0.28-1.5,0.3-2.22,0.05
		c-35.46-11.92-79.96-17.14-125.29-14.72c-31.05,1.66-60.58,6.64-87.77,14.78c-6.42,1.93-12.72,4.04-18.72,6.27
		C1230.36,731.8,1229.98,731.87,1229.59,731.87z M1184.71,704.92c12.52,7.88,27.58,14.68,44.81,20.23
		c5.81-2.14,11.88-4.17,18.07-6.02c27.68-8.29,57.73-13.36,89.29-15.05c45.66-2.46,90.55,2.76,126.59,14.67
		c15.24-6.02,28.48-13.02,39.4-20.83l1.41-76.03c0.02-1.22,0.72-2.32,1.82-2.86c1.09-0.55,2.39-0.43,3.38,0.29
		c11.96,8.77,20.73,18.32,26.17,28.48c0.01-0.33,0.01-0.67,0.01-1c-0.05-13.41-6.26-26.32-18.47-38.34
		c-32.22-31.73-101.47-51.74-176.16-50.74c-107.18,1.3-194.24,43.39-194.07,93.84c0,0.21,0,0.42,0.01,0.63
		c6.6-12.4,18.16-24.21,33.88-34.52c1.01-0.67,2.3-0.71,3.36-0.13c1.06,0.58,1.71,1.7,1.69,2.9L1184.71,704.92z"/>
</g>
<g>
	<path d="M1336.52,747.2c-19.1,0-37.9-1.3-55.97-3.87c-18.43-2.62-35.91-6.53-51.95-11.62c-1.33-0.42-2.24-1.64-2.27-3.03
		c-0.03-1.39,0.82-2.65,2.12-3.13c6.13-2.29,12.56-4.45,19.13-6.41c27.68-8.29,57.73-13.36,89.29-15.05
		c46.16-2.48,91.5,2.87,127.72,15.05c1.3,0.44,2.19,1.64,2.22,3.02c0.03,1.37-0.8,2.62-2.08,3.11
		c-35.4,13.78-77.97,21.36-123.09,21.9C1339.93,747.19,1338.22,747.2,1336.52,747.2z M1240.13,728.34
		c13.01,3.62,26.87,6.49,41.34,8.54l0,0c19.35,2.75,39.57,4,60.09,3.77c40.61-0.49,79.06-6.76,111.88-18.17
		c-33.83-9.89-74.68-14.1-116.22-11.87c-31.05,1.66-60.58,6.64-87.77,14.78C1246.3,726.33,1243.19,727.32,1240.13,728.34z"/>
</g>
<g>
	<rect x="937.19" y="477.01" transform="matrix(0.9986 -0.0532 0.0532 0.9986 -26.71 50.7677)" width="6.52" height="100.39"/>
</g>
<g>
	<path d="M1030.56,592.46c-8.89,0-17.66-0.31-26.27-0.93c-8.13-0.58-16.14-1.45-23.79-2.57c-1.51-0.22-2.67-1.46-2.78-2.98
		s0.84-2.92,2.3-3.36c4.1-1.25,8.29-2.45,12.57-3.58l0,0c21.85-5.81,45.14-9.9,69.21-12.15c30.65-2.87,60.28-2.61,88.03,0.79
		c1.52,0.19,2.7,1.4,2.85,2.92c0.15,1.52-0.78,2.94-2.23,3.42c-24.85,8.14-51.91,13.69-80.44,16.49
		C1056.7,591.8,1043.51,592.46,1030.56,592.46z M997.7,584.45c2.34,0.22,4.69,0.41,7.06,0.58c20.78,1.49,42.52,1.15,64.62-1.02
		c22.13-2.17,43.36-6.02,63.31-11.47c-22.47-1.71-46.03-1.43-70.28,0.84C1039.96,575.48,1018.21,579.2,997.7,584.45z"/>
</g>
<g>
	<path d="M888.32,522.18c-1.17,0-2.26-0.63-2.84-1.66c-0.6-1.07-0.56-2.38,0.12-3.4c9.49-14.41,26.57-28.17,49.38-39.79
		c1.22-0.62,2.7-0.42,3.7,0.51c1,0.93,1.32,2.39,0.79,3.65l-15.62,37.38c-0.49,1.17-1.61,1.95-2.88,2l-32.52,1.3
		C888.41,522.18,888.37,522.18,888.32,522.18z M929.91,487.47c-15.08,8.56-26.97,18.06-34.96,27.92l23.68-0.95L929.91,487.47z"/>
</g>
<g>
	<path d="M903.67,561.99c-0.67,0-1.34-0.21-1.9-0.61c-9.87-7.08-16.94-15.05-20.99-23.71c-0.47-0.99-0.4-2.15,0.17-3.09
		c0.57-0.93,1.57-1.52,2.67-1.56l29.76-1.06c1.12-0.02,2.17,0.49,2.8,1.4c0.63,0.91,0.76,2.09,0.33,3.11l-9.82,23.5
		c-0.38,0.92-1.16,1.61-2.12,1.88C904.26,561.95,903.97,561.99,903.67,561.99z M889.12,539.37c3.15,5.01,7.56,9.78,13.16,14.23
		l6.24-14.93l-0.12,0l0,0L889.12,539.37z"/>
</g>
<g>
	<path d="M1229.85,508.52c-0.93,0-1.82-0.4-2.44-1.1c-0.65-0.73-0.93-1.72-0.78-2.69l2.74-16.93c0.2-1.25,1.11-2.27,2.33-2.62
		c1.22-0.34,2.53,0.05,3.36,1.01c4.49,5.2,7.73,10.77,9.66,16.54c0.22,0.66,0.22,1.37,0.01,2.03l-0.37,1.1
		c-0.44,1.27-1.61,2.13-2.95,2.18l-11.43,0.46C1229.94,508.52,1229.9,508.52,1229.85,508.52z M1234.58,496.49l-0.87,5.36l3.62-0.15
		C1236.56,499.94,1235.64,498.2,1234.58,496.49z"/>
</g>
<g>
	<path d="M883.73,539.56c-1.26,0-2.42-0.73-2.95-1.88c-0.73-1.55-1.36-3.12-1.89-4.72c-0.22-0.65-0.22-1.36-0.01-2.02
		c1-3.15,2.38-6.32,4.08-9.42c0.8-1.47,1.69-2.93,2.65-4.38c0.58-0.88,1.54-1.42,2.59-1.47l32.52-1.3c1.07-0.1,2.17,0.48,2.81,1.4
		c0.64,0.91,0.76,2.09,0.33,3.12l-7.36,17.61c-0.49,1.18-1.62,1.96-2.89,2l-29.76,1.06C883.8,539.56,883.77,539.56,883.73,539.56z
		 M885.42,531.9c0.13,0.35,0.27,0.71,0.41,1.05l25.45-0.91l4.58-10.96l-25.71,1.03c-0.52,0.84-1.02,1.69-1.48,2.54h0
		C887.35,527.05,886.26,529.49,885.42,531.9z"/>
</g>
<g>
	<path d="M943.12,580.59c-0.33,0-0.65-0.05-0.97-0.15c-16.2-5.05-29.79-11.46-40.39-19.06c-1.23-0.89-1.69-2.51-1.11-3.91
		l8.78-21.02l0,0l24.01-57.47c0.3-0.71,0.84-1.3,1.53-1.65l1.1-0.56c0.99-0.49,2.33-0.55,3.29,0c0.95,0.55,1.74,1.46,1.8,2.56
		l5.21,97.81c0.06,1.07-0.41,2.09-1.25,2.75C944.55,580.35,943.84,580.59,943.12,580.59z M907.69,557.56
		c8.69,5.87,19.4,10.96,31.92,15.2l-4.33-81.24L907.69,557.56z"/>
</g>
<g>
	<path d="M1229.88,527.19c-0.38,0-0.76-0.07-1.13-0.2c-1.28-0.47-2.13-1.69-2.13-3.06l-0.03-18.67c0-1.75,1.38-3.19,3.13-3.26
		l11.43-0.46c1.06-0.05,2.11,0.45,2.75,1.31c0.64,0.87,0.82,1.99,0.47,3.01c-2.35,6.81-6.39,13.6-12.01,20.18
		C1231.73,526.79,1230.82,527.19,1229.88,527.19z M1233.12,508.39l0.01,5.71c1.23-1.94,2.31-3.89,3.23-5.84L1233.12,508.39z"/>
</g>
<g>
	<path d="M980.98,589c-0.16,0-0.31-0.01-0.47-0.03c-13.75-2.01-26.65-4.88-38.35-8.52c-1.3-0.41-2.22-1.58-2.29-2.94l-4.94-92.78
		c-20.29,10.75-35.42,23.16-43.88,36c-0.86,1.31-1.65,2.62-2.37,3.93c-1.5,2.74-2.71,5.52-3.59,8.27c-0.43,1.35-1.68,2.26-3.09,2.27
		c-1.2,0.01-2.67-0.89-3.11-2.23c-0.98-2.96-1.64-6-1.93-9.06c-0.13-1.34-0.19-2.67-0.19-4c0.04-26.55,25.91-53.06,70.96-72.73
		c30.42-13.28,67.03-22.31,105.86-26.12c72.27-7.1,140.12,5.72,172.84,32.63c12.21,10.04,19.02,21.47,20.23,33.97
		c0.55,5.65-0.1,11.42-1.92,17.13c-0.43,1.34-1.67,2.26-3.09,2.27c-0.01,0-0.02,0-0.02,0c-1.4,0-2.65-0.9-3.09-2.23
		c-0.94-2.83-2.27-5.61-3.96-8.32l-1.46,9.03l0.03,18.41c0,0.78-0.27,1.53-0.78,2.12c-16.13,18.91-45.22,35.94-81.9,47.96
		c-0.45,0.15-0.94,0.2-1.41,0.14c-27.29-3.34-56.43-3.6-86.63-0.77c-23.71,2.22-46.64,6.25-68.14,11.96
		c-4.2,1.11-8.32,2.29-12.34,3.51C981.62,588.95,981.3,589,980.98,589z M946.26,574.87c10.59,3.17,22.17,5.7,34.47,7.53
		c3.88-1.17,7.83-2.3,11.87-3.37c21.85-5.81,45.14-9.9,69.21-12.15c30.39-2.85,59.76-2.61,87.31,0.7
		c34.64-11.44,62.08-27.33,77.5-44.87l-0.03-17.45c0-0.18,0.01-0.35,0.04-0.53l2.74-16.93c0.2-1.25,1.11-2.27,2.33-2.62
		c1.22-0.34,2.53,0.05,3.36,1.01c1.98,2.3,3.72,4.67,5.22,7.09c0.08-1.69,0.04-3.36-0.12-5.03c-1.04-10.71-7.05-20.66-17.88-29.56
		c-31.45-25.87-97.42-38.1-168.06-31.18c-38.16,3.75-74.09,12.6-103.89,25.61c-41.95,18.32-67.01,43.27-67.05,66.76
		c0,0.33,0,0.66,0.01,0.98c0.71-1.26,1.48-2.51,2.3-3.76c9.34-14.19,26.04-27.74,48.31-39.24l0.86-2.06c0.58-1.4,2.05-2.2,3.57-1.96
		c1.5,0.26,2.62,1.52,2.7,3.04L946.26,574.87z"/>
</g>
<g>
	<rect x="725.36" y="357.88" transform="matrix(0.9835 -0.1811 0.1811 0.9835 -60.3336 138.5239)" width="6.52" height="83.75"/>
</g>
<g>
	<rect x="702.14" y="391.28" transform="matrix(0.9695 -0.245 0.245 0.9695 -80.0202 185.44)" width="6.52" height="46.2"/>
</g>
<g>
	<rect x="665.93" y="393.39" transform="matrix(0.9633 -0.2685 0.2685 0.9633 -83.6538 194.4941)" width="6.52" height="19.35"/>
</g>
<g>
	<path d="M679.62,426.8c-0.59,0-1.18-0.16-1.72-0.49c-5.67-3.52-10.35-7.39-13.92-11.5c-0.82-0.94-1.03-2.27-0.54-3.41
		c0.49-1.15,1.58-1.92,2.83-1.98l20.81-1.11c1.21-0.09,2.37,0.56,2.99,1.61s0.59,2.37-0.07,3.4l-7.64,11.98
		C681.75,426.27,680.7,426.8,679.62,426.8z M674.05,415.53c1.42,1.19,2.95,2.35,4.6,3.48l2.46-3.85L674.05,415.53z"/>
</g>
<g>
	<path d="M666.6,397.01c-1.2,0-2.32-0.66-2.88-1.74c-0.59-1.12-0.48-2.49,0.29-3.5c10.51-13.78,30.1-26.77,56.66-37.55
		c1.31-0.53,2.82-0.16,3.73,0.93c0.91,1.09,1.01,2.64,0.24,3.84l-22.15,34.74c-0.57,0.89-1.53,1.45-2.58,1.5L666.77,397
		C666.71,397.01,666.65,397.01,666.6,397.01z M713.44,364.43c-17.06,7.81-30.42,16.52-39.34,25.65l23.8-1.27L713.44,364.43z"/>
</g>
<g>
	<path d="M739.91,446.22c-0.16,0-0.33-0.01-0.49-0.04c-10.5-1.61-20.34-3.72-29.25-6.27c-1.12-0.32-1.98-1.21-2.26-2.33l-2.83-11.21
		v0l-8.49-33.58c-0.22-0.87-0.07-1.8,0.41-2.55l21.3-33.41c0.72-1.13,2.05-1.72,3.38-1.45c1.31,0.26,2.34,1.29,2.58,2.61
		l14.88,80.83l2.34,1.29c1.39,0.76,2.03,2.41,1.52,3.91C742.54,445.34,741.29,446.22,739.91,446.22z M713.76,434.15
		c5.84,1.61,12.09,3.03,18.66,4.25l-13.09-71.08l-16.08,25.23l8.14,32.22v0L713.76,434.15z"/>
</g>
<g>
	<rect x="686.61" y="411.22" transform="matrix(0.9661 -0.2583 0.2583 0.9661 -85.4077 192.4681)" width="6.52" height="20.19"/>
</g>
<g>
	<path d="M692.21,433.34c-0.44,0-0.89-0.09-1.31-0.27c-4.76-2.09-9.14-4.36-13-6.76c-0.74-0.46-1.27-1.2-1.46-2.05
		c-0.19-0.85-0.04-1.74,0.43-2.48l7.64-11.98c0.69-1.09,1.96-1.69,3.25-1.47c1.28,0.2,2.32,1.13,2.65,2.38l4.95,18.52
		c0.32,1.21-0.07,2.5-1.02,3.32C693.74,433.07,692.98,433.34,692.21,433.34z M684.18,422.46c0.99,0.56,2.01,1.11,3.05,1.65
		l-1.21-4.54L684.18,422.46z"/>
</g>
<g>
	<path d="M711.06,440.04c-0.3,0-0.6-0.04-0.9-0.13c-7-2.01-13.48-4.31-19.26-6.84c-0.91-0.4-1.59-1.19-1.84-2.15l-4.27-15.96
		l-12.83,0.68c-1.53,0.14-2.9-0.91-3.31-2.38l-5.2-18.64c-0.27-0.95-0.09-1.98,0.49-2.78c0.58-0.8,1.49-1.3,2.48-1.35l33.15-1.76
		c1.6-0.11,2.96,0.95,3.33,2.46l11.32,44.79c0.29,1.13-0.05,2.33-0.89,3.14C712.72,439.72,711.9,440.04,711.06,440.04z
		 M694.95,427.71c3.58,1.51,7.44,2.94,11.53,4.26l-9.25-36.59l-26.41,1.4l3.4,12.2l12.86-0.68c1.53-0.09,2.93,0.92,3.32,2.41
		L694.95,427.71z"/>
</g>
<g>
	<path d="M967.69,408.77c-0.76,0-1.51-0.26-2.12-0.78c-1.08-0.92-1.44-2.43-0.89-3.74l3.8-9.08c0.48-1.16,1.58-1.93,2.84-2
		l9.73-0.52c1.45-0.12,2.7,0.76,3.21,2.07c0.51,1.31,0.12,2.8-0.96,3.7c-4.07,3.36-8.74,6.68-13.89,9.86
		C968.88,408.61,968.28,408.77,967.69,408.77z"/>
</g>
<g>
	<path d="M979.57,380.34c-1.06,0-2.05-0.51-2.67-1.38c-0.65-0.92-0.78-2.1-0.34-3.14l7.48-17.9c0.4-0.95,1.22-1.66,2.22-1.91
		c1-0.24,2.06-0.01,2.85,0.64c5.98,4.88,10.25,10.25,12.71,15.96c0.34,0.8,0.36,1.7,0.03,2.51c-0.32,0.8-0.68,1.61-1.06,2.41
		c-0.52,1.07-1.58,1.78-2.76,1.84l-18.28,0.97C979.68,380.34,979.63,380.34,979.57,380.34z M988.3,364.65l-3.72,8.9l10.19-0.54
		C993.21,370.12,991.04,367.33,988.3,364.65z"/>
</g>
<g>
	<rect x="977.56" y="376.99" transform="matrix(0.9906 -0.137 0.137 0.9906 -43.6604 138.0472)" width="6.52" height="18.29"/>
</g>
<g>
	<path d="M982.08,398.45c-0.39,0-0.79-0.07-1.17-0.22c-1.11-0.42-1.9-1.42-2.07-2.6l-2.51-18.11c-0.12-0.9,0.13-1.82,0.72-2.52
		c0.58-0.7,1.43-1.13,2.34-1.18l18.28-0.97c1.19-0.12,2.25,0.49,2.89,1.45c0.64,0.96,0.72,2.18,0.22,3.22
		c-3.29,6.84-8.88,13.63-16.61,20.16C983.58,398.19,982.83,398.45,982.08,398.45z M983.29,380.15l1.17,8.48
		c3.03-2.97,5.56-5.96,7.57-8.94L983.29,380.15z"/>
</g>
<g>
	<path d="M791.78,449.92c-18.39,0-36.05-1.25-52.37-3.74c-0.38-0.06-0.74-0.18-1.08-0.37l-3.7-2.03c-0.86-0.47-1.46-1.31-1.64-2.27
		l-14.6-79.28c-22.26,9.57-38.83,20.64-48.22,32.23l4.75,17.05c0.27,0.95,0.09,1.98-0.49,2.78c-0.58,0.8-1.49,1.3-2.48,1.36
		l-5.34,0.29c-0.97,0.09-1.98-0.36-2.64-1.12c-4.21-4.85-6.93-10.08-8.08-15.56c-0.14-0.68-0.26-1.37-0.36-2.07
		c-1.26-9.11,1.73-18.37,8.86-27.52c22.69-29.09,83.9-52.97,155.94-60.84c97.66-10.69,178.35,11.32,183.68,50.09
		c0.73,5.33,0,10.78-2.18,16.2c-0.49,1.22-1.67,2.03-2.99,2.04c-1.13,0-2.51-0.76-3.03-1.97c-1.57-3.65-4.1-7.19-7.54-10.54
		l-5.38,12.87l2.38,17.23c0.15,1.11-0.27,2.21-1.12,2.93l-0.89,0.74c-0.54,0.44-1.21,0.71-1.91,0.74l-7.69,0.41l-3.01,7.19
		c-0.26,0.63-0.71,1.16-1.29,1.51c-30.93,19.13-78.38,33.34-130.17,39.01C823.13,449.05,807.19,449.92,791.78,449.92z
		 M740.97,439.82c29.31,4.41,63.03,4.75,97.56,0.98c50.37-5.51,96.41-19.16,126.57-37.52l3.39-8.11c0.48-1.16,1.58-1.93,2.84-2
		l7.14-0.38l-2.11-15.26c-0.08-0.58,0-1.17,0.22-1.71l7.48-17.9c0.4-0.95,1.22-1.66,2.22-1.91c1-0.24,2.06-0.01,2.85,0.64
		c3.41,2.78,6.26,5.72,8.54,8.79c0.2-1.9,0.18-3.78-0.08-5.63c-4.69-34.07-85.53-54.46-176.51-44.5
		c-69.29,7.57-130.18,31.03-151.51,58.37c-6.01,7.7-8.55,15.32-7.54,22.62c0.07,0.54,0.16,1.07,0.28,1.6
		c0.78,3.69,2.48,7.28,5.07,10.71l-3.9-13.99c-0.27-0.98-0.07-2.04,0.55-2.85c10.51-13.78,30.1-26.77,56.66-37.55
		c1.31-0.53,2.82-0.16,3.73,0.93c0.91,1.09,1.01,2.64,0.24,3.84l-0.16,0.25l14.65,79.57L740.97,439.82z"/>
</g>
<g>
	<path d="M478.62,291.37c-1.22,0-2.34-0.68-2.9-1.76c-0.57-1.11-0.46-2.44,0.28-3.44c11.06-14.88,34.29-29.02,65.4-39.82
		c1.39-0.49,2.96,0.04,3.78,1.27c0.82,1.24,0.71,2.88-0.29,3.98l-34.1,38.03c-0.6,0.67-1.46,1.06-2.36,1.08l-29.76,0.66
		C478.66,291.37,478.64,291.37,478.62,291.37z M531.17,257.14c-20.03,8.12-35.67,17.61-45.33,27.54l21.05-0.46L531.17,257.14z"/>
</g>
<g>
	<path d="M484.71,317.11c-0.56,0-1.13-0.14-1.64-0.44c-5.49-3.2-10.07-6.71-13.6-10.45c-0.65-0.69-0.97-1.63-0.88-2.58l0.14-1.11
		c0.23-1.58,1.56-2.76,3.16-2.79l22.93-0.51c1.24-0.02,2.49,0.72,3.04,1.9c0.54,1.18,0.33,2.57-0.53,3.54l-10.18,11.35
		C486.5,316.74,485.61,317.11,484.71,317.11z M479.03,306.11c1.55,1.22,3.23,2.4,5.05,3.55l3.35-3.73L479.03,306.11z"/>
</g>
<g>
	<rect x="547.27" y="248.65" transform="matrix(0.982 -0.1891 0.1891 0.982 -45.149 109.3538)" width="6.52" height="85.28"/>
</g>
<g>
	<rect x="508.76" y="287.11" transform="matrix(0.9825 -0.1862 0.1862 0.9825 -48.1648 100.7192)" width="6.52" height="39.24"/>
</g>
<g>
	<rect x="476.53" y="288.02" transform="matrix(0.9873 -0.1586 0.1586 0.9873 -40.7794 79.8181)" width="6.52" height="14.88"/>
</g>
<g>
	<rect x="493.98" y="302.21" transform="matrix(0.9716 -0.2368 0.2368 0.9716 -59.775 126.61)" width="6.52" height="19.92"/>
</g>
<g>
	<path d="M499.34,324.02c-0.4,0-0.8-0.07-1.18-0.22c-5.43-2.1-10.38-4.43-14.71-6.92c-0.01-0.01-0.39-0.23-0.41-0.23
		c-0.84-0.5-1.41-1.35-1.56-2.31c-0.15-0.96,0.14-1.94,0.79-2.67l10.18-11.35c0.81-0.9,2.05-1.27,3.22-0.99
		c1.18,0.29,2.09,1.22,2.38,2.39l3.54,14.54v0l0.91,3.73c0.29,1.18-0.1,2.42-1.02,3.22C500.88,323.75,500.11,324.02,499.34,324.02z
		 M489.88,312.96c1.55,0.8,3.13,1.57,4.76,2.31l-1.46-5.98L489.88,312.96z"/>
</g>
<g>
	<path d="M515.68,329.27c-0.28,0-0.56-0.04-0.84-0.11c-5.96-1.58-11.57-3.38-16.68-5.36c-1-0.38-1.74-1.23-1.99-2.27l-3.83-15.72
		l-11.29,0.25c-1.79,0.11-3.03-1.13-3.29-2.74l-2.36-14.69c-0.15-0.93,0.11-1.88,0.71-2.6c0.6-0.72,1.49-1.15,2.43-1.17l29.76-0.66
		c0.02,0,0.05,0,0.07,0c1.56,0,2.91,1.11,3.2,2.65l7.31,38.56c0.21,1.1-0.16,2.23-0.98,3C517.29,328.97,516.49,329.27,515.68,329.27
		z M502.1,318.32c2.97,1.1,6.11,2.15,9.4,3.12l-5.81-30.67l-23.25,0.51l1.31,8.19l11.07-0.24c1.68,0.11,2.88,1,3.24,2.49
		L502.1,318.32z"/>
</g>
<g>
	<path d="M558.6,336.43c-0.09,0-0.19,0-0.28-0.01c-8.59-0.75-16.91-1.82-24.74-3.18c-6.57-1.15-12.87-2.52-18.74-4.07
		c-1.21-0.32-2.13-1.31-2.37-2.55l-0.77-4.07l0,0l-6.54-34.49c-0.19-1,0.1-2.03,0.78-2.78l34.1-38.03c0.83-0.92,2.1-1.29,3.3-0.97
		c1.19,0.33,2.1,1.31,2.33,2.53l16.13,83.74c0.19,1-0.09,2.04-0.78,2.8C560.4,336.04,559.51,336.43,558.6,336.43z M518.5,323.37
		c5.11,1.3,10.55,2.45,16.2,3.44c6.33,1.11,12.99,2.01,19.87,2.71l-14.06-73.02l-28.63,31.94L518.5,323.37z"/>
</g>
<g>
	<path d="M589.58,337.72c-10.76,0-21.25-0.43-31.27-1.31c-1.45-0.13-2.64-1.2-2.92-2.63l-15.41-80.02
		c-27.33,9.91-47.74,22.31-57.93,35.21l2.14,13.31c0.15,0.93-0.11,1.88-0.71,2.6c-0.6,0.72-1.49,1.15-2.43,1.17l-6.84,0.15
		c-0.37,0.39-0.83,0.69-1.36,0.86c-1.2,0.39-2.51,0.06-3.38-0.86c-5.08-5.36-8.09-11.23-8.97-17.43
		c-1.18-8.34,1.53-16.81,8.04-25.16c21.19-27.18,79.33-49.48,148.12-56.82c92.53-9.88,168.98,10.55,174.05,46.51
		c1.18,8.34-1.53,16.81-8.04,25.16c-21.19,27.18-79.33,49.48-148.12,56.82C619.44,336.91,604.27,337.72,589.58,337.72z
		 M561.33,330.12c22.65,1.79,47.67,1.35,72.52-1.31c66.09-7.06,123.82-28.9,143.66-54.35c5.38-6.91,7.65-13.71,6.73-20.24
		c-4.42-31.38-80.84-50.12-166.9-40.94c-66.09,7.06-123.82,28.9-143.67,54.35c-5.38,6.91-7.65,13.72-6.73,20.24
		c0.58,4.1,2.42,8.08,5.48,11.85l4.73-0.11l-1.77-11c-0.14-0.87,0.08-1.76,0.6-2.46c11.06-14.88,34.29-29.02,65.4-39.82
		c0.9-0.31,1.88-0.22,2.7,0.26c0.82,0.47,1.39,1.28,1.57,2.21L561.33,330.12z"/>
</g>
<path d="M2957.44,1298.46c0-0.36-0.1-0.74-0.31-1.17l-0.05-0.09c-0.65-1.11-1.49-2.09-2.49-2.93c0.41-1.24,0.81-2.47,1.18-3.68
	c0.37-1.11,0.75-2.24,1.1-3.39c0.08-0.19,0.18-0.43,0.24-0.73l0.07-0.43c2.1-8.07,2.54-16.64,1.32-25.49
	c-8.03-58.54-87.43-130.73-202.28-183.91L959.56,244.35C778.8,160.61,618.19,86.2,474.58,19.71C429.9-0.95,348.84-6.15,290.05,7.84
	L69.74,60.35C28.7,70.1,3.39,86.89,0.31,106.43c-0.69,4.34-0.23,8.71,1.34,12.96c3.6,10.67,7.38,21.39,11.53,32.75L13,152.62
	l0.53,0.53c68.27,185.83,140.15,253.56,176.9,277.37L851.24,886.8c118.5,81.82,249.1,172,393.88,271.99
	c153.13,105.75,322.13,222.46,509.47,351.82l412.51,284.89c99.89,68.96,176.84,111.7,251.71,111.7h2.46
	c70.69-0.88,139.36-41.03,229.61-134.23c15.57-16.06,38.67-41.4,61.01-65.91l1.2-1.32c19.75-21.69,44.34-48.69,59.52-64.41
	l0.36-0.41c53.24-66.92,99.1-143.62,136.33-227.98c0.9,0.17,1.49,0.2,2.91,0.04c0.51-0.09,0.95-0.28,1.32-0.58
	c5.81-4.43,6.72-5.19,11.42-10.58c0.15-0.26,0.39-0.64,0.49-1.1h-0.01c0.38-1.33,1.54-6.41,1.94-10.61
	c2.61,0.77,4.93,0.65,7.02-0.36l1.07-0.9c4.22-5.62,4.93-6.73,7.95-13.47l0.18-0.31l-0.03-0.47c0.03-0.1,0.09-0.26,0.16-0.42
	l0.13-0.35c0.77-1.85,2.3-5.56,1.77-10.88c1.33-0.32,2.52-0.96,3.64-2.02l0.59-0.95c2.45-6.45,2.89-7.61,4.05-15.52
	c0-0.27,0.18-2.04,0.4-3.99c0.45-3.92,0.56-5.12,0.54-5.63c0.14-0.8,0.28-1.71,0.44-2.74l0.18-1.26c0-0.26,0-0.58-0.14-1.15
	c0-0.02-0.01-0.04-0.02-0.05c0.08-0.1,0.14-0.21,0.21-0.3l0.39-0.96c1.48-6.31,1.73-8.34,1.78-14.47l0-1.27
	C2958.19,1306.64,2958.21,1305.17,2957.44,1298.46z M764.65,800.75c464.45,318,944.71,646.83,1410,948.44
	c114.71,74.36,189.82,105.83,259.22,108.64c66.95,2.69,130.09-23.28,196.47-81.63c-82.06,82.16-145.2,117.8-209.21,118.59
	c-51.91,0.84-113.61-17.37-246.98-109.49l-412.51-284.89c-364.46-251.66-659.57-455.45-903.35-623.81L197.31,420.2
	c-12.96-8.39-26.17-19.64-39.38-33.52C361.41,524.65,566.25,664.91,764.65,800.75z M2660.04,1735.1
	c-160.6,166.17-282.87,134.48-480.42,6.42c-465.06-301.44-945.12-630.13-1409.37-948l-0.65-0.44
	c-207.89-142.34-422.83-289.51-634.35-432.8c-37.14-47.56-73.01-115-103.87-195.22c198.31,120.6,435.68,264.81,724.19,440.07
	c146.49,89.01,309.78,188.24,493.1,299.66c275.5,167.43,596.23,362.34,973.17,591.31c101.9,61.91,222.38,98.87,322.29,98.87
	c57.88,0,103.43-12.76,131.74-36.9l247.01-210.66c-1.46,3.87-2.96,7.72-4.48,11.57c-6.47,8.42-14.09,16.1-22.67,22.81l-0.5,0.44
	v0.04c-0.66,0.72-0.88,1.66-0.59,2.43c0.05,0.39,0.04,1.21,0.04,2.33c-0.05,7.78,0.22,15.64,3.88,18.84
	c0.08,0.08,0.16,0.16,0.25,0.24c-36.94,84.01-82.48,160.33-135.34,226.85c-10.57,10.89-25.27,26.88-36.83,39.51
	C2702.35,1694.69,2672.83,1721.87,2660.04,1735.1z M2939.91,1361.6l-1.42-0.07c-0.34,0.86-0.73,1.59-1.14,2.33
	c-0.05,0.13-0.13,0.26-0.14,0.36l-0.55,0.91c-0.09,0.21-0.22,0.42-0.4,0.67l-0.72,1.15c-0.31,0.48-0.63,0.95-0.98,1.46l-0.53,0.31
	v0.36l-1.19,1.61c-1.81,0.37-4.36-0.94-7.08-2.38l-3.83-2.02l-2.64,3.27c-0.67,0.88-1.37,1.76-2.16,2.6l-1.47,1.73l2.27,3.45
	c1.32,1.91,2.67,3.89,3.2,5.73c0.17,0.48,0.26,0.94,0.25,1.45c-1.93,2.39-2.61,3.18-3.34,3.91l-0.42,0.42
	c-0.65,0.65-1.31,1.21-2.19,1.91c-0.1,0.1-0.25,0.21-0.32,0.27c-0.11,0.08-0.22,0.17-0.53,0.42l-2.33,1.78
	c-0.39-0.04-0.81-0.17-1.38-0.43c-2.1-0.89-4.8-3.11-7.58-6.24l-0.43-0.49c-0.39-0.44-0.77-0.87-1.22-1.43
	c11.81-9.65,21.81-21.17,29.66-34.09l1.38,1.39c0.6,0.61,1.21,1.17,1.93,1.84l2.59,2.59c0.49,0.53,0.9,1.02,1.22,1.54
	c0.1,0.17,0.21,0.33,0.27,0.5l0.31,0.62c0.09,0.15,0.13,0.3,0.22,0.72c0.01,0.04,0.02,0.08,0.02,0.15c-0.13,0.35-0.3,0.71-0.53,1.24
	L2939.91,1361.6C2939.91,1361.6,2939.91,1361.6,2939.91,1361.6z M2937.9,1365.56l0.01,0
	C2937.91,1365.56,2937.91,1365.56,2937.9,1365.56L2937.9,1365.56z M2945.06,1283.45c-0.1,0.21-0.16,0.41-0.2,0.6l-0.31,0.96
	c-0.28,0.85-0.55,1.69-0.87,2.55c-2.99,8.13-8.36,15.53-15.96,22.01l-258.47,220.41c-74.86,63.84-281.15,34.39-441.45-62.99
	c-379.33-230.44-701.77-426.36-978.42-594.53c-171-103.89-324.5-197.17-463.2-281.46l-24.65-14.98
	C468.82,398.18,228.76,252.34,28.69,130.7c-7.92-4.82-13.04-9.87-15.2-15.04l-0.1-0.31c-0.92-2.28-1.2-4.63-0.84-6.99
	c2.22-13.88,25.24-27.65,60.09-35.94l220.27-52.51c55.59-13.21,134.76-8.25,176.48,11.05c163.57,75.75,349.27,161.77,561.63,260.17
	l1720,796.76c111.1,51.45,187.73,119.89,195.22,174.35C2947.27,1269.87,2946.85,1277.08,2945.06,1283.45z M755.11,586.62
	c104.9,63.73,218.44,132.74,341.78,207.69l146.02,88.75c276.69,168.17,599.09,364.09,978.46,594.53
	c102.1,62.02,222.89,99.05,323.12,99.05c58.33,0,104.25-12.89,132.79-37.26l254.83-217.3c-0.89,2.53-1.8,5.04-2.71,7.56l-0.07,0.2
	l-259.4,221.27c-75.35,64.25-282.51,34.91-443.34-62.81c-376.98-228.97-697.72-423.88-973.22-591.31
	c-183.31-111.43-346.6-210.65-493.1-299.66C467.57,419.49,227.52,273.6,27.5,152.01l-1.42-0.87c-1.2-3.19-2.38-6.42-3.53-9.67
	C222.52,263.03,462.5,408.88,755.11,586.62z M2902.05,1393.68l0.74,0.66c0.36,0.36,0.74,0.66,1.11,0.94l0.31,0.26
	c0.09,0.08,0.18,0.15,0.28,0.2l0.19,0.14c0.24,0.16,0.53,0.36,0.96,0.67l0.59,0.43l0.24,0.1c0.9,0.62,1.92,1.11,2.94,1.43
	c0.73,0.28,1.41,0.44,2.1,0.5c0.34,0.05,0.69,0.09,0.81,0.08c0.55,0.08,1.07,0,1.44-0.05c0.51-0.09,0.95-0.28,1.32-0.58l0.77-0.58
	c1.04-0.8,1.92-1.47,2.5-1.96c0.27-0.14,0.43-0.3,0.47-0.32c0.17-0.12,0.43-0.29,0.65-0.56c0.45-0.32,0.87-0.69,1.29-1.08
	c-0.33,1.91-0.66,3.67-0.9,4.76c-3.82,4.4-4.69,5.1-9.18,8.51c-1.97-0.13-4.13-2.08-6.45-4.15l-1.78-1.56
	c-0.5-0.43-1.57-2.18-1.84-9.21C2901.09,1392.76,2901.57,1393.23,2902.05,1393.68z M2944.6,1357.15l-0.17-0.28
	c-0.18-0.56-0.45-1.11-0.77-1.6l-0.04-0.95h-0.5l0-0.04l-0.39-0.38c-0.26-0.36-0.51-0.67-0.75-0.93c-0.18-0.25-0.36-0.43-0.5-0.57
	c-0.89-0.99-1.88-1.94-2.86-2.87c-0.13-0.11-0.25-0.22-0.36-0.33c0.11-0.24,0.22-0.49,0.32-0.74c2.21,0.49,4.66,1.04,6.91,0.82
	c0.2,0,0.5,0,0.59-0.06c0.4-0.06,0.8-0.12,0.98-0.19c0.06-0.01,0.12-0.03,0.18-0.04c-0.53,2.67-1.14,4.34-2.57,8.11
	C2944.65,1357.12,2944.63,1357.14,2944.6,1357.15z M2939.68,1342.71l-0.37-0.09c-0.67-0.16-1.32-0.31-2.07-0.44l-1.15-0.23
	c2.68-5.24,5.02-10.67,7-16.27l0.26,0.15c1.57,0.87,3.19,1.77,4.39,2.8l0.72,0.67c0.13,0.11,0.21,0.19,0.34,0.38
	c0.31,0.4,0.53,0.79,0.71,1.23l-0.49,3.09c-0.15,0.71-0.42,1.9-0.69,3.08l-0.21,0.86c-0.09,0.27-0.18,0.53-0.16,0.57l-1.73,4.63
	C2944.8,1343.84,2942.29,1343.29,2939.68,1342.71z M2950.91,1323.66L2950.91,1323.66c-0.38-0.32-0.75-0.59-1.07-0.79
	c-0.18-0.14-0.41-0.28-0.51-0.29l-0.52-0.47h-0.18l-2.53-1.48c0.04-0.3,0.07-0.59,0.1-0.85l0.19-0.01c1.67-0.09,3.49-0.2,5.21-0.64
	C2951.49,1320.53,2951.28,1321.86,2950.91,1323.66z M2946.75,1313.6c0.76-3.03,1.38-5.9,1.89-8.82l0.15-0.34
	c1.07-1.56,2.05-3.15,2.92-4.75c0.66,5.82,0.55,7.02,0.09,12.46l0,0.04C2950.53,1312.75,2948.69,1313.26,2946.75,1313.6z
	 M2952.87,1312.81l0.18,0.01h-0.17L2952.87,1312.81z M2923.1,1374.5l-0.1-0.15c0.17-0.2,0.33-0.41,0.49-0.62
	c3.45,1.86,8.03,4.15,12.44,2.08l1.09-0.91l0.39-0.53c-2.18,4.83-2.85,5.85-6.14,10.27c-1.08,0.25-2.44-0.14-4.07-0.85
	c0-0.18,0-0.4-0.04-0.43l-0.01-0.4c-0.06-0.45-0.17-0.89-0.3-1.25c-0.11-0.49-0.27-0.99-0.47-1.42
	C2925.61,1378.25,2924.33,1376.35,2923.1,1374.5z M2925.86,1383.41L2925.86,1383.41
	C2925.85,1383.41,2925.85,1383.41,2925.86,1383.41L2925.86,1383.41z M2955.95,1297.87L2955.95,1297.87L2955.95,1297.87
	L2955.95,1297.87z"/>
<g>
	<path d="M176.34,115.51c0.35-0.58-0.02-1.17-1.01-1.69c-0.98-0.51-2.35-0.84-3.93-0.91c-1.44-0.06-3.11,0.1-4.9,0.56
		c-1.55,0.39-2.64,0.93-3.03,1.52c-0.37,0.54-0.14,1.13,0.86,1.66c0.93,0.5,2.42,0.79,4.04,0.86c1.65,0.07,3.43-0.08,4.92-0.47
		C175.02,116.58,176.01,116.05,176.34,115.51 M179.22,114.08c0.22,0.27,0.35,0.56,0.39,0.83c0.71,0.01,1.42,0.02,2.12,0.04
		c0.22,0.01,0.45,0.01,0.69,0.02c-0.03,0.08-0.07,0.16-0.09,0.25c-0.07,0.19-0.14,0.38-0.2,0.58c-0.03,0.08-0.07,0.16-0.09,0.25
		c-0.22-0.01-0.45-0.01-0.67-0.01c-0.72-0.02-1.45-0.03-2.17-0.05c-0.25,0.3-0.63,0.6-1.17,0.91c-0.68,0.37-1.64,0.74-2.99,1.09
		c-1.5,0.4-3.33,0.64-5.16,0.7c-1.29,0.04-2.61-0.01-3.82-0.16c0.13,0.47-0.02,0.91-0.43,1.33c-0.55,0.56-1.6,1.06-3.14,1.46
		c-2.3,0.61-4.61,0.78-6.72,0.61c-2.26-0.18-4.28-0.76-5.78-1.58c-1.46-0.8-2.08-1.71-1.7-2.54c0.35-0.8,1.6-1.54,3.81-2.09
		c0.2-0.05,0.41-0.1,0.61-0.15c0.12,0.06,0.23,0.13,0.36,0.2c0.33,0.18,0.65,0.35,0.99,0.53c0.12,0.07,0.26,0.13,0.38,0.2
		c-0.2,0.05-0.41,0.1-0.61,0.16c-1.39,0.35-2.09,0.79-2.28,1.26c-0.2,0.55,0.3,1.16,1.29,1.7c1.02,0.55,2.34,0.97,3.84,1.1
		c1.24,0.12,2.61,0.03,4.03-0.34c1.39-0.36,2.05-0.81,2.18-1.27c0.17-0.58-0.44-1.2-1.39-1.71c-1.53-0.82-1.87-1.71-1.29-2.55
		c0.58-0.88,2.21-1.68,4.53-2.26c2.52-0.63,5.03-0.85,7.28-0.75c2.42,0.11,4.52,0.58,5.96,1.33
		C178.54,113.42,178.95,113.74,179.22,114.08z M168.66,121.31c2.68-0.71,5.34-1.42,7.98-2.13c2.62-0.7,5.2-1.39,7.78-2.07
		c0.19-0.05,0.38-0.1,0.57-0.15c0.13,0.06,0.25,0.13,0.39,0.2c0.31,0.17,0.64,0.33,0.97,0.5c0.11,0.06,0.24,0.13,0.37,0.19
		c-0.2,0.05-0.39,0.1-0.56,0.16c-0.34,0.09-0.66,0.19-0.98,0.28c0.58,0.03,1.13,0.09,1.64,0.17c1.31,0.21,2.4,0.57,3.18,0.97
		c0,0,0,0,0,0c0.44,0.21,0.8,0.46,1.04,0.71c0.25,0.26,0.39,0.53,0.45,0.83c0.01,0.08,0.02,0.16,0.04,0.25
		c-0.23,0.01-0.45,0.02-0.66,0.04c-0.58,0.03-1.14,0.06-1.71,0.1c-0.26,0.01-0.49,0.03-0.73,0.04c-0.01-0.09-0.03-0.18-0.04-0.27
		c-0.03-0.18-0.11-0.36-0.27-0.51c-0.16-0.17-0.39-0.33-0.69-0.48h0c-0.87-0.44-2.15-0.7-3.51-0.76c-1.39-0.07-2.89,0.07-4.16,0.41
		c-1.54,0.41-3.07,0.82-4.62,1.24c-1.55,0.41-3.11,0.84-4.67,1.26c-0.2,0.05-0.4,0.11-0.61,0.16c-0.13-0.07-0.26-0.14-0.37-0.2
		c-0.35-0.19-0.7-0.37-1.04-0.55c-0.13-0.07-0.27-0.14-0.4-0.21C168.26,121.42,168.46,121.36,168.66,121.31z M192.78,124
		c-1.38-0.08-2.92,0.02-4.49,0.32c2.61,1.37,5.24,2.75,7.89,4.14c1.36-0.47,2.13-0.99,2.34-1.53c0.23-0.64-0.27-1.3-1.5-1.93
		C195.97,124.45,194.48,124.09,192.78,124z M185.95,130.5c-1.5-0.31-2.81-0.76-3.76-1.27c-1.67-0.89-2.26-1.95-1.7-2.98
		c0.53-0.96,2.05-1.88,4.66-2.61c2.48-0.69,5.23-0.95,7.78-0.84c2.6,0.11,4.99,0.62,6.63,1.46c0.24,0.13,0.47,0.26,0.67,0.4
		c1.18,0.76,1.73,1.62,1.34,2.48c-0.39,0.87-1.71,1.74-4.29,2.49c-0.39,0.12-0.82,0.23-1.31,0.35c-0.19,0.05-0.37,0.09-0.56,0.14
		c-0.14-0.07-0.26-0.13-0.37-0.19c-3.13-1.65-6.23-3.28-9.29-4.9c-1.18,0.46-1.84,0.99-2.04,1.52c-0.25,0.66,0.18,1.32,1.25,1.89
		c0.7,0.37,1.67,0.71,2.77,0.96c0.96,0.21,2,0.33,3.01,0.32c0.24-0.01,0.48-0.01,0.73-0.01c-0.02,0.09-0.04,0.19-0.06,0.28
		c-0.04,0.22-0.07,0.45-0.12,0.68c-0.03,0.09-0.05,0.17-0.06,0.27c-0.24,0-0.48,0-0.7,0.01
		C188.93,130.96,187.35,130.79,185.95,130.5z M205.96,130.85c-1.41-0.07-2.96,0.03-4.53,0.35c2.71,1.42,5.44,2.85,8.19,4.29
		c1.36-0.49,2.11-1.04,2.28-1.61c0.21-0.66-0.35-1.36-1.61-2.01C209.2,131.31,207.68,130.95,205.96,130.85z M199.4,137.69
		c-1.53-0.32-2.87-0.78-3.86-1.32c-1.74-0.93-2.4-2.03-1.88-3.11c0.47-1,1.97-1.98,4.57-2.75c2.46-0.73,5.24-1.02,7.82-0.91
		c2.64,0.11,5.06,0.62,6.76,1.5c0.25,0.13,0.49,0.27,0.71,0.41c1.23,0.79,1.84,1.69,1.49,2.59c-0.34,0.91-1.65,1.82-4.19,2.63
		c-0.4,0.12-0.83,0.25-1.31,0.37c-0.19,0.05-0.37,0.1-0.56,0.15c-0.14-0.07-0.27-0.14-0.38-0.2c-3.25-1.71-6.47-3.41-9.65-5.09
		c-1.17,0.49-1.81,1.04-1.98,1.6c-0.22,0.69,0.26,1.39,1.35,1.97c0.73,0.39,1.74,0.74,2.85,0.98c0.99,0.22,2.05,0.35,3.07,0.33
		c0.24-0.01,0.49-0.01,0.74-0.01c-0.02,0.1-0.03,0.2-0.05,0.3c-0.03,0.23-0.05,0.47-0.08,0.71c-0.02,0.09-0.04,0.18-0.05,0.28
		c-0.23,0-0.46,0.01-0.7,0.01C202.44,138.15,200.83,137.98,199.4,137.69z M221.54,149.86c2.19-1.29,4.36-2.57,6.51-3.82
		c2.13-1.24,4.22-2.47,6.32-3.68c0.79,0.41,1.59,0.82,2.38,1.23c-1.64,0.9-3.27,1.81-4.93,2.74c-1.67,0.93-3.38,1.86-5.12,2.79
		c1-0.2,1.61-0.32,1.84-0.36c2.35-0.38,4.68-0.75,7.01-1.12c2.31-0.37,4.63-0.73,6.93-1.09c0.54,0.28,1.09,0.56,1.64,0.84
		c-0.05,0.04-0.1,0.08-0.15,0.12c-1.92,1.41-3.59,2.48-5.55,3.72c-1.11,0.7-2.29,1.45-3.67,2.35c2.56-0.55,5.14-1.08,7.68-1.61
		c2.53-0.53,5.08-1.03,7.58-1.55c0.81,0.42,1.62,0.83,2.43,1.25c-3.35,0.64-6.74,1.29-10.14,1.96c-3.43,0.67-6.89,1.34-10.38,2.02
		c-0.75-0.4-1.48-0.79-2.2-1.18c1.41-0.92,2.8-1.83,4.18-2.72c1.38-0.89,2.74-1.78,4.1-2.65c0.33-0.21,0.59-0.4,0.78-0.55
		c-0.01,0.01-0.03,0.01-0.04,0.01c-0.42,0.06-0.95,0.14-1.61,0.26c-2.24,0.38-4.49,0.77-6.74,1.17c-2.26,0.4-4.55,0.79-6.82,1.19
		c-0.76-0.41-1.51-0.81-2.26-1.21C221.39,149.94,221.46,149.9,221.54,149.86z M263.59,164.67c-0.54-0.27-1.09-0.53-1.66-0.79
		c-0.61-0.28-1.25-0.57-1.91-0.85c-0.75,0.64-1.51,1.27-2.26,1.92c-0.37,0.29-0.72,0.58-1.07,0.88c0.09-0.03,0.2-0.05,0.32-0.06
		c0.55-0.1,1.13-0.2,1.74-0.3C260.35,165.19,261.97,164.93,263.59,164.67z M246.36,157.11c1.61,0.44,3.15,0.89,4.64,1.35
		c1.05-0.88,2.12-1.75,3.17-2.62C251.58,156.26,248.99,156.69,246.36,157.11z M237.71,154.97c1.32,0.29,2.62,0.59,3.89,0.91
		c2.55-0.37,5.11-0.74,7.64-1.11c2.5-0.37,5.02-0.73,7.53-1.08c0.9,0.46,1.8,0.93,2.72,1.4c-1.61,1.49-3.25,3-4.92,4.53
		c1.3,0.45,2.55,0.9,3.76,1.36c1.48-1.34,2.96-2.66,4.43-3.96c0.89,0.46,1.79,0.92,2.71,1.39c-1.44,1.22-2.9,2.44-4.36,3.69
		c0.83,0.35,1.64,0.7,2.41,1.06c0.81,0.37,1.6,0.75,2.35,1.13c2.8-0.46,5.59-0.92,8.36-1.37c0.87,0.45,1.75,0.9,2.64,1.37
		c-2.83,0.44-5.66,0.88-8.5,1.34c1,0.57,1.95,1.14,2.85,1.73c2.26-0.93,4.48-1.86,6.7-2.77c3.43,1.77,6.89,3.55,10.39,5.35
		c-0.98,0.43-1.97,0.86-2.96,1.28c-2.48-1.28-4.92-2.55-7.35-3.81c-1.39,0.58-2.8,1.17-4.2,1.76c1.88,1.43,3.49,2.91,4.88,4.45
		c-0.7,0.14-1.39,0.28-2.08,0.42c-1.28-1.44-2.76-2.82-4.49-4.16c-1.59,0.66-3.17,1.33-4.76,2c2.53,1.35,5.08,2.7,7.66,4.07
		c-1.04,0.45-2.08,0.91-3.13,1.36c-3.64-1.94-7.21-3.86-10.77-5.76c0.21-0.09,0.43-0.18,0.64-0.27c2.63-1.09,5.22-2.16,7.8-3.23
		c-1.09-0.71-2.22-1.4-3.44-2.07c-3.81,0.59-7.67,1.19-11.54,1.8c-0.8-0.43-1.61-0.87-2.41-1.29c0.05-0.04,0.1-0.09,0.16-0.13
		c1.68-1.5,3.35-2.98,5-4.45c-1.21-0.47-2.45-0.93-3.74-1.37c-1.59,1.45-3.19,2.91-4.81,4.39c-1.13-0.6-2.24-1.2-3.33-1.78
		c1.51-1.29,3.02-2.55,4.52-3.8c-1.98-0.61-4.06-1.22-6.26-1.79c-2.22,0.36-4.44,0.72-6.67,1.08c-1.04-0.56-2.08-1.11-3.09-1.65
		c0.4-0.06,0.79-0.11,1.19-0.17c1.18-0.17,2.36-0.34,3.55-0.51c-0.66-0.16-1.33-0.31-2.01-0.46
		C237,155.54,237.35,155.26,237.71,154.97z M242.76,167.3c-0.32-0.18-0.64-0.35-0.97-0.53c-1.62,1.43-3.25,2.88-4.91,4.34
		c-0.71,0.12-1.39,0.24-2.08,0.36c-1.12,0.2-1.92,0.23-2.54-0.12c-0.2-0.11-0.37-0.26-0.5-0.41c-0.39,0.11-0.75,0.23-1.11,0.35
		c0.2,0.17,0.42,0.33,0.68,0.47c1.06,0.59,2.31,0.56,3.87,0.29c2.1-0.36,4.2-0.71,6.28-1.06c2.07-0.35,4.14-0.7,6.2-1.04
		c-0.33-0.18-0.63-0.35-0.95-0.52c-2.72,0.49-5.46,0.98-8.2,1.47c-0.01-0.01-0.04-0.01-0.04-0.01
		C239.93,169.69,241.34,168.49,242.76,167.3z M241.38,166.55c-0.57-0.31-1.15-0.61-1.7-0.91c0.7-0.27,1.39-0.53,2.08-0.8
		c-0.29-0.16-0.57-0.31-0.85-0.46c-0.7,0.27-1.39,0.53-2.08,0.8c-0.41-0.22-0.83-0.45-1.24-0.67c-0.3,0.12-0.6,0.23-0.9,0.35
		c0.41,0.22,0.82,0.45,1.23,0.67c-1.56,0.6-3.11,1.2-4.68,1.8c-1.67,0.64-1.15,1.26-0.49,1.63c0.4,0.22,0.79,0.37,1.25,0.48
		c0.3-0.13,0.61-0.26,0.91-0.39c-0.38-0.07-0.75-0.18-0.99-0.32c-0.53-0.29-0.64-0.6,0.49-1.03c1.46-0.56,2.92-1.13,4.37-1.69
		c0.55,0.3,1.11,0.61,1.68,0.92C240.77,166.78,241.07,166.67,241.38,166.55z M236.4,163.85c-0.29-0.16-0.58-0.32-0.86-0.47
		c-2.49,0.94-5.01,1.9-7.53,2.85c0.28,0.16,0.57,0.32,0.87,0.48C231.4,165.75,233.91,164.79,236.4,163.85z M239.41,162.86
		c0.45-0.17,0.46-0.45,0.15-0.61c-0.3-0.16-0.92-0.21-1.36-0.04c-0.44,0.16-0.45,0.45-0.14,0.61
		C238.36,162.99,238.97,163.03,239.41,162.86z M237.78,160.43c-0.29-0.16-0.58-0.31-0.85-0.46c-1.98,0.74-3.97,1.48-5.98,2.23
		c-2.02,0.75-4.05,1.52-6.11,2.28c0.28,0.15,0.56,0.31,0.86,0.48c2.06-0.77,4.1-1.53,6.11-2.29
		C233.81,161.92,235.8,161.17,237.78,160.43z M226.48,161.1c-2.1-1.15-4.28-2.15-6.61-1.31c-1.7,0.61-1.19,1.46-0.31,1.95
		c0.93,0.51,1.98,0.72,3.52,0.63c0,0,0.01,0.01,0.03,0.01c-0.41,0.15-0.83,0.34-1.16,0.51c0.26,0.14,0.5,0.28,0.77,0.42
		c0.38-0.2,1.03-0.47,1.61-0.69c1.11-0.41,2.22-0.82,3.31-1.22c1.85-0.68,1.72-1.55,0.48-2.23c-0.99-0.54-2.24-0.81-3.34-0.85
		c-0.1,0.17-0.17,0.34-0.25,0.52c0.92,0.02,1.89,0.23,2.59,0.61c0.99,0.54,0.88,1.07-0.41,1.55
		C226.64,161.05,226.56,161.07,226.48,161.1z M225.63,161.42c-0.19,0.07-0.38,0.14-0.57,0.21c-1.34,0.49-3.18,0.56-4.36-0.09
		c-0.65-0.36-0.99-0.88,0.09-1.27c1.43-0.52,3.23,0.28,4.6,1.03C225.46,161.33,225.54,161.37,225.63,161.42z M216.08,155.66
		c1.35-0.42,3.34-0.39,4.44,0.2c1.18,0.64,0.8,1.38-0.57,1.91C218.65,157.06,217.37,156.36,216.08,155.66z M220.43,158.37
		c2.05-0.74,2.8-1.85,1-2.82c-1.6-0.87-4.53-0.95-6.81-0.16c-2.3,0.8-2.78,2.09-1.09,3.03c0.94,0.52,2.24,0.82,4.08,0.77
		c0.01-0.19,0.01-0.39,0.04-0.57c-1.04,0.07-2.3-0.06-3.16-0.54c-1.17-0.64-0.76-1.56,0.71-2.11c1.56,0.86,3.12,1.71,4.7,2.58
		C220.11,158.48,220.28,158.42,220.43,158.37z M206.9,154.57c0.26,0.15,0.53,0.29,0.81,0.45c1.3-0.45,2.61-0.91,3.92-1.36
		c2.03-0.7,3.64-0.56,4.49-0.1c0.23,0.13,0.43,0.28,0.49,0.35c0.37-0.1,0.75-0.2,1.13-0.3c-0.13-0.12-0.26-0.21-0.47-0.32
		c-0.8-0.43-2.06-0.59-3.27-0.46c-0.01-0.01-0.02-0.01-0.02-0.01c0.32-0.11,0.86-0.31,1.24-0.47c-0.27-0.14-0.53-0.28-0.77-0.42
		c-0.48,0.2-1.21,0.46-1.61,0.6C210.87,153.2,208.89,153.88,206.9,154.57z M204.25,140.34c2.66-0.84,5.29-1.68,7.9-2.5
		c2.59-0.82,5.15-1.63,7.69-2.44c0.2-0.06,0.38-0.12,0.57-0.18c0.14,0.07,0.28,0.15,0.43,0.22c0.36,0.19,0.74,0.38,1.11,0.57
		c0.14,0.07,0.27,0.14,0.42,0.22c-0.19,0.06-0.37,0.12-0.56,0.18c-0.34,0.11-0.7,0.22-1.04,0.33c0.72,0.04,1.4,0.11,2.04,0.21
		c1.39,0.23,2.59,0.62,3.52,1.09c0,0,0,0,0.01,0c1.7,0.88,2.44,1.84,2.18,2.8c-0.26,0.93-1.49,1.83-3.76,2.59
		c-1.49,0.5-2.99,1-4.49,1.5c-1.51,0.5-3.03,1.02-4.57,1.53c-0.2,0.07-0.39,0.13-0.59,0.2c-0.15-0.08-0.29-0.16-0.43-0.23
		c-0.41-0.21-0.8-0.43-1.2-0.63c-0.15-0.08-0.29-0.16-0.43-0.23c0.19-0.06,0.39-0.13,0.59-0.2c1.54-0.5,3.05-1.01,4.56-1.51
		c1.5-0.5,2.99-0.99,4.48-1.49l0,0c0.02-0.01,0.05-0.02,0.07-0.02c1.53-0.52,2.34-1.09,2.5-1.67c0.14-0.58-0.37-1.19-1.5-1.77l0,0
		c-0.02-0.01-0.05-0.02-0.06-0.03c-1.08-0.55-2.51-0.84-4.02-0.89c-1.55-0.05-3.17,0.16-4.63,0.63c-1.44,0.46-2.9,0.93-4.36,1.39
		c-1.46,0.47-2.94,0.94-4.42,1.41c-0.21,0.06-0.41,0.13-0.6,0.19c-0.15-0.08-0.29-0.16-0.43-0.23c-0.38-0.21-0.77-0.41-1.14-0.61
		c-0.15-0.08-0.3-0.16-0.43-0.23C203.86,140.47,204.06,140.41,204.25,140.34z"/>
</g>
<g>
	<path d="M2502.15,1353.19c-4.06,3.21-8.17,6.46-12.32,9.74c-4.21,3.33-8.47,6.7-12.79,10.11c-3.25-1.57-6.5-3.14-9.72-4.71
		c4.35-3.37,8.67-6.7,12.92-9.98c4.19-3.24,8.35-6.45,12.45-9.62C2495.83,1350.21,2498.98,1351.7,2502.15,1353.19 M2510.31,1372.27
		c0.73,1.22,1.35,2.47,1.82,3.71c1.48,3.84,1.79,7.75,0.81,11.5c-0.98,3.8-3.3,7.45-7.04,10.69c-3.79,3.28-8.69,5.83-14.3,7.62
		c-5.65,1.8-12.01,2.84-18.66,3.06c-0.02,0-0.03,0-0.03,0c-6.69,0.23-13.66-0.35-20.46-1.76c-6.8-1.4-13.43-3.64-19.46-6.68
		c-6.01-3.03-10.82-6.57-14.37-10.35c-3.52-3.76-5.8-7.76-6.77-11.74c-0.99-3.94-0.7-7.87,0.9-11.54c1.57-3.62,4.41-7.02,8.56-9.95
		c4.08-2.89,9.06-5.07,14.56-6.54c5.46-1.46,11.48-2.23,17.67-2.31c0,0,0,0,0.01,0c0,0,0,0,0.01,0c1.93-0.03,3.86,0.02,5.82,0.13
		c0.14,2.14,0.29,4.3,0.43,6.48c-1.4-0.07-2.79-0.09-4.16-0.07c-0.01,0-0.03,0-0.04,0c-9.56,0.14-18.6,2.46-24.81,6.96
		c-6.32,4.57-8.55,10.56-6.97,16.57c0.8,3.04,2.58,6.09,5.3,8.95c2.74,2.87,6.43,5.56,11.01,7.86c4.6,2.3,9.66,3.99,14.83,5.06
		c5.17,1.07,10.46,1.52,15.55,1.36c10.12-0.33,19.35-3.05,25.25-8.04c5.8-4.9,7.28-11.03,5.07-16.97c-0.31-0.83-0.69-1.67-1.15-2.49
		C2503.24,1373.26,2506.78,1372.76,2510.31,1372.27z"/>
</g>
<g>
	<path d="M2727.84,1603.97c0.31-3.29,1.29-6.95,2.79-10.59c1.17-2.86,2.67-5.69,4.4-8.29c1.72-2.59,3.67-4.96,5.74-6.89
		c2.55-2.38,5-3.82,7.14-4.39c2.19-0.58,4.06-0.23,5.45,0.95c-0.67,1.49-1.35,2.96-2.01,4.43c-1.1-0.87-2.59-1.07-4.33-0.57
		c-1.73,0.5-3.71,1.72-5.79,3.68c-3.36,3.17-6.23,7.6-8.1,12.12c-0.92,2.21-1.58,4.43-1.94,6.49c1.34-1.22,2.68-2.43,4-3.62
		c-0.76,3.11-1.52,6.19-2.26,9.22c-0.73,3-1.47,5.96-2.19,8.89c-1.18-1.13-2.39-2.29-3.63-3.47c-1.27-1.22-2.57-2.47-3.91-3.76
		c0.9-0.82,1.8-1.63,2.69-2.44C2726.56,1605.13,2727.2,1604.55,2727.84,1603.97 M2755.4,1588.05c-0.66,3.18-1.84,6.53-3.38,9.75
		c-1,2.09-2.17,4.14-3.47,6.06c-1.3,1.93-2.74,3.75-4.27,5.35c-2,2.1-4,3.65-5.88,4.65c-2,1.06-3.87,1.49-5.47,1.26
		c0.57-1.46,1.15-2.93,1.74-4.4c1.26,0.24,2.75-0.07,4.36-0.89c1.53-0.79,3.2-2.06,4.89-3.81c2.57-2.66,4.8-6,6.44-9.44
		c0.84-1.76,1.54-3.54,2.05-5.29c-0.81,0.88-1.63,1.77-2.45,2.66c0.56-2.77,1.12-5.59,1.7-8.44c0.58-2.89,1.17-5.82,1.77-8.8
		c1.08,1.22,2.13,2.4,3.15,3.56c1,1.13,1.98,2.23,2.94,3.31c-0.71,0.77-1.42,1.54-2.13,2.31
		C2756.73,1586.61,2756.06,1587.33,2755.4,1588.05z"/>
</g>
</svg>
