<?xml version="1.0" encoding="utf-8"?>
<!-- Generator: Adobe Illustrator 20.0.0, SVG Export Plug-In . SVG Version: 6.00 Build 0)  -->
<svg version="1.1" id="Layer_1" xmlns="http://www.w3.org/2000/svg" xmlns:xlink="http://www.w3.org/1999/xlink" x="0px" y="0px"
	 viewBox="0 0 2959.2 1907.2" style="enable-background:new 0 0 2959.2 1907.2;" xml:space="preserve">
<style type="text/css">
.fillpulse {
	animation: fillpulse 2s infinite;
}

@keyframes fillpulse {
	0%, 100% {
		fill: rgba(255,255,255,0);
	}
	50% {
		fill: #0078CC;
	}
}
</style>
<g id="XMLID_2_">
	<path d="M2766.3,1546.2c11.4,6.5,4.2,33.6-8.4,55.7c-6.7,11.7-14.6,21.9-22.2,28.6c-7.2,6.3-12.5,8.2-16.4,8.2
		c-2.1,0-3.7-0.6-5-1.3c-3.7-2.1-7.6-7.6-4.9-21.9c1.9-10,6.6-22,13.3-33.7s14.6-21.9,22.2-28.6
		C2755.8,1543.5,2762.6,1544,2766.3,1546.2z M2752.2,1598.6c10.8-18.9,14.3-34.9,13.1-42.4c-4-1-10.4,2.7-17.8,10.5
		c-7.4,7.6-13.9,17.3-16.4,21.6c-12.7,22.1-14.6,40.2-10.5,43.4c0,0,0.2,0.2,0.4,0.3c2.5-0.6,6-2.4,10.4-6.4
		C2738.4,1619.3,2745.9,1609.7,2752.2,1598.6z"/>
	<path class="fillpulse" d="M2747.5,1566.7c7.4-7.8,13.8-11.5,17.8-10.5c1.2,7.5-2.3,23.5-13.1,42.4c-6.3,11.1-13.8,20.7-20.9,26.9
		c-4.4,3.9-7.9,5.8-10.4,6.4c-0.1-0.1-0.3-0.2-0.4-0.3c-4.1-3.2-2.1-21.2,10.5-43.4C2733.5,1583.9,2740.1,1574.3,2747.5,1566.7z"/>
</g>
<path d="M2572.2,1358.3c-17.2-25.5-52.3-45.2-93.9-52.8c-65.2-11.8-125.1,11-133.5,50.9c-0.1,0.5-0.2,1-0.3,1.5
	c-2.3,13.1,1.1,26.8,9.8,39.8c17.2,25.5,52.3,45.2,93.8,52.8c11.7,2.1,23.1,3.1,34.2,3.1c42,0,77.7-14.5,92.7-38.1h0.1
	c0.3-0.5,0.5-0.9,0.7-1.4c0,0,0,0,0-0.1c2.7-4.6,4.6-9.4,5.7-14.5C2584.5,1386,2581.2,1371.7,2572.2,1358.3z M2449.4,1444
	c-39.3-7.1-73.6-26.3-89.6-50c-7.7-11.4-10.7-23.2-8.9-34.5h0.1v-0.3c2-9.7,7.5-18.4,16.2-25.8c17.3-14.9,45.4-23,76.4-23
	c10.8,0,21.9,1,33,3c39.2,7.1,73.4,26.3,89.3,50c8.1,12,11,24.5,8.6,36.3c-0.8,4.1-2.4,8.2-4.6,12c-0.1,0.2-0.2,0.4-0.3,0.5h-0.1
	v0.1C2552,1439.7,2502.8,1453.7,2449.4,1444z"/>
<path d="M2890.7,1198.5c-8.8-12.5-19.8-18.3-33.7-17.9c-15.5,0.5-28.4,2.1-38.3,4.6c-8.1,2.3-12.5,5.6-13.3,10.1
	c-0.5,2.9,0.4,5.9,3,9l-0.5,0.2l4.2,3.7l0,0l0,0c0.3,0.2,0.6,0.4,0.8,0.7c0.5,0.4,1,0.9,1.6,1.3l0.3,0.2
	c19.1,11.6,37.8,17.5,55.8,17.5l0,0l0,0c0.8,0,1.7,0,2.5,0c1.7-0.1,3.3-0.1,5-0.3c0.2,0,0.4,0,0.6,0c1.4-0.1,2.7-0.3,3.9-0.4
	c0.1,0,0.2,0,0.4-0.1c1.1-0.2,2.2-0.4,3.3-0.6c0.2,0,0.3-0.1,0.5-0.1c0.8-0.2,1.6-0.5,2.3-0.7c0.2-0.1,0.5-0.1,0.7-0.2l3.5-1.4
	l-0.2-0.3c1.5-1,2.8-2.4,3.6-4C2899.2,1214.6,2897.3,1207.9,2890.7,1198.5z M2811.7,1196.5c0.1-0.6,1.1-2.9,8.6-5
	c9.4-2.4,21.8-3.9,36.8-4.4c11.5-0.3,20.8,4.5,28.2,15.1c6.5,9.2,6.2,13,5.5,14.5c-0.2,0.4-0.6,0.8-1.1,1.2
	c-0.6-0.9-1.2-1.9-1.9-2.8c-8.8-12.5-19.9-18.4-33.7-17.9c-15.5,0.5-28.4,2.1-38.3,4.6c-0.3,0.1-0.5,0.2-0.8,0.2
	C2811.7,1198.8,2811.6,1197.1,2811.7,1196.5z M2882.9,1220.4C2882.9,1220.4,2882.8,1220.4,2882.9,1220.4c-0.9,0.2-1.8,0.3-2.8,0.4
	c-0.1,0-0.2,0-0.3,0c-0.9,0.1-1.8,0.2-2.8,0.2c-0.2,0-0.3,0-0.5,0c-1.1,0.1-2.3,0.1-3.6,0.2c-2.2,0.1-4.3,0-6.5-0.1
	c-0.1,0-0.2,0-0.2,0c-2.1-0.1-4.2-0.3-6.3-0.6c-0.2,0-0.5-0.1-0.7-0.1c-1.9-0.3-3.9-0.6-5.9-1.1c-0.4-0.1-0.8-0.2-1.2-0.3
	c-1.8-0.4-3.6-0.9-5.4-1.4c-0.6-0.2-1.1-0.4-1.7-0.5c-1.6-0.5-3.3-1.1-4.9-1.7c-0.7-0.3-1.4-0.5-2.1-0.8c-1.5-0.6-3-1.2-4.5-1.9
	c-0.8-0.4-1.7-0.8-2.5-1.2c-1.4-0.7-2.8-1.3-4.2-2.1c-0.9-0.5-1.9-1-2.8-1.5c-0.6-0.3-1.2-0.7-1.8-1c8.7-1.8,19.5-2.9,32.2-3.3
	c11.7-0.3,20.8,4.5,28.2,15.1c0.3,0.5,0.7,1,1,1.4C2883.3,1220.3,2883.1,1220.3,2882.9,1220.4z"/>
<g>
	<path d="M2086.7,1163.1c-13.2,0-26.6-0.6-40.3-1.8c-90.7-8.2-171.7-43.1-211.6-91.1c-18.6-22.5-27.3-46.9-25-70.8
		c7.3-76.8,125.3-129.1,263-116.6c90.7,8.2,171.7,43.1,211.6,91.1c18.6,22.5,27.3,46.9,25,70.8
		C2302.8,1113.8,2206.4,1163.1,2086.7,1163.1z M2046.9,1154.8c134.2,12.2,249-37.6,256-110.8c2.1-22.1-6.1-44.9-23.6-66
		c-38.8-46.7-118.2-80.7-207.1-88.8c-134.2-12.1-249,37.6-256,110.8c-2.1,22.1,6.1,44.9,23.6,66
		C1878.6,1112.7,1958,1146.8,2046.9,1154.8z"/>
</g>
<g>
	<path d="M1673.4,937.1c-5.3,0-10.6-0.1-15.9-0.3c-84-3.1-159.2-30-196.2-70.2c-16-17.4-23.9-36.6-23-55.8
		c3-64.9,106.1-114,230.1-109.4c84,3.1,159.2,30,196.2,70.2c16,17.4,23.9,36.6,23,55.8C1884.8,889.4,1790.1,937.1,1673.4,937.1z
		 M1657.8,930.2c120.3,4.4,220.5-41.9,223.4-103.2c0.8-17.6-6.3-34.8-21.3-51.1c-35.9-39-109.3-65.1-191.6-68.1
		c-120.2-4.4-220.5,41.9-223.4,103.2c-0.8,17.6,6.3,34.8,21.3,51.1C1502,901.1,1575.4,927.2,1657.8,930.2z"/>
</g>
<g>
	<path d="M1336.5,747.2c-75.5,0-142.5-20-175.6-52.6c-13.5-13.3-20.4-27.7-20.4-43c-0.2-54,89.8-99,200.5-100.4
		c77.7-1,146.9,19.2,180.8,52.6c13.5,13.3,20.4,27.7,20.4,43c0.2,54-89.8,99-200.5,100.4v-3.3v3.3
		C1339.9,747.2,1338.2,747.2,1336.5,747.2z M1345.9,557.7c-1.6,0-3.3,0-4.9,0c-107.2,1.3-194.2,43.4-194.1,93.8
		c0,13.4,6.3,26.3,18.5,38.3c32.2,31.7,101.3,51.6,176.2,50.7c107.2-1.3,194.2-43.4,194.1-93.8c0-13.4-6.3-26.3-18.5-38.3
		C1485.6,577.4,1418.8,557.7,1345.9,557.7z"/>
</g>
<g>
	<path d="M1031,592.4c-56.9,0-107.1-12.6-133.8-34.6c-12.2-10-19-21.5-20.2-34c-4.5-46.7,74.7-92.9,176.6-102.9
		c72.3-7.1,140.1,5.7,172.8,32.6c12.2,10,19,21.5,20.2,34c4.5,46.7-74.7,92.9-176.6,102.9l0,0C1056.8,591.8,1043.7,592.4,1031,592.4
		z M1092.9,425.6c-12.6,0-25.6,0.6-38.7,1.9c-98.3,9.6-175,52.6-170.8,95.7c1,10.7,7.1,20.7,17.9,29.6
		c31.5,25.9,97.4,38.1,168.1,31.2l0,0c98.3-9.6,175-52.6,170.8-95.7c-1-10.7-7.1-20.7-17.9-29.6
		C1196.7,437.7,1148.2,425.6,1092.9,425.6z"/>
</g>
<g>
	<path d="M791.1,450c-74.8,0-131.1-20.6-135.5-52.8c-1.3-9.1,1.7-18.4,8.9-27.5c22.7-29.1,83.9-53,155.9-60.8
		c97.7-10.7,178.3,11.3,183.7,50.1c1.3,9.1-1.7,18.4-8.9,27.5c-22.7,29.1-83.9,53-155.9,60.8l0,0C822.6,449.1,806.4,450,791.1,450z
		 M866.8,312.8c-14.7,0-30.1,0.8-45.7,2.5c-69.3,7.6-130.2,31-151.5,58.4c-6,7.7-8.5,15.3-7.5,22.6c4.7,34.1,85.5,54.4,176.5,44.5
		l0,0c69.3-7.6,130.2-31,151.5-58.4c6-7.7,8.5-15.3,7.5-22.6C993.7,331.6,937.6,312.8,866.8,312.8z"/>
</g>
<g>
	<path d="M589,337.8c-70.9,0-124.3-19.1-128.5-49c-1.2-8.3,1.5-16.8,8-25.2c21.2-27.2,79.3-49.5,148.1-56.8
		c92.5-9.9,169,10.5,174.1,46.5c1.2,8.3-1.5,16.8-8,25.2c-21.2,27.2-79.3,49.5-148.1,56.8l0,0C618.8,337,603.5,337.8,589,337.8z
		 M660.7,210.9c-14,0-28.5,0.8-43.4,2.3c-66.1,7.1-123.8,28.9-143.7,54.3c-5.4,6.9-7.6,13.7-6.7,20.2c4.4,31.4,80.9,50.1,166.9,40.9
		l0,0c66.1-7.1,123.8-28.9,143.7-54.3c5.4-6.9,7.6-13.7,6.7-20.2C780.6,228.3,727.6,210.9,660.7,210.9z"/>
</g>
<g>
	<rect x="2154.86" y="1046.95" transform="matrix(0.0523 -0.9986 0.9986 0.0523 1069.9674 3227.9221)" width="161.8" height="6.5"/>
</g>
<g>
	<rect x="2282.66" y="1043.71" transform="matrix(0.0895 -0.996 0.996 0.0895 1049.5789 3242.0903)" width="30.9" height="6.5"/>
</g>
<g>
	<path d="M1849.3,1029.6L1849.3,1029.6l-34.4-0.4c-1.5,0-2.8-1-3.1-2.5c-0.4-1.8-0.8-3.6-1.1-5.4c-0.1-0.4-0.1-0.8,0-1.1
		c3.6-19.8,14.4-38.1,32.2-54.2c0.9-0.8,2.2-1.1,3.4-0.6c1.2,0.5,2,1.5,2,2.8l4.3,58c0.1,0.9-0.3,1.8-0.9,2.5
		C1851.1,1029.2,1850.2,1029.6,1849.3,1029.6z M1817.6,1022.7l28.2,0.3l-3.5-47.5c-13.6,13.8-22.1,29-25.1,45.3
		C1817.3,1021.4,1817.4,1022,1817.6,1022.7z"/>
</g>
<g>
	<path d="M1853.7,1088.3c-0.8,0-1.6-0.3-2.2-0.8c-8.2-7.4-15.4-15.2-21.3-23.1c-0.7-1-0.9-2.3-0.3-3.4s1.7-1.8,2.9-1.8h19.2
		c1.7,0,3.1,1.3,3.3,3l1.7,22.6c0.1,1.3-0.6,2.6-1.8,3.2C1854.6,1088.2,1854.1,1088.3,1853.7,1088.3z M1839.5,1065.7
		c3.1,3.8,6.6,7.6,10.3,11.2l-0.8-11.2H1839.5z"/>
</g>
<g>
	<path d="M2267.9,1111.7c-0.4,0-0.8-0.1-1.1-0.2c-1.1-0.4-1.9-1.3-2.1-2.4l-9.2-46c-0.2-1,0.1-2,0.7-2.7c0.6-0.8,1.5-1.2,2.5-1.2
		h43.5c1.1,0,2,0.5,2.7,1.4s0.8,2,0.4,3c-6,17.4-17.9,33.4-35.4,47.5C2269.3,1111.4,2268.6,1111.7,2267.9,1111.7z M2262.7,1065.7
		l7.3,36.7c12.8-11.2,22-23.5,27.5-36.7H2262.7z"/>
</g>
<g>
	<path d="M2299.5,1034.9L2299.5,1034.9l-47.1-0.6c-1.5,0-2.9-1.1-3.2-2.6l-12.9-64.4c-0.3-1.3,0.3-2.6,1.4-3.3
		c1.1-0.7,2.5-0.7,3.6,0c29.7,19.4,50.9,42.4,61.2,66.4c0.4,1,0.3,2.2-0.3,3.1C2301.6,1034.3,2300.6,1034.9,2299.5,1034.9z
		 M2255.1,1027.8l39.3,0.5c-9.6-19.5-26.7-38.1-50.1-54.5L2255.1,1027.8z"/>
</g>
<g>
	<path d="M2296.8,1065.7h-38.1c-1.6,0-2.9-1.1-3.2-2.6l-6.3-31.4c-0.2-1,0.1-2,0.7-2.7c0.6-0.8,1.7-1.1,2.5-1.2l47.1,0.6
		c0.9,0,1.8,0.4,2.4,1.1c0.6,0.7,0.9,1.6,0.8,2.5l-2.8,30.8C2299.9,1064.4,2298.5,1065.7,2296.8,1065.7z M2261.4,1059.2h32.4
		l2.2-24.3l-39.5-0.5L2261.4,1059.2z"/>
</g>
<g>
	<path d="M1852,1065.7h-19.2c-1,0-2-0.5-2.6-1.3c-6.9-9.2-12.1-18.8-15.6-28.4c-1.1-3.1-2-6.2-2.8-9.3c-0.2-1,0-2,0.6-2.8
		c0.6-0.8,1.7-1.2,2.6-1.2l34.4,0.4c1.7,0,3.1,1.3,3.2,3l2.7,36.1c0.1,0.9-0.2,1.8-0.9,2.5C1853.8,1065.3,1852.9,1065.7,1852,1065.7
		z M1834.5,1059.2h14l-2.2-29.6l-27-0.3c0.5,1.5,1,3,1.5,4.5l0,0C1823.8,1042.3,1828.4,1050.8,1834.5,1059.2z"/>
</g>
<g>
	<path d="M2237.9,1131c-0.8,0-1.6-0.3-2.2-0.9c-1.9-1.7-3.8-3.4-5.8-5.1c-0.8-0.7-1.2-1.6-1.2-2.7l8.1-153.2c0.1-1.6,1.4-3,3-3.1
		c1.5-0.1,3.1,1,3.4,2.6l27.8,139.1c0.2,1.2-0.2,2.4-1.2,3.2c-8.9,7.2-19.1,13.8-30.5,19.7C2238.9,1130.9,2238.4,1131,2237.9,1131z
		 M2235.3,1121.1c1,0.9,2.1,1.8,3.1,2.7c9.6-5.1,18.2-10.7,25.9-16.7L2242,995.4L2235.3,1121.1z"/>
</g>
<g>
	<path d="M2232,1125.8c-0.8,0-1.5-0.3-2.1-0.8c-40.9-34.4-104.1-57.7-173.6-64.1c-58-5.4-114.5,1.7-159,20
		c-11.3,4.6-21.8,10-31.1,15.9c-1.2,0.7-2.6,0.7-3.7-0.2c-3.8-2.9-7.5-6-10.9-9.1c-0.6-0.6-1-1.3-1.1-2.2l-8.1-109.8
		c-13.8,14-22.3,29.4-25.2,45.8c-0.3,1.6-1.6,2.7-3.2,2.7l0,0c-1.6,0-2.9-1.1-3.2-2.7c-1.3-7.2-1.6-14.6-0.9-21.8
		c7.3-76.8,125.3-129.1,263-116.6c90.7,8.2,171.7,43.1,211.6,91.1c18.6,22.5,27.3,46.9,25,70.8c-0.6,6.4-2,12.7-4.1,18.8
		c-0.5,1.3-1.7,2.2-3.1,2.2h-5.5c-0.9,0-1.8-0.4-2.4-1.1c-0.6-0.7-0.9-1.6-0.8-2.5l2.7-30c-9.3-21.2-27.5-41.5-53-59.2l-7.9,149.8
		c-0.1,1.2-0.8,2.3-2,2.8C2232.9,1125.7,2232.4,1125.8,2232,1125.8z M2018.8,1052.6c12.6,0,25.3,0.6,38.1,1.8
		c68,6.3,130.3,28.6,172.2,61.6l7.7-146.4l-0.5-2.3c-0.3-1.3,0.3-2.6,1.4-3.3c1.1-0.7,2.5-0.7,3.6,0c29.7,19.4,50.9,42.4,61.2,66.4
		c0.2,0.5,0.3,1,0.3,1.6l-2.2,25c1.2-4.2,2-8.5,2.4-12.8c2.1-22.1-6.1-44.9-23.6-66c-38.8-46.7-118.2-80.7-207.1-88.8
		c-134.2-12.1-249,37.6-256,110.8c-0.1,0.7-0.1,1.4-0.2,2c5.5-12.9,14.5-25.1,26.8-36.2c0.9-0.8,2.2-1.1,3.4-0.6
		c1.2,0.5,2,1.5,2,2.8l8.5,115.4c2.5,2.2,5.1,4.4,7.8,6.5c9.1-5.6,19.2-10.7,30.2-15.2C1930.4,1060.3,1973.4,1052.6,2018.8,1052.6z"
		/>
</g>
<g>
	<path d="M2086.4,1163.1c-13.2,0-26.6-0.6-40.1-1.8c-1.9-0.2-3.8-0.4-5.6-0.5c-70.1-7.2-135.1-30.6-178.3-64.2
		c-0.8-0.7-1.3-1.7-1.3-2.7c0-1.1,0.6-2,1.5-2.6c9.6-6.1,20.4-11.6,32.1-16.4l0,0c45.5-18.6,103.1-25.9,162.1-20.4
		c70.8,6.5,135.4,30.5,177.2,65.6c0.8,0.7,1.2,1.6,1.2,2.7l-0.4,8.3c-0.1,1.2-0.8,2.3-1.9,2.8
		C2193,1152.9,2141.1,1163.1,2086.4,1163.1z M1870.2,1094.3c42.3,31.3,104.3,53.1,171.2,60c1.8,0.2,3.7,0.4,5.6,0.5
		c67,6.1,133-3.4,181.5-26l0.3-4.8c-40.9-33.8-103.6-56.8-172.4-63.1c-58-5.4-114.5,1.7-159,20
		C1887.5,1084.9,1878.4,1089.4,1870.2,1094.3z"/>
</g>
<g>
	<path d="M1443.6,832.6c-1.5,0-2.8-1-3.2-2.4l-0.4-1.5c-0.1-0.5-0.1-1,0-1.5c4.5-18.7,17.7-36.5,38.2-51.5c1-0.7,2.4-0.8,3.5-0.2
		s1.8,1.8,1.7,3l-2.6,51c-0.1,1.7-1.5,3.1-3.3,3.1L1443.6,832.6L1443.6,832.6z M1476.5,785.2c-15.2,12.3-25.3,26.3-29.5,40.9h27.4
		L1476.5,785.2z"/>
</g>
<g>
	<path d="M1842.1,832.4c-1.8,0-3.2-1.4-3.3-3.1l-1.8-46.1c0-1.2,0.6-2.4,1.7-3s2.4-0.5,3.4,0.2c20.1,14.3,33.7,30.3,40.6,47.5
		c0.4,1,0.3,2.1-0.3,3s-1.6,1.4-2.7,1.4L1842.1,832.4L1842.1,832.4z M1843.8,789.8l1.4,36.1h29.5
		C1868.6,813.2,1858,800.9,1843.8,789.8z"/>
</g>
<g>
	<path d="M1874.5,861.6L1874.5,861.6l-31.2-0.2c-1.7,0-3.2-1.4-3.2-3.1l-1.1-28.9c0-0.9,0.3-1.7,0.9-2.4c0.6-0.6,1.5-1,2.4-1h37.7
		l0,0c1.3,0,2.5,0.8,3,2c1.3,3.3,2.4,6.6,3.2,9.9c0.1,0.5,0.1,1,0,1.5c-1.7,7-4.6,14-8.7,20.7C1876.7,861,1875.6,861.6,1874.5,861.6
		z M1846.4,854.8l26.2,0.2c3.1-5.4,5.4-10.9,6.8-16.5c-0.5-2-1.2-4.1-1.9-6.2h-32L1846.4,854.8z"/>
</g>
<g>
	<path d="M1844.5,892.4c-0.5,0-1-0.1-1.4-0.3c-1.1-0.5-1.8-1.6-1.8-2.8l-1.2-31.1c0-0.9,0.3-1.8,0.9-2.4c0.6-0.6,1.5-1,2.4-1
		l31.2,0.2c1.2,0,2.3,0.6,2.8,1.7s0.5,2.3-0.1,3.3c-7,11.5-17.4,22.2-30.9,31.8C1845.8,892.2,1845.2,892.4,1844.5,892.4z
		 M1846.7,861.4l0.8,21.5c8.5-6.7,15.6-13.8,20.9-21.3L1846.7,861.4z"/>
</g>
<g>
	<path d="M1475.2,878.6c-0.8,0-1.5-0.3-2.1-0.8c-7.6-6.5-14.2-13.4-19.4-20.5c-0.7-1-0.8-2.3-0.3-3.4c0.6-1.1,1.7-1.8,2.9-1.8l0,0
		l19.9,0.1c0.9,0,1.7,0.4,2.3,1c0.6,0.6,0.9,1.5,0.9,2.4l-1,19.8c-0.1,1.2-0.8,2.3-2,2.8C1476.1,878.5,1475.7,878.6,1475.2,878.6z
		 M1463.1,858.7c2.8,3.3,5.8,6.5,9.2,9.6l0.5-9.6H1463.1z"/>
</g>
<g>
	<path d="M1476.2,858.8L1476.2,858.8l-19.9-0.1c-1,0-2-0.5-2.6-1.3c-6.4-8.8-10.9-17.9-13.4-27.1c-0.3-1,0-2,0.6-2.8
		s1.6-1.3,2.6-1.3h34l0,0c0.9,0,1.7,0.4,2.4,1s0.9,1.5,0.9,2.4l-1.3,26.2C1479.4,857.4,1478,858.8,1476.2,858.8z M1458.1,852.1
		l15.1,0.1l1-19.6H1448C1450.2,839.2,1453.5,845.8,1458.1,852.1z"/>
</g>
<g>
	<path d="M1821.1,906.4c-0.5,0-1.1-0.1-1.6-0.4c-40.1-22.2-93.9-35.5-151.4-37.7c-46.1-1.7-90.5,4-128.5,16.4
		c-12,3.9-23.2,8.5-33.4,13.6c-1,0.5-2.1,0.5-3-0.1c-11.4-6.3-21.5-13.2-30.1-20.5c-0.8-0.7-1.2-1.6-1.1-2.6l4.6-89.9
		c-16.1,13.1-26.4,28-30.2,43.5c-0.4,1.5-1.7,2.5-3.2,2.5l0,0c-1.5,0-2.8-1-3.2-2.5c-1.4-5.9-2-12-1.7-18
		c3-64.9,106.1-114,230.1-109.4c84,3.1,159.2,30,196.2,70.2c16,17.4,23.9,36.6,23,55.8c-0.2,4-0.8,8.1-1.7,12
		c-0.4,1.5-1.7,2.5-3.2,2.5l0,0c-1.5,0-2.8-1-3.2-2.5c-0.7-3-1.7-6-2.9-9c-5.7-14.2-17-28.1-32.9-40.6l3.9,99.2
		c0,1.1-0.5,2.1-1.4,2.8c-7.1,5.1-15.1,9.9-23.8,14.2C1822.2,906.3,1821.6,906.4,1821.1,906.4z M1652.3,861.5
		c5.4,0,10.7,0.1,16.1,0.3c57.7,2.1,111.9,15.5,152.7,37.6c7.2-3.7,13.9-7.7,20-11.9l-4.1-104.3c0-1.2,0.6-2.4,1.7-3
		s2.4-0.5,3.4,0.2c18.6,13.3,31.7,28,39,43.8c0-16.6-7.2-32.9-21.4-48.3c-35.9-39-109.3-65.1-191.6-68.1
		c-120.2-4.4-220.5,41.9-223.4,103.2c0,0.9-0.1,1.9-0.1,2.8c6.5-13.8,17.9-26.8,33.5-38.2c1-0.7,2.4-0.8,3.5-0.2s1.8,1.8,1.7,3
		l-4.8,95.3c7.6,6.3,16.5,12.4,26.3,17.9c10-5,21-9.4,32.8-13.2C1571.9,867.3,1611.2,861.5,1652.3,861.5z"/>
</g>
<g>
	<path d="M1672.1,937c-5.6,0-10.5-0.1-14.5-0.3c-60.1-2.2-112.1-15.2-154.3-38.5c-1.1-0.6-1.7-1.7-1.7-2.9s0.7-2.3,1.8-2.8
		c43.3-21.8,103.4-33,165.1-30.7c58.5,2.1,113.2,15.8,154.3,38.5c1.1,0.6,1.7,1.7,1.7,2.9s-0.7,2.3-1.8,2.8
		C1769.6,932.7,1707,937,1672.1,937z M1512,895.6c40.3,20.9,89.3,32.6,145.7,34.7c27.7,1,97.2,0.3,156.2-27.3
		c-39.5-20.4-90.9-32.6-145.8-34.7C1610.3,866.2,1553.9,876.1,1512,895.6z"/>
</g>
<g>
	<path d="M1506.1,702.9c-0.5,0-1-0.1-1.5-0.4c-1.1-0.6-1.8-1.7-1.8-3l0.2-12.1c0-1.8,1.5-3.2,3.3-3.2l13.7,0.2c1.3,0,2.5,0.8,3,2
		s0.2,2.6-0.7,3.5c-4.1,4.2-9,8.4-14.3,12.3C1507.4,702.7,1506.8,702.9,1506.1,702.9z M1509.5,690.8v2.1c0.8-0.7,1.6-1.4,2.4-2
		L1509.5,690.8z"/>
</g>
<g>
	<path d="M1506.8,662.4c-0.9,0-1.7-0.3-2.3-1c-0.6-0.6-1-1.5-0.9-2.4l0.7-37.2c0-1.2,0.7-2.3,1.8-2.9c1.1-0.5,2.4-0.4,3.4,0.3
		c15.9,11.6,26.1,24.6,30.4,38.7c0.3,1,0.1,2.1-0.5,2.9c-0.6,0.8-1.6,1.3-2.6,1.3L1506.8,662.4
		C1506.9,662.4,1506.8,662.4,1506.8,662.4z M1510.7,628.5l-0.5,27.3l22-0.1C1528.2,646.1,1521,637,1510.7,628.5z"/>
</g>
<g>
	<path d="M1520,690.9L1520,690.9l-13.7-0.2c-0.9,0-1.7-0.4-2.3-1c-0.6-0.6-0.9-1.5-0.9-2.3l0.5-28.4c0-1.8,1.5-3.2,3.2-3.2l29.9-0.2
		l0,0c1.4,0,2.7,0.9,3.1,2.3l0.3,1c0.2,0.6,0.2,1.2,0,1.8c-2.9,10.1-8.9,19.9-17.9,29.1C1521.7,690.6,1520.9,690.9,1520,690.9z
		 M1509.6,684.3l9,0.1c6.7-7.1,11.5-14.5,14.3-22.1l-22.9,0.1L1509.6,684.3z"/>
</g>
<g>
	<path d="M1168.2,700.2c-0.8,0-1.5-0.3-2.1-0.8c-5.3-4.6-9.9-9.4-13.6-14.3c-0.7-1-0.9-2.3-0.3-3.4c0.6-1.1,1.7-1.7,2.9-1.8
		l15.7,0.2c1,0,1.9,0.4,2.5,1.2c0.6,0.7,0.9,1.7,0.7,2.7l-2.6,13.6c-0.2,1.1-1,2.1-2.1,2.5C1169,700.1,1168.6,700.2,1168.2,700.2z
		 M1162.1,686.5c1.3,1.4,2.6,2.7,4,4.1l0.8-4L1162.1,686.5z"/>
</g>
<g>
	<path d="M1146.5,664.5c-1.1,0-2-0.5-2.7-1.4c-0.6-0.9-0.8-2-0.4-3c5.4-15.3,18.4-29.9,37.4-42.4c1.1-0.7,2.5-0.7,3.6,0
		s1.6,2,1.4,3.3l-7.6,40.6c-0.3,1.5-1.6,2.6-3.2,2.7L1146.5,664.5L1146.5,664.5z M1177.9,627.6c-12.6,9.3-21.6,19.6-26.5,30.3
		l20.9-0.1L1177.9,627.6z"/>
</g>
<g>
	<path d="M1170.8,686.6C1170.8,686.6,1170.7,686.6,1170.8,686.6l-15.7-0.2c-1,0-2-0.5-2.6-1.3c-4.4-5.8-7.6-11.9-9.6-18.1
		c-0.2-0.6-0.4-1.1-0.5-1.7c-0.2-0.6-0.2-1.2,0-1.8c0.3-1.1,0.7-2.2,1.1-3.4c0.5-1.3,1.7-2.2,3.1-2.2l28.5-0.2l0,0
		c1,0,1.9,0.4,2.5,1.2c0.6,0.7,0.9,1.7,0.7,2.7l-4.2,22.3C1173.7,685.5,1172.3,686.6,1170.8,686.6z M1156.8,679.9l11.3,0.1l3-15.7
		l-22.1,0.1c0.1,0.2,0.1,0.3,0.2,0.5C1150.7,670,1153.3,675,1156.8,679.9z"/>
</g>
<g>
	<rect x="1138.86" y="660.27" transform="matrix(0.0138 -0.9999 0.9999 0.0138 502.2606 1836.2729)" width="86.3" height="6.5"/>
</g>
<g>
	<path d="M1181.4,710c-0.6,0-1.2-0.2-1.8-0.5c-4.9-3.2-9.5-6.6-13.5-10c-0.9-0.8-1.3-1.9-1.1-3.1l14.4-76.5c0.3-1.7,1.8-2.8,3.5-2.6
		s3,1.6,2.9,3.3l-1.2,86.3c0,1.2-0.7,2.3-1.7,2.8C1182.5,709.8,1181.9,710,1181.4,710z M1171.8,695.6c2,1.7,4.2,3.3,6.5,5l0.6-42.4
		l-4.2,22.4l0,0L1171.8,695.6z"/>
</g>
<g>
	<path d="M1229.6,731.9c-0.3,0-0.7,0-1-0.2c-18.9-6-35.4-13.5-49-22.3c-0.9-0.6-1.5-1.7-1.5-2.8l1.1-80
		c-15,10.9-25.2,23.1-29.7,35.6c-0.3,1-0.7,2-0.9,2.9c-0.4,1.4-1.7,2.4-3.1,2.4l0,0c-1.5,0-2.7-1-3.1-2.4c-1.3-4.5-1.9-9.1-2-13.7
		c-0.2-54,89.8-99,200.5-100.4c77.7-1,146.9,19.2,180.8,52.6c13.5,13.3,20.4,27.7,20.4,43c0,4.7-0.6,9.4-2,14
		c-0.4,1.4-1.7,2.4-3.1,2.4l0,0c-1.4,0-2.7-0.9-3.1-2.3l-0.3-1c-3.4-11.1-11.1-21.6-23-31.4l-1.3,71.2c0,1-0.5,2-1.3,2.6
		c-11.9,8.7-26.4,16.5-43.3,23c-0.7,0.3-1.5,0.3-2.2,0.1c-35.5-11.9-80-17.1-125.3-14.7c-31.1,1.7-60.6,6.6-87.8,14.8
		c-6.4,1.9-12.7,4-18.7,6.3C1230.4,731.8,1230,731.9,1229.6,731.9z M1184.7,704.9c12.5,7.9,27.6,14.7,44.8,20.2
		c5.8-2.1,11.9-4.2,18.1-6c27.7-8.3,57.7-13.4,89.3-15c45.7-2.5,90.6,2.8,126.6,14.7c15.2-6,28.5-13,39.4-20.8l1.4-76
		c0-1.2,0.7-2.3,1.8-2.9c1.1-0.5,2.4-0.4,3.4,0.3c12,8.8,20.7,18.3,26.2,28.5c0-0.3,0-0.7,0-1c0-13.4-6.3-26.3-18.5-38.3
		c-32.2-31.7-101.5-51.7-176.2-50.7c-107.2,1.3-194.2,43.4-194.1,93.8c0,0.2,0,0.4,0,0.6c6.6-12.4,18.2-24.2,33.9-34.5
		c1-0.7,2.3-0.7,3.4-0.1c1.1,0.6,1.7,1.7,1.7,2.9L1184.7,704.9z"/>
</g>
<g>
	<path d="M1336.5,747.2c-19.1,0-37.9-1.3-56-3.9c-18.4-2.6-35.9-6.5-51.9-11.6c-1.3-0.4-2.2-1.6-2.3-3c0-1.4,0.8-2.6,2.1-3.1
		c6.1-2.3,12.6-4.4,19.1-6.4c27.7-8.3,57.7-13.4,89.3-15c46.2-2.5,91.5,2.9,127.7,15c1.3,0.4,2.2,1.6,2.2,3s-0.8,2.6-2.1,3.1
		c-35.4,13.8-78,21.4-123.1,21.9C1339.9,747.2,1338.2,747.2,1336.5,747.2z M1240.1,728.3c13,3.6,26.9,6.5,41.3,8.5l0,0
		c19.4,2.8,39.6,4,60.1,3.8c40.6-0.5,79.1-6.8,111.9-18.2c-33.8-9.9-74.7-14.1-116.2-11.9c-31.1,1.7-60.6,6.6-87.8,14.8
		C1246.3,726.3,1243.2,727.3,1240.1,728.3z"/>
</g>
<g>
	<rect x="937.21" y="477.01" transform="matrix(0.9986 -0.0532 0.0532 0.9986 -26.7098 50.7674)" width="6.5" height="100.4"/>
</g>
<g>
	<path d="M1030.6,592.5c-8.9,0-17.7-0.3-26.3-0.9c-8.1-0.6-16.1-1.4-23.8-2.6c-1.5-0.2-2.7-1.5-2.8-3s0.8-2.9,2.3-3.4
		c4.1-1.2,8.3-2.4,12.6-3.6l0,0c21.9-5.8,45.1-9.9,69.2-12.2c30.7-2.9,60.3-2.6,88,0.8c1.5,0.2,2.7,1.4,2.8,2.9
		c0.2,1.5-0.8,2.9-2.2,3.4c-24.8,8.1-51.9,13.7-80.4,16.5C1056.7,591.8,1043.5,592.5,1030.6,592.5z M997.7,584.4
		c2.3,0.2,4.7,0.4,7.1,0.6c20.8,1.5,42.5,1.1,64.6-1c22.1-2.2,43.4-6,63.3-11.5c-22.5-1.7-46-1.4-70.3,0.8
		C1040,575.5,1018.2,579.2,997.7,584.4z"/>
</g>
<g>
	<path d="M888.3,522.2c-1.2,0-2.3-0.6-2.8-1.7c-0.6-1.1-0.6-2.4,0.1-3.4c9.5-14.4,26.6-28.2,49.4-39.8c1.2-0.6,2.7-0.4,3.7,0.5
		s1.3,2.4,0.8,3.6l-15.6,37.4c-0.5,1.2-1.6,2-2.9,2l-32.5,1.3C888.4,522.2,888.4,522.2,888.3,522.2z M929.9,487.5
		c-15.1,8.6-27,18.1-35,27.9l23.7-0.9L929.9,487.5z"/>
</g>
<g>
	<path d="M903.7,562c-0.7,0-1.3-0.2-1.9-0.6c-9.9-7.1-16.9-15.1-21-23.7c-0.5-1-0.4-2.2,0.2-3.1c0.6-0.9,1.6-1.5,2.7-1.6l29.8-1.1
		c1.1,0,2.2,0.5,2.8,1.4s0.8,2.1,0.3,3.1l-9.8,23.5c-0.4,0.9-1.2,1.6-2.1,1.9C904.3,562,904,562,903.7,562z M889.1,539.4
		c3.2,5,7.6,9.8,13.2,14.2l6.2-14.9h-0.1l0,0L889.1,539.4z"/>
</g>
<g>
	<path d="M1229.9,508.5c-0.9,0-1.8-0.4-2.4-1.1s-0.9-1.7-0.8-2.7l2.7-16.9c0.2-1.3,1.1-2.3,2.3-2.6c1.2-0.3,2.5,0,3.4,1
		c4.5,5.2,7.7,10.8,9.7,16.5c0.2,0.7,0.2,1.4,0,2l-0.4,1.1c-0.4,1.3-1.6,2.1-2.9,2.2l-11.4,0.5
		C1229.9,508.5,1229.9,508.5,1229.9,508.5z M1234.6,496.5l-0.9,5.4l3.6-0.1C1236.6,499.9,1235.6,498.2,1234.6,496.5z"/>
</g>
<g>
	<path d="M883.7,539.6c-1.3,0-2.4-0.7-3-1.9c-0.7-1.6-1.4-3.1-1.9-4.7c-0.2-0.7-0.2-1.4,0-2c1-3.1,2.4-6.3,4.1-9.4
		c0.8-1.5,1.7-2.9,2.6-4.4c0.6-0.9,1.5-1.4,2.6-1.5l32.5-1.3c1.1-0.1,2.2,0.5,2.8,1.4s0.8,2.1,0.3,3.1l-7.4,17.6
		c-0.5,1.2-1.6,2-2.9,2l-29.8,1.1C883.8,539.6,883.8,539.6,883.7,539.6z M885.4,531.9c0.1,0.4,0.3,0.7,0.4,1.1l25.5-0.9l4.6-11
		l-25.7,1c-0.5,0.8-1,1.7-1.5,2.5l0,0C887.4,527.1,886.3,529.5,885.4,531.9z"/>
</g>
<g>
	<path d="M943.1,580.6c-0.3,0-0.7,0-1-0.1c-16.2-5-29.8-11.5-40.4-19.1c-1.2-0.9-1.7-2.5-1.1-3.9l8.8-21l0,0l24-57.5
		c0.3-0.7,0.8-1.3,1.5-1.6l1.1-0.6c1-0.5,2.3-0.6,3.3,0s1.7,1.5,1.8,2.6l5.2,97.8c0.1,1.1-0.4,2.1-1.3,2.7
		C944.5,580.4,943.8,580.6,943.1,580.6z M907.7,557.6c8.7,5.9,19.4,11,31.9,15.2l-4.3-81.2L907.7,557.6z"/>
</g>
<g>
	<path d="M1229.9,527.2c-0.4,0-0.8-0.1-1.1-0.2c-1.3-0.5-2.1-1.7-2.1-3.1v-18.7c0-1.8,1.4-3.2,3.1-3.3l11.4-0.5
		c1.1,0,2.1,0.4,2.7,1.3s0.8,2,0.5,3c-2.4,6.8-6.4,13.6-12,20.2C1231.7,526.8,1230.8,527.2,1229.9,527.2z M1233.1,508.4v5.7
		c1.2-1.9,2.3-3.9,3.2-5.8L1233.1,508.4z"/>
</g>
<g>
	<path d="M981,589c-0.2,0-0.3,0-0.5,0c-13.8-2-26.7-4.9-38.4-8.5c-1.3-0.4-2.2-1.6-2.3-2.9l-4.9-92.8c-20.3,10.8-35.4,23.2-43.9,36
		c-0.9,1.3-1.7,2.6-2.4,3.9c-1.5,2.7-2.7,5.5-3.6,8.3c-0.4,1.3-1.7,2.3-3.1,2.3c-1.2,0-2.7-0.9-3.1-2.2c-1-3-1.6-6-1.9-9.1
		c-0.1-1.3-0.2-2.7-0.2-4c0-26.5,25.9-53.1,71-72.7c30.4-13.3,67-22.3,105.9-26.1c72.3-7.1,140.1,5.7,172.8,32.6
		c12.2,10,19,21.5,20.2,34c0.5,5.7-0.1,11.4-1.9,17.1c-0.4,1.3-1.7,2.3-3.1,2.3l0,0c-1.4,0-2.6-0.9-3.1-2.2c-0.9-2.8-2.3-5.6-4-8.3
		l-1.5,9v18.4c0,0.8-0.3,1.5-0.8,2.1c-16.1,18.9-45.2,35.9-81.9,48c-0.5,0.2-0.9,0.2-1.4,0.1c-27.3-3.3-56.4-3.6-86.6-0.8
		c-23.7,2.2-46.6,6.2-68.1,12c-4.2,1.1-8.3,2.3-12.3,3.5C981.6,588.9,981.3,589,981,589z M946.3,574.9c10.6,3.2,22.2,5.7,34.5,7.5
		c3.9-1.2,7.8-2.3,11.9-3.4c21.9-5.8,45.1-9.9,69.2-12.2c30.4-2.8,59.8-2.6,87.3,0.7c34.6-11.4,62.1-27.3,77.5-44.9v-17.5
		c0-0.2,0-0.4,0-0.5l2.7-16.9c0.2-1.3,1.1-2.3,2.3-2.6c1.2-0.3,2.5,0,3.4,1c2,2.3,3.7,4.7,5.2,7.1c0.1-1.7,0-3.4-0.1-5
		c-1-10.7-7.1-20.7-17.9-29.6c-31.5-25.9-97.4-38.1-168.1-31.2c-38.2,3.7-74.1,12.6-103.9,25.6c-41.9,18.3-67,43.3-67.1,66.8
		c0,0.3,0,0.7,0,1c0.7-1.3,1.5-2.5,2.3-3.8c9.3-14.2,26-27.7,48.3-39.2l0.9-2.1c0.6-1.4,2-2.2,3.6-2c1.5,0.3,2.6,1.5,2.7,3
		L946.3,574.9z"/>
</g>
<g>
	<rect x="725.44" y="357.87" transform="matrix(0.9835 -0.1811 0.1811 0.9835 -60.3384 138.5699)" width="6.5" height="83.7"/>
</g>
<g>
	<rect x="702.09" y="391.29" transform="matrix(0.9695 -0.245 0.245 0.9695 -80.03 185.4432)" width="6.5" height="46.2"/>
</g>
<g>
	<rect x="665.91" y="393.43" transform="matrix(0.9633 -0.2685 0.2685 0.9633 -83.6555 194.466)" width="6.5" height="19.3"/>
</g>
<g>
	<path d="M679.6,426.8c-0.6,0-1.2-0.2-1.7-0.5c-5.7-3.5-10.3-7.4-13.9-11.5c-0.8-0.9-1-2.3-0.5-3.4s1.6-1.9,2.8-2l20.8-1.1
		c1.2-0.1,2.4,0.6,3,1.6s0.6,2.4-0.1,3.4l-7.6,12C681.8,426.3,680.7,426.8,679.6,426.8z M674,415.5c1.4,1.2,3,2.3,4.6,3.5l2.5-3.9
		L674,415.5z"/>
</g>
<g>
	<path d="M666.6,397c-1.2,0-2.3-0.7-2.9-1.7c-0.6-1.1-0.5-2.5,0.3-3.5c10.5-13.8,30.1-26.8,56.7-37.6c1.3-0.5,2.8-0.2,3.7,0.9
		s1,2.6,0.2,3.8l-22.1,34.7c-0.6,0.9-1.5,1.4-2.6,1.5l-33.1,1.8C666.7,397,666.7,397,666.6,397z M713.4,364.4
		c-17.1,7.8-30.4,16.5-39.3,25.6l23.8-1.3L713.4,364.4z"/>
</g>
<g>
	<path d="M739.9,446.2c-0.2,0-0.3,0-0.5,0c-10.5-1.6-20.3-3.7-29.2-6.3c-1.1-0.3-2-1.2-2.3-2.3l-2.8-11.2l0,0l-8.5-33.6
		c-0.2-0.9-0.1-1.8,0.4-2.6l21.3-33.4c0.7-1.1,2.1-1.7,3.4-1.4c1.3,0.3,2.3,1.3,2.6,2.6l14.9,80.8l2.3,1.3c1.4,0.8,2,2.4,1.5,3.9
		C742.5,445.3,741.3,446.2,739.9,446.2z M713.8,434.1c5.8,1.6,12.1,3,18.7,4.2l-13.1-71.1l-16.1,25.2l8.1,32.2l0,0L713.8,434.1z"/>
</g>
<g>
	<rect x="686.63" y="411.2" transform="matrix(0.9661 -0.2583 0.2583 0.9661 -85.4078 192.4853)" width="6.5" height="20.2"/>
</g>
<g>
	<path d="M692.2,433.3c-0.4,0-0.9-0.1-1.3-0.3c-4.8-2.1-9.1-4.4-13-6.8c-0.7-0.5-1.3-1.2-1.5-2s0-1.7,0.4-2.5l7.6-12
		c0.7-1.1,2-1.7,3.2-1.5c1.3,0.2,2.3,1.1,2.7,2.4l5,18.5c0.3,1.2-0.1,2.5-1,3.3C693.7,433.1,693,433.3,692.2,433.3z M684.2,422.5
		c1,0.6,2,1.1,3.1,1.7l-1.2-4.5L684.2,422.5z"/>
</g>
<g>
	<path d="M711.1,440c-0.3,0-0.6,0-0.9-0.1c-7-2-13.5-4.3-19.3-6.8c-0.9-0.4-1.6-1.2-1.8-2.1l-4.3-16l-12.8,0.7
		c-1.5,0.1-2.9-0.9-3.3-2.4l-5.2-18.6c-0.3-1-0.1-2,0.5-2.8s1.5-1.3,2.5-1.4l33.1-1.8c1.6-0.1,3,0.9,3.3,2.5l11.3,44.8
		c0.3,1.1-0.1,2.3-0.9,3.1C712.7,439.7,711.9,440,711.1,440z M695,427.7c3.6,1.5,7.4,2.9,11.5,4.3l-9.2-36.6l-26.4,1.4l3.4,12.2
		l12.9-0.7c1.5-0.1,2.9,0.9,3.3,2.4L695,427.7z"/>
</g>
<g>
	<path d="M967.7,408.8c-0.8,0-1.5-0.3-2.1-0.8c-1.1-0.9-1.4-2.4-0.9-3.7l3.8-9.1c0.5-1.2,1.6-1.9,2.8-2l9.7-0.5
		c1.4-0.1,2.7,0.8,3.2,2.1c0.5,1.3,0.1,2.8-1,3.7c-4.1,3.4-8.7,6.7-13.9,9.9C968.9,408.6,968.3,408.8,967.7,408.8z"/>
</g>
<g>
	<path d="M979.6,380.3c-1.1,0-2.1-0.5-2.7-1.4c-0.6-0.9-0.8-2.1-0.3-3.1l7.5-17.9c0.4-0.9,1.2-1.7,2.2-1.9c1-0.2,2.1,0,2.9,0.6
		c6,4.9,10.3,10.2,12.7,16c0.3,0.8,0.4,1.7,0,2.5c-0.3,0.8-0.7,1.6-1.1,2.4c-0.5,1.1-1.6,1.8-2.8,1.8l-18.3,1
		C979.7,380.3,979.6,380.3,979.6,380.3z M988.3,364.6l-3.7,8.9l10.2-0.5C993.2,370.1,991,367.3,988.3,364.6z"/>
</g>
<g>
	<rect x="977.62" y="377.04" transform="matrix(0.9906 -0.137 0.137 0.9906 -43.6585 138.0168)" width="6.5" height="18.3"/>
</g>
<g>
	<path d="M982.1,398.5c-0.4,0-0.8-0.1-1.2-0.2c-1.1-0.4-1.9-1.4-2.1-2.6l-2.5-18.1c-0.1-0.9,0.1-1.8,0.7-2.5
		c0.6-0.7,1.4-1.1,2.3-1.2l18.3-1c1.2-0.1,2.2,0.5,2.9,1.4c0.6,1,0.7,2.2,0.2,3.2c-3.3,6.8-8.9,13.6-16.6,20.2
		C983.6,398.2,982.8,398.5,982.1,398.5z M983.3,380.1l1.2,8.5c3-3,5.6-6,7.6-8.9L983.3,380.1z"/>
</g>
<g>
	<path d="M791.8,449.9c-18.4,0-36-1.2-52.4-3.7c-0.4-0.1-0.7-0.2-1.1-0.4l-3.7-2c-0.9-0.5-1.5-1.3-1.6-2.3l-14.6-79.3
		c-22.3,9.6-38.8,20.6-48.2,32.2l4.8,17c0.3,1,0.1,2-0.5,2.8s-1.5,1.3-2.5,1.4l-5.3,0.3c-1,0.1-2-0.4-2.6-1.1
		c-4.2-4.8-6.9-10.1-8.1-15.6c-0.1-0.7-0.3-1.4-0.4-2.1c-1.3-9.1,1.7-18.4,8.9-27.5c22.7-29.1,83.9-53,155.9-60.8
		c97.7-10.7,178.3,11.3,183.7,50.1c0.7,5.3,0,10.8-2.2,16.2c-0.5,1.2-1.7,2-3,2c-1.1,0-2.5-0.8-3-2c-1.6-3.7-4.1-7.2-7.5-10.5
		l-5.4,12.9l2.4,17.2c0.2,1.1-0.3,2.2-1.1,2.9l-0.9,0.7c-0.5,0.4-1.2,0.7-1.9,0.7l-7.7,0.4l-3,7.2c-0.3,0.6-0.7,1.2-1.3,1.5
		c-30.9,19.1-78.4,33.3-130.2,39C823.1,449,807.2,449.9,791.8,449.9z M741,439.8c29.3,4.4,63,4.8,97.6,1
		c50.4-5.5,96.4-19.2,126.6-37.5l3.4-8.1c0.5-1.2,1.6-1.9,2.8-2l7.1-0.4l-2.1-15.3c-0.1-0.6,0-1.2,0.2-1.7l7.5-17.9
		c0.4-0.9,1.2-1.7,2.2-1.9c1-0.2,2.1,0,2.9,0.6c3.4,2.8,6.3,5.7,8.5,8.8c0.2-1.9,0.2-3.8-0.1-5.6c-4.7-34.1-85.5-54.5-176.5-44.5
		c-69.3,7.6-130.2,31-151.5,58.4c-6,7.7-8.5,15.3-7.5,22.6c0.1,0.5,0.2,1.1,0.3,1.6c0.8,3.7,2.5,7.3,5.1,10.7l-3.9-14
		c-0.3-1-0.1-2,0.5-2.9c10.5-13.8,30.1-26.8,56.7-37.6c1.3-0.5,2.8-0.2,3.7,0.9s1,2.6,0.2,3.8l-0.2,0.3l14.6,79.6L741,439.8z"/>
</g>
<g>
	<path d="M478.6,291.4c-1.2,0-2.3-0.7-2.9-1.8c-0.6-1.1-0.5-2.4,0.3-3.4c11.1-14.9,34.3-29,65.4-39.8c1.4-0.5,3,0,3.8,1.3
		c0.8,1.2,0.7,2.9-0.3,4l-34.1,38c-0.6,0.7-1.5,1.1-2.4,1.1L478.6,291.4C478.7,291.4,478.6,291.4,478.6,291.4z M531.2,257.1
		c-20,8.1-35.7,17.6-45.3,27.5l21-0.5L531.2,257.1z"/>
</g>
<g>
	<path d="M484.7,317.1c-0.6,0-1.1-0.1-1.6-0.4c-5.5-3.2-10.1-6.7-13.6-10.4c-0.7-0.7-1-1.6-0.9-2.6l0.1-1.1c0.2-1.6,1.6-2.8,3.2-2.8
		l22.9-0.5c1.2,0,2.5,0.7,3,1.9c0.5,1.2,0.3,2.6-0.5,3.5L487.1,316C486.5,316.7,485.6,317.1,484.7,317.1z M479,306.1
		c1.5,1.2,3.2,2.4,5.1,3.6l3.3-3.7L479,306.1z"/>
</g>
<g>
	<rect x="547.34" y="248.7" transform="matrix(0.982 -0.1891 0.1891 0.982 -45.1591 109.3675)" width="6.5" height="85.3"/>
</g>
<g>
	<rect x="508.78" y="287.11" transform="matrix(0.9825 -0.1862 0.1862 0.9825 -48.155 100.7053)" width="6.5" height="39.2"/>
</g>
<g>
	<rect x="476.49" y="287.98" transform="matrix(0.9873 -0.1586 0.1586 0.9873 -40.7841 79.8289)" width="6.5" height="14.9"/>
</g>
<g>
	<rect x="494.02" y="302.2" transform="matrix(0.9716 -0.2368 0.2368 0.9716 -59.7711 126.626)" width="6.5" height="19.9"/>
</g>
<g>
	<path d="M499.3,324c-0.4,0-0.8-0.1-1.2-0.2c-5.4-2.1-10.4-4.4-14.7-6.9l-0.4-0.2c-0.8-0.5-1.4-1.3-1.6-2.3c-0.1-1,0.1-1.9,0.8-2.7
		l10.2-11.4c0.8-0.9,2.1-1.3,3.2-1c1.2,0.3,2.1,1.2,2.4,2.4l3.5,14.5l0,0l0.9,3.7c0.3,1.2-0.1,2.4-1,3.2
		C500.9,323.7,500.1,324,499.3,324z M489.9,313c1.5,0.8,3.1,1.6,4.8,2.3l-1.5-6L489.9,313z"/>
</g>
<g>
	<path d="M515.7,329.3c-0.3,0-0.6,0-0.8-0.1c-6-1.6-11.6-3.4-16.7-5.4c-1-0.4-1.7-1.2-2-2.3l-3.8-15.7l-11.3,0.2
		c-1.8,0.1-3-1.1-3.3-2.7l-2.4-14.7c-0.1-0.9,0.1-1.9,0.7-2.6s1.5-1.2,2.4-1.2l29.8-0.7c0,0,0,0,0.1,0c1.6,0,2.9,1.1,3.2,2.7
		l7.3,38.6c0.2,1.1-0.2,2.2-1,3C517.3,329,516.5,329.3,515.7,329.3z M502.1,318.3c3,1.1,6.1,2.1,9.4,3.1l-5.8-30.7l-23.3,0.5
		l1.3,8.2l11.1-0.2c1.7,0.1,2.9,1,3.2,2.5L502.1,318.3z"/>
</g>
<g>
	<path d="M558.6,336.4c-0.1,0-0.2,0-0.3,0c-8.6-0.7-16.9-1.8-24.7-3.2c-6.6-1.1-12.9-2.5-18.7-4.1c-1.2-0.3-2.1-1.3-2.4-2.5
		l-0.8-4.1l0,0l-6.5-34.5c-0.2-1,0.1-2,0.8-2.8l34.1-38c0.8-0.9,2.1-1.3,3.3-1s2.1,1.3,2.3,2.5l16.1,83.7c0.2,1-0.1,2-0.8,2.8
		C560.4,336,559.5,336.4,558.6,336.4z M518.5,323.4c5.1,1.3,10.5,2.5,16.2,3.4c6.3,1.1,13,2,19.9,2.7l-14.1-73l-28.6,31.9
		L518.5,323.4z"/>
</g>
<g>
	<path d="M589.6,337.7c-10.8,0-21.2-0.4-31.3-1.3c-1.5-0.1-2.6-1.2-2.9-2.6l-15.4-80c-27.3,9.9-47.7,22.3-57.9,35.2l2.1,13.3
		c0.1,0.9-0.1,1.9-0.7,2.6s-1.5,1.2-2.4,1.2l-6.8,0.2c-0.4,0.4-0.8,0.7-1.4,0.9c-1.2,0.4-2.5,0.1-3.4-0.9c-5.1-5.4-8.1-11.2-9-17.4
		c-1.2-8.3,1.5-16.8,8-25.2c21.2-27.2,79.3-49.5,148.1-56.8c92.5-9.9,169,10.6,174,46.5c1.2,8.3-1.5,16.8-8,25.2
		c-21.2,27.2-79.3,49.5-148.1,56.8C619.4,336.9,604.3,337.7,589.6,337.7z M561.3,330.1c22.7,1.8,47.7,1.3,72.5-1.3
		c66.1-7.1,123.8-28.9,143.7-54.3c5.4-6.9,7.6-13.7,6.7-20.2c-4.4-31.4-80.8-50.1-166.9-40.9c-66.1,7.1-123.8,28.9-143.7,54.3
		c-5.4,6.9-7.6,13.7-6.7,20.2c0.6,4.1,2.4,8.1,5.5,11.9l4.7-0.1l-1.8-11c-0.1-0.9,0.1-1.8,0.6-2.5c11.1-14.9,34.3-29,65.4-39.8
		c0.9-0.3,1.9-0.2,2.7,0.3s1.4,1.3,1.6,2.2L561.3,330.1z"/>
</g>
<path d="M2957.4,1298.5c0-0.4-0.1-0.7-0.3-1.2v-0.1c-0.7-1.1-1.5-2.1-2.5-2.9c0.4-1.2,0.8-2.5,1.2-3.7c0.4-1.1,0.8-2.2,1.1-3.4
	c0.1-0.2,0.2-0.4,0.2-0.7l0.1-0.4c2.1-8.1,2.5-16.6,1.3-25.5c-8-58.5-87.4-130.7-202.3-183.9L959.6,244.4
	c-180.8-83.7-341.4-158.1-485-224.6C429.9-0.9,348.8-6.2,290,7.8L69.7,60.4c-41,9.7-66.3,26.5-69.4,46.1c-0.7,4.3-0.2,8.7,1.3,13
	c3.6,10.7,7.4,21.4,11.5,32.7l-0.2,0.5l0.5,0.5c68.4,185.8,140.3,253.5,177,277.3l660.8,456.3c118.5,81.8,249.1,172,393.9,272
	c153.1,105.8,322.1,222.5,509.5,351.8l412.5,284.9c99.9,69,176.8,111.7,251.7,111.7h2.5c70.7-0.9,139.4-41,229.6-134.2
	c15.6-16.1,38.7-41.4,61-65.9l1.2-1.3c19.8-21.7,44.3-48.7,59.5-64.4l0.4-0.4c53.2-66.9,99.1-143.6,136.3-228c0.9,0.2,1.5,0.2,2.9,0
	c0.5-0.1,1-0.3,1.3-0.6c5.8-4.4,6.7-5.2,11.4-10.6c0.2-0.3,0.4-0.6,0.5-1.1l0,0c0.4-1.3,1.5-6.4,1.9-10.6c2.6,0.8,4.9,0.7,7-0.4
	l1.1-0.9c4.2-5.6,4.9-6.7,8-13.5l0.2-0.3v-0.5c0-0.1,0.1-0.3,0.2-0.4l0.1-0.3c0.8-1.9,2.3-5.6,1.8-10.9c1.3-0.3,2.5-1,3.6-2l0.6-0.9
	c2.5-6.4,2.9-7.6,4-15.5c0-0.3,0.2-2,0.4-4c0.4-3.9,0.6-5.1,0.5-5.6c0.1-0.8,0.3-1.7,0.4-2.7l0.2-1.3c0-0.3,0-0.6-0.1-1.2
	c0,0,0,0,0-0.1c0.1-0.1,0.1-0.2,0.2-0.3l0.4-1c1.5-6.3,1.7-8.3,1.8-14.5v-1.3C2958.2,1306.6,2958.2,1305.2,2957.4,1298.5z
	 M764.7,800.8c464.4,318,944.7,646.8,1410,948.4c114.7,74.4,189.8,105.8,259.2,108.6c66.9,2.7,130.1-23.3,196.5-81.6
	c-82.1,82.2-145.2,117.8-209.2,118.6c-51.9,0.8-113.6-17.4-247-109.5l-412.5-284.9c-364.5-251.7-659.6-455.5-903.4-623.8l-661-456.4
	c-13-8.4-26.2-19.6-39.4-33.5C361.4,524.7,566.2,664.9,764.7,800.8z M2660,1735.1c-160.6,166.2-282.9,134.5-480.4,6.4
	c-465.1-301.4-945.1-630.1-1409.4-948l-0.6-0.4C561.7,650.7,346.8,503.6,135.2,360.3c-37.1-47.6-73-115-103.9-195.2
	C229.6,285.7,467,429.9,755.5,605.2c146.5,89,309.8,188.2,493.1,299.7c275.5,167.4,596.2,362.3,973.2,591.3
	c101.9,61.9,222.4,98.9,322.3,98.9c57.9,0,103.4-12.8,131.7-36.9l247-210.7c-1.5,3.9-3,7.7-4.5,11.6c-6.5,8.4-14.1,16.1-22.7,22.8
	l-0.5,0.4l0,0c-0.7,0.7-0.9,1.7-0.6,2.4c0,0.4,0,1.2,0,2.3c0,7.8,0.2,15.6,3.9,18.8c0.1,0.1,0.2,0.2,0.3,0.2
	c-36.9,84-82.5,160.3-135.3,226.8c-10.6,10.9-25.3,26.9-36.8,39.5C2702.4,1694.7,2672.8,1721.9,2660,1735.1z M2939.9,1361.6
	l-1.4-0.1c-0.3,0.9-0.7,1.6-1.1,2.3c-0.1,0.1-0.1,0.3-0.1,0.4l-0.6,0.9c-0.1,0.2-0.2,0.4-0.4,0.7l-0.7,1.1c-0.3,0.5-0.6,1-1,1.5
	l-0.5,0.3v0.4l-1.2,1.6c-1.8,0.4-4.4-0.9-7.1-2.4l-3.8-2l-2.6,3.3c-0.7,0.9-1.4,1.8-2.2,2.6l-1.5,1.7l2.3,3.5
	c1.3,1.9,2.7,3.9,3.2,5.7c0.2,0.5,0.3,0.9,0.2,1.4c-1.9,2.4-2.6,3.2-3.3,3.9l-0.4,0.4c-0.7,0.6-1.3,1.2-2.2,1.9
	c-0.1,0.1-0.2,0.2-0.3,0.3c-0.1,0.1-0.2,0.2-0.5,0.4l-2.3,1.8c-0.4,0-0.8-0.2-1.4-0.4c-2.1-0.9-4.8-3.1-7.6-6.2l-0.4-0.5
	c-0.4-0.4-0.8-0.9-1.2-1.4c11.8-9.6,21.8-21.2,29.7-34.1l1.4,1.4c0.6,0.6,1.2,1.2,1.9,1.8l2.6,2.6c0.5,0.5,0.9,1,1.2,1.5
	c0.1,0.2,0.2,0.3,0.3,0.5l0.3,0.6c0.1,0.1,0.1,0.3,0.2,0.7v0.1c-0.1,0.3-0.3,0.7-0.5,1.2L2939.9,1361.6L2939.9,1361.6z
	 M2937.9,1365.6L2937.9,1365.6L2937.9,1365.6L2937.9,1365.6z M2945.1,1283.4c-0.1,0.2-0.2,0.4-0.2,0.6l-0.3,1
	c-0.3,0.8-0.5,1.7-0.9,2.6c-3,8.1-8.4,15.5-16,22L2669.3,1530c-74.9,63.8-281.2,34.4-441.5-63c-379.3-230.4-701.8-426.4-978.4-594.5
	c-171-103.9-324.5-197.2-463.2-281.5l-24.6-15C468.8,398.2,228.8,252.3,28.7,130.7c-7.9-4.8-13-9.9-15.2-15l-0.1-0.3
	c-0.9-2.3-1.2-4.6-0.8-7c2.2-13.9,25.2-27.6,60.1-35.9L293,20c55.5-13.3,134.7-8.3,176.4,11C633,106.7,818.7,192.7,1031,291.1
	l1720,796.8c111.1,51.5,187.7,119.9,195.2,174.3C2947.3,1269.9,2946.9,1277.1,2945.1,1283.4z M755.1,586.6
	c104.9,63.7,218.4,132.7,341.8,207.7l146,88.7c276.7,168.2,599.1,364.1,978.5,594.5c102.1,62,222.9,99,323.1,99
	c58.3,0,104.2-12.9,132.8-37.3l254.8-217.3c-0.9,2.5-1.8,5-2.7,7.6l-0.1,0.2L2669.9,1551c-75.3,64.3-282.5,34.9-443.3-62.8
	c-377-229-697.7-423.9-973.2-591.3c-183.3-111.4-346.6-210.7-493.1-299.7C467.6,419.5,227.5,273.6,27.5,152l-1.4-0.9
	c-1.2-3.2-2.4-6.4-3.5-9.7C222.5,263,462.5,408.9,755.1,586.6z M2902.1,1393.7l0.7,0.7c0.4,0.4,0.7,0.7,1.1,0.9l0.3,0.3
	c0.1,0.1,0.2,0.1,0.3,0.2l0.2,0.1c0.2,0.2,0.5,0.4,1,0.7l0.6,0.4l0.2,0.1c0.9,0.6,1.9,1.1,2.9,1.4c0.7,0.3,1.4,0.4,2.1,0.5
	c0.3,0,0.7,0.1,0.8,0.1c0.6,0.1,1.1,0,1.4,0c0.5-0.1,1-0.3,1.3-0.6l0.8-0.6c1-0.8,1.9-1.5,2.5-2c0.3-0.1,0.4-0.3,0.5-0.3
	c0.2-0.1,0.4-0.3,0.7-0.6c0.5-0.3,0.9-0.7,1.3-1.1c-0.3,1.9-0.7,3.7-0.9,4.8c-3.8,4.4-4.7,5.1-9.2,8.5c-2-0.1-4.1-2.1-6.4-4.2
	l-1.8-1.6c-0.5-0.4-1.6-2.2-1.8-9.2C2901.1,1392.8,2901.6,1393.2,2902.1,1393.7z M2944.6,1357.1l-0.2-0.3c-0.2-0.6-0.5-1.1-0.8-1.6
	v-0.9h-0.5l0,0l-0.4-0.4c-0.3-0.4-0.5-0.7-0.8-0.9c-0.2-0.2-0.4-0.4-0.5-0.6c-0.9-1-1.9-1.9-2.9-2.9c-0.1-0.1-0.2-0.2-0.4-0.3
	c0.1-0.2,0.2-0.5,0.3-0.7c2.2,0.5,4.7,1,6.9,0.8c0.2,0,0.5,0,0.6-0.1c0.4-0.1,0.8-0.1,1-0.2c0.1,0,0.1,0,0.2,0
	C2946.7,1351.7,2946.1,1353.3,2944.6,1357.1C2944.7,1357.1,2944.6,1357.1,2944.6,1357.1z M2939.7,1342.7l-0.4-0.1
	c-0.7-0.2-1.3-0.3-2.1-0.4l-1.2-0.2c2.7-5.2,5-10.7,7-16.3l0.3,0.2c1.6,0.9,3.2,1.8,4.4,2.8l0.7,0.7c0.1,0.1,0.2,0.2,0.3,0.4
	c0.3,0.4,0.5,0.8,0.7,1.2l-0.5,3.1c-0.1,0.7-0.4,1.9-0.7,3.1l-0.2,0.9c-0.1,0.3-0.2,0.5-0.2,0.6l-1.7,4.6
	C2944.8,1343.8,2942.3,1343.3,2939.7,1342.7z M2950.9,1323.7L2950.9,1323.7c-0.4-0.3-0.7-0.6-1.1-0.8c-0.2-0.1-0.4-0.3-0.5-0.3
	l-0.5-0.5h-0.2l-2.5-1.5c0-0.3,0.1-0.6,0.1-0.9h0.2c1.7-0.1,3.5-0.2,5.2-0.6C2951.5,1320.5,2951.3,1321.9,2950.9,1323.7z
	 M2946.7,1313.6c0.8-3,1.4-5.9,1.9-8.8l0.1-0.3c1.1-1.6,2-3.1,2.9-4.8c0.7,5.8,0.6,7,0.1,12.5l0,0
	C2950.5,1312.7,2948.7,1313.3,2946.7,1313.6z M2952.9,1312.8h0.2H2952.9L2952.9,1312.8z M2923.1,1374.5l-0.1-0.1
	c0.2-0.2,0.3-0.4,0.5-0.6c3.5,1.9,8,4.2,12.4,2.1l1.1-0.9l0.4-0.5c-2.2,4.8-2.8,5.9-6.1,10.3c-1.1,0.2-2.4-0.1-4.1-0.8
	c0-0.2,0-0.4,0-0.4v-0.4c-0.1-0.4-0.2-0.9-0.3-1.3c-0.1-0.5-0.3-1-0.5-1.4C2925.6,1378.2,2924.3,1376.3,2923.1,1374.5z
	 M2925.9,1383.4L2925.9,1383.4L2925.9,1383.4L2925.9,1383.4z M2956,1297.9L2956,1297.9L2956,1297.9L2956,1297.9z"/>
<g>
	<path d="M176.3,115.5c0.4-0.6,0-1.2-1-1.7s-2.3-0.8-3.9-0.9c-1.4-0.1-3.1,0.1-4.9,0.6c-1.6,0.4-2.6,0.9-3,1.5
		c-0.4,0.5-0.1,1.1,0.9,1.7c0.9,0.5,2.4,0.8,4,0.9c1.7,0.1,3.4-0.1,4.9-0.5C175,116.6,176,116.1,176.3,115.5 M179.2,114.1
		c0.2,0.3,0.3,0.6,0.4,0.8c0.7,0,1.4,0,2.1,0c0.2,0,0.5,0,0.7,0c0,0.1-0.1,0.2-0.1,0.2c-0.1,0.2-0.1,0.4-0.2,0.6
		c0,0.1-0.1,0.2-0.1,0.2c-0.2,0-0.4,0-0.7,0c-0.7,0-1.4,0-2.2-0.1c-0.3,0.3-0.6,0.6-1.2,0.9c-0.7,0.4-1.6,0.7-3,1.1
		c-1.5,0.4-3.3,0.6-5.2,0.7c-1.3,0-2.6,0-3.8-0.2c0.1,0.5,0,0.9-0.4,1.3c-0.6,0.6-1.6,1.1-3.1,1.5c-2.3,0.6-4.6,0.8-6.7,0.6
		c-2.3-0.2-4.3-0.8-5.8-1.6c-1.5-0.8-2.1-1.7-1.7-2.5c0.3-0.8,1.6-1.5,3.8-2.1c0.2-0.1,0.4-0.1,0.6-0.2c0.1,0.1,0.2,0.1,0.4,0.2
		c0.3,0.2,0.7,0.4,1,0.5c0.1,0.1,0.3,0.1,0.4,0.2c-0.2,0.1-0.4,0.1-0.6,0.2c-1.4,0.3-2.1,0.8-2.3,1.3c-0.2,0.6,0.3,1.2,1.3,1.7
		c1,0.6,2.3,1,3.8,1.1c1.2,0.1,2.6,0,4-0.3c1.4-0.4,2-0.8,2.2-1.3c0.2-0.6-0.4-1.2-1.4-1.7c-1.5-0.8-1.9-1.7-1.3-2.5
		c0.6-0.9,2.2-1.7,4.5-2.3c2.5-0.6,5-0.9,7.3-0.8c2.4,0.1,4.5,0.6,6,1.3C178.5,113.4,179,113.7,179.2,114.1z M168.7,121.3
		c2.7-0.7,5.3-1.4,8-2.1c2.6-0.7,5.2-1.4,7.8-2.1c0.2,0,0.4-0.1,0.6-0.2c0.1,0.1,0.3,0.1,0.4,0.2c0.3,0.2,0.6,0.3,1,0.5
		c0.1,0.1,0.2,0.1,0.4,0.2c-0.2,0-0.4,0.1-0.6,0.2c-0.3,0.1-0.7,0.2-1,0.3c0.6,0,1.1,0.1,1.6,0.2c1.3,0.2,2.4,0.6,3.2,1l0,0
		c0.4,0.2,0.8,0.5,1,0.7c0.3,0.3,0.4,0.5,0.5,0.8c0,0.1,0,0.2,0,0.2c-0.2,0-0.4,0-0.7,0c-0.6,0-1.1,0.1-1.7,0.1c-0.3,0-0.5,0-0.7,0
		c0-0.1,0-0.2,0-0.3c0-0.2-0.1-0.4-0.3-0.5c-0.2-0.2-0.4-0.3-0.7-0.5l0,0c-0.9-0.4-2.2-0.7-3.5-0.8c-1.4-0.1-2.9,0.1-4.2,0.4
		c-1.5,0.4-3.1,0.8-4.6,1.2c-1.5,0.4-3.1,0.8-4.7,1.3c-0.2,0.1-0.4,0.1-0.6,0.2c-0.1-0.1-0.3-0.1-0.4-0.2c-0.3-0.2-0.7-0.4-1-0.6
		c-0.1-0.1-0.3-0.1-0.4-0.2C168.3,121.4,168.5,121.4,168.7,121.3z M192.8,124c-1.4-0.1-2.9,0-4.5,0.3c2.6,1.4,5.2,2.7,7.9,4.1
		c1.4-0.5,2.1-1,2.3-1.5c0.2-0.6-0.3-1.3-1.5-1.9C196,124.4,194.5,124.1,192.8,124z M186,130.5c-1.5-0.3-2.8-0.8-3.8-1.3
		c-1.7-0.9-2.3-2-1.7-3c0.5-1,2-1.9,4.7-2.6c2.5-0.7,5.2-0.9,7.8-0.8s5,0.6,6.6,1.5c0.2,0.1,0.5,0.3,0.7,0.4
		c1.2,0.8,1.7,1.6,1.3,2.5c-0.4,0.9-1.7,1.7-4.3,2.5c-0.4,0.1-0.8,0.2-1.3,0.3c-0.2,0-0.4,0.1-0.6,0.1c-0.1-0.1-0.3-0.1-0.4-0.2
		c-3.1-1.6-6.2-3.3-9.3-4.9c-1.2,0.5-1.8,1-2,1.5c-0.3,0.7,0.2,1.3,1.2,1.9c0.7,0.4,1.7,0.7,2.8,1c1,0.2,2,0.3,3,0.3
		c0.2,0,0.5,0,0.7,0c0,0.1,0,0.2-0.1,0.3c0,0.2-0.1,0.5-0.1,0.7c0,0.1-0.1,0.2-0.1,0.3c-0.2,0-0.5,0-0.7,0
		C188.9,131,187.4,130.8,186,130.5z M206,130.8c-1.4-0.1-3,0-4.5,0.4c2.7,1.4,5.4,2.9,8.2,4.3c1.4-0.5,2.1-1,2.3-1.6
		c0.2-0.7-0.4-1.4-1.6-2C209.2,131.3,207.7,130.9,206,130.8z M199.4,137.7c-1.5-0.3-2.9-0.8-3.9-1.3c-1.7-0.9-2.4-2-1.9-3.1
		c0.5-1,2-2,4.6-2.7c2.5-0.7,5.2-1,7.8-0.9s5.1,0.6,6.8,1.5c0.3,0.1,0.5,0.3,0.7,0.4c1.2,0.8,1.8,1.7,1.5,2.6
		c-0.3,0.9-1.6,1.8-4.2,2.6c-0.4,0.1-0.8,0.2-1.3,0.4c-0.2,0.1-0.4,0.1-0.6,0.1c-0.1-0.1-0.3-0.1-0.4-0.2c-3.3-1.7-6.5-3.4-9.7-5.1
		c-1.2,0.5-1.8,1-2,1.6c-0.2,0.7,0.3,1.4,1.4,2c0.7,0.4,1.7,0.7,2.8,1c1,0.2,2.1,0.3,3.1,0.3c0.2,0,0.5,0,0.7,0c0,0.1,0,0.2,0,0.3
		c0,0.2,0,0.5-0.1,0.7c0,0.1,0,0.2-0.1,0.3c-0.2,0-0.5,0-0.7,0C202.4,138.2,200.8,138,199.4,137.7z M221.5,149.9
		c2.2-1.3,4.4-2.6,6.5-3.8s4.2-2.5,6.3-3.7c0.8,0.4,1.6,0.8,2.4,1.2c-1.6,0.9-3.3,1.8-4.9,2.7c-1.7,0.9-3.4,1.9-5.1,2.8
		c1-0.2,1.6-0.3,1.8-0.4c2.4-0.4,4.7-0.8,7-1.1c2.3-0.4,4.6-0.7,6.9-1.1c0.5,0.3,1.1,0.6,1.6,0.8c-0.1,0-0.1,0.1-0.2,0.1
		c-1.9,1.4-3.6,2.5-5.5,3.7c-1.1,0.7-2.3,1.4-3.7,2.4c2.6-0.6,5.1-1.1,7.7-1.6c2.5-0.5,5.1-1,7.6-1.6c0.8,0.4,1.6,0.8,2.4,1.3
		c-3.4,0.6-6.7,1.3-10.1,2c-3.4,0.7-6.9,1.3-10.4,2c-0.7-0.4-1.5-0.8-2.2-1.2c1.4-0.9,2.8-1.8,4.2-2.7s2.7-1.8,4.1-2.6
		c0.3-0.2,0.6-0.4,0.8-0.5l0,0c-0.4,0.1-0.9,0.1-1.6,0.3c-2.2,0.4-4.5,0.8-6.7,1.2c-2.3,0.4-4.5,0.8-6.8,1.2
		c-0.8-0.4-1.5-0.8-2.3-1.2C221.4,149.9,221.5,149.9,221.5,149.9z M263.6,164.7c-0.5-0.3-1.1-0.5-1.7-0.8s-1.2-0.6-1.9-0.8
		c-0.8,0.6-1.5,1.3-2.3,1.9c-0.4,0.3-0.7,0.6-1.1,0.9c0.1,0,0.2,0,0.3-0.1c0.6-0.1,1.1-0.2,1.7-0.3
		C260.4,165.2,262,164.9,263.6,164.7z M246.4,157.1c1.6,0.4,3.2,0.9,4.6,1.3c1.1-0.9,2.1-1.7,3.2-2.6
		C251.6,156.3,249,156.7,246.4,157.1z M237.7,155c1.3,0.3,2.6,0.6,3.9,0.9c2.6-0.4,5.1-0.7,7.6-1.1c2.5-0.4,5-0.7,7.5-1.1
		c0.9,0.5,1.8,0.9,2.7,1.4c-1.6,1.5-3.2,3-4.9,4.5c1.3,0.4,2.5,0.9,3.8,1.4c1.5-1.3,3-2.7,4.4-4c0.9,0.5,1.8,0.9,2.7,1.4
		c-1.4,1.2-2.9,2.4-4.4,3.7c0.8,0.3,1.6,0.7,2.4,1.1c0.8,0.4,1.6,0.8,2.4,1.1c2.8-0.5,5.6-0.9,8.4-1.4c0.9,0.5,1.7,0.9,2.6,1.4
		c-2.8,0.4-5.7,0.9-8.5,1.3c1,0.6,1.9,1.1,2.9,1.7c2.3-0.9,4.5-1.9,6.7-2.8c3.4,1.8,6.9,3.5,10.4,5.4c-1,0.4-2,0.9-3,1.3
		c-2.5-1.3-4.9-2.6-7.4-3.8c-1.4,0.6-2.8,1.2-4.2,1.8c1.9,1.4,3.5,2.9,4.9,4.5c-0.7,0.1-1.4,0.3-2.1,0.4c-1.3-1.4-2.8-2.8-4.5-4.2
		c-1.6,0.7-3.2,1.3-4.8,2c2.5,1.3,5.1,2.7,7.7,4.1c-1,0.5-2.1,0.9-3.1,1.4c-3.6-1.9-7.2-3.9-10.8-5.8c0.2-0.1,0.4-0.2,0.6-0.3
		c2.6-1.1,5.2-2.2,7.8-3.2c-1.1-0.7-2.2-1.4-3.4-2.1c-3.8,0.6-7.7,1.2-11.5,1.8c-0.8-0.4-1.6-0.9-2.4-1.3c0.1,0,0.1-0.1,0.2-0.1
		c1.7-1.5,3.3-3,5-4.4c-1.2-0.5-2.5-0.9-3.7-1.4c-1.6,1.4-3.2,2.9-4.8,4.4c-1.1-0.6-2.2-1.2-3.3-1.8c1.5-1.3,3-2.6,4.5-3.8
		c-2-0.6-4.1-1.2-6.3-1.8c-2.2,0.4-4.4,0.7-6.7,1.1c-1-0.6-2.1-1.1-3.1-1.7c0.4-0.1,0.8-0.1,1.2-0.2c1.2-0.2,2.4-0.3,3.5-0.5
		c-0.7-0.2-1.3-0.3-2-0.5C237,155.5,237.4,155.3,237.7,155z M242.8,167.3c-0.3-0.2-0.6-0.4-1-0.5c-1.6,1.4-3.2,2.9-4.9,4.3
		c-0.7,0.1-1.4,0.2-2.1,0.4c-1.1,0.2-1.9,0.2-2.5-0.1c-0.2-0.1-0.4-0.3-0.5-0.4c-0.4,0.1-0.7,0.2-1.1,0.3c0.2,0.2,0.4,0.3,0.7,0.5
		c1.1,0.6,2.3,0.6,3.9,0.3c2.1-0.4,4.2-0.7,6.3-1.1c2.1-0.3,4.1-0.7,6.2-1c-0.3-0.2-0.6-0.3-0.9-0.5c-2.7,0.5-5.5,1-8.2,1.5l0,0
		C239.9,169.7,241.3,168.5,242.8,167.3z M241.4,166.5c-0.6-0.3-1.1-0.6-1.7-0.9c0.7-0.3,1.4-0.5,2.1-0.8c-0.3-0.2-0.6-0.3-0.9-0.5
		c-0.7,0.3-1.4,0.5-2.1,0.8c-0.4-0.2-0.8-0.4-1.2-0.7c-0.3,0.1-0.6,0.2-0.9,0.3c0.4,0.2,0.8,0.4,1.2,0.7c-1.6,0.6-3.1,1.2-4.7,1.8
		c-1.7,0.6-1.1,1.3-0.5,1.6c0.4,0.2,0.8,0.4,1.2,0.5c0.3-0.1,0.6-0.3,0.9-0.4c-0.4-0.1-0.7-0.2-1-0.3c-0.5-0.3-0.6-0.6,0.5-1
		c1.5-0.6,2.9-1.1,4.4-1.7c0.6,0.3,1.1,0.6,1.7,0.9C240.8,166.8,241.1,166.7,241.4,166.5z M236.4,163.8c-0.3-0.2-0.6-0.3-0.9-0.5
		c-2.5,0.9-5,1.9-7.5,2.9c0.3,0.2,0.6,0.3,0.9,0.5C231.4,165.7,233.9,164.8,236.4,163.8z M239.4,162.9c0.4-0.2,0.5-0.4,0.2-0.6
		c-0.3-0.2-0.9-0.2-1.4,0c-0.4,0.2-0.4,0.5-0.1,0.6C238.4,163,239,163,239.4,162.9z M237.8,160.4c-0.3-0.2-0.6-0.3-0.9-0.5
		c-2,0.7-4,1.5-6,2.2c-2,0.8-4.1,1.5-6.1,2.3c0.3,0.2,0.6,0.3,0.9,0.5c2.1-0.8,4.1-1.5,6.1-2.3C233.8,161.9,235.8,161.2,237.8,160.4
		z M226.5,161.1c-2.1-1.2-4.3-2.1-6.6-1.3c-1.7,0.6-1.2,1.5-0.3,2s2,0.7,3.5,0.6l0,0c-0.4,0.1-0.8,0.3-1.2,0.5
		c0.3,0.1,0.5,0.3,0.8,0.4c0.4-0.2,1-0.5,1.6-0.7c1.1-0.4,2.2-0.8,3.3-1.2c1.9-0.7,1.7-1.6,0.5-2.2c-1-0.5-2.2-0.8-3.3-0.8
		c-0.1,0.2-0.2,0.3-0.2,0.5c0.9,0,1.9,0.2,2.6,0.6c1,0.5,0.9,1.1-0.4,1.5C226.6,161,226.6,161.1,226.5,161.1z M225.6,161.4
		c-0.2,0.1-0.4,0.1-0.6,0.2c-1.3,0.5-3.2,0.6-4.4-0.1c-0.7-0.4-1-0.9,0.1-1.3c1.4-0.5,3.2,0.3,4.6,1
		C225.5,161.3,225.5,161.4,225.6,161.4z M216.1,155.7c1.3-0.4,3.3-0.4,4.4,0.2c1.2,0.6,0.8,1.4-0.6,1.9
		C218.7,157.1,217.4,156.4,216.1,155.7z M220.4,158.4c2.1-0.7,2.8-1.8,1-2.8c-1.6-0.9-4.5-1-6.8-0.2s-2.8,2.1-1.1,3
		c0.9,0.5,2.2,0.8,4.1,0.8c0-0.2,0-0.4,0-0.6c-1,0.1-2.3-0.1-3.2-0.5c-1.2-0.6-0.8-1.6,0.7-2.1c1.6,0.9,3.1,1.7,4.7,2.6
		C220.1,158.5,220.3,158.4,220.4,158.4z M206.9,154.6c0.3,0.1,0.5,0.3,0.8,0.4c1.3-0.5,2.6-0.9,3.9-1.4c2-0.7,3.6-0.6,4.5-0.1
		c0.2,0.1,0.4,0.3,0.5,0.3c0.4-0.1,0.7-0.2,1.1-0.3c-0.1-0.1-0.3-0.2-0.5-0.3c-0.8-0.4-2.1-0.6-3.3-0.5l0,0c0.3-0.1,0.9-0.3,1.2-0.5
		c-0.3-0.1-0.5-0.3-0.8-0.4c-0.5,0.2-1.2,0.5-1.6,0.6C210.9,153.2,208.9,153.9,206.9,154.6z M204.3,140.3c2.7-0.8,5.3-1.7,7.9-2.5
		c2.6-0.8,5.2-1.6,7.7-2.4c0.2-0.1,0.4-0.1,0.6-0.2c0.1,0.1,0.3,0.1,0.4,0.2c0.4,0.2,0.7,0.4,1.1,0.6c0.1,0.1,0.3,0.1,0.4,0.2
		c-0.2,0.1-0.4,0.1-0.6,0.2c-0.3,0.1-0.7,0.2-1,0.3c0.7,0,1.4,0.1,2,0.2c1.4,0.2,2.6,0.6,3.5,1.1l0,0c1.7,0.9,2.4,1.8,2.2,2.8
		c-0.3,0.9-1.5,1.8-3.8,2.6c-1.5,0.5-3,1-4.5,1.5s-3,1-4.6,1.5c-0.2,0.1-0.4,0.1-0.6,0.2c-0.2-0.1-0.3-0.2-0.4-0.2
		c-0.4-0.2-0.8-0.4-1.2-0.6c-0.2-0.1-0.3-0.2-0.4-0.2c0.2-0.1,0.4-0.1,0.6-0.2c1.5-0.5,3-1,4.6-1.5c1.5-0.5,3-1,4.5-1.5l0,0
		c0,0,0,0,0.1,0c1.5-0.5,2.3-1.1,2.5-1.7c0.1-0.6-0.4-1.2-1.5-1.8l0,0c0,0,0,0-0.1,0c-1.1-0.5-2.5-0.8-4-0.9
		c-1.5-0.1-3.2,0.2-4.6,0.6c-1.4,0.5-2.9,0.9-4.4,1.4s-2.9,0.9-4.4,1.4c-0.2,0.1-0.4,0.1-0.6,0.2c-0.2-0.1-0.3-0.2-0.4-0.2
		c-0.4-0.2-0.8-0.4-1.1-0.6c-0.2-0.1-0.3-0.2-0.4-0.2C203.9,140.5,204.1,140.4,204.3,140.3z"/>
</g>
<g>
	<path d="M2502.1,1353.2c-4.1,3.2-8.2,6.5-12.3,9.7c-4.2,3.3-8.5,6.7-12.8,10.1c-3.3-1.6-6.5-3.1-9.7-4.7c4.4-3.4,8.7-6.7,12.9-10
		c4.2-3.2,8.4-6.5,12.4-9.6C2495.8,1350.2,2499,1351.7,2502.1,1353.2 M2510.3,1372.3c0.7,1.2,1.3,2.5,1.8,3.7
		c1.5,3.8,1.8,7.8,0.8,11.5c-1,3.8-3.3,7.4-7,10.7c-3.8,3.3-8.7,5.8-14.3,7.6c-5.7,1.8-12,2.8-18.7,3.1l0,0
		c-6.7,0.2-13.7-0.4-20.5-1.8s-13.4-3.6-19.5-6.7c-6-3-10.8-6.6-14.4-10.4c-3.5-3.8-5.8-7.8-6.8-11.7c-1-3.9-0.7-7.9,0.9-11.5
		c1.6-3.6,4.4-7,8.6-9.9c4.1-2.9,9.1-5.1,14.6-6.5c5.5-1.5,11.5-2.2,17.7-2.3l0,0l0,0c1.9,0,3.9,0,5.8,0.1c0.1,2.1,0.3,4.3,0.4,6.5
		c-1.4-0.1-2.8-0.1-4.2-0.1l0,0c-9.6,0.1-18.6,2.5-24.8,7c-6.3,4.6-8.6,10.6-7,16.6c0.8,3,2.6,6.1,5.3,8.9c2.7,2.9,6.4,5.6,11,7.9
		s9.7,4,14.8,5.1c5.2,1.1,10.5,1.5,15.6,1.4c10.1-0.3,19.3-3.1,25.3-8c5.8-4.9,7.3-11,5.1-17c-0.3-0.8-0.7-1.7-1.1-2.5
		C2503.2,1373.3,2506.8,1372.8,2510.3,1372.3z"/>
</g>
<g>
	<path d="M2727.8,1604c0.3-3.3,1.3-6.9,2.8-10.6c1.2-2.9,2.7-5.7,4.4-8.3c1.7-2.6,3.7-5,5.7-6.9c2.6-2.4,5-3.8,7.1-4.4
		c2.2-0.6,4.1-0.2,5.5,0.9c-0.7,1.5-1.3,3-2,4.4c-1.1-0.9-2.6-1.1-4.3-0.6s-3.7,1.7-5.8,3.7c-3.4,3.2-6.2,7.6-8.1,12.1
		c-0.9,2.2-1.6,4.4-1.9,6.5c1.3-1.2,2.7-2.4,4-3.6c-0.8,3.1-1.5,6.2-2.3,9.2c-0.7,3-1.5,6-2.2,8.9c-1.2-1.1-2.4-2.3-3.6-3.5
		c-1.3-1.2-2.6-2.5-3.9-3.8c0.9-0.8,1.8-1.6,2.7-2.4C2726.6,1605.1,2727.2,1604.6,2727.8,1604 M2755.4,1588
		c-0.7,3.2-1.8,6.5-3.4,9.8c-1,2.1-2.2,4.1-3.5,6.1c-1.3,1.9-2.7,3.7-4.3,5.4c-2,2.1-4,3.6-5.9,4.7c-2,1.1-3.9,1.5-5.5,1.3
		c0.6-1.5,1.2-2.9,1.7-4.4c1.3,0.2,2.8-0.1,4.4-0.9c1.5-0.8,3.2-2.1,4.9-3.8c2.6-2.7,4.8-6,6.4-9.4c0.8-1.8,1.5-3.5,2.1-5.3
		c-0.8,0.9-1.6,1.8-2.4,2.7c0.6-2.8,1.1-5.6,1.7-8.4c0.6-2.9,1.2-5.8,1.8-8.8c1.1,1.2,2.1,2.4,3.2,3.6c1,1.1,2,2.2,2.9,3.3
		c-0.7,0.8-1.4,1.5-2.1,2.3C2756.7,1586.6,2756.1,1587.3,2755.4,1588z"/>
</g>
</svg>
